<?xml version="1.0" encoding="UTF-8"?>
<svg id="Layer_2" data-name="Layer 2" xmlns="http://www.w3.org/2000/svg" viewBox="0 0 298.19 308.94">
  <defs>
    <style>
      .cls-1 {
        fill: #fcb614;
      }
    </style>
  </defs>
  <g id="Layer_2-2" data-name="Layer 2">
    <g>
      <path class="cls-1" d="M8.62,195.04h0s0,0,0,0h0ZM298.19,199.35c0-13.05-2.43-29.95-12.74-43.92-10.02-13.5-35.03-33.03-57.7-49.45-19.91-14.4-37.92-26.25-42-28.92,0-8.43,0-18.08,0-24.49.07-6.71-3.42-10.8-7.1-12.77.04-.38.06-.77.09-1.16,3.39-3.25,5.5-7.81,5.5-12.87,0-9.84-7.97-17.81-17.81-17.82-1,0-1.98.09-2.94.25-.76-2.98-3-6.46-9-8.21,0,0-.76,3.79.76,4.55.72.36.88,1.92.85,3.46-2.2-.52-4.5-.81-6.86-.81-.04,0-.09,0-.12,0-.04,0-.09,0-.13,0-2.63,0-5.18.35-7.61,1-.04-1.6.1-3.27.85-3.65,1.51-.76.75-4.55.75-4.55-6,1.74-8.24,5.22-9,8.21-.96-.16-1.94-.25-2.94-.25-9.84,0-17.81,7.98-17.81,17.82,0,5.45,2.46,10.33,6.31,13.6.01.14.01.29.03.43-3.68,1.96-7.17,6.05-7.1,12.76v24.5c-4.07,2.66-22.09,14.52-42,28.92-22.67,16.42-47.69,35.95-57.7,49.45C2.43,169.4,0,186.3,0,199.35c0,3.78.21,7.24.49,10.23-.03.06-.05.1-.05.1l.06.03c.64,6.65,1.67,10.91,1.69,10.98l.64,2.65,2.26-1.53s25.97-17.58,54.13-37.08c-11.37,15.05-10.58,30.83-10.58,30.83l4.55-3.03-3.29,5.43s13.27-6.82,41.32-31.84c.07-.06.14-.13.21-.19,1.97,17.35,10.14,45.25,39.51,68.84,3.35,3.75,8.22,9.18,12.59,13.99l5.69,40.18,5.69-40.18c4.37-4.81,9.25-10.24,12.59-13.99,29.25-23.49,37.47-51.27,39.49-68.63,28.04,25.01,41.3,31.83,41.3,31.83l-3.28-5.43,4.55,3.03s.79-15.79-10.59-30.83c28.17,19.5,54.13,37.07,54.13,37.08l2.26,1.53.64-2.65c.01-.07,1.05-4.32,1.69-10.98l.06-.03s-.02-.04-.05-.1c.29-2.99.49-6.45.49-10.23ZM200.92,141.43c-2.19-3.08-4.56-6.42-6.65-9.4l-2.62-16.68,16.78,8.77c1.51,1.99,3.13,4.12,4.81,6.28,6.05,7.76,12.62,15.77,16.42,18.45,6.52,4.57,17.37,12.03,19.38,13.42.88,1.99,1.88,4.22,2.93,6.5,1.71,3.7,3.56,7.54,5.27,10.74.28.53.56,1.03.83,1.51-8.02-6.9-13.23-8.95-26.1-15.89-6.74-3.64-15.57-8.59-23.51-13.1h0s-3.47-4.86-7.55-10.59ZM89.73,152.02c-7.94,4.5-16.77,9.46-23.51,13.1-12.87,6.94-18.08,8.99-26.1,15.89.27-.49.55-.99.83-1.52,2.76-5.15,5.89-12,8.2-17.23,2.02-1.39,12.87-8.85,19.39-13.43,3.79-2.68,10.37-10.68,16.41-18.45,1.68-2.16,3.31-4.29,4.81-6.28l16.78-8.77-2.62,16.68c-2.09,2.98-4.46,6.32-6.65,9.4-4.07,5.73-7.54,10.57-7.55,10.58h.01ZM92.05,102.36l-5.86,1.12c6.69-4.6,12.95-8.82,17.86-12.1,3.7-2.47,6.62-4.4,8.4-5.57v2.67l-20.4,13.89ZM112.45,90.31v3.04l-24.25,16.87,3.95-6.1,20.3-13.82ZM90.27,104.24l-5.36,8.27-8.57,5.97-.02-.04s-8.24,2.95-17.11,7.04c-3.68,1.72-7.46,3.6-10.83,5.56,8.22-6.71,20.5-15.57,32.23-23.71.83-.58,1.66-1.15,2.49-1.72l7.17-1.37ZM59.84,126.86c5.58-2.58,10.9-4.69,14.06-5.9-2.63,3.01-7.41,8.87-12.63,17.12-3.91,6.18-6.75,10.44-8.61,13.15-.76,1.11-1.35,1.95-1.79,2.56-2.65,1.28-13.55,6.55-21.64,11.17.62-1.75,1.68-4.69,2.98-8.07,2.09-5.45,4.81-12.04,7.24-16.52,2.18-4.16,11.61-9.49,20.39-13.51ZM52.5,154.48l.37-.88c1.77-2.53,4.94-7.21,9.68-14.7,3.9-6.16,7.55-10.97,10.21-14.24,2.04-2.49,3.49-4.07,4.07-4.68l32.86-22.87c-4.58,5.37-11.83,13.87-13.37,15.75-1.18,1.44-6.55,8.86-12.57,16.6-5.98,7.71-12.67,15.76-16.09,18.14-5.28,3.71-13.4,9.3-17.36,12.03,1.34-3.08,2.2-5.14,2.2-5.15ZM105.37,132.6h0c1.26-1.8,2.42-3.46,3.36-4.84h0c.33-.5.65-.95.93-1.36,2.4-3.53,7.8-11.4,12.6-18.38,1.84-2.68,3.59-5.22,5.05-7.34-1.47,4.24-3.18,8.75-5.17,13.35-4.24,9.82-9.74,20.03-16.7,29.01-2.85,1.64-6.91,3.97-11.54,6.6-.35.2-.71.4-1.07.61,2.83-3.95,8.28-11.59,12.53-17.65ZM134.25,75.63c-.02.08-.03.15-.05.23-.5,2.44-1.4,6.45-2.76,11.48l-6.75,7.37c3.46-6.15,7.68-15.04,9.57-19.09ZM125.65,89.73c.53-1.53.83-3.33.82-5.45v-7.07c.05-.22.23-.9.83-1.48.63-.59,1.72-1.28,4.22-1.3h1.62c-.92,1.97-2.6,5.55-4.52,9.44-.95,1.93-1.96,3.94-2.97,5.87ZM144.29,112.78l.38,1.9,1.14-1.52,1.14,2.65.75-3.22,1.52,4.36,1.51-4.36.76,3.22,1.14-2.65,1.14,1.52.38-1.9,1.33,2.46v-3.98l2.84,3.98.38-1.71.95,1.71,1.14-2.27,1.52,3.41.76-1.9,1.52,4.36.56-3.22.95,4.17,1.9-3.41,2.66,3.41.38-2.46.95,2.84.19-3.6.65.44c1.13,4.11,2.43,8.5,3.87,13-14.39-6.66-27.46-6.31-27.46-6.31,0,0-13.24-.36-27.76,6.45,1.45-4.48,2.73-8.84,3.86-12.93l.96-.65.19,3.6.95-2.84.38,2.46,2.66-3.41,1.89,3.41.95-4.17.56,3.22,1.52-4.36.76,1.9,1.51-3.41,1.14,2.27.95-1.71.38,1.71,2.84-3.98v3.98l1.33-2.46ZM172.53,89.73c-1-1.92-2.02-3.93-2.97-5.87-1.92-3.89-3.61-7.47-4.51-9.44h1.61c2.86.03,3.88.9,4.46,1.57.28.35.44.7.52.96.03.12.06.21.07.26v7.07c-.01,2.12.29,3.92.82,5.45ZM173.5,94.71l-6.75-7.37c-.41-1.49-.78-2.91-1.1-4.21-.76-3.07-1.31-5.56-1.66-7.27-.02-.09-.03-.16-.05-.24,1.89,4.04,6.11,12.93,9.57,19.08ZM177.98,101.85l.03-.02c1.93,3.32,4.44,8.85,6.58,13.91.85,1.99,1.64,3.91,2.33,5.61-5.46-7.97-14.71-21.41-17.74-25.81-.54-1.72-1.04-3.37-1.5-4.95l10.31,11.26ZM130.52,90.58c-.46,1.58-.96,3.23-1.5,4.95-3.03,4.4-12.29,17.84-17.74,25.81.69-1.7,1.48-3.62,2.33-5.61,2.14-5.06,4.65-10.59,6.58-13.91l.03.02,10.31-11.26ZM116.41,144.48c4.16-2.84,15.46-9.24,32.81-9.24s28.06,6.07,32.47,9.01c2.11,5.46,4.44,10.88,7.02,16.03-21.21-8.65-39.49-8.15-39.49-8.15,0,0-18.46-.5-39.8,8.28,2.56-5.13,4.89-10.51,6.99-15.94ZM173.17,106.98c-.83-2.15-1.59-4.25-2.3-6.29,1.46,2.12,3.21,4.66,5.05,7.33,4.8,6.98,10.2,14.85,12.6,18.38.28.41.6.87.93,1.36h0c.95,1.38,2.11,3.04,3.37,4.84h0c4.25,6.05,9.7,13.7,12.52,17.65-.36-.21-.72-.41-1.07-.61-4.64-2.64-8.72-4.98-11.56-6.62-8.63-11.16-15.02-24.24-19.54-36.05ZM230.53,147.6c-3.41-2.37-10.1-10.42-16.09-18.14-6.02-7.74-11.39-15.16-12.57-16.6-1.54-1.88-8.79-10.38-13.37-15.75l32.88,22.87c.58.61,2.02,2.19,4.06,4.68,2.67,3.27,6.31,8.08,10.21,14.24,4.75,7.5,7.92,12.17,9.68,14.7l.37.88s.86,2.07,2.2,5.15c-3.96-2.73-12.08-8.32-17.36-12.03ZM213.29,112.51l-5.37-8.27,7.18,1.37c5.16,3.57,10.49,7.3,15.59,10.97,7.21,5.18,13.97,10.25,19.13,14.47-3.37-1.97-7.15-3.85-10.83-5.57-8.87-4.09-17.09-7.04-17.1-7.04l-.02.04-8.57-5.97ZM245.53,151.23c-1.86-2.71-4.7-6.96-8.61-13.15-5.22-8.26-10-14.11-12.63-17.12,3.15,1.21,8.48,3.32,14.06,5.9,8.78,4.01,18.21,9.35,20.39,13.51,2.43,4.49,5.15,11.08,7.24,16.53,1.3,3.38,2.36,6.32,2.98,8.07-8.09-4.62-18.99-9.89-21.64-11.17-.44-.62-1.03-1.45-1.79-2.56ZM260.07,139.64s-.06-.09-.08-.13l5.84,1.75c4.03,4.36,8.42,9.66,11.89,15.31,7.47,12.19,7.05,20.19,8.24,27.19-2.77-5.37-6.17-11.22-9.32-13.85-1.28-1.05-3.29-2.36-5.66-3.77-.22-.63-6.01-17.46-10.91-26.5ZM185.74,81.6c2.24,1.48,5.67,3.75,9.96,6.65,11.79,7.95,29.93,20.51,46.9,33.5,6.91,5.28,13.64,10.66,19.66,15.81.16.16.33.32.49.49.32.32.66.67.98,1.01l-4.45-1.34c-5.38-6.37-23.63-19.66-40.83-31.62-.9-.62-1.8-1.25-2.69-1.87v-.03s-.07-.01-.07-.01c-13.76-9.51-26.27-17.77-29.96-20.2v-2.39ZM185.74,85.81c1.78,1.17,4.7,3.1,8.4,5.57,4.91,3.28,11.17,7.5,17.86,12.1l-5.86-1.12-20.39-13.88v-2.67ZM206.04,104.12l3.95,6.1-24.25-16.88v-3.04l20.3,13.82ZM184.21,96.37l1.43-.28c1.45,1.7,3.49,4.09,5.62,6.59,4,4.7,8.31,9.76,9.43,11.14.64.78,2.76,3.67,5.62,7.47l-15.05-7.87-7.12-17.04s.06-.01.07-.02ZM182.56,96.53l7.37,17.65,2.35,15.01c-.53-.76-1.03-1.49-1.48-2.14-.37-.95-2.38-6.14-4.83-11.91-2.72-6.4-5.91-13.41-8.1-16.29-.95-1.23-2.23-3.36-3.61-5.88.43.54.9,1.03,1.41,1.43,2.31,1.82,4.92,2.13,6.59,2.14.1,0,.2,0,.29,0ZM161.11,12.8c.85-.35,1.74-.61,2.67-.79.36-.07.72-.13,1.08-.17.07,0,.15-.01.22-.02.44-.04.88-.07,1.33-.07,7.75.01,14.01,6.28,14.02,14.02,0,2.57-.71,4.97-1.91,7.04-.07.12-.14.23-.21.34-1.23,1.98-2.93,3.63-4.95,4.78-1.89-.38-3.39-.4-3.97-.41-.1,0-.17,0-.22,0h-10.39c-3.84-2.5-6.39-6.82-6.4-11.75,0-5.87,3.61-10.88,8.73-12.98ZM119.55,33.81c-1.6-2.28-2.54-5.04-2.55-8.04.01-7.75,6.28-14.01,14.02-14.02.66,0,1.32.06,1.95.15.07.01.13.02.2.03.15.02.32.04.47.07.93.18,1.82.44,2.67.79,5.11,2.09,8.72,7.11,8.73,12.98,0,4.93-2.55,9.25-6.39,11.75h-9.61s-.13,0-.24,0c-.65,0-2.39.04-4.54.53-1.77-.97-3.3-2.33-4.49-3.94-.08-.1-.15-.2-.23-.31ZM116.24,52.56c.06-4.67,1.78-7.13,4.02-8.72.07-.05.15-.1.22-.15.41-.28.84-.54,1.29-.77.69-.35,1.4-.62,2.09-.83,2.28-.7,4.39-.78,4.94-.77.1,0,.12,0,.12,0h40.34s.02,0,.12,0c.51,0,2.38.06,4.48.64.84.23,1.71.55,2.56.97.45.23.88.49,1.29.77.07.05.15.1.22.15,2.24,1.59,3.96,4.05,4.02,8.72v40.17c-1.17-.04-2.72-.34-3.91-1.3-1.28-1.05-2.51-2.91-2.54-7.15v-7.36c-.03-.22-.16-1.72-1.43-3.31-1.26-1.6-3.71-3.01-7.41-2.98h-35.14c-3.71-.03-6.16,1.38-7.42,2.98-1.26,1.58-1.4,3.09-1.42,3.31v.07s0,7.29,0,7.29c-.03,4.24-1.26,6.11-2.54,7.16-1.19.96-2.74,1.26-3.91,1.3v-40.18ZM115.92,96.54c1.67,0,4.27-.31,6.59-2.14.51-.4.98-.88,1.41-1.43-1.38,2.52-2.66,4.65-3.61,5.89-2.2,2.88-5.38,9.9-8.1,16.29-2.45,5.76-4.45,10.94-4.83,11.9-.45.66-.95,1.38-1.48,2.14l2.35-15.01,7.38-17.65c.1,0,.19,0,.29,0ZM112.55,96.09l1.43.28s.03,0,.07.01l-7.12,17.04-15.05,7.86c2.85-3.81,4.97-6.69,5.61-7.47,1.12-1.37,5.43-6.44,9.44-11.14,2.13-2.5,4.17-4.89,5.62-6.59ZM35.44,138.04c.15-.16.3-.31.46-.47,10.94-9.37,24.24-19.48,36.77-28.53,11.28-8.16,21.96-15.51,29.82-20.81,4.28-2.9,7.72-5.17,9.96-6.65v2.39c-3.69,2.43-16.19,10.68-29.96,20.2h-.07s0,.04,0,.04c-.89.62-1.79,1.24-2.69,1.87-17.2,11.96-35.45,25.25-40.83,31.62l-4.45,1.34c.33-.34.66-.68.98-1.01ZM38.2,139.51s-.06.09-.09.13c-4.89,9.04-10.69,25.87-10.91,26.49-2.37,1.41-4.38,2.71-5.65,3.77-3.15,2.63-6.55,8.49-9.32,13.86,1.18-7,.76-14.99,8.24-27.19,3.47-5.65,7.85-10.95,11.89-15.31l5.84-1.75ZM3.79,199.35c0-12.6,2.4-28.69,12-41.66,2.28-3.1,5.5-6.61,9.39-10.39-2.12,2.68-4.18,5.53-6,8.49-8.95,14.56-6.96,23.73-9.18,31.01-1.12,3.72-3.51,9.47-5.62,14.25-.19.42-.37.83-.55,1.24-.03-.95-.04-1.93-.04-2.94ZM11.24,213.06c-2.5,1.7-4.5,3.06-5.91,4.02-.44-2.47-1.04-6.48-1.34-11.44,1.33-2.93,3.07-6.85,4.61-10.61h.02s2.02-4.8,4.76-10.18c2.74-5.4,6.31-11.45,9.15-13.78,2.9-2.41,10.36-6.51,17.02-9.94,4.43-2.29,8.53-4.3,10.78-5.39-1.07,2.52-3.14,7.33-5.48,12.38-1.7,3.69-3.54,7.51-5.23,10.66-1.58,2.97-3.07,5.36-4.05,6.39-.52.5-1.05,1.01-1.61,1.55-11.18,10.95-17.44,21.66-18.44,23.42-1.55,1.06-2.98,2.03-4.28,2.92ZM88.61,159.56c-18.18,12.88-39.59,27.66-56.46,39.21-5.01,3.44-9.62,6.58-13.62,9.31,2.66-4.2,8.21-12.18,16.49-20.29.49-.48.96-.93,1.43-1.38h0s.1-.1.15-.15c10.87-10.39,15.08-11.59,30.35-19.83,10.67-5.76,26.54-14.8,35.87-20.14-4.23,5-8.94,9.54-14.2,13.26ZM170.51,247.22c-5.77-12.95-21.29-12.95-21.29-12.95,0,0-15.52,0-21.29,12.95-10.16-9.19-17.26-18.84-22.2-28.1,5.14-3.59,20.15-12.4,43.49-12.4s38.34,8.81,43.49,12.4c-4.94,9.26-12.04,18.91-22.2,28.1ZM198.06,207.19c-23.16-16.34-48.84-15.64-48.84-15.64,0,0-25.69-.7-48.84,15.64-2.85-7.75-4.33-14.89-5.06-20.82,5.18-3.8,23.88-15.78,53.9-15.78s48.73,11.97,53.9,15.77c-.73,5.93-2.2,13.07-5.06,20.82ZM209.58,159.56c-5.27-3.73-10-8.26-14.23-13.27,9.32,5.35,25.21,14.4,35.9,20.16,15.27,8.24,19.47,9.45,30.34,19.83.05.05.1.11.15.16h.01c.46.43.93.89,1.42,1.37,6.03,5.9,10.61,11.74,13.68,16.1,1.15,1.63,2.09,3.05,2.81,4.19-17.48-11.92-46.49-31.82-70.08-48.53ZM293.35,214.05c-.17,1.17-.34,2.19-.49,3.02-1.41-.96-3.41-2.32-5.91-4.02-1.29-.88-2.74-1.86-4.28-2.91-1-1.76-7.25-12.47-18.44-23.43-.56-.54-1.09-1.06-1.61-1.56-.98-1.03-2.46-3.41-4.04-6.38-2.52-4.73-5.41-10.96-7.64-15.99-1.3-2.92-2.38-5.44-3.06-7.04,2.25,1.09,6.34,3.1,10.78,5.39,6.66,3.43,14.12,7.53,17.02,9.94,2.83,2.33,6.4,8.38,9.14,13.77,2.76,5.41,4.76,10.19,4.76,10.19h.03c1.53,3.75,3.27,7.67,4.61,10.6-.2,3.27-.53,6.13-.86,8.41ZM294.35,202.27c-.18-.4-.36-.81-.54-1.23-2.11-4.79-4.51-10.53-5.62-14.25-2.22-7.28-.23-16.45-9.18-31.01-1.81-2.96-3.87-5.81-5.99-8.48,3.89,3.79,7.11,7.3,9.38,10.39,9.6,12.97,12.01,29.06,12,41.66,0,1-.02,1.97-.05,2.93Z"/>
      <path class="cls-1" d="M58.4,253.83v-13.86l-12.01-6.93-12.01,6.93v13.86l12.01,6.93,12.01-6.93ZM58.4,253.84l-12.01,6.93-12.01-6.93-12.01,6.93v13.86l12.01,6.93,12.01-6.93,12.01,6.93,12.01-6.93v-13.86l-12.01-6.93Z"/>
      <path class="cls-1" d="M264.06,48.18v-13.86l-12.01-6.93-12.01,6.93v13.86l12.01,6.93,12.01-6.93ZM264.06,48.18l-12.01,6.93-12.01-6.93-12.01,6.93v13.86l12.01,6.93,12.01-6.93,12.01,6.93,12.01-6.93v-13.86l-12.01-6.93Z"/>
      <path class="cls-1" d="M252.05,260.77l12.01-6.93v-13.86s-12.01-6.93-12.01-6.93l-12.01,6.93v13.86s12.01,6.93,12.01,6.93ZM228.04,260.77v13.86s12.01,6.93,12.01,6.93l12.01-6.93,12.01,6.93,12.01-6.93v-13.86s-12.01-6.93-12.01-6.93l-12.01,6.93-12.01-6.93-12.01,6.93Z"/>
      <path class="cls-1" d="M46.39,55.11l12.01-6.93v-13.86s-12.01-6.93-12.01-6.93l-12.01,6.93v13.86s12.01,6.93,12.01,6.93ZM22.38,55.11v13.86s12.01,6.93,12.01,6.93l12.01-6.93,12.01,6.93,12.01-6.93v-13.86s-12.01-6.93-12.01-6.93l-12.01,6.93-12.01-6.93-12.01,6.93Z"/>
    </g>
  </g>
</svg>