<svg width="32" height="32" viewBox="0 0 32 32" fill="none" xmlns="http://www.w3.org/2000/svg">
  <path d="M16 8C19.3137 8 22 10.6863 22 14C22 17.3137 19.3137 20 16 20C12.6863 20 10 17.3137 10 14C10 10.6863 12.6863 8 16 8Z" fill="white"/>
  <path d="M24 13C24.5523 13 25 13.4477 25 14C25 14.5523 24.5523 15 24 15C23.4477 15 23 14.5523 23 14C23 13.4477 23.4477 13 24 13Z" fill="white"/>
  <path d="M8 13C8.55228 13 9 13.4477 9 14C9 14.5523 8.55228 15 8 15C7.44772 15 7 14.5523 7 14C7 13.4477 7.44772 13 8 13Z" fill="white"/>
  <path d="M16 6C16.5523 6 17 6.44772 17 7C17 7.55228 16.5523 8 16 8C15.4477 8 15 7.55228 15 7C15 6.44772 15.4477 6 16 6Z" fill="white"/>
  <path d="M16 20C16.5523 20 17 20.4477 17 21C17 21.5523 16.5523 22 16 22C15.4477 22 15 21.5523 15 21C15 20.4477 15.4477 20 16 20Z" fill="white"/>
  <path d="M20 10L23 7M13 10L10 7M20 18L23 21M13 18L10 21" stroke="white" stroke-width="2" stroke-linecap="round"/>
</svg> 