<?xml version="1.0" encoding="utf-8"?>
<!-- Generator: Adobe Illustrator 24.2.3, SVG Export Plug-In . SVG Version: 6.00 Build 0)  -->
<svg version="1.1" id="_x31_2" xmlns="http://www.w3.org/2000/svg" xmlns:xlink="http://www.w3.org/1999/xlink" x="0px" y="0px"
	 viewBox="0 0 128 128" style="enable-background:new 0 0 128 128;" xml:space="preserve">
<g>
	<g>
		<g>
			<g>
				<g>
					<path d="M32.239,48c-0.346,0-0.682-0.179-0.867-0.5L30.506,46h-1.732c-0.552,0-1-0.447-1-1s0.448-1,1-1h2.31
						c0.357,0,0.688,0.19,0.866,0.5l1.155,2c0.276,0.479,0.112,1.09-0.366,1.366C32.581,47.957,32.408,48,32.239,48z"/>
				</g>
			</g>
			<g>
				<g>
					<path d="M53.023,48c-0.346,0-0.682-0.179-0.867-0.5L51.291,46h-1.732c-0.552,0-1-0.447-1-1s0.448-1,1-1h2.31
						c0.357,0,0.688,0.19,0.866,0.5l1.155,2c0.276,0.479,0.112,1.09-0.366,1.366C53.365,47.957,53.193,48,53.023,48z"/>
				</g>
			</g>
			<g>
				<g>
					<path d="M73.808,48c-0.346,0-0.682-0.179-0.867-0.5L72.075,46h-1.732c-0.552,0-1-0.447-1-1s0.448-1,1-1h2.31
						c0.357,0,0.688,0.19,0.866,0.5l1.155,2c0.276,0.479,0.112,1.09-0.366,1.366C74.15,47.957,73.978,48,73.808,48z"/>
				</g>
			</g>
			<g>
				<g>
					<path d="M84.201,54c-0.346,0-0.683-0.18-0.868-0.502l-0.27-0.47c-0.275-0.479-0.11-1.09,0.369-1.365
						c0.479-0.274,1.09-0.11,1.366,0.369l0.27,0.47c0.275,0.479,0.11,1.09-0.369,1.365C84.542,53.957,84.37,54,84.201,54z"/>
				</g>
			</g>
			<g>
				<g>
					<path d="M94.593,48c-0.346,0-0.682-0.179-0.867-0.5L92.86,46h-1.732c-0.552,0-1-0.447-1-1s0.448-1,1-1h2.31
						c0.357,0,0.688,0.19,0.866,0.5l1.155,2c0.276,0.479,0.112,1.09-0.366,1.366C94.935,47.957,94.762,48,94.593,48z"/>
				</g>
			</g>
			<g>
				<g>
					<path d="M32.239,60c-0.346,0-0.682-0.179-0.867-0.5L30.506,58h-1.732c-0.552,0-1-0.447-1-1s0.448-1,1-1h2.31
						c0.357,0,0.688,0.19,0.866,0.5l1.155,2c0.276,0.479,0.112,1.09-0.366,1.366C32.581,59.957,32.408,60,32.239,60z"/>
				</g>
			</g>
			<g>
				<g>
					<path d="M42.05,64.995c-0.405,0-0.754-0.238-0.911-0.583L40.902,64H39.17c-0.552,0-1-0.447-1-1s0.448-1,1-1h2.31
						c0.358,0,0.688,0.191,0.867,0.501l0.57,0.99c0.087,0.152,0.133,0.324,0.133,0.499C43.05,64.543,42.602,64.995,42.05,64.995z"/>
				</g>
			</g>
			<g>
				<g>
					<path d="M84.201,66c-0.345,0-0.681-0.179-0.866-0.498L82.464,64H82c-0.552,0-1-0.447-1-1s0.448-1,1-1h1.04
						c0.356,0,0.686,0.189,0.865,0.498l1.16,2c0.277,0.478,0.114,1.09-0.363,1.367C84.544,65.957,84.372,66,84.201,66z"/>
				</g>
			</g>
			<g>
				<g>
					<path d="M94.593,60c-0.346,0-0.682-0.179-0.867-0.5L92.86,58h-1.732c-0.552,0-1-0.447-1-1s0.448-1,1-1h2.31
						c0.357,0,0.688,0.19,0.866,0.5l1.155,2c0.276,0.479,0.112,1.09-0.366,1.366C94.935,59.957,94.762,60,94.593,60z"/>
				</g>
			</g>
			<g>
				<g>
					<path d="M32.239,72c-0.346,0-0.682-0.179-0.867-0.5L30.506,70h-1.732c-0.552,0-1-0.447-1-1s0.448-1,1-1h2.31
						c0.357,0,0.688,0.19,0.866,0.5l1.155,2c0.276,0.479,0.112,1.09-0.366,1.366C32.581,71.957,32.408,72,32.239,72z"/>
				</g>
			</g>
			<g>
				<g>
					<path d="M42.631,78c-0.346,0-0.682-0.179-0.867-0.5L40.898,76h-1.732c-0.552,0-1-0.447-1-1s0.448-1,1-1h2.31
						c0.357,0,0.688,0.19,0.866,0.5l1.155,2c0.276,0.479,0.112,1.09-0.366,1.366C42.973,77.957,42.8,78,42.631,78z"/>
				</g>
			</g>
			<g>
				<g>
					<path d="M63.416,78c-0.346,0-0.682-0.179-0.867-0.5L61.683,76H59.95c-0.552,0-1-0.447-1-1s0.448-1,1-1h2.31
						c0.357,0,0.688,0.19,0.866,0.5l1.155,2c0.276,0.479,0.112,1.09-0.366,1.366C63.757,77.957,63.585,78,63.416,78z"/>
				</g>
			</g>
			<g>
				<g>
					<path d="M53.023,72c-0.346,0-0.682-0.179-0.867-0.5L51.291,70h-1.732c-0.552,0-1-0.447-1-1s0.448-1,1-1h2.31
						c0.357,0,0.688,0.19,0.866,0.5l1.155,2c0.276,0.479,0.112,1.09-0.366,1.366C53.365,71.957,53.193,72,53.023,72z"/>
				</g>
			</g>
			<g>
				<g>
					<path d="M73.808,72c-0.346,0-0.682-0.179-0.867-0.5L72.075,70h-1.732c-0.552,0-1-0.447-1-1s0.448-1,1-1h2.31
						c0.357,0,0.688,0.19,0.866,0.5l1.155,2c0.276,0.479,0.112,1.09-0.366,1.366C74.15,71.957,73.978,72,73.808,72z"/>
				</g>
			</g>
			<g>
				<g>
					<path d="M84.2,78c-0.346,0-0.682-0.179-0.867-0.5L82.467,76h-1.732c-0.552,0-1-0.447-1-1s0.448-1,1-1h2.31
						c0.357,0,0.688,0.19,0.866,0.5l1.155,2c0.276,0.479,0.112,1.09-0.366,1.366C84.542,77.957,84.37,78,84.2,78z"/>
				</g>
			</g>
			<g>
				<g>
					<path d="M94.593,72c-0.346,0-0.682-0.179-0.867-0.5L92.86,70h-1.732c-0.552,0-1-0.447-1-1s0.448-1,1-1h2.31
						c0.357,0,0.688,0.19,0.866,0.5l1.155,2c0.276,0.479,0.112,1.09-0.366,1.366C94.935,71.957,94.762,72,94.593,72z"/>
				</g>
			</g>
			<g>
				<g>
					<path d="M32.239,84c-0.346,0-0.682-0.179-0.867-0.5L30.506,82h-1.732c-0.552,0-1-0.447-1-1s0.448-1,1-1h2.31
						c0.357,0,0.688,0.19,0.866,0.5l1.155,2c0.276,0.479,0.112,1.09-0.366,1.366C32.581,83.957,32.408,84,32.239,84z"/>
				</g>
			</g>
			<g>
				<g>
					<path d="M53.023,84c-0.346,0-0.682-0.179-0.867-0.5L51.291,82h-1.732c-0.552,0-1-0.447-1-1s0.448-1,1-1h2.31
						c0.357,0,0.688,0.19,0.866,0.5l1.155,2c0.276,0.479,0.112,1.09-0.366,1.366C53.365,83.957,53.193,84,53.023,84z"/>
				</g>
			</g>
			<g>
				<g>
					<path d="M73.808,84c-0.346,0-0.682-0.179-0.867-0.5L72.075,82h-1.732c-0.552,0-1-0.447-1-1s0.448-1,1-1h2.31
						c0.357,0,0.688,0.19,0.866,0.5l1.155,2c0.276,0.479,0.112,1.09-0.366,1.366C74.15,83.957,73.978,84,73.808,84z"/>
				</g>
			</g>
			<g>
				<g>
					<path d="M94.593,84c-0.346,0-0.682-0.179-0.867-0.5L92.86,82h-1.732c-0.552,0-1-0.447-1-1s0.448-1,1-1h2.31
						c0.357,0,0.688,0.19,0.866,0.5l1.155,2c0.276,0.479,0.112,1.09-0.366,1.366C94.935,83.957,94.762,84,94.593,84z"/>
				</g>
			</g>
		</g>
		<g>
			<g>
				<g>
					<path d="M35.129,51c-0.169,0-0.341-0.043-0.499-0.134c-0.479-0.275-0.643-0.888-0.367-1.366l1.441-2.499L32.813,42H27
						c-0.552,0-1-0.447-1-1s0.448-1,1-1h6.39c0.357,0,0.687,0.19,0.866,0.499l3.47,6c0.179,0.31,0.179,0.691,0,1.001l-1.73,3
						C35.811,50.82,35.475,51,35.129,51z"/>
				</g>
			</g>
			<g>
				<g>
					<path d="M35.129,51c-0.169,0-0.341-0.043-0.499-0.134c-0.479-0.275-0.643-0.888-0.367-1.366l1.73-3
						c0.179-0.31,0.509-0.5,0.866-0.5h6.92c0.356,0,0.686,0.189,0.865,0.498l1.74,3c0.277,0.478,0.114,1.09-0.363,1.367
						c-0.479,0.277-1.09,0.113-1.367-0.363L43.204,48h-5.766l-1.441,2.5C35.811,50.82,35.475,51,35.129,51z"/>
				</g>
			</g>
			<g>
				<g>
					<path d="M42,60h-5.14c-0.357,0-0.687-0.19-0.866-0.5l-2.89-5c-0.276-0.478-0.113-1.09,0.365-1.366
						c0.477-0.276,1.09-0.113,1.366,0.366l2.601,4.5H42c0.552,0,1,0.447,1,1S42.552,60,42,60z"/>
				</g>
			</g>
			<g>
				<g>
					<path d="M66.301,51c-0.346,0-0.682-0.18-0.867-0.5L63.992,48h-5.774l-1.441,2.5c-0.276,0.477-0.888,0.642-1.366,0.366
						c-0.479-0.275-0.643-0.888-0.367-1.366l1.73-3c0.179-0.31,0.509-0.5,0.866-0.5h6.93c0.357,0,0.688,0.19,0.866,0.5l1.73,3
						c0.276,0.479,0.112,1.091-0.367,1.366C66.642,50.957,66.47,51,66.301,51z"/>
				</g>
			</g>
			<g>
				<g>
					<path d="M66.999,55.79c-0.168,0-0.338-0.042-0.494-0.131c-0.48-0.273-0.647-0.885-0.374-1.364l0.45-0.79
						c0.272-0.479,0.883-0.647,1.364-0.374c0.48,0.273,0.647,0.885,0.374,1.364l-0.45,0.79C67.685,55.608,67.347,55.79,66.999,55.79
						z"/>
				</g>
			</g>
			<g>
				<g>
					<path d="M55.909,51c-0.169,0-0.341-0.043-0.499-0.134c-0.479-0.275-0.643-0.888-0.367-1.366l1.442-2.5l-2.883-5h-5.776
						l-2.891,4.999l1.45,2.499c0.277,0.478,0.114,1.09-0.363,1.367c-0.479,0.277-1.09,0.113-1.367-0.363l-1.74-3
						c-0.18-0.311-0.18-0.692,0-1.003l3.47-6C46.563,40.19,46.893,40,47.25,40h6.93c0.357,0,0.688,0.19,0.866,0.5l3.46,6
						c0.178,0.31,0.178,0.69,0,1l-1.73,3C56.591,50.82,56.255,51,55.909,51z"/>
				</g>
			</g>
			<g>
				<g>
					<path d="M76.699,51c-0.169,0-0.341-0.043-0.499-0.134c-0.479-0.275-0.643-0.888-0.367-1.366l1.441-2.499L74.383,42h-5.776
						l-2.883,5l1.442,2.5c0.276,0.479,0.112,1.091-0.367,1.366c-0.479,0.275-1.09,0.11-1.366-0.366l-1.73-3
						c-0.178-0.31-0.178-0.69,0-1l3.46-6c0.179-0.31,0.509-0.5,0.866-0.5h6.93c0.357,0,0.687,0.19,0.866,0.499l3.47,6
						c0.179,0.31,0.179,0.691,0,1.001l-1.73,3C77.381,50.82,77.045,51,76.699,51z"/>
				</g>
			</g>
			<g>
				<g>
					<path d="M85.35,60H82c-0.552,0-1-0.447-1-1s0.448-1,1-1h2.773l2.891-5l-2.891-5h-5.766l-0.577,1H82c1.654,0,3,1.346,3,3
						c0,0.289-0.037,0.562-0.11,0.812c-0.129,0.486-0.403,0.951-0.787,1.319C83.566,54.684,82.811,55,82,55h-6.46
						c-0.552,0-1-0.447-1-1s0.448-1,1-1H82c0.267,0,0.513-0.103,0.694-0.287c0.145-0.141,0.228-0.28,0.27-0.439
						C82.99,52.184,83,52.097,83,52c0-0.552-0.449-1-1-1h-5.3c-0.357,0-0.687-0.19-0.866-0.5c-0.179-0.309-0.179-0.69,0-1l1.73-3
						c0.179-0.31,0.509-0.5,0.866-0.5h6.92c0.357,0,0.687,0.19,0.866,0.499l3.47,6c0.179,0.311,0.179,0.691,0,1.002l-3.47,6
						C86.037,59.81,85.707,60,85.35,60z"/>
				</g>
			</g>
			<g>
				<g>
					<path d="M101,60h-1.79c-0.357,0-0.688-0.19-0.866-0.5l-3.46-6c-0.178-0.31-0.178-0.69,0-1l3.46-6
						c0.179-0.31,0.509-0.5,0.866-0.5H101c0.552,0,1,0.447,1,1s-0.448,1-1,1h-1.212l-2.883,5l2.883,5H101c0.552,0,1,0.447,1,1
						S101.552,60,101,60z"/>
				</g>
			</g>
			<g>
				<g>
					<path d="M95.746,54h-6.928c-0.357,0-0.688-0.19-0.866-0.5l-3.464-6c-0.178-0.31-0.178-0.69,0-1l3.464-6
						c0.179-0.31,0.509-0.5,0.866-0.5h6.928c0.357,0,0.688,0.19,0.866,0.5l3.464,6c0.178,0.31,0.178,0.69,0,1l-3.464,6
						C96.434,53.81,96.104,54,95.746,54z M89.395,52h5.774l2.887-5l-2.887-5h-5.774l-2.886,5L89.395,52z"/>
				</g>
			</g>
			<g>
				<g>
					<path d="M33.39,66H27c-0.552,0-1-0.447-1-1s0.448-1,1-1h5.813l2.891-5l-2.6-4.5c-0.276-0.478-0.113-1.09,0.365-1.366
						c0.477-0.276,1.09-0.113,1.366,0.366l2.89,5c0.179,0.31,0.179,0.691,0,1.001l-3.47,6C34.077,65.81,33.747,66,33.39,66z"/>
				</g>
			</g>
			<g>
				<g>
					<path d="M43.78,72h-6.92c-0.357,0-0.687-0.19-0.866-0.499l-3.47-6c-0.179-0.311-0.179-0.691,0-1.002l3.47-6
						C36.173,58.19,36.503,58,36.86,58H42c0.552,0,1,0.447,1,1s-0.448,1-1,1h-4.563l-2.891,5l2.891,5h5.767l2.893-5.002l-0.103-0.18
						c-0.275-0.479-0.109-1.091,0.369-1.365c0.48-0.274,1.091-0.11,1.365,0.369l0.39,0.68c0.178,0.31,0.177,0.69-0.001,0.999
						l-3.47,6C44.467,71.81,44.137,72,43.78,72z"/>
				</g>
			</g>
			<g>
				<g>
					<path d="M64.57,72h-6.93c-0.357,0-0.688-0.19-0.866-0.5l-2.89-5.01c-0.276-0.479-0.112-1.09,0.367-1.366
						c0.477-0.277,1.089-0.111,1.366,0.366L58.218,70h5.774l2.972-5.15c0.275-0.478,0.885-0.643,1.366-0.366
						c0.478,0.276,0.642,0.888,0.366,1.366l-3.26,5.65C65.257,71.81,64.927,72,64.57,72z"/>
				</g>
			</g>
			<g>
				<g>
					<path d="M52.5,66h-1c-0.552,0-1-0.447-1-1s0.448-1,1-1h1c0.552,0,1,0.447,1,1S53.052,66,52.5,66z"/>
				</g>
			</g>
			<g>
				<g>
					<path d="M47.5,66h-0.25c-0.358,0-0.689-0.191-0.867-0.502l-0.39-0.68c-0.275-0.479-0.109-1.091,0.369-1.365
						c0.48-0.274,1.091-0.11,1.365,0.369l0.143,0.248c0.369,0.147,0.63,0.508,0.63,0.93C48.5,65.553,48.052,66,47.5,66z"/>
				</g>
			</g>
			<g>
				<g>
					<path d="M66.999,55.79c-0.168,0-0.338-0.042-0.494-0.131c-0.48-0.273-0.647-0.885-0.374-1.364l0.45-0.79
						c0.272-0.479,0.883-0.647,1.364-0.374c0.48,0.273,0.647,0.885,0.374,1.364l-0.45,0.79C67.685,55.608,67.347,55.79,66.999,55.79
						z"/>
				</g>
			</g>
			<g>
				<g>
					<path d="M72.5,66h-1c-0.552,0-1-0.447-1-1s0.448-1,1-1h1c0.552,0,1,0.447,1,1S73.052,66,72.5,66z"/>
				</g>
			</g>
			<g>
				<g>
					<path d="M85.35,72h-6.92c-0.357,0-0.687-0.19-0.865-0.499l-3-5.18c-0.277-0.478-0.114-1.09,0.364-1.366
						c0.478-0.277,1.089-0.113,1.366,0.364L79.007,70h5.767l2.891-5l-2.891-5H82c-0.552,0-1-0.447-1-1s0.448-1,1-1h3.35
						c0.357,0,0.687,0.19,0.866,0.499l3.47,6c0.179,0.311,0.179,0.691,0,1.002l-3.47,6C86.037,71.81,85.707,72,85.35,72z"/>
				</g>
			</g>
			<g>
				<g>
					<path d="M101,72h-1.79c-0.357,0-0.688-0.19-0.866-0.5l-3.46-6c-0.178-0.31-0.178-0.69,0-1l3.46-6
						c0.179-0.31,0.509-0.5,0.866-0.5H101c0.552,0,1,0.447,1,1s-0.448,1-1,1h-1.212l-2.883,5l2.883,5H101c0.552,0,1,0.447,1,1
						S101.552,72,101,72z"/>
				</g>
			</g>
			<g>
				<g>
					<path d="M95.746,66h-6.928c-0.357,0-0.688-0.19-0.866-0.5l-3.464-6c-0.178-0.31-0.178-0.69,0-1l3.464-6
						c0.179-0.31,0.509-0.5,0.866-0.5h6.928c0.357,0,0.688,0.19,0.866,0.5l3.464,6c0.178,0.31,0.178,0.69,0,1l-3.464,6
						C96.434,65.81,96.104,66,95.746,66z M89.395,64h5.774l2.887-5l-2.887-5h-5.774l-2.886,5L89.395,64z"/>
				</g>
			</g>
			<g>
				<g>
					<path d="M33.39,78H27c-0.552,0-1-0.447-1-1s0.448-1,1-1h5.813l2.891-5l-2.891-5H27c-0.552,0-1-0.447-1-1s0.448-1,1-1h6.39
						c0.357,0,0.687,0.19,0.866,0.499l3.47,6c0.179,0.311,0.179,0.691,0,1.002l-3.47,6C34.077,77.81,33.747,78,33.39,78z"/>
				</g>
			</g>
			<g>
				<g>
					<path d="M43.785,84h-6.928c-0.357,0-0.688-0.19-0.866-0.5l-3.464-6c-0.178-0.31-0.178-0.69,0-1l3.464-6
						c0.179-0.31,0.509-0.5,0.866-0.5h6.928c0.357,0,0.688,0.19,0.866,0.5l3.464,6c0.178,0.31,0.178,0.69,0,1l-3.464,6
						C44.472,83.81,44.142,84,43.785,84z M37.434,82h5.774l2.886-5l-2.886-5h-5.774l-2.887,5L37.434,82z"/>
				</g>
			</g>
			<g>
				<g>
					<path d="M64.569,84h-6.928c-0.357,0-0.688-0.19-0.866-0.5l-3.464-6c-0.178-0.31-0.178-0.69,0-1l3.464-6
						c0.179-0.31,0.509-0.5,0.866-0.5h6.928c0.357,0,0.688,0.19,0.866,0.5l3.464,6c0.178,0.31,0.178,0.69,0,1l-3.464,6
						C65.257,83.81,64.927,84,64.569,84z M58.218,82h5.774l2.886-5l-2.886-5h-5.774l-2.887,5L58.218,82z"/>
				</g>
			</g>
			<g>
				<g>
					<path d="M54.18,78h-6.93c-0.357,0-0.687-0.19-0.866-0.499l-3.47-6c-0.179-0.31-0.179-0.692,0-1.002l3.47-6
						C46.563,64.19,46.893,64,47.25,64h0.25c0.552,0,1,0.447,1,1c0,0.423-0.262,0.784-0.633,0.931L44.935,71l2.892,5h5.776l2.883-5
						l-2.602-4.51c-0.276-0.479-0.112-1.09,0.367-1.366c0.477-0.277,1.089-0.111,1.366,0.366l2.89,5.01c0.178,0.31,0.178,0.69,0,1
						l-3.46,6C54.868,77.81,54.538,78,54.18,78z"/>
				</g>
			</g>
			<g>
				<g>
					<path d="M52.5,66h-1c-0.552,0-1-0.447-1-1s0.448-1,1-1h1c0.552,0,1,0.447,1,1S53.052,66,52.5,66z"/>
				</g>
			</g>
			<g>
				<g>
					<path d="M74.96,78h-6.93c-0.357,0-0.688-0.19-0.866-0.5l-3.46-6c-0.178-0.31-0.178-0.69,0-1l3.26-5.65
						c0.275-0.478,0.885-0.643,1.366-0.366c0.478,0.276,0.642,0.888,0.366,1.366L65.724,71l2.883,5h5.776l2.892-5l-2.71-4.679
						c-0.277-0.478-0.114-1.09,0.364-1.366c0.478-0.277,1.089-0.113,1.366,0.364l3,5.18c0.18,0.31,0.18,0.691,0,1.002l-3.47,6
						C75.647,77.81,75.317,78,74.96,78z"/>
				</g>
			</g>
			<g>
				<g>
					<path d="M72.5,66h-1c-0.552,0-1-0.447-1-1s0.448-1,1-1h1c0.552,0,1,0.447,1,1S73.052,66,72.5,66z"/>
				</g>
			</g>
			<g>
				<g>
					<path d="M85.354,84h-6.928c-0.357,0-0.688-0.19-0.866-0.5l-3.464-6c-0.178-0.31-0.178-0.69,0-1l3.464-6
						c0.179-0.31,0.509-0.5,0.866-0.5h6.928c0.357,0,0.688,0.19,0.866,0.5l3.464,6c0.178,0.31,0.178,0.69,0,1l-3.464,6
						C86.042,83.81,85.711,84,85.354,84z M79.003,82h5.774l2.886-5l-2.886-5h-5.774l-2.887,5L79.003,82z"/>
				</g>
			</g>
			<g>
				<g>
					<path d="M101,84h-1.79c-0.357,0-0.688-0.19-0.866-0.5l-3.46-6c-0.178-0.31-0.178-0.69,0-1l3.46-6
						c0.179-0.31,0.509-0.5,0.866-0.5H101c0.552,0,1,0.447,1,1s-0.448,1-1,1h-1.212l-2.883,5l2.883,5H101c0.552,0,1,0.447,1,1
						S101.552,84,101,84z"/>
				</g>
			</g>
			<g>
				<g>
					<path d="M95.746,78h-6.928c-0.357,0-0.688-0.19-0.866-0.5l-3.464-6c-0.178-0.31-0.178-0.69,0-1l3.464-6
						c0.179-0.31,0.509-0.5,0.866-0.5h6.928c0.357,0,0.688,0.19,0.866,0.5l3.464,6c0.178,0.31,0.178,0.69,0,1l-3.464,6
						C96.434,77.81,96.104,78,95.746,78z M89.395,76h5.774l2.887-5l-2.887-5h-5.774l-2.886,5L89.395,76z"/>
				</g>
			</g>
			<g>
				<g>
					<path d="M34.149,88.69c-0.17,0-0.342-0.043-0.5-0.134c-0.478-0.276-0.642-0.889-0.365-1.366l2.42-4.19l-2.891-5H27
						c-0.552,0-1-0.447-1-1s0.448-1,1-1h6.39c0.357,0,0.687,0.19,0.866,0.499l3.47,6c0.179,0.31,0.179,0.691,0,1.001l-2.71,4.69
						C34.831,88.512,34.495,88.69,34.149,88.69z"/>
				</g>
			</g>
			<g>
				<g>
					<path d="M46.491,88.69c-0.346,0-0.682-0.179-0.867-0.5l-2.71-4.69c-0.179-0.31-0.179-0.691,0-1.001l3.47-6
						C46.563,76.19,46.893,76,47.25,76h6.93c0.357,0,0.688,0.19,0.866,0.5l3.46,6c0.178,0.31,0.178,0.689,0,0.999l-2.7,4.69
						c-0.275,0.479-0.887,0.645-1.366,0.367c-0.479-0.275-0.643-0.887-0.368-1.365L56.486,83l-2.883-5h-5.776l-2.892,5l2.421,4.19
						c0.276,0.478,0.113,1.09-0.365,1.366C46.833,88.647,46.661,88.69,46.491,88.69z"/>
				</g>
			</g>
			<g>
				<g>
					<path d="M67.271,88.69c-0.346,0-0.683-0.18-0.868-0.501l-2.7-4.69c-0.178-0.31-0.178-0.689,0-0.999l3.46-6
						c0.179-0.31,0.509-0.5,0.866-0.5h6.93c0.357,0,0.687,0.19,0.866,0.499l3.47,6c0.179,0.31,0.179,0.691,0,1.001l-2.71,4.69
						c-0.276,0.479-0.888,0.641-1.366,0.366c-0.478-0.276-0.642-0.889-0.365-1.366l2.42-4.19l-2.892-5h-5.776l-2.883,5l2.413,4.191
						c0.275,0.479,0.111,1.09-0.368,1.365C67.612,88.647,67.44,88.69,67.271,88.69z"/>
				</g>
			</g>
			<g>
				<g>
					<path d="M96.509,88.69c-0.169,0-0.341-0.043-0.498-0.134c-0.479-0.275-0.643-0.887-0.368-1.365L98.056,83l-2.883-5h-5.776
						l-2.891,5l2.42,4.19c0.276,0.478,0.113,1.09-0.365,1.366c-0.479,0.274-1.09,0.112-1.366-0.366l-2.71-4.69
						c-0.179-0.31-0.179-0.691,0-1.001l3.47-6C88.133,76.19,88.463,76,88.82,76h6.93c0.357,0,0.688,0.19,0.866,0.5l3.46,6
						c0.178,0.31,0.178,0.689,0,0.999l-2.7,4.69C97.191,88.511,96.855,88.69,96.509,88.69z"/>
				</g>
			</g>
		</g>
	</g>
	<g>
		<g>
			<path d="M112,42H16c-0.552,0-1-0.447-1-1v-5c0-0.553,0.448-1,1-1h69.33c0.552,0,1,0.447,1,1s-0.448,1-1,1H17v3h94v-3h-8.95
				c-0.552,0-1-0.447-1-1s0.448-1,1-1H112c0.552,0,1,0.447,1,1v5C113,41.553,112.552,42,112,42z"/>
		</g>
	</g>
	<g>
		<g>
			<path d="M96.74,37h-5.05c-0.552,0-1-0.447-1-1s0.448-1,1-1h5.05c0.552,0,1,0.447,1,1S97.292,37,96.74,37z"/>
		</g>
	</g>
	<g>
		<g>
			<path d="M106,66.14c-0.552,0-1-0.447-1-1V59c0-0.553,0.448-1,1-1s1,0.447,1,1v6.14C107,65.692,106.552,66.14,106,66.14z"/>
		</g>
	</g>
	<g>
		<g>
			<path d="M106,55.3c-0.552,0-1-0.447-1-1V42H23v8c0,0.553-0.448,1-1,1s-1-0.447-1-1v-9c0-0.553,0.448-1,1-1h84
				c0.552,0,1,0.447,1,1v13.3C107,54.853,106.552,55.3,106,55.3z"/>
		</g>
	</g>
	<g>
		<g>
			<path d="M106,94H22c-0.552,0-1-0.447-1-1V54c0-0.553,0.448-1,1-1s1,0.447,1,1v38h82V69.1c0-0.553,0.448-1,1-1s1,0.447,1,1V93
				C107,93.553,106.552,94,106,94z"/>
		</g>
	</g>
	<g>
		<g>
			<path d="M101,88.69H27c-0.552,0-1-0.447-1-1V54c0-0.553,0.448-1,1-1s1,0.447,1,1v32.69h72V42H28v8c0,0.553-0.448,1-1,1
				s-1-0.447-1-1v-9c0-0.553,0.448-1,1-1h74c0.552,0,1,0.447,1,1v46.69C102,88.243,101.552,88.69,101,88.69z"/>
		</g>
	</g>
	<g>
		<g>
			<path d="M85.35,60H82c-0.552,0-1-0.447-1-1s0.448-1,1-1h2.773l2.891-5l-2.891-5h-5.766l-0.577,1H82c1.654,0,3,1.346,3,3
				c0,0.289-0.037,0.562-0.11,0.812c-0.129,0.486-0.403,0.951-0.787,1.319C83.566,54.684,82.811,55,82,55h-6.46
				c-0.552,0-1-0.447-1-1s0.448-1,1-1H82c0.267,0,0.513-0.103,0.694-0.287c0.145-0.141,0.228-0.28,0.27-0.439
				C82.99,52.184,83,52.097,83,52c0-0.552-0.449-1-1-1h-5.3c-0.357,0-0.687-0.19-0.866-0.5c-0.179-0.309-0.179-0.69,0-1l1.73-3
				c0.179-0.31,0.509-0.5,0.866-0.5h6.92c0.357,0,0.687,0.19,0.866,0.499l3.47,6c0.179,0.311,0.179,0.691,0,1.002l-3.47,6
				C86.037,59.81,85.707,60,85.35,60z"/>
		</g>
	</g>
	<g>
		<g>
			<g>
				<path d="M98.059,25.55c-0.464,0-0.881-0.325-0.979-0.798c-0.111-0.541,0.237-1.07,0.777-1.182
					c0.558-0.115,1.116-0.325,1.658-0.625c1.101-0.609,1.958-1.513,2.184-2.304c0.05-0.175,0.088-0.422-0.013-0.604
					c-0.106-0.194-0.337-0.294-0.512-0.345c-0.786-0.228-2.002,0.016-3.101,0.623c-0.277,0.15-0.529,0.317-0.776,0.511
					c-0.434,0.342-1.062,0.268-1.404-0.169c-0.341-0.434-0.265-1.062,0.169-1.403c0.336-0.264,0.679-0.49,1.049-0.691
					c1.582-0.875,3.312-1.17,4.622-0.791c0.774,0.226,1.364,0.675,1.705,1.3c0.341,0.609,0.406,1.346,0.185,2.12
					c-0.375,1.314-1.549,2.625-3.139,3.504c-0.719,0.397-1.466,0.678-2.222,0.834C98.194,25.543,98.126,25.55,98.059,25.55z"/>
			</g>
		</g>
		<g>
			<g>
				<path d="M84.939,19.03c-0.459,0-0.873-0.318-0.976-0.785c-0.208-0.942-0.609-1.584-1.103-1.761
					c-0.479-0.174-0.985,0.14-1.244,0.343c-0.433,0.341-1.062,0.264-1.404-0.17c-0.341-0.435-0.265-1.063,0.17-1.404
					c0.991-0.776,2.14-1.015,3.153-0.651c1.172,0.421,2.017,1.562,2.38,3.214c0.119,0.539-0.222,1.073-0.762,1.191
					C85.083,19.022,85.01,19.03,84.939,19.03z"/>
			</g>
		</g>
		<g>
			<g>
				<path d="M96.01,29.42c-0.454,0-0.885-0.097-1.283-0.288l-7.233-3.407c-1.264-0.588-1.945-1.96-1.652-3.334
					c0.115-0.54,0.645-0.888,1.187-0.769c0.54,0.114,0.885,0.646,0.77,1.187c-0.097,0.456,0.126,0.911,0.544,1.105l7.244,3.412
					c0.476,0.229,1.099,0.009,1.327-0.479c0.343-0.729,0.38-1.543,0.109-2.296c-0.272-0.753-0.821-1.355-1.547-1.696l-0.634-0.302
					c-0.499-0.237-0.71-0.834-0.473-1.333s0.834-0.709,1.333-0.474l0.63,0.3c1.205,0.566,2.12,1.57,2.573,2.826
					c0.454,1.255,0.39,2.612-0.178,3.822C98.238,28.741,97.171,29.42,96.01,29.42z"/>
			</g>
		</g>
		<g>
			<g>
				<path d="M88.731,21.32c-0.364,0-0.716-0.199-0.892-0.546c-0.25-0.493-0.055-1.095,0.438-1.346
					c0.832-0.423,1.777-0.645,2.691-0.543c0.549,0.06,0.946,0.553,0.886,1.103c-0.06,0.549-0.555,0.948-1.102,0.886
					c-0.056-0.008-0.118-0.004-0.172-0.004c-0.481,0-0.952,0.115-1.396,0.342C89.038,21.285,88.883,21.32,88.731,21.32z"/>
			</g>
		</g>
		<g>
			<g>
				<path d="M90.68,27.12c-0.114,0-0.229-0.02-0.343-0.061c-0.519-0.189-0.786-0.764-0.597-1.282
					c0.403-1.104,0.93-2.135,1.564-3.062c0.312-0.455,0.934-0.573,1.39-0.261c0.456,0.312,0.572,0.935,0.26,1.39
					c-0.548,0.801-0.985,1.657-1.335,2.618C91.472,26.868,91.088,27.12,90.68,27.12z"/>
			</g>
		</g>
		<g>
			<g>
				<path d="M91.983,24.29c-0.634,0-1.192-0.189-1.639-0.568c-0.813-0.688-1.072-1.847-0.728-3.26
					c0.287-1.174,0.974-2.445,1.935-3.58c2.211-2.609,5.026-3.606,6.549-2.315c0.813,0.688,1.072,1.847,0.728,3.26
					c-0.287,1.174-0.974,2.445-1.935,3.58l0,0c-0.962,1.135-2.104,2.022-3.214,2.497C93.077,24.162,92.504,24.29,91.983,24.29z
					 M96.456,16c-0.224,0-0.531,0.063-0.903,0.223c-0.818,0.351-1.72,1.062-2.474,1.952s-1.307,1.896-1.518,2.761
					c-0.167,0.685-0.082,1.126,0.077,1.261c0.159,0.134,0.608,0.146,1.255-0.131c0.819-0.351,1.721-1.062,2.475-1.952l0,0
					c0.754-0.89,1.307-1.896,1.518-2.761c0.167-0.685,0.082-1.126-0.077-1.261C96.741,16.035,96.621,16,96.456,16z"/>
			</g>
		</g>
		<g>
			<g>
				<path d="M87.547,28.941c-0.024,0-0.049-0.001-0.074-0.002c-0.541-0.042-0.952-0.485-0.924-1.027
					c0.046-0.89,0.885-2.394,1.897-2.999c0.572-0.342,1.178-0.392,1.709-0.144c0.5,0.235,0.714,0.831,0.479,1.331
					c-0.212,0.451-0.719,0.665-1.18,0.536c-0.337,0.194-0.874,1.039-0.908,1.384C88.494,28.535,88.057,28.941,87.547,28.941z"/>
			</g>
		</g>
		<g>
			<g>
				<path d="M90.362,30.266c-0.024,0-0.049-0.001-0.073-0.002c-0.542-0.042-0.953-0.485-0.924-1.027
					c0.046-0.889,0.885-2.392,1.897-2.998c0.571-0.342,1.178-0.394,1.709-0.144c0.5,0.235,0.714,0.831,0.479,1.331
					c-0.212,0.451-0.719,0.668-1.181,0.535c-0.337,0.195-0.873,1.039-0.908,1.384C91.31,29.859,90.873,30.266,90.362,30.266z"/>
			</g>
		</g>
		<g>
			<g>
				<path d="M86.241,23.669c-0.508,0-1.014-0.112-1.488-0.335c-0.846-0.398-1.486-1.103-1.803-1.981
					c-0.317-0.88-0.272-1.83,0.126-2.676s1.102-1.486,1.981-1.803c0.879-0.317,1.83-0.273,2.676,0.125
					c1.746,0.822,2.499,2.911,1.677,4.657l0,0c-0.398,0.846-1.102,1.486-1.981,1.804C87.042,23.599,86.641,23.669,86.241,23.669z
					 M86.246,18.667c-0.563,0-1.104,0.318-1.36,0.861c-0.17,0.362-0.189,0.77-0.054,1.146s0.41,0.679,0.772,0.849
					c0.362,0.171,0.77,0.189,1.147,0.055c0.377-0.136,0.678-0.41,0.849-0.773l0,0c0.352-0.748,0.029-1.644-0.719-1.995
					C86.676,18.712,86.459,18.667,86.246,18.667z M88.505,21.23h0.01H88.505z"/>
			</g>
		</g>
	</g>
	<g>
		<g>
			<g>
				<path d="M31.941,109.55c-0.067,0-0.135-0.007-0.203-0.021c-0.755-0.156-1.503-0.437-2.222-0.834
					c-1.59-0.879-2.764-2.189-3.139-3.504c-0.221-0.774-0.156-1.511,0.19-2.129c0.336-0.616,0.925-1.065,1.7-1.291
					c1.311-0.382,3.041-0.084,4.627,0.794c0.354,0.192,0.703,0.421,1.03,0.676c0.436,0.339,0.515,0.967,0.176,1.403
					c-0.339,0.436-0.968,0.515-1.403,0.175c-0.242-0.188-0.499-0.356-0.764-0.501c-1.104-0.609-2.322-0.854-3.107-0.626
					c-0.175,0.051-0.406,0.15-0.507,0.336c-0.106,0.191-0.068,0.438-0.018,0.613c0.226,0.791,1.083,1.694,2.184,2.304
					c0.542,0.3,1.1,0.51,1.658,0.625c0.541,0.111,0.889,0.641,0.777,1.182C32.822,109.225,32.405,109.55,31.941,109.55z"/>
			</g>
		</g>
		<g>
			<g>
				<path d="M45.061,103.03c-0.071,0-0.144-0.008-0.216-0.023c-0.54-0.118-0.88-0.652-0.762-1.191
					c0.363-1.651,1.208-2.793,2.38-3.214c1.01-0.361,2.162-0.126,3.153,0.651c0.435,0.341,0.511,0.97,0.17,1.404
					c-0.34,0.434-0.97,0.512-1.404,0.17c-0.259-0.202-0.765-0.516-1.244-0.343c-0.494,0.177-0.896,0.818-1.103,1.761
					C45.934,102.712,45.52,103.03,45.061,103.03z"/>
			</g>
		</g>
		<g>
			<g>
				<path d="M41.269,105.32c-0.152,0-0.307-0.035-0.453-0.108c-0.465-0.237-0.924-0.342-1.467-0.342c-0.034,0-0.069,0-0.102,0.004
					c-0.549,0.056-1.042-0.338-1.102-0.886c-0.06-0.55,0.337-1.043,0.886-1.103c0.911-0.103,1.86,0.12,2.691,0.543
					c0.492,0.251,0.688,0.853,0.438,1.346C41.985,105.121,41.633,105.32,41.269,105.32z"/>
			</g>
		</g>
		<g>
			<g>
				<path d="M33.99,113.42c-1.162,0-2.228-0.679-2.717-1.729c-0.503-1.063-0.609-2.275-0.297-3.407
					c0.373-1.426,1.358-2.611,2.7-3.239l0.624-0.298c0.499-0.234,1.095-0.025,1.333,0.474s0.025,1.096-0.473,1.333l-0.63,0.3
					c-0.808,0.378-1.397,1.088-1.623,1.949c-0.188,0.683-0.124,1.402,0.177,2.039c0.23,0.496,0.872,0.705,1.322,0.487l7.248-3.413
					c0.422-0.196,0.646-0.651,0.548-1.107c-0.115-0.541,0.229-1.072,0.77-1.187c0.542-0.121,1.071,0.229,1.187,0.769
					c0.293,1.374-0.388,2.746-1.656,3.336l-7.236,3.408C34.875,113.323,34.444,113.42,33.99,113.42z"/>
			</g>
		</g>
		<g>
			<g>
				<path d="M39.32,111.12c-0.408,0-0.792-0.251-0.939-0.657c-0.351-0.961-0.788-1.817-1.335-2.618
					c-0.312-0.455-0.195-1.078,0.26-1.39c0.456-0.312,1.078-0.195,1.39,0.261c0.634,0.927,1.161,1.957,1.564,3.062
					c0.189,0.519-0.078,1.093-0.597,1.282C39.55,111.101,39.434,111.12,39.32,111.12z"/>
			</g>
		</g>
		<g>
			<g>
				<path d="M38.017,108.29c-0.521,0-1.093-0.128-1.696-0.387c-1.111-0.475-2.252-1.362-3.214-2.497
					c-0.961-1.135-1.648-2.406-1.935-3.58c-0.344-1.413-0.086-2.571,0.728-3.26c1.523-1.29,4.338-0.294,6.549,2.315
					c0.961,1.135,1.648,2.406,1.935,3.58c0.344,1.413,0.086,2.571-0.728,3.26C39.209,108.101,38.65,108.29,38.017,108.29z
					 M33.544,100c-0.166,0-0.286,0.035-0.353,0.092c-0.159,0.135-0.244,0.576-0.077,1.261c0.211,0.865,0.764,1.871,1.518,2.761l0,0
					c0.754,0.89,1.656,1.602,2.475,1.952c0.648,0.277,1.098,0.265,1.255,0.131c0.159-0.135,0.244-0.576,0.077-1.261
					c-0.211-0.865-0.764-1.871-1.518-2.761s-1.656-1.602-2.474-1.952C34.075,100.063,33.768,100,33.544,100z"/>
			</g>
		</g>
		<g>
			<g>
				<path d="M42.451,112.964c-0.527,0-0.968-0.413-0.998-0.945c-0.036-0.345-0.571-1.188-0.908-1.382
					c-0.462,0.128-0.968-0.085-1.18-0.536c-0.235-0.5-0.021-1.096,0.479-1.331c0.531-0.247,1.138-0.198,1.709,0.144
					c1.012,0.605,1.851,2.109,1.897,2.999c0.029,0.551-0.395,1.021-0.946,1.051C42.486,112.964,42.469,112.964,42.451,112.964z"/>
			</g>
		</g>
		<g>
			<g>
				<path d="M39.636,114.288c-0.527,0-0.968-0.413-0.998-0.945c-0.036-0.345-0.571-1.188-0.908-1.382
					c-0.462,0.135-0.969-0.084-1.181-0.535c-0.235-0.5-0.021-1.096,0.479-1.331c0.532-0.247,1.139-0.198,1.709,0.144
					c1.012,0.606,1.851,2.109,1.897,2.998c0.029,0.551-0.395,1.021-0.946,1.051C39.671,114.288,39.653,114.288,39.636,114.288z"/>
			</g>
		</g>
		<g>
			<g>
				<path d="M43.759,107.669c-0.399,0-0.8-0.069-1.188-0.209c-0.879-0.317-1.583-0.958-1.981-1.804l0,0
					c-0.821-1.746-0.069-3.835,1.677-4.657c0.845-0.398,1.794-0.443,2.676-0.125c0.879,0.316,1.583,0.957,1.981,1.803
					s0.443,1.796,0.126,2.676c-0.317,0.879-0.957,1.583-1.803,1.98C44.773,107.557,44.267,107.669,43.759,107.669z M42.399,104.805
					c0.171,0.363,0.472,0.638,0.849,0.773c0.376,0.135,0.784,0.116,1.147-0.055c0.362-0.17,0.637-0.472,0.772-0.849
					s0.117-0.784-0.054-1.146c-0.352-0.748-1.246-1.073-1.996-0.719C42.37,103.161,42.048,104.057,42.399,104.805L42.399,104.805z"
					/>
			</g>
		</g>
	</g>
	<g>
		<g>
			<g>
				<g>
					<path d="M75.54,55H14c-1.654,0-3-1.346-3-3c0-0.811,0.317-1.565,0.892-2.126C12.434,49.316,13.189,49,14,49h62.7
						c0.552,0,1,0.447,1,1s-0.448,1-1,1H14c-0.267,0-0.513,0.103-0.694,0.287C13.102,51.487,13,51.733,13,52c0,0.552,0.449,1,1,1
						h61.54c0.552,0,1,0.447,1,1S76.092,55,75.54,55z"/>
				</g>
			</g>
			<g>
				<g>
					<path d="M79.5,67c-1.93,0-3.5-1.57-3.5-3.5v-2.19c0-0.553,0.448-1,1-1s1,0.447,1,1v2.19c0,0.827,0.673,1.5,1.5,1.5
						s1.5-0.673,1.5-1.5V55h-3v2.92c0,0.553-0.448,1-1,1s-1-0.447-1-1V54c0-0.553,0.448-1,1-1h5c0.552,0,1,0.447,1,1v9.5
						C83,65.43,81.43,67,79.5,67z"/>
				</g>
			</g>
			<g>
				<g>
					<path d="M74.5,67c-1.109,0-2.129-0.51-2.799-1.398C71.25,65.004,71,64.257,71,63.5V54c0-0.553,0.448-1,1-1h5
						c0.552,0,1,0.447,1,1v3.92c0,0.553-0.448,1-1,1s-1-0.447-1-1V55h-3v8.5c0,0.324,0.106,0.643,0.298,0.896
						c0.412,0.546,1.183,0.734,1.75,0.5C75.63,64.662,76,64.115,76,63.5v-2.19c0-0.553,0.448-1,1-1s1,0.447,1,1v2.19
						c0,1.437-0.862,2.711-2.197,3.248C75.403,66.914,74.961,67,74.5,67z"/>
				</g>
			</g>
			<g>
				<g>
					<path d="M69.5,67c-0.881,0-1.716-0.326-2.352-0.919C66.426,65.446,66,64.498,66,63.5v-2.4c0-0.553,0.448-1,1-1s1,0.447,1,1v2.4
						c0,0.424,0.179,0.824,0.491,1.099c0.648,0.604,1.697,0.482,2.21-0.2C70.894,64.143,71,63.824,71,63.5V55h-3v2.83
						c0,0.553-0.448,1-1,1s-1-0.447-1-1V54c0-0.553,0.448-1,1-1h5c0.552,0,1,0.447,1,1v9.5c0,0.757-0.25,1.504-0.702,2.104
						C71.629,66.49,70.609,67,69.5,67z"/>
				</g>
			</g>
			<g>
				<g>
					<path d="M64.5,67c-1.93,0-3.5-1.57-3.5-3.5V54c0-0.553,0.448-1,1-1h5c0.552,0,1,0.447,1,1v3.83c0,0.553-0.448,1-1,1
						s-1-0.447-1-1V55h-3v8.5c0,0.827,0.673,1.5,1.5,1.5s1.5-0.673,1.5-1.5v-2.4c0-0.553,0.448-1,1-1s1,0.447,1,1v2.4
						C68,65.43,66.43,67,64.5,67z"/>
				</g>
			</g>
			<g>
				<g>
					<path d="M59.5,67c-1.93,0-3.5-1.57-3.5-3.5V54c0-0.553,0.448-1,1-1h5c0.552,0,1,0.447,1,1v9.5C63,65.43,61.43,67,59.5,67z
						 M58,55v8.5c0,0.827,0.673,1.5,1.5,1.5s1.5-0.673,1.5-1.5V55H58z"/>
				</g>
			</g>
			<g>
				<g>
					<path d="M54.5,67c-1.93,0-3.5-1.57-3.5-3.5V54c0-0.553,0.448-1,1-1h5c0.552,0,1,0.447,1,1v9.5C58,65.43,56.43,67,54.5,67z
						 M53,55v8.5c0,0.827,0.673,1.5,1.5,1.5s1.5-0.673,1.5-1.5V55H53z"/>
				</g>
			</g>
			<g>
				<g>
					<path d="M49.5,67c-1.93,0-3.5-1.57-3.5-3.5V54c0-0.553,0.448-1,1-1h5c0.552,0,1,0.447,1,1v9.5C53,65.43,51.43,67,49.5,67z
						 M48,55v8.5c0,0.827,0.673,1.5,1.5,1.5s1.5-0.673,1.5-1.5V55H48z"/>
				</g>
			</g>
			<g>
				<g>
					<path d="M44.5,67c-1.93,0-3.5-1.57-3.5-3.5V54c0-0.553,0.448-1,1-1h5c0.552,0,1,0.447,1,1v9.5C48,65.43,46.43,67,44.5,67z
						 M43,55v8.5c0,0.827,0.673,1.5,1.5,1.5s1.5-0.673,1.5-1.5V55H43z"/>
				</g>
			</g>
		</g>
	</g>
	<g>
		<g>
			<g>
				<path d="M31.124,26.429c-0.184,0-0.37-0.051-0.536-0.156c-0.466-0.297-0.604-0.915-0.307-1.381l1.4-2.201
					c0.296-0.465,0.916-0.603,1.38-0.307c0.466,0.297,0.604,0.915,0.307,1.381l-1.4,2.201
					C31.778,26.265,31.454,26.429,31.124,26.429z"/>
			</g>
		</g>
		<g>
			<g>
				<path d="M34.534,21.027c-0.184,0-0.369-0.051-0.536-0.156c-0.466-0.296-0.604-0.914-0.307-1.38l1.4-2.202
					c0.296-0.467,0.914-0.603,1.38-0.308c0.466,0.296,0.604,0.914,0.307,1.38l-1.4,2.202C35.188,20.863,34.865,21.027,34.534,21.027
					z"/>
			</g>
		</g>
		<g>
			<g>
				<path d="M31.935,21.618c-0.182,0-0.366-0.05-0.531-0.153l-2.214-1.393c-0.468-0.294-0.608-0.912-0.314-1.379
					c0.294-0.469,0.913-0.607,1.379-0.314l2.214,1.393c0.468,0.294,0.608,0.912,0.314,1.379
					C32.592,21.453,32.268,21.618,31.935,21.618z"/>
			</g>
		</g>
		<g>
			<g>
				<path d="M37.337,25.029c-0.182,0-0.366-0.05-0.531-0.153l-2.214-1.393c-0.468-0.294-0.608-0.912-0.314-1.379
					c0.294-0.469,0.913-0.606,1.379-0.314l2.214,1.393c0.468,0.294,0.608,0.912,0.314,1.379
					C37.994,24.864,37.669,25.029,37.337,25.029z"/>
			</g>
		</g>
	</g>
	<g>
		<g>
			<g>
				<path d="M93.043,111.797c-0.184,0-0.369-0.051-0.536-0.156c-0.466-0.296-0.604-0.914-0.307-1.38l1.4-2.202
					c0.296-0.466,0.915-0.604,1.38-0.308s0.604,0.914,0.307,1.38l-1.4,2.202C93.697,111.633,93.374,111.797,93.043,111.797z"/>
			</g>
		</g>
		<g>
			<g>
				<path d="M96.454,106.395c-0.184,0-0.37-0.051-0.536-0.156c-0.466-0.297-0.603-0.915-0.307-1.381l1.401-2.201
					c0.297-0.465,0.915-0.603,1.381-0.307c0.466,0.297,0.603,0.915,0.307,1.381l-1.401,2.201
					C97.107,106.23,96.784,106.395,96.454,106.395z"/>
			</g>
		</g>
		<g>
			<g>
				<path d="M93.854,106.986c-0.182,0-0.366-0.05-0.532-0.153l-2.213-1.394c-0.467-0.295-0.608-0.912-0.313-1.38
					c0.294-0.468,0.911-0.606,1.379-0.313l2.213,1.394c0.467,0.295,0.608,0.912,0.313,1.38
					C94.512,106.821,94.187,106.986,93.854,106.986z"/>
			</g>
		</g>
		<g>
			<g>
				<path d="M99.256,110.396c-0.182,0-0.366-0.05-0.531-0.153l-2.214-1.393c-0.468-0.294-0.608-0.912-0.314-1.379
					c0.294-0.469,0.913-0.607,1.379-0.314l2.214,1.393c0.468,0.294,0.608,0.912,0.314,1.379
					C99.914,110.231,99.589,110.396,99.256,110.396z"/>
			</g>
		</g>
	</g>
</g>
</svg>
