<?xml version="1.0" encoding="utf-8"?>
<!-- Generator: Adobe Illustrator 24.2.3, SVG Export Plug-In . SVG Version: 6.00 Build 0)  -->
<svg version="1.1" id="_x30_2" xmlns="http://www.w3.org/2000/svg" xmlns:xlink="http://www.w3.org/1999/xlink" x="0px" y="0px"
	 viewBox="0 0 128 128" style="enable-background:new 0 0 128 128;" xml:space="preserve">
<g>
	<g>
		<g>
			<path d="M73.62,116H54.34c-1.743,0-3.505-0.364-5.097-1.052c-14.086-6.104-20.896-14.854-20.241-26.006
				c-0.043-1.011,0.026-2.094,0.211-3.214c0.09-0.545,0.606-0.91,1.15-0.824c0.545,0.09,0.914,0.605,0.824,1.15
				c-0.164,0.986-0.225,1.938-0.188,2.909c-0.602,10.323,5.804,18.416,19.038,24.15C51.38,113.693,52.868,114,54.34,114h19.28
				c1.472,0,2.959-0.307,4.303-0.888c13.233-5.738,19.639-13.831,19.039-24.053c-0.002-0.034-0.002-0.067-0.001-0.101
				c0.271-6.358-4.043-12.551-8.485-18.35l-0.892-1.157c-1.295-1.679-2.519-3.264-3.604-4.818c-1.882-2.717-2.089-6.204-0.542-9.104
				c0.26-0.488,0.865-0.672,1.353-0.412c0.487,0.26,0.671,0.866,0.412,1.353c-1.192,2.235-1.032,4.925,0.419,7.02
				c1.056,1.511,2.266,3.079,3.546,4.738l0.895,1.162c4.654,6.076,9.173,12.594,8.898,19.601
				c0.631,11.124-6.18,19.857-20.243,25.956C77.125,115.636,75.363,116,73.62,116z"/>
		</g>
	</g>
	<g>
		<g>
			<path d="M31.549,82.291c-0.128,0-0.259-0.025-0.385-0.078c-0.51-0.213-0.75-0.799-0.537-1.308
				c1.726-4.128,4.532-7.951,7.259-11.512l0.981-1.272c1.252-1.62,2.435-3.15,3.46-4.629c1.459-2.094,1.624-4.782,0.43-7.02
				c-0.26-0.487-0.076-1.093,0.412-1.353c0.489-0.259,1.093-0.076,1.353,0.412c1.549,2.903,1.338,6.391-0.552,9.103
				c-1.053,1.52-2.251,3.07-3.52,4.711l-0.977,1.267c-2.646,3.456-5.367,7.159-7.001,11.066
				C32.312,82.059,31.94,82.291,31.549,82.291z"/>
		</g>
	</g>
	<g>
		<g>
			<path d="M44.709,69.71c-0.21,0-0.422-0.066-0.603-0.203c-0.44-0.333-0.527-0.96-0.194-1.401c0.582-0.77,1.135-1.521,1.668-2.281
				c0.318-0.452,0.941-0.562,1.393-0.245c0.452,0.317,0.562,0.941,0.245,1.393c-0.547,0.78-1.114,1.549-1.711,2.339
				C45.311,69.573,45.012,69.71,44.709,69.71z"/>
		</g>
	</g>
	<g>
		<g>
			<path d="M40.669,75c-0.209,0-0.421-0.066-0.602-0.202c-0.441-0.333-0.528-0.96-0.196-1.401l0.236-0.312
				c0.32-0.425,0.637-0.845,0.96-1.264c0.336-0.439,0.963-0.521,1.402-0.183c0.438,0.336,0.52,0.964,0.183,1.402
				c-0.319,0.415-0.631,0.83-0.948,1.25l-0.236,0.313C41.271,74.863,40.972,75,40.669,75z"/>
		</g>
	</g>
	<g>
		<g>
			<path d="M31.549,82.291c-0.129,0-0.26-0.025-0.386-0.078c-0.509-0.214-0.749-0.8-0.536-1.309
				c0.778-1.855,1.839-3.802,3.246-5.951c0.254-0.39,0.741-0.551,1.179-0.393c1.304,0.474,2.469,1.016,3.595,1.54
				c3.207,1.491,6.235,2.9,12.443,2.9c5.696,0,8.688-1.163,11.742-2.568c0.5-0.231,1.096-0.012,1.327,0.49
				c0.23,0.501,0.011,1.096-0.491,1.326C60.517,79.698,57.183,81,51.09,81c-6.649,0-10.023-1.569-13.286-3.087
				c-0.902-0.419-1.764-0.82-2.692-1.19c-1.125,1.779-1.991,3.406-2.64,4.954C32.312,82.06,31.94,82.291,31.549,82.291z"/>
		</g>
	</g>
	<g>
		<g>
			<path d="M73.62,116H54.34c-1.743,0-3.505-0.364-5.097-1.052c-14.086-6.104-20.896-14.854-20.241-26.006
				c-0.043-0.993,0.028-2.107,0.211-3.214c0.09-0.545,0.606-0.91,1.15-0.824c0.545,0.09,0.914,0.605,0.824,1.15
				c-0.162,0.975-0.225,1.953-0.188,2.908c-0.601,10.323,5.805,18.416,19.039,24.151C51.38,113.693,52.868,114,54.34,114h19.28
				c1.472,0,2.959-0.307,4.303-0.888c13.233-5.738,19.639-13.831,19.039-24.053c-0.002-0.033-0.002-0.067-0.001-0.1
				c0.114-2.761-0.616-5.685-2.231-8.929c-2.093-0.586-3.767-1.366-5.39-2.121C86.126,76.413,83.091,75,76.87,75
				c-0.923,0-1.795,0.035-2.668,0.106c-0.557,0.048-1.033-0.365-1.079-0.915c-0.045-0.551,0.364-1.034,0.915-1.079
				C74.966,73.037,75.892,73,76.87,73c6.663,0,10.044,1.574,13.314,3.096c1.729,0.805,3.362,1.565,5.487,2.117
				c0.275,0.071,0.507,0.256,0.638,0.509c1.907,3.698,2.775,7.057,2.652,10.27c0.632,11.125-6.179,19.857-20.243,25.956
				C77.125,115.636,75.363,116,73.62,116z"/>
		</g>
	</g>
	<g>
		<g>
			<path d="M66.88,76.73c-0.397,0-0.773-0.239-0.93-0.63c-0.204-0.513,0.046-1.095,0.559-1.299c1.276-0.508,2.468-0.873,3.75-1.148
				c0.543-0.115,1.072,0.228,1.188,0.768c0.116,0.54-0.228,1.072-0.768,1.188c-1.171,0.251-2.261,0.586-3.43,1.052
				C67.128,76.708,67.003,76.73,66.88,76.73z"/>
		</g>
	</g>
	<g>
		<g>
			<path d="M70.779,79.67c-0.443,0-0.848-0.297-0.966-0.746c-0.141-0.534,0.178-1.081,0.712-1.222
				c1.621-0.428,3.422-0.654,5.506-0.693c0.561-0.016,1.008,0.429,1.019,0.981S76.621,79,76.068,79.01
				c-1.922,0.036-3.569,0.241-5.034,0.627C70.949,79.659,70.863,79.67,70.779,79.67z"/>
		</g>
	</g>
	<g>
		<g>
			<path d="M64.57,82.14c-0.378,0-0.741-0.216-0.909-0.583c-0.23-0.501-0.01-1.095,0.492-1.326c0.367-0.168,0.733-0.337,1.09-0.506
				l0.223-0.104c0.386-0.181,0.767-0.359,1.155-0.523c0.508-0.213,1.095,0.023,1.311,0.532c0.215,0.509-0.023,1.096-0.532,1.311
				c-0.365,0.154-0.723,0.322-1.085,0.491l-0.221,0.104c-0.359,0.169-0.732,0.341-1.106,0.513
				C64.852,82.111,64.71,82.14,64.57,82.14z"/>
		</g>
	</g>
	<g>
		<g>
			<path d="M81.5,46c-2.481,0-4.5-2.019-4.5-4.5V29.52c0-0.552,0.448-1,1-1s1,0.448,1,1V41.5c0,1.378,1.122,2.5,2.5,2.5
				c0.668,0,1.293-0.26,1.758-0.732C83.74,42.793,84,42.168,84,41.5V38c0-1.654,1.346-3,3-3c0.811,0,1.565,0.317,2.126,0.892
				C89.683,36.435,90,37.189,90,38v2c0,0.551,0.449,1,1,1c0.267,0,0.513-0.102,0.694-0.288C91.898,40.513,92,40.267,92,40V28.099
				c-0.003-0.033-0.005-0.066-0.005-0.099c0-0.552,0.443-1,0.995-1S94,27.448,94,28v12c0,0.811-0.317,1.565-0.892,2.126
				C92.565,42.683,91.811,43,91,43c-1.654,0-3-1.346-3-3v-2c0-0.267-0.102-0.513-0.288-0.694C87.513,37.102,87.267,37,87,37
				c-0.551,0-1,0.449-1,1v3.5c0,1.208-0.472,2.338-1.328,3.183C83.838,45.528,82.708,46,81.5,46z"/>
		</g>
	</g>
	<g>
		<g>
			<path d="M84.5,57H81c-0.552,0-1-0.448-1-1s0.448-1,1-1h3.5c0.404,0,0.781-0.155,1.063-0.437S86,53.904,86,53.5
				c0-0.827-0.673-1.5-1.5-1.5H81c-0.552,0-1-0.448-1-1s0.448-1,1-1h3.5c1.93,0,3.5,1.57,3.5,3.5c0,0.938-0.363,1.817-1.023,2.477
				S85.438,57,84.5,57z"/>
		</g>
	</g>
	<g>
		<g>
			<path d="M49,57h-5.5c-1.93,0-3.5-1.57-3.5-3.5c0-0.938,0.363-1.817,1.023-2.477S42.562,50,43.5,50H49c0.552,0,1,0.448,1,1
				s-0.448,1-1,1h-5.5c-0.404,0-0.781,0.155-1.063,0.437S42,53.096,42,53.5c0,0.827,0.673,1.5,1.5,1.5H49c0.552,0,1,0.448,1,1
				S49.552,57,49,57z"/>
		</g>
	</g>
	<g>
		<g>
			<g>
				<path d="M81,64.5c-0.552,0-1-0.448-1-1V51c0-0.551-0.449-1-1-1H65.9c-0.552,0-1-0.448-1-1s0.448-1,1-1H79c1.654,0,3,1.346,3,3
					v12.5C82,64.052,81.552,64.5,81,64.5z"/>
			</g>
		</g>
		<g>
			<g>
				<path d="M68.5,71c-1.93,0-3.5-1.57-3.5-3.5V61c0-0.267-0.102-0.513-0.288-0.694C64.513,60.102,64.267,60,64,60
					c-0.551,0-1,0.449-1,1v3c0,0.811-0.317,1.565-0.892,2.126C61.565,66.683,60.811,67,60,67c-1.654,0-3-1.346-3-3v-6
					c0-0.267-0.102-0.513-0.288-0.694C56.513,57.102,56.267,57,56,57c-0.551,0-1,0.449-1,1v4.5c0,0.938-0.363,1.817-1.023,2.477
					S52.438,66,51.5,66c-1.93,0-3.5-1.57-3.5-3.5c0-0.552,0.448-1,1-1s1,0.448,1,1c0,0.827,0.673,1.5,1.5,1.5
					c0.404,0,0.781-0.155,1.063-0.437S53,62.904,53,62.5V58c0-1.654,1.346-3,3-3c0.811,0,1.565,0.317,2.126,0.892
					C58.683,56.435,59,57.189,59,58v6c0,0.551,0.449,1,1,1c0.267,0,0.513-0.102,0.694-0.288C60.898,64.513,61,64.267,61,64v-3
					c0-1.654,1.346-3,3-3c0.811,0,1.565,0.317,2.126,0.892C66.683,59.435,67,60.189,67,61v6.5c0,0.827,0.673,1.5,1.5,1.5
					c0.404,0,0.781-0.155,1.063-0.437S70,67.904,70,67.5v-7.26c0-1.787,1.454-3.24,3.24-3.24h0.52c1.787,0,3.24,1.454,3.24,3.24
					v3.26c0,0.827,0.673,1.5,1.5,1.5c0.404,0,0.781-0.155,1.063-0.437S80,63.904,80,63.5c0-0.552,0.448-1,1-1s1,0.448,1,1V64
					c0,0.195-0.056,0.377-0.152,0.531c-0.165,0.542-0.46,1.036-0.871,1.446C80.317,66.637,79.438,67,78.5,67
					c-1.93,0-3.5-1.57-3.5-3.5v-3.26c0-0.684-0.556-1.24-1.24-1.24h-0.52C72.556,59,72,59.556,72,60.24v7.26
					c0,0.938-0.363,1.817-1.023,2.477S69.438,71,68.5,71z"/>
			</g>
		</g>
		<g>
			<g>
				<path d="M49,64c-0.552,0-1-0.448-1-1V51c0-1.654,1.346-3,3-3h8.72c0.552,0,1,0.448,1,1s-0.448,1-1,1H51c-0.551,0-1,0.449-1,1v12
					C50,63.552,49.552,64,49,64z"/>
			</g>
		</g>
	</g>
	<g>
		<g>
			<path d="M53,54c-0.552,0-1-0.448-1-1v-1c0-0.552,0.448-1,1-1s1,0.448,1,1v1C54,53.552,53.552,54,53,54z"/>
		</g>
	</g>
	<g>
		<g>
			<g>
				<path d="M70,29H28c-1.654,0-3-1.346-3-3s1.346-3,3-3h42c0.552,0,1,0.448,1,1v4C71,28.552,70.552,29,70,29z M28,25
					c-0.551,0-1,0.449-1,1s0.449,1,1,1h41v-2H28z"/>
			</g>
		</g>
		<g>
			<g>
				<g>
					<path d="M72,31c-1.654,0-3-1.346-3-3v-4c0-1.654,1.346-3,3-3s3,1.346,3,3v4C75,29.654,73.654,31,72,31z M72,23
						c-0.551,0-1,0.449-1,1v4c0,0.551,0.449,1,1,1s1-0.449,1-1v-4C73,23.449,72.551,23,72,23z"/>
				</g>
			</g>
			<g>
				<g>
					<path d="M90.764,31h-0.528C88.452,31,87,29.548,87,27.764v-3.528C87,22.452,88.452,21,90.236,21h0.528
						C92.548,21,94,22.452,94,24.236v3.528C94,29.548,92.548,31,90.764,31z M90.236,23C89.554,23,89,23.554,89,24.236v3.528
						C89,28.446,89.554,29,90.236,29h0.528C91.446,29,92,28.446,92,27.764v-3.528C92,23.554,91.446,23,90.764,23H90.236z"/>
				</g>
			</g>
			<g>
				<g>
					<path d="M76,34c-1.654,0-3-1.346-3-3V21c0-1.654,1.346-3,3-3c0.811,0,1.565,0.317,2.126,0.892C78.683,19.435,79,20.189,79,21
						v5.4c0,0.552-0.448,1-1,1s-1-0.448-1-1V21c0-0.267-0.102-0.513-0.288-0.694C76.513,20.102,76.267,20,76,20
						c-0.551,0-1,0.449-1,1v10c0,0.551,0.449,1,1,1s1-0.449,1-1v-1.482c0-0.552,0.448-1,1-1s1,0.448,1,1V31
						C79,32.654,77.654,34,76,34z"/>
				</g>
			</g>
			<g>
				<g>
					<path d="M85.76,34h-0.52C83.454,34,82,32.546,82,30.76v-4.8c0-0.552,0.448-1,1-1s1,0.448,1,1v4.8c0,0.684,0.556,1.24,1.24,1.24
						h0.52c0.684,0,1.24-0.556,1.24-1.24v-9.52c0-0.684-0.556-1.24-1.24-1.24h-0.52C84.556,20,84,20.556,84,21.24v1.56
						c0,0.552-0.448,1-1,1s-1-0.448-1-1v-1.56c0-1.787,1.454-3.24,3.24-3.24h0.52c1.787,0,3.24,1.454,3.24,3.24v9.52
						C89,32.546,87.546,34,85.76,34z"/>
				</g>
			</g>
			<g>
				<g>
					<path d="M78,27.4c-0.552,0-1-0.448-1-1V19c0-1.654,1.346-3,3-3h1c1.654,0,3,1.346,3,3v3.8c0,0.552-0.448,1-1,1s-1-0.448-1-1V19
						c0-0.551-0.449-1-1-1h-1c-0.551,0-1,0.449-1,1v7.4C79,26.953,78.552,27.4,78,27.4z"/>
				</g>
			</g>
			<g>
				<g>
					<path d="M81,36h-1c-1.654,0-3-1.346-3-3v-3.482c0-0.552,0.448-1,1-1s1,0.448,1,1V33c0,0.551,0.449,1,1,1h1c0.551,0,1-0.449,1-1
						v-7.04c0-0.552,0.448-1,1-1s1,0.448,1,1V33C84,34.654,82.654,36,81,36z"/>
				</g>
			</g>
		</g>
	</g>
	<g>
		<g>
			<path d="M75,108c-2.206,0-4-1.794-4-4s1.794-4,4-4s4,1.794,4,4S77.206,108,75,108z M75,102c-1.103,0-2,0.897-2,2s0.897,2,2,2
				s2-0.897,2-2S76.103,102,75,102z"/>
		</g>
	</g>
	<g>
		<g>
			<path d="M83,86.961c-2.206,0-4-1.794-4-4s1.794-4,4-4s4,1.794,4,4S85.206,86.961,83,86.961z M83,80.961c-1.103,0-2,0.897-2,2
				s0.897,2,2,2s2-0.897,2-2S84.103,80.961,83,80.961z"/>
		</g>
	</g>
	<g>
		<g>
			<path d="M45,94c-2.206,0-4-1.794-4-4s1.794-4,4-4s4,1.794,4,4S47.206,94,45,94z M45,88c-1.103,0-2,0.897-2,2s0.897,2,2,2
				s2-0.897,2-2S46.103,88,45,88z"/>
		</g>
	</g>
	<g>
		<g>
			<path d="M51,107c-1.654,0-3-1.346-3-3s1.346-3,3-3s3,1.346,3,3S52.654,107,51,107z M51,103c-0.551,0-1,0.449-1,1s0.449,1,1,1
				s1-0.449,1-1S51.551,103,51,103z"/>
		</g>
	</g>
	<g>
		<g>
			<path d="M65,97c-1.654,0-3-1.346-3-3s1.346-3,3-3s3,1.346,3,3S66.654,97,65,97z M65,93c-0.551,0-1,0.449-1,1s0.449,1,1,1
				s1-0.449,1-1S65.551,93,65,93z"/>
		</g>
	</g>
	<g>
		<g>
			<path d="M90,98c-1.654,0-3-1.346-3-3s1.346-3,3-3s3,1.346,3,3S91.654,98,90,98z M90,94c-0.551,0-1,0.449-1,1s0.449,1,1,1
				s1-0.449,1-1S90.551,94,90,94z"/>
		</g>
	</g>
	<g>
		<g>
			<g>
				<path d="M74,88.977c1.93,0,1.934-3,0-3C72.07,85.977,72.066,88.977,74,88.977L74,88.977z"/>
			</g>
		</g>
	</g>
	<g>
		<g>
			<g>
				<path d="M40.868,101.614c1.93,0,1.934-3,0-3C38.938,98.614,38.935,101.614,40.868,101.614L40.868,101.614z"/>
			</g>
		</g>
	</g>
	<g>
		<g>
			<g>
				<path d="M59.38,85.984c1.93,0,1.934-3,0-3C57.449,82.984,57.446,85.984,59.38,85.984L59.38,85.984z"/>
			</g>
		</g>
	</g>
	<g>
		<g>
			<g>
				<path d="M66.252,108.486c1.93,0,1.934-3,0-3C64.322,105.486,64.319,108.486,66.252,108.486L66.252,108.486z"/>
			</g>
		</g>
	</g>
	<g>
		<g>
			<path d="M35.311,98.021c-0.386,0-0.754-0.225-0.918-0.602c-0.913-2.102-1.391-4.364-1.422-6.725
				c-0.007-0.552,0.435-1.006,0.987-1.013c0.004,0,0.009,0,0.014,0c0.546,0,0.992,0.439,1,0.987
				c0.028,2.094,0.451,4.098,1.257,5.955c0.22,0.507-0.013,1.096-0.519,1.316C35.579,97.994,35.443,98.021,35.311,98.021z"/>
		</g>
	</g>
	<g>
		<g>
			<path d="M34.091,87.94c-0.042,0-0.085-0.002-0.129-0.008c-0.548-0.07-0.935-0.571-0.864-1.119
				c0.23-1.792,0.855-3.723,1.856-5.738c0.245-0.495,0.845-0.696,1.341-0.45c0.495,0.246,0.696,0.846,0.45,1.341
				c-0.902,1.814-1.462,3.531-1.664,5.102C35.017,87.572,34.586,87.94,34.091,87.94z"/>
		</g>
	</g>
	<g>
		<g>
			<g>
				<path d="M16.691,48.55c-0.067,0-0.135-0.006-0.203-0.021c-0.758-0.156-1.505-0.437-2.223-0.835
					c-1.589-0.878-2.763-2.188-3.138-3.503c-0.221-0.774-0.156-1.51,0.19-2.129c0.95-1.716,3.733-1.937,6.337-0.498
					c0.316,0.173,0.651,0.39,0.991,0.641c0.444,0.329,0.538,0.955,0.209,1.399c-0.328,0.444-0.953,0.539-1.399,0.209
					c-0.267-0.198-0.525-0.365-0.766-0.497c-1.769-0.978-3.326-0.819-3.625-0.283c-0.104,0.185-0.065,0.432-0.015,0.607
					c0.226,0.791,1.083,1.694,2.184,2.303c0.541,0.3,1.099,0.51,1.658,0.625c0.541,0.112,0.889,0.641,0.777,1.182
					C17.572,48.225,17.155,48.55,16.691,48.55z"/>
			</g>
		</g>
		<g>
			<g>
				<path d="M29.811,42.03c-0.071,0-0.144-0.007-0.216-0.023c-0.54-0.119-0.88-0.652-0.762-1.191
					c0.363-1.652,1.211-2.794,2.387-3.214c1.015-0.363,2.162-0.125,3.149,0.654c0.434,0.342,0.508,0.971,0.166,1.404
					c-0.342,0.435-0.971,0.507-1.404,0.166c-0.256-0.201-0.757-0.512-1.237-0.341c-0.496,0.177-0.9,0.819-1.107,1.761
					C30.684,41.711,30.27,42.03,29.811,42.03z"/>
			</g>
		</g>
		<g>
			<g>
				<path d="M26.019,44.32c-0.155,0-0.312-0.036-0.459-0.112c-0.45-0.233-0.962-0.333-1.458-0.338c-0.036,0-0.071,0.001-0.104,0.004
					c-0.545,0.056-1.042-0.337-1.102-0.886c-0.06-0.549,0.337-1.042,0.886-1.102c0.123-0.013,0.261-0.016,0.398-0.016
					c0.795,0,1.59,0.194,2.3,0.562c0.49,0.254,0.682,0.857,0.428,1.348C26.73,44.123,26.381,44.32,26.019,44.32z"/>
			</g>
		</g>
		<g>
			<g>
				<path d="M18.74,52.42c-1.162,0-2.228-0.678-2.717-1.728c-0.502-1.064-0.609-2.276-0.297-3.408c0.372-1.425,1.357-2.611,2.7-3.24
					l0.624-0.297c0.497-0.237,1.096-0.026,1.333,0.473s0.026,1.095-0.473,1.333l-0.63,0.3c-0.809,0.379-1.398,1.088-1.623,1.95
					c-0.188,0.683-0.124,1.403,0.177,2.04c0.23,0.495,0.868,0.704,1.322,0.486l7.248-3.414c0.422-0.196,0.646-0.65,0.548-1.106
					c-0.115-0.54,0.229-1.071,0.77-1.187c0.536-0.119,1.071,0.228,1.187,0.77c0.293,1.374-0.388,2.745-1.656,3.335l-7.236,3.408
					C19.625,52.323,19.193,52.42,18.74,52.42z"/>
			</g>
		</g>
		<g>
			<g>
				<path d="M24.07,50.121c-0.405,0-0.787-0.249-0.937-0.65c-0.366-0.979-0.816-1.862-1.338-2.626
					c-0.312-0.456-0.195-1.078,0.261-1.39c0.457-0.311,1.079-0.194,1.39,0.261c0.614,0.897,1.139,1.925,1.561,3.055
					c0.193,0.518-0.069,1.094-0.586,1.287C24.305,50.1,24.186,50.121,24.07,50.121z"/>
			</g>
		</g>
		<g>
			<g>
				<path d="M22.773,47.285c-1.495,0-3.354-1.038-4.913-2.878c-2.211-2.61-2.73-5.55-1.208-6.84
					c1.523-1.291,4.339-0.293,6.549,2.315c2.211,2.61,2.73,5.551,1.208,6.841C23.959,47.103,23.398,47.285,22.773,47.285z
					 M18.298,38.995c-0.157,0-0.278,0.033-0.353,0.097c-0.403,0.342-0.163,2.128,1.441,4.021l0,0
					c1.604,1.894,3.328,2.427,3.729,2.083c0.404-0.342,0.163-2.128-1.441-4.021C20.37,39.634,18.985,38.995,18.298,38.995z"/>
			</g>
		</g>
		<g>
			<g>
				<path d="M27.205,51.964c-0.527,0-0.968-0.413-0.998-0.945c-0.036-0.345-0.571-1.188-0.908-1.382
					c-0.464,0.135-0.969-0.085-1.181-0.536c-0.235-0.5-0.021-1.096,0.479-1.331c0.532-0.249,1.138-0.198,1.709,0.143
					c1.012,0.606,1.851,2.109,1.897,2.998c0.029,0.552-0.395,1.022-0.946,1.051C27.24,51.963,27.222,51.964,27.205,51.964z"/>
			</g>
		</g>
		<g>
			<g>
				<path d="M24.389,53.289c-0.527,0-0.968-0.413-0.998-0.945c-0.036-0.345-0.571-1.188-0.908-1.382
					c-0.463,0.134-0.968-0.084-1.18-0.536c-0.235-0.5-0.021-1.095,0.479-1.331c0.531-0.25,1.139-0.199,1.708,0.143
					c1.012,0.606,1.851,2.109,1.897,2.999c0.029,0.552-0.395,1.022-0.946,1.051C24.424,53.288,24.407,53.289,24.389,53.289z"/>
			</g>
		</g>
		<g>
			<g>
				<path d="M28.513,46.668c-0.4,0-0.801-0.069-1.188-0.208c-0.88-0.317-1.583-0.958-1.981-1.803l0,0
					c-0.822-1.747-0.069-3.835,1.677-4.657c1.748-0.821,3.836-0.069,4.657,1.678c0.398,0.845,0.443,1.795,0.126,2.675
					c-0.317,0.88-0.958,1.583-1.804,1.981C29.527,46.557,29.021,46.668,28.513,46.668z M28.508,41.667
					c-0.213,0-0.43,0.046-0.636,0.143c-0.748,0.352-1.07,1.248-0.718,1.996v0c0.17,0.362,0.472,0.637,0.849,0.772
					c0.377,0.136,0.784,0.117,1.147-0.054c0.363-0.17,0.637-0.472,0.773-0.849s0.116-0.784-0.054-1.146
					C29.612,41.985,29.071,41.667,28.508,41.667z"/>
			</g>
		</g>
	</g>
	<g>
		<g>
			<g>
				<path d="M14.883,78.201c-0.111,0-0.223-0.019-0.333-0.058c-0.521-0.184-0.793-0.756-0.609-1.276l0.87-2.46
					c0.185-0.521,0.758-0.794,1.276-0.609c0.521,0.184,0.793,0.756,0.609,1.276l-0.87,2.46
					C15.681,77.944,15.295,78.201,14.883,78.201z"/>
			</g>
		</g>
		<g>
			<g>
				<path d="M16.994,72.17c-0.111,0-0.223-0.019-0.333-0.058c-0.521-0.184-0.793-0.756-0.609-1.276l0.87-2.46
					c0.185-0.521,0.756-0.794,1.276-0.609c0.521,0.184,0.793,0.756,0.609,1.276l-0.87,2.46C17.791,71.914,17.405,72.17,16.994,72.17
					z"/>
			</g>
		</g>
		<g>
			<g>
				<path d="M14.594,73.331c-0.109,0-0.22-0.018-0.329-0.056l-2.47-0.86c-0.521-0.182-0.797-0.751-0.616-1.273
					c0.181-0.521,0.75-0.798,1.273-0.616l2.47,0.86c0.521,0.182,0.797,0.751,0.616,1.273C15.395,73.072,15.007,73.331,14.594,73.331
					z"/>
			</g>
		</g>
		<g>
			<g>
				<path d="M20.624,75.44c-0.109,0-0.22-0.018-0.329-0.056l-2.47-0.86c-0.521-0.182-0.797-0.751-0.616-1.273
					c0.181-0.522,0.75-0.799,1.273-0.616l2.47,0.86c0.521,0.182,0.797,0.751,0.616,1.273C21.424,75.182,21.037,75.44,20.624,75.44z"
					/>
			</g>
		</g>
	</g>
	<g>
		<g>
			<g>
				<path d="M108.892,39.741c-0.538,0-0.982-0.427-0.999-0.969l-0.082-2.608c-0.017-0.552,0.416-1.014,0.968-1.031
					c0.573-0.028,1.013,0.417,1.031,0.968l0.082,2.608c0.017,0.552-0.416,1.014-0.968,1.031
					C108.913,39.741,108.902,39.741,108.892,39.741z"/>
			</g>
		</g>
		<g>
			<g>
				<path d="M108.671,33.356c-0.538,0-0.982-0.427-0.999-0.969l-0.082-2.608c-0.017-0.552,0.416-1.014,0.968-1.031
					c0.56-0.041,1.013,0.416,1.031,0.968l0.082,2.608c0.017,0.552-0.416,1.014-0.968,1.031
					C108.692,33.356,108.681,33.356,108.671,33.356z"/>
			</g>
		</g>
		<g>
			<g>
				<path d="M104.242,35.403c-0.536,0-0.979-0.424-0.999-0.964c-0.02-0.552,0.411-1.016,0.963-1.036l2.614-0.095
					c0.55-0.016,1.016,0.412,1.036,0.963s-0.411,1.016-0.963,1.036l-2.614,0.095C104.266,35.403,104.254,35.403,104.242,35.403z"/>
			</g>
		</g>
		<g>
			<g>
				<path d="M110.626,35.182c-0.536,0-0.979-0.424-0.999-0.964c-0.02-0.552,0.411-1.016,0.963-1.036l2.614-0.095
					c0.542-0.014,1.016,0.412,1.036,0.963s-0.411,1.016-0.963,1.036l-2.614,0.095C110.651,35.182,110.639,35.182,110.626,35.182z"/>
			</g>
		</g>
	</g>
	<g>
		<g>
			<g>
				<path d="M114.46,63.991c-0.382,0-0.747-0.22-0.913-0.591c-0.226-0.504,0-1.096,0.503-1.322c0.472-0.211,0.958-0.544,1.446-0.987
					c1.473-1.363,1.817-2.894,1.404-3.347c-0.19-0.206-0.633-0.261-1.173-0.139c-0.738,0.165-1.564,0.634-2.267,1.287
					c-0.248,0.229-0.455,0.448-0.636,0.67c-0.349,0.429-0.978,0.493-1.407,0.143c-0.428-0.349-0.492-0.979-0.143-1.407
					c0.241-0.295,0.511-0.581,0.826-0.872c0.966-0.899,2.101-1.53,3.192-1.773c1.263-0.281,2.383-0.013,3.08,0.736
					c1.325,1.453,0.653,4.163-1.523,6.175c-0.65,0.592-1.314,1.04-1.98,1.339C114.736,63.962,114.597,63.99,114.46,63.991z"/>
			</g>
		</g>
		<g>
			<g>
				<path d="M100.171,60.81c-0.37,0-0.725-0.205-0.898-0.559c-0.426-0.867-0.973-1.396-1.499-1.451
					c-0.511-0.049-0.925,0.37-1.126,0.627c-0.34,0.436-0.969,0.512-1.404,0.17c-0.435-0.341-0.511-0.969-0.17-1.404
					c0.776-0.99,1.836-1.494,2.908-1.383c1.243,0.13,2.339,1.038,3.087,2.558c0.244,0.496,0.04,1.095-0.456,1.339
					C100.469,60.777,100.319,60.81,100.171,60.81z"/>
			</g>
		</g>
		<g>
			<g>
				<path d="M104.39,62.125c-0.552,0-1-0.443-1-0.995v-0.01c0-0.285,0.122-0.557,0.334-0.747c0.68-0.606,1.527-1.014,2.45-1.178
					c0.547-0.097,1.063,0.266,1.16,0.809c0.097,0.544-0.266,1.063-0.809,1.16c-0.541,0.096-1.034,0.327-1.432,0.668
					C104.913,62.013,104.665,62.125,104.39,62.125z"/>
			</g>
		</g>
		<g>
			<g>
				<path d="M112.91,68.31c-0.213,0-0.412-0.02-0.608-0.062l-5.786-1.171c-0.042-0.003-0.083-0.009-0.125-0.017l-1.92-0.39
					c-1.368-0.279-2.354-1.45-2.4-2.847c-0.018-0.552,0.415-1.014,0.967-1.032c0.577-0.021,1.014,0.415,1.032,0.967
					c0.016,0.475,0.337,0.858,0.801,0.953l1.827,0.372c0.032,0.002,0.063,0.006,0.095,0.012c0.012,0.002,0.025,0.004,0.038,0.007
					l5.877,1.189c0.525,0.114,1.075-0.235,1.183-0.775c0.146-0.709,0.04-1.414-0.306-2.042c-0.426-0.773-1.169-1.317-2.04-1.492
					l-0.686-0.141c-0.541-0.111-0.889-0.64-0.778-1.181c0.111-0.542,0.64-0.894,1.181-0.778l0.68,0.14
					c1.445,0.29,2.685,1.197,3.395,2.488c0.569,1.036,0.752,2.245,0.513,3.403C115.572,67.299,114.335,68.31,112.91,68.31z"/>
			</g>
		</g>
		<g>
			<g>
				<path d="M107.662,67.29c-0.039,0-0.078-0.002-0.117-0.007c-0.548-0.063-0.941-0.56-0.877-1.109
					c0.143-1.232,0.414-2.356,0.803-3.342c0.203-0.514,0.783-0.764,1.298-0.562c0.514,0.203,0.765,0.784,0.562,1.298
					c-0.326,0.824-0.553,1.778-0.677,2.838C108.594,66.915,108.162,67.29,107.662,67.29z"/>
			</g>
		</g>
		<g>
			<g>
				<path d="M107.809,64.283c-0.365,0-0.716-0.078-1.043-0.241c-1.786-0.89-1.982-3.87-0.457-6.931
					c1.526-3.062,4.023-4.699,5.809-3.81c1.786,0.891,1.982,3.87,0.457,6.932v0C111.328,62.732,109.434,64.283,107.809,64.283z
					 M111.05,55.056c-0.606,0-1.957,0.95-2.952,2.947c-1.106,2.221-0.915,4.013-0.441,4.249s2.02-0.691,3.126-2.911c0,0,0,0,0,0
					c1.107-2.221,0.915-4.013,0.441-4.249C111.177,55.067,111.118,55.056,111.05,55.056z"/>
			</g>
		</g>
		<g>
			<g>
				<path d="M105.046,69.807c-0.468,0-0.879-0.316-0.97-0.792c-0.167-0.874,0.29-2.534,1.128-3.364
					c0.475-0.468,1.053-0.658,1.626-0.547c0.542,0.109,0.892,0.637,0.783,1.178c-0.099,0.488-0.548,0.814-1.019,0.802
					c-0.281,0.27-0.601,1.217-0.552,1.56c0.076,0.538-0.287,1.059-0.823,1.148C105.161,69.802,105.104,69.807,105.046,69.807z"/>
			</g>
		</g>
		<g>
			<g>
				<path d="M108.096,70.422c-0.468,0-0.879-0.316-0.97-0.792c-0.167-0.874,0.29-2.534,1.128-3.364
					c0.474-0.469,1.053-0.664,1.626-0.546c0.542,0.109,0.892,0.637,0.782,1.178c-0.099,0.488-0.542,0.819-1.019,0.801
					c-0.281,0.27-0.601,1.217-0.552,1.56c0.076,0.538-0.287,1.059-0.823,1.148C108.211,70.417,108.153,70.422,108.096,70.422z"/>
			</g>
		</g>
		<g>
			<g>
				<path d="M101.942,65.067c-0.233,0-0.467-0.023-0.701-0.071c-1.891-0.381-3.12-2.231-2.738-4.123
					c0.186-0.917,0.716-1.706,1.495-2.223c0.778-0.517,1.711-0.702,2.629-0.515c0.916,0.185,1.706,0.715,2.223,1.494
					s0.7,1.712,0.516,2.629c0,0,0,0,0,0c-0.185,0.916-0.716,1.706-1.495,2.223C103.29,64.867,102.623,65.067,101.942,65.067z
					 M101.934,60.065c-0.699,0-1.326,0.493-1.47,1.204c-0.163,0.811,0.363,1.604,1.174,1.767c0.393,0.082,0.792,0.001,1.127-0.22
					c0.333-0.222,0.561-0.56,0.64-0.953l0,0c0.164-0.811-0.363-1.604-1.173-1.767C102.131,60.075,102.032,60.065,101.934,60.065z
					 M104.385,62.061h0.01H104.385z"/>
			</g>
		</g>
	</g>
</g>
</svg>
