<?xml version="1.0" encoding="utf-8"?>
<!-- Generator: Adobe Illustrator 24.2.3, SVG Export Plug-In . SVG Version: 6.00 Build 0)  -->
<svg version="1.1" id="_x30_9" xmlns="http://www.w3.org/2000/svg" xmlns:xlink="http://www.w3.org/1999/xlink" x="0px" y="0px"
	 viewBox="0 0 128 128" style="enable-background:new 0 0 128 128;" xml:space="preserve">
<style type="text/css">
	.st0{opacity:0.3;}
</style>
<g>
	<g>
		<g>
			<g>
				<path d="M111.059,23.26c-0.465,0-0.881-0.325-0.979-0.798c-0.111-0.541,0.237-1.07,0.778-1.181
					c0.558-0.115,1.115-0.325,1.657-0.625c1.101-0.609,1.958-1.51,2.184-2.296c0.051-0.177,0.09-0.427-0.015-0.614
					c-0.104-0.191-0.334-0.292-0.51-0.342c-0.786-0.23-2.003,0.016-3.102,0.623c-0.277,0.152-0.53,0.318-0.775,0.511
					c-0.437,0.342-1.064,0.266-1.404-0.168c-0.342-0.434-0.266-1.063,0.168-1.404c0.334-0.263,0.678-0.489,1.049-0.692
					c1.585-0.875,3.314-1.17,4.624-0.79c0.774,0.226,1.363,0.675,1.703,1.299c0.342,0.617,0.406,1.355,0.184,2.13
					c-0.376,1.309-1.549,2.615-3.138,3.493c-0.717,0.398-1.465,0.679-2.223,0.834C111.193,23.253,111.125,23.26,111.059,23.26z"/>
			</g>
		</g>
		<g>
			<g>
				<path d="M97.939,16.75c-0.459,0-0.873-0.318-0.976-0.785c-0.208-0.945-0.612-1.59-1.108-1.768
					c-0.482-0.173-0.982,0.139-1.239,0.34c-0.434,0.341-1.062,0.265-1.403-0.17s-0.265-1.063,0.171-1.404
					c0.988-0.775,2.137-1.012,3.147-0.648c1.174,0.421,2.021,1.565,2.386,3.221c0.119,0.539-0.222,1.073-0.762,1.191
					C98.083,16.743,98.011,16.75,97.939,16.75z"/>
			</g>
		</g>
		<g>
			<g>
				<path d="M101.731,19.03c-0.364,0-0.716-0.2-0.893-0.547c-0.25-0.492-0.054-1.094,0.438-1.344
					c0.831-0.423,1.771-0.643,2.689-0.543c0.55,0.059,0.947,0.552,0.888,1.101c-0.059,0.548-0.552,0.942-1.101,0.887
					c-0.058-0.005-0.118-0.004-0.174-0.004c-0.481,0-0.951,0.115-1.396,0.341C102.039,18.995,101.884,19.03,101.731,19.03z"/>
			</g>
		</g>
		<g>
			<g>
				<path d="M109.01,27.13c-0.454,0-0.886-0.097-1.284-0.289l-7.23-3.396c-1.268-0.604-1.945-1.979-1.652-3.344
					c0.115-0.541,0.647-0.886,1.187-0.769c0.54,0.116,0.885,0.647,0.769,1.187c-0.098,0.457,0.13,0.917,0.553,1.118l7.234,3.397
					c0.486,0.233,1.101,0.01,1.329-0.477c0.704-1.5,0.058-3.29-1.439-3.993l-0.635-0.303c-0.499-0.237-0.711-0.834-0.474-1.333
					c0.238-0.498,0.834-0.711,1.333-0.473l0.631,0.3c2.49,1.17,3.567,4.153,2.396,6.648C111.238,26.452,110.172,27.13,109.01,27.13z
					"/>
			</g>
		</g>
		<g>
			<g>
				<path d="M103.68,24.831c-0.115,0-0.231-0.02-0.346-0.062c-0.519-0.191-0.783-0.766-0.593-1.284
					c0.409-1.111,0.936-2.141,1.563-3.059c0.312-0.456,0.933-0.572,1.39-0.261c0.456,0.312,0.572,0.934,0.261,1.39
					c-0.534,0.782-0.984,1.664-1.337,2.621C104.469,24.58,104.087,24.831,103.68,24.831z"/>
			</g>
		</g>
		<g>
			<g>
				<path d="M104.98,21.996c-0.625,0-1.187-0.181-1.636-0.562c-0.813-0.689-1.072-1.847-0.728-3.26
					c0.286-1.174,0.974-2.445,1.936-3.581c2.211-2.609,5.026-3.605,6.549-2.316c0.813,0.689,1.072,1.847,0.728,3.26
					c-0.286,1.174-0.974,2.445-1.936,3.581C108.335,20.958,106.476,21.996,104.98,21.996z M109.456,13.707
					c-0.688,0-2.072,0.639-3.378,2.18c-0.754,0.89-1.307,1.896-1.518,2.761c-0.167,0.684-0.082,1.126,0.077,1.26
					c0.403,0.343,2.127-0.189,3.73-2.083c0.754-0.89,1.307-1.896,1.518-2.761c0.167-0.684,0.082-1.126-0.077-1.26
					C109.733,13.74,109.613,13.707,109.456,13.707z"/>
			</g>
		</g>
		<g>
			<g>
				<path d="M100.547,26.653c-0.024,0-0.049-0.001-0.074-0.003c-0.541-0.042-0.952-0.486-0.924-1.028
					c0.048-0.89,0.887-2.393,1.899-2.998c0.57-0.342,1.177-0.393,1.707-0.143c0.5,0.235,0.714,0.831,0.479,1.331
					c-0.211,0.45-0.714,0.671-1.18,0.536c-0.337,0.195-0.873,1.04-0.908,1.384C101.494,26.248,101.057,26.653,100.547,26.653z"/>
			</g>
		</g>
		<g>
			<g>
				<path d="M103.362,27.978c-0.024,0-0.049-0.001-0.073-0.002c-0.541-0.042-0.952-0.484-0.925-1.027
					c0.046-0.888,0.885-2.392,1.897-2.999c0.57-0.341,1.179-0.394,1.709-0.144c0.5,0.235,0.714,0.831,0.479,1.331
					c-0.212,0.449-0.714,0.673-1.181,0.536c-0.337,0.195-0.873,1.04-0.908,1.383C104.31,27.571,103.873,27.978,103.362,27.978z"/>
			</g>
		</g>
		<g>
			<g>
				<path d="M99.237,21.378c-0.498,0-1.004-0.106-1.484-0.333c-1.745-0.821-2.498-2.91-1.678-4.657
					c0.822-1.748,2.913-2.498,4.658-1.677c0.846,0.397,1.486,1.101,1.803,1.981s0.271,1.83-0.126,2.676
					C101.814,20.634,100.552,21.378,99.237,21.378z M99.245,16.378c-0.563,0-1.104,0.319-1.359,0.861
					c-0.352,0.748-0.029,1.644,0.719,1.996c0.749,0.351,1.644,0.03,1.995-0.719l0,0c0.171-0.362,0.19-0.77,0.055-1.147
					c-0.136-0.377-0.41-0.678-0.772-0.849C99.676,16.424,99.459,16.378,99.245,16.378z"/>
			</g>
		</g>
	</g>
	<g>
		<g>
			<g>
				<path d="M15.941,47.01c-0.066,0-0.135-0.006-0.202-0.021c-0.758-0.156-1.506-0.437-2.224-0.835
					c-1.588-0.877-2.761-2.184-3.137-3.493c-0.223-0.775-0.158-1.514,0.187-2.137c0.335-0.615,0.92-1.062,1.688-1.288
					c1.308-0.382,3.04-0.089,4.637,0.786c0.371,0.196,0.704,0.43,0.958,0.617c0.269,0.179,0.446,0.484,0.446,0.831
					c0,0.552-0.442,1-0.995,1c-0.214,0-0.433-0.069-0.604-0.196c-0.215-0.159-0.472-0.341-0.754-0.491
					c-1.118-0.613-2.343-0.857-3.124-0.626c-0.173,0.051-0.399,0.149-0.499,0.332c-0.107,0.194-0.068,0.444-0.018,0.621
					c0.226,0.787,1.083,1.688,2.183,2.296c0.543,0.3,1.101,0.511,1.658,0.625c0.541,0.111,0.89,0.64,0.778,1.181
					C16.822,46.684,16.406,47.01,15.941,47.01z"/>
			</g>
		</g>
		<g>
			<g>
				<path d="M29.061,40.5c-0.071,0-0.144-0.007-0.216-0.023c-0.54-0.119-0.881-0.652-0.762-1.191
					c0.365-1.657,1.213-2.801,2.388-3.22c1.01-0.36,2.159-0.122,3.149,0.66c0.433,0.342,0.507,0.971,0.165,1.404
					c-0.341,0.433-0.971,0.509-1.405,0.165c-0.256-0.203-0.76-0.514-1.237-0.346c-0.495,0.177-0.898,0.82-1.106,1.766
					C29.934,40.182,29.52,40.5,29.061,40.5z"/>
			</g>
		</g>
		<g>
			<g>
				<path d="M25.269,42.8c-0.161,0-0.325-0.039-0.477-0.122c-0.438-0.238-0.941-0.347-1.445-0.349c-0.033,0-0.066,0.001-0.101,0.004
					c-0.552,0.065-1.042-0.338-1.101-0.887c-0.06-0.549,0.338-1.042,0.888-1.101c0.952-0.101,1.895,0.13,2.714,0.576
					c0.485,0.264,0.665,0.871,0.401,1.356C25.967,42.611,25.623,42.8,25.269,42.8z"/>
			</g>
		</g>
		<g>
			<g>
				<path d="M17.99,50.89c-1.162,0-2.229-0.678-2.717-1.728c-1.173-2.496-0.096-5.483,2.4-6.657l0.622-0.291
					c0.636-0.296,1.429,0.207,1.429,0.906c0,0.435-0.273,0.805-0.659,0.942l-0.542,0.253c-1.498,0.704-2.144,2.498-1.438,3.999
					c0.229,0.492,0.869,0.703,1.32,0.484l2.619-1.234l0.001,0.003c0.03-0.014,0.062-0.027,0.094-0.039l2.723-1.293
					c0.034-0.016,0.073-0.032,0.115-0.046l1.694-0.804c0.424-0.197,0.653-0.661,0.553-1.107c-0.121-0.539,0.218-1.074,0.756-1.195
					c0.541-0.121,1.074,0.217,1.195,0.756c0.306,1.357-0.391,2.769-1.653,3.356l-1.743,0.827c-0.039,0.019-0.078,0.034-0.119,0.047
					l-2.72,1.292c-0.039,0.018-0.079,0.034-0.119,0.047l-2.535,1.194C18.876,50.793,18.444,50.89,17.99,50.89z"/>
			</g>
		</g>
		<g>
			<g>
				<path d="M23.32,48.59c-0.407,0-0.789-0.25-0.938-0.655c-0.353-0.958-0.803-1.839-1.337-2.621
					c-0.312-0.456-0.195-1.078,0.261-1.39c0.457-0.311,1.079-0.194,1.39,0.261c0.628,0.917,1.153,1.947,1.563,3.059
					c0.19,0.518-0.074,1.093-0.593,1.284C23.552,48.57,23.436,48.59,23.32,48.59z"/>
			</g>
		</g>
		<g>
			<g>
				<path d="M22.02,45.75c-1.495,0-3.354-1.038-4.913-2.877c-0.962-1.135-1.649-2.407-1.936-3.581
					c-0.345-1.413-0.086-2.571,0.728-3.26c1.524-1.29,4.338-0.293,6.549,2.316c0.962,1.135,1.649,2.407,1.936,3.581
					c0.345,1.413,0.086,2.571-0.728,3.26C23.206,45.568,22.645,45.75,22.02,45.75z M17.544,37.461c-0.157,0-0.277,0.033-0.353,0.097
					c-0.159,0.134-0.244,0.576-0.077,1.26c0.211,0.865,0.764,1.872,1.518,2.761c1.606,1.896,3.33,2.424,3.73,2.082
					c0.159-0.134,0.244-0.576,0.077-1.26c-0.211-0.865-0.764-1.872-1.518-2.761C19.616,38.1,18.231,37.461,17.544,37.461z"/>
			</g>
		</g>
		<g>
			<g>
				<path d="M26.451,50.43c-0.527,0-0.968-0.412-0.997-0.945c-0.036-0.345-0.571-1.188-0.908-1.383
					c-0.469,0.134-0.969-0.086-1.181-0.536c-0.234-0.5-0.021-1.096,0.479-1.331c0.529-0.25,1.138-0.2,1.708,0.143
					c1.012,0.605,1.851,2.109,1.898,2.998c0.028,0.551-0.395,1.022-0.946,1.051C26.487,50.429,26.469,50.43,26.451,50.43z"/>
			</g>
		</g>
		<g>
			<g>
				<path d="M23.636,51.754c-0.527,0-0.969-0.413-0.997-0.946c-0.036-0.344-0.571-1.187-0.908-1.382
					c-0.466,0.137-0.969-0.085-1.18-0.536c-0.235-0.5-0.021-1.095,0.479-1.331c0.53-0.251,1.138-0.199,1.709,0.143
					c1.013,0.606,1.852,2.11,1.897,2.999c0.028,0.552-0.396,1.022-0.947,1.05C23.671,51.754,23.653,51.754,23.636,51.754z"/>
			</g>
		</g>
		<g>
			<g>
				<path d="M27.76,45.134c-0.4,0-0.801-0.069-1.188-0.208c-0.879-0.317-1.583-0.958-1.981-1.803
					c-0.821-1.746-0.069-3.835,1.677-4.657c1.749-0.821,3.837-0.068,4.658,1.677c0.82,1.747,0.067,3.835-1.678,4.657
					C28.773,45.022,28.268,45.134,27.76,45.134z M27.754,40.133c-0.213,0-0.431,0.045-0.636,0.143
					c-0.748,0.352-1.07,1.247-0.718,1.996c0.17,0.363,0.472,0.637,0.849,0.773c0.376,0.135,0.783,0.117,1.146-0.054
					c0.748-0.352,1.07-1.248,0.719-1.996C28.859,40.451,28.318,40.133,27.754,40.133z"/>
			</g>
		</g>
	</g>
	<g>
		<g>
			<g>
				<path d="M65.05,80.521c-0.429,0-0.825-0.278-0.956-0.708c-0.161-0.528,0.136-1.087,0.664-1.249l4.948-1.52
					c0.53-0.164,1.087,0.134,1.25,0.662c0.162,0.528-0.134,1.087-0.662,1.25l-4.952,1.521C65.244,80.506,65.146,80.521,65.05,80.521
					z"/>
			</g>
		</g>
		<g>
			<g>
				<path d="M109,109H50.28c-0.553,0-1-0.448-1-1s0.447-1,1-1H108V93.39c0-3.979-2.553-7.437-6.354-8.604l-18.94-5.83
					c-0.528-0.163-0.824-0.722-0.662-1.25c0.163-0.527,0.722-0.823,1.25-0.662l18.941,5.831C106.879,84.301,110,88.527,110,93.39
					V108C110,108.552,109.553,109,109,109z"/>
			</g>
		</g>
		<g>
			<g>
				<path d="M76.5,91C70.159,91,65,85.841,65,79.5v-0.27c0-0.439,0.286-0.827,0.706-0.956l4-1.23c0.53-0.164,1.087,0.134,1.25,0.662
					c0.162,0.528-0.134,1.087-0.662,1.25l-3.282,1.009C67.255,84.988,71.418,89,76.5,89s9.245-4.012,9.488-9.035l-3.282-1.009
					c-0.528-0.163-0.824-0.722-0.662-1.25c0.163-0.527,0.722-0.823,1.25-0.662l4,1.23C87.714,78.403,88,78.791,88,79.23v0.27
					C88,85.841,82.841,91,76.5,91z"/>
			</g>
		</g>
		<g>
			<g>
				<path d="M76.5,87c-4.136,0-7.5-3.364-7.5-7.5v-6.38c0-0.552,0.447-1,1-1s1,0.448,1,1v6.38c0,3.033,2.468,5.5,5.5,5.5
					s5.5-2.467,5.5-5.5v-6.38c0-0.552,0.447-1,1-1s1,0.448,1,1v6.38C84,83.636,80.636,87,76.5,87z"/>
			</g>
		</g>
		<g>
			<g>
				<path d="M92,61c-0.138,0-0.276-0.028-0.407-0.086C91.232,60.753,91,60.395,91,60v-9c0-0.552,0.447-1,1-1h2.469
					C96.416,50,98,51.47,98,53.278c0,1.696-0.757,3.349-2.077,4.537l-3.254,2.929C92.481,60.912,92.242,61,92,61z M93,52v5.754
					l1.585-1.426c0,0,0,0,0,0C95.497,55.507,96,54.424,96,53.278C96,52.573,95.313,52,94.469,52H93z"/>
			</g>
		</g>
		<g>
			<g>
				<path d="M61.239,63.72c-0.471,0-0.89-0.333-0.981-0.813C60.087,62.009,60,61.079,60,60.14V43c0-0.552,0.447-1,1-1s1,0.448,1,1
					v17.14c0,0.813,0.075,1.618,0.223,2.393c0.104,0.542-0.253,1.066-0.795,1.169C61.364,63.714,61.301,63.72,61.239,63.72z"/>
			</g>
		</g>
		<g>
			<g>
				<path d="M78.14,75H74.86c-5.26,0-10.177-2.826-12.834-7.375c-0.278-0.477-0.118-1.089,0.359-1.368
					c0.478-0.278,1.09-0.117,1.367,0.359C66.053,70.554,70.31,73,74.86,73h3.279C85.23,73,91,67.231,91,60.14V46.66
					c0-0.552,0.447-1,1-1s1,0.448,1,1v13.48C93,68.334,86.334,75,78.14,75z"/>
			</g>
		</g>
		<g>
			<g>
				<path d="M66.021,65.52c-0.369,0-0.725-0.205-0.898-0.559C64.388,63.469,64,61.802,64,60.14c0-0.552,0.447-1,1-1s1,0.448,1,1
					c0,1.357,0.317,2.719,0.917,3.938c0.243,0.496,0.04,1.095-0.456,1.339C66.319,65.487,66.169,65.52,66.021,65.52z"/>
			</g>
		</g>
		<g>
			<g>
				<path d="M61,61c-0.242,0-0.481-0.088-0.669-0.257l-3.254-2.929C55.757,56.627,55,54.974,55,53.278C55,51.47,56.584,50,58.531,50
					H61c0.553,0,1,0.448,1,1v9c0,0.395-0.232,0.753-0.593,0.914C61.276,60.972,61.138,61,61,61z M58.531,52
					C57.687,52,57,52.573,57,53.278c0,1.146,0.503,2.229,1.415,3.05c0,0,0,0,0,0L60,57.754V52H58.531z"/>
			</g>
		</g>
		<g>
			<g>
				<path d="M96,109H57c-0.553,0-1-0.448-1-1v-4.72c0-0.552,0.447-1,1-1s1,0.448,1,1V107h37V97c0-0.552,0.447-1,1-1s1,0.448,1,1v11
					C97,108.552,96.553,109,96,109z"/>
			</g>
		</g>
		<g>
			<g>
				<path d="M92.653,47.684c-1.963,0-4.143-0.574-5.756-2.241c-2.628,2.149-5.357,2.098-7.979-0.154
					c-3.806,2.599-7.02,2.597-10.007-0.003c-2.552,1.69-5.153,2.194-6.924,1.309c-0.689-0.344-1.212-0.872-1.548-1.547
					c-1.564,1.442-2.941,1.904-4.108,1.378c-1.304-0.59-1.876-2.304-1.53-4.584c0.081-0.546,0.591-0.924,1.138-0.839
					c0.546,0.083,0.922,0.592,0.839,1.138c-0.221,1.463,0.095,2.334,0.378,2.463c0.236,0.107,1.26-0.085,3.079-2.247
					c0.271-0.321,0.715-0.439,1.107-0.295C61.737,42.205,62,42.58,62,43c0,0.905,0.297,1.513,0.883,1.806
					c1.006,0.503,3.104,0.204,5.518-1.605c0.397-0.298,0.956-0.26,1.307,0.093c2.643,2.643,5.079,2.615,8.693-0.093
					c0.397-0.298,0.955-0.26,1.307,0.093c2.277,2.277,4.309,2.277,6.586,0c0.21-0.209,0.514-0.312,0.794-0.289
					c0.295,0.026,0.562,0.181,0.732,0.423c1.985,2.837,6.003,2.508,7.68,1.705c0.643-0.44,1.197-1.125,0.626-2.775
					c-0.181-0.522,0.097-1.091,0.618-1.272c0.522-0.183,1.091,0.096,1.272,0.618c0.969,2.799-0.262,4.335-1.464,5.131
					c-0.033,0.022-0.068,0.042-0.104,0.061C95.554,47.341,94.169,47.684,92.653,47.684z M96,46h0.01H96z"/>
			</g>
		</g>
		<g>
			<g>
				<path d="M76,61c-1.97,0-3-1.509-3-3c0-0.769,0.267-1.494,0.753-2.04c0.335-0.377,0.762-0.651,1.247-0.808V52
					c0-0.552,0.447-1,1-1s1,0.448,1,1v4c0,0.552-0.447,1-1,1c-0.952,0-1,0.833-1,1s0.048,1,1,1c0.553,0,1,0.448,1,1S76.553,61,76,61
					z"/>
			</g>
		</g>
		<g>
			<g>
				<g>
					<path d="M83.5,58c-1.93,0-3.5-1.794-3.5-4s1.57-4,3.5-4s3.5,1.794,3.5,4S85.43,58,83.5,58z M83.5,52c-0.813,0-1.5,0.916-1.5,2
						s0.687,2,1.5,2s1.5-0.916,1.5-2S84.313,52,83.5,52z"/>
				</g>
			</g>
			<g>
				<g>
					<path d="M68.5,58c-1.93,0-3.5-1.794-3.5-4s1.57-4,3.5-4s3.5,1.794,3.5,4S70.43,58,68.5,58z M68.5,52c-0.813,0-1.5,0.916-1.5,2
						s0.687,2,1.5,2s1.5-0.916,1.5-2S69.313,52,68.5,52z"/>
				</g>
			</g>
		</g>
		<g>
			<g>
				<path d="M76,71c-3.859,0-7-3.14-7-7c0-0.552,0.447-1,1-1h12c0.553,0,1,0.448,1,1C83,67.86,79.859,71,76,71z M71.101,65
					c0.465,2.279,2.484,4,4.899,4s4.435-1.721,4.899-4H71.101z"/>
			</g>
		</g>
		<g>
			<g>
				<path d="M57.959,34.109c-0.003,0-0.005,0-0.008,0c-0.374-0.002-0.721-0.216-0.89-0.55c-0.199-0.393-0.425-0.837,2.188-4.445
					c0.323-0.448,0.946-0.548,1.396-0.224c0.447,0.324,0.547,0.949,0.223,1.396c-0.713,0.985-1.202,1.746-1.514,2.27
					c-0.014,0.121-0.049,0.242-0.108,0.356C58.898,33.581,58.623,34.109,57.959,34.109z"/>
			</g>
		</g>
		<g>
			<g>
				<path d="M61.889,28.825c-0.323,0-0.557-0.165-0.648-0.243c-0.567-0.481-0.343-1.095-0.123-1.501
					c0.024-0.194,0.108-0.382,0.257-0.538c0.691-0.731,1.303-0.364,1.475-0.234c0.448,0.341,0.513,0.826,0.189,1.441
					c0.004,0.271-0.106,0.538-0.334,0.731C62.398,28.74,62.12,28.825,61.889,28.825z"/>
			</g>
		</g>
		<g>
			<g>
				<path d="M51.361,40.2c-0.057,0-0.115-0.005-0.173-0.015c-0.544-0.095-0.908-0.613-0.813-1.157
					c0.377-2.159,1.055-4.269,2.013-6.271c0.239-0.497,0.837-0.708,1.334-0.47c0.498,0.239,0.709,0.836,0.471,1.334
					c-0.88,1.837-1.502,3.771-1.847,5.75C52.261,39.858,51.839,40.2,51.361,40.2z"/>
			</g>
		</g>
		<g>
			<g>
				<path d="M101.649,40.27c-0.479,0-0.9-0.344-0.984-0.831C98.828,28.755,89.611,21,78.75,21h-4.5
					c-3.925,0-7.771,1.032-11.127,2.984c-0.478,0.278-1.09,0.116-1.367-0.361s-0.116-1.089,0.361-1.367
					C65.777,20.126,69.973,19,74.25,19h4.5c11.838,0,21.884,8.454,23.886,20.101c0.094,0.544-0.271,1.062-0.815,1.155
					C101.763,40.266,101.705,40.27,101.649,40.27z"/>
			</g>
		</g>
		<g>
			<g>
				<path d="M54.989,31.24c-0.191,0-0.385-0.055-0.555-0.169c-0.459-0.307-0.583-0.928-0.275-1.387
					c0.947-1.415,2.054-2.733,3.289-3.916c0.397-0.381,1.03-0.37,1.414,0.03c0.382,0.399,0.368,1.032-0.031,1.414
					c-1.131,1.083-2.144,2.289-3.01,3.584C55.629,31.084,55.312,31.24,54.989,31.24z"/>
			</g>
		</g>
		<g>
			<g>
				<path d="M47,53.78c-0.553,0-1-0.448-1-1v-7.8c0-0.552,0.447-1,1-1s1,0.448,1,1v7.8C48,53.332,47.553,53.78,47,53.78z"/>
			</g>
		</g>
		<g>
			<g>
				<path d="M47.519,69.97c-0.468,0-0.886-0.33-0.98-0.806C46.182,67.355,46,65.449,46,63.5v-6.23c0-0.552,0.447-1,1-1s1,0.448,1,1
					v6.23c0,1.819,0.168,3.595,0.501,5.276c0.106,0.542-0.246,1.068-0.788,1.175C47.647,69.964,47.583,69.97,47.519,69.97z"/>
			</g>
		</g>
		<g>
			<g>
				<path d="M76.5,94c-4.526,0-8.875-0.967-12.926-2.875c-0.5-0.235-0.714-0.831-0.479-1.331c0.234-0.499,0.829-0.715,1.33-0.479
					C68.208,91.097,72.271,92,76.5,92c8.246,0,16.084-3.574,21.505-9.806C102.516,77.013,105,70.374,105,63.5V44.98
					c0-0.552,0.447-1,1-1s1,0.448,1,1V63.5c0,7.356-2.658,14.461-7.486,20.007C93.714,90.175,85.325,94,76.5,94z"/>
			</g>
		</g>
		<g>
			<g>
				<path d="M106,45.98c-0.385,0-0.764-0.076-1.125-0.227c-1.201-0.474-2.226-0.857-3.204-1.199
					c-10.472-3.704-20.969-5.151-31.209-4.308c-1.119,0.089-2.087,0.191-2.963,0.313c-5.425,0.671-10.854,1.996-16.155,3.939
					c-1.086,0.393-2.157,0.81-3.187,1.243C47.805,45.897,47.41,45.98,47,45.98c-1.217,0-2.306-0.729-2.773-1.856
					c-0.306-0.742-0.306-1.556-0.001-2.295c0.307-0.742,0.883-1.318,1.624-1.624c0.261-0.11,0.521-0.214,0.791-0.318
					c1.463-0.595,2.949-1.147,4.401-1.635c4.747-1.629,9.644-2.812,14.547-3.512c0.548-0.08,1.054,0.302,1.132,0.848
					c0.078,0.547-0.302,1.053-0.849,1.131c-4.779,0.683-9.553,1.835-14.188,3.426c-1.419,0.476-2.866,1.014-4.308,1.6
					c-0.267,0.103-0.507,0.199-0.757,0.305c-0.254,0.104-0.444,0.295-0.545,0.541c-0.103,0.247-0.103,0.52,0,0.768
					c0.204,0.493,0.83,0.75,1.29,0.545c1.078-0.453,2.181-0.883,3.295-1.285c5.438-1.994,11.018-3.354,16.577-4.042
					c0.9-0.125,1.908-0.232,3.063-0.324c10.52-0.868,21.298,0.617,32.032,4.414c1.002,0.35,2.05,0.742,3.294,1.233
					c0.586,0.244,1.11-0.062,1.305-0.55c0.203-0.513-0.048-1.097-0.562-1.301l-0.166-0.067c-0.181-0.073-0.358-0.146-0.542-0.211
					c-1.449-0.559-2.896-1.078-4.326-1.552c-10.094-3.361-20.254-4.717-30.188-4.042c-0.564,0.036-1.028-0.378-1.066-0.929
					c-0.037-0.551,0.379-1.028,0.93-1.066c10.198-0.699,20.613,0.695,30.955,4.139c1.458,0.483,2.937,1.014,4.394,1.576
					c0.186,0.066,0.388,0.147,0.593,0.23l0.159,0.064c1.535,0.611,2.288,2.359,1.678,3.897C108.339,45.221,107.219,45.98,106,45.98z
					"/>
			</g>
		</g>
		<g class="st0">
			<g>
				<path d="M98,43.25v0.36c-7.98-2.83-15.93-4.35-23.81-4.57C82.05,38.82,90,39.9,97.98,42.3C97.99,42.61,98,42.93,98,43.25z"/>
			</g>
		</g>
	</g>
	<g>
		<g>
			<g>
				<g>
					<g>
						<path d="M34.52,75.96h-6.17c-0.357,0-0.688-0.19-0.866-0.5l-1.93-3.34c-0.276-0.479-0.112-1.09,0.366-1.366
							c0.477-0.278,1.089-0.113,1.366,0.365l1.641,2.84h5.016l1.642-2.84c0.276-0.478,0.888-0.643,1.366-0.365
							c0.479,0.276,0.643,0.888,0.366,1.366l-1.931,3.34C35.207,75.77,34.877,75.96,34.52,75.96z"/>
					</g>
				</g>
				<g>
					<g>
						<path d="M43.78,81.31h-6.17c-0.357,0-0.688-0.19-0.866-0.5l-3.091-5.35c-0.179-0.31-0.179-0.691,0-1l1.931-3.34
							c0.276-0.478,0.888-0.643,1.366-0.365c0.479,0.276,0.643,0.888,0.366,1.366l-1.642,2.839l2.513,4.35h5.016l2.513-4.351
							l-0.974-1.692c-0.111-0.161-0.177-0.356-0.177-0.567c0-0.552,0.441-1,0.994-1c0.357,0,0.699,0.191,0.878,0.501l1.3,2.26
							c0.178,0.309,0.177,0.69-0.001,0.999l-3.09,5.35C44.468,81.12,44.138,81.31,43.78,81.31z"/>
					</g>
				</g>
				<g>
					<g>
						<path d="M53.04,75.96h-6.17c-0.357,0-0.688-0.191-0.867-0.501l-1.26-2.191c-0.112-0.161-0.179-0.356-0.179-0.567
							c0-0.552,0.442-1,0.995-1h0.011c0.357,0,0.688,0.191,0.867,0.501l1.011,1.758h5.017l0.061-0.104
							c0.277-0.477,0.89-0.64,1.367-0.361c0.478,0.278,0.639,0.891,0.361,1.368l-0.35,0.6C53.725,75.771,53.396,75.96,53.04,75.96z"
							/>
					</g>
				</g>
				<g>
					<g>
						<path d="M34.522,86.653h-6.174c-0.357,0-0.688-0.19-0.866-0.5l-3.088-5.347c-0.179-0.31-0.179-0.69,0-1l3.088-5.347
							c0.179-0.31,0.509-0.5,0.866-0.5h6.174c0.357,0,0.688,0.19,0.866,0.5l3.087,5.347c0.179,0.31,0.179,0.69,0,1l-3.087,5.347
							C35.21,86.462,34.88,86.653,34.522,86.653z M28.926,84.653h5.02l2.51-4.347l-2.51-4.347h-5.02l-2.511,4.347L28.926,84.653z"/>
					</g>
				</g>
				<g>
					<g>
						<path d="M25.26,81.31h-4.18c-0.543,0-0.986-0.433-1-0.975c-0.06-2.399,0.084-5.013,0.428-7.769
							c0.042-0.342,0.258-0.638,0.57-0.783c0.796-0.37,2.352-0.871,5.243-1.158c0.397-0.043,0.769,0.155,0.965,0.495l1.93,3.34
							c0.179,0.31,0.179,0.691,0,1l-3.09,5.35C25.947,81.12,25.617,81.31,25.26,81.31z M22.067,79.31h2.615l2.512-4.35l-1.314-2.275
							c-1.758,0.21-2.844,0.5-3.458,0.713C22.185,75.472,22.065,77.455,22.067,79.31z"/>
					</g>
				</g>
				<g>
					<g>
						<path d="M25.26,92h-2.54c-0.553,0-1-0.448-1-1s0.447-1,1-1h1.963l2.512-4.35l-2.512-4.34H21.08c-0.553,0-1-0.448-1-1
							s0.447-1,1-1h4.18c0.356,0,0.687,0.19,0.865,0.499l3.09,5.34c0.18,0.31,0.18,0.691,0.001,1.001l-3.09,5.35
							C25.947,91.81,25.617,92,25.26,92z"/>
					</g>
				</g>
				<g>
					<g>
						<path d="M26.859,99.92c-0.17,0-0.343-0.043-0.5-0.135c-0.479-0.277-0.642-0.889-0.364-1.367l1.199-2.069L24.683,92H22.72
							c-0.553,0-1-0.448-1-1s0.447-1,1-1h2.54c0.357,0,0.688,0.19,0.866,0.5l3.09,5.35c0.179,0.31,0.179,0.692-0.001,1.001
							l-1.489,2.57C27.54,99.741,27.204,99.92,26.859,99.92z"/>
					</g>
				</g>
				<g>
					<g>
						<path d="M43.782,92c-0.17,0-0.342-0.043-0.499-0.134c-0.479-0.276-0.643-0.888-0.366-1.366l2.8-4.847l-2.511-4.347h-5.02
							l-2.51,4.347l2.799,4.847c0.276,0.479,0.112,1.09-0.366,1.366c-0.478,0.275-1.09,0.112-1.366-0.366l-3.087-5.347
							c-0.179-0.31-0.179-0.69,0-1l3.087-5.347c0.179-0.31,0.509-0.5,0.866-0.5h6.174c0.357,0,0.688,0.19,0.866,0.5l3.088,5.347
							c0.179,0.31,0.179,0.69,0,1L44.649,91.5C44.464,91.821,44.128,92,43.782,92z"/>
					</g>
				</g>
				<g>
					<g>
						<path d="M53.045,86.653h-6.174c-0.357,0-0.688-0.19-0.866-0.5l-3.088-5.347c-0.179-0.31-0.179-0.69,0-1l3.088-5.347
							c0.179-0.31,0.509-0.5,0.866-0.5h6.174c0.357,0,0.688,0.19,0.866,0.5l3.087,5.347c0.276,0.479,0.112,1.09-0.366,1.366
							c-0.478,0.274-1.09,0.112-1.366-0.366l-2.798-4.847h-5.02l-2.511,4.347l2.511,4.347h5.597c0.553,0,1,0.448,1,1
							S53.598,86.653,53.045,86.653z"/>
					</g>
				</g>
				<g>
					<g>
						<path d="M61.06,81.31h-4.93c-0.553,0-1-0.448-1-1s0.447-1,1-1h4.93c0.553,0,1,0.448,1,1S61.612,81.31,61.06,81.31z"/>
					</g>
				</g>
				<g>
					<g>
						<path d="M59.66,92h-3.53c-0.357,0-0.688-0.19-0.866-0.5l-3.09-5.35c-0.276-0.478-0.112-1.09,0.366-1.366
							c0.477-0.277,1.089-0.113,1.366,0.366L56.707,90h2.953c0.553,0,1,0.448,1,1S60.213,92,59.66,92z"/>
					</g>
				</g>
				<g>
					<g>
						<path d="M54.941,100.63c-0.345,0-0.681-0.179-0.866-0.499l-1.9-3.28c-0.18-0.31-0.18-0.692-0.001-1.001l3.09-5.35
							c0.179-0.31,0.509-0.5,0.866-0.5h3.53c0.553,0,1,0.448,1,1s-0.447,1-1,1h-2.953l-2.512,4.349l1.61,2.779
							c0.277,0.478,0.114,1.09-0.364,1.367C55.284,100.586,55.111,100.63,54.941,100.63z"/>
					</g>
				</g>
				<g>
					<g>
						<path d="M61.06,81.31h-4.93c-0.357,0-0.688-0.19-0.866-0.5l-3.09-5.35c-0.179-0.311-0.179-0.693,0.002-1.003l0.35-0.6
							c0.278-0.477,0.893-0.639,1.367-0.361c0.478,0.278,0.639,0.891,0.361,1.368l-0.058,0.099l2.511,4.348h4.353
							c0.553,0,1,0.448,1,1S61.612,81.31,61.06,81.31z"/>
					</g>
				</g>
				<g>
					<g>
						<path d="M34.522,97.347h-6.174c-0.357,0-0.688-0.19-0.866-0.5L24.395,91.5c-0.179-0.31-0.179-0.69,0-1l3.088-5.347
							c0.179-0.31,0.509-0.5,0.866-0.5h6.174c0.357,0,0.688,0.19,0.866,0.5l3.087,5.347c0.179,0.31,0.179,0.69,0,1l-3.087,5.347
							C35.21,97.157,34.88,97.347,34.522,97.347z M28.926,95.347h5.02L36.455,91l-2.51-4.347h-5.02L26.415,91L28.926,95.347z"/>
					</g>
				</g>
				<g>
					<g>
						<path d="M43.783,102.694h-6.174c-0.357,0-0.688-0.19-0.866-0.5l-3.087-5.347c-0.179-0.31-0.179-0.69,0-1l3.087-5.347
							c0.276-0.479,0.889-0.643,1.366-0.366c0.479,0.276,0.643,0.888,0.366,1.366l-2.799,4.847l2.51,4.347h5.02l2.511-4.347
							l-2.8-4.847c-0.276-0.478-0.112-1.09,0.366-1.366c0.477-0.277,1.089-0.113,1.366,0.366l3.088,5.347c0.179,0.31,0.179,0.69,0,1
							l-3.088,5.347C44.471,102.503,44.141,102.694,43.783,102.694z"/>
					</g>
				</g>
				<g>
					<g>
						<path d="M53.045,97.347h-6.174c-0.357,0-0.688-0.19-0.866-0.5L42.917,91.5c-0.179-0.31-0.179-0.69,0-1l3.088-5.347
							c0.179-0.31,0.509-0.5,0.866-0.5h6.174c0.357,0,0.688,0.19,0.866,0.5l3.087,5.347c0.179,0.31,0.179,0.69,0,1l-3.087,5.347
							C53.732,97.157,53.402,97.347,53.045,97.347z M47.448,95.347h5.02L54.978,91l-2.51-4.347h-5.02L44.937,91L47.448,95.347z"/>
					</g>
				</g>
				<g>
					<g>
						<path d="M35.629,106.11c-0.17,0-0.343-0.043-0.5-0.135c-0.479-0.277-0.642-0.889-0.364-1.366l1.69-2.919l-2.512-4.34h-5.018
							l-1.2,2.071c-0.277,0.477-0.891,0.639-1.366,0.364c-0.479-0.277-0.642-0.889-0.364-1.367l1.489-2.57
							c0.179-0.309,0.509-0.499,0.865-0.499h6.17c0.356,0,0.687,0.19,0.865,0.499l3.091,5.34c0.18,0.31,0.18,0.692,0,1.002
							l-1.98,3.42C36.31,105.931,35.974,106.11,35.629,106.11z"/>
					</g>
				</g>
				<g>
					<g>
						<path d="M45.901,106.36c-0.346,0-0.682-0.179-0.867-0.5l-1.831-3.17h-5.017l-1.691,2.921c-0.277,0.478-0.891,0.64-1.366,0.364
							c-0.479-0.277-0.642-0.889-0.364-1.366l1.98-3.42c0.179-0.309,0.509-0.499,0.865-0.499h6.17c0.357,0,0.688,0.19,0.866,0.5
							l2.12,3.67c0.276,0.478,0.112,1.09-0.366,1.366C46.243,106.317,46.071,106.36,45.901,106.36z"/>
					</g>
				</g>
				<g>
					<g>
						<path d="M45.901,106.36c-0.346,0-0.682-0.179-0.867-0.5l-2.12-3.67c-0.179-0.31-0.179-0.691,0.001-1.001l3.09-5.34
							c0.179-0.309,0.509-0.499,0.865-0.499h6.17c0.356,0,0.687,0.19,0.865,0.499l1.9,3.28c0.277,0.478,0.114,1.09-0.364,1.367
							c-0.476,0.277-1.089,0.114-1.366-0.364l-1.611-2.781h-5.017l-2.512,4.34l1.831,3.169c0.276,0.478,0.112,1.09-0.366,1.366
							C46.243,106.317,46.071,106.36,45.901,106.36z"/>
					</g>
				</g>
			</g>
		</g>
		<g>
			<g>
				<path d="M18.61,92.28c-0.434,0-0.833-0.284-0.96-0.721c-0.543-1.866-0.951-3.856-1.213-5.913
					c-0.069-0.548,0.318-1.048,0.866-1.118c0.553-0.068,1.049,0.318,1.118,0.866c0.248,1.954,0.635,3.84,1.148,5.606
					c0.154,0.53-0.15,1.085-0.681,1.24C18.797,92.267,18.702,92.28,18.61,92.28z"/>
			</g>
		</g>
		<g>
			<g>
				<path d="M41.164,111.005c-9.652,0.001-18.476-6.247-22.495-16.458c-0.202-0.514,0.051-1.094,0.564-1.297
					c0.513-0.201,1.094,0.05,1.297,0.564c5.106,12.973,16.393,16.708,25.313,14.654c9.304-2.141,19.623-11.667,18.089-31.471
					c-0.072-0.9-0.59-1.745-1.385-2.256c-3.291-2.116-10.453-4.167-18.69-5.351c-0.547-0.079-0.926-0.585-0.848-1.132
					c0.079-0.546,0.579-0.925,1.133-0.848c8.631,1.241,15.917,3.353,19.488,5.648c1.315,0.848,2.174,2.261,2.296,3.781
					c1.632,21.074-9.557,31.259-19.635,33.578C44.572,110.813,42.854,111.005,41.164,111.005z"/>
			</g>
		</g>
		<g>
			<g>
				<path d="M17.089,82.43c-0.534,0-0.978-0.423-0.998-0.962c-0.115-3.003,0.035-6.167,0.447-9.404
					c0.213-1.77,1.343-3.302,2.946-3.992c2.01-0.853,4.854-1.384,8.461-1.58c0.545-0.029,1.023,0.392,1.053,0.944
					c0.03,0.551-0.393,1.022-0.943,1.053c-3.327,0.181-6.019,0.673-7.784,1.422c-0.947,0.408-1.618,1.328-1.747,2.399
					c-0.399,3.135-0.545,6.188-0.435,9.083c0.021,0.552-0.409,1.016-0.961,1.037C17.115,82.43,17.103,82.43,17.089,82.43z"/>
			</g>
		</g>
		<g>
			<g>
				<path d="M32.53,72.42l-1.05-0.01c-0.553,0-1-0.448-1-1s0.447-1,1-1l1.05,0.01c0.553,0,1,0.448,1,1S33.083,72.42,32.53,72.42z"/>
			</g>
		</g>
		<g>
			<g>
				<path d="M41.18,107c-2.022,0-3.992-0.317-5.866-0.941c-3.225-1.05-6.194-3.035-8.582-5.736
					c-0.224-0.254-0.444-0.517-0.653-0.779c-1.853-2.32-3.303-5.092-4.311-8.238c-1.06-3.313-1.627-7.007-1.688-10.98
					c-0.06-2.389,0.084-5.003,0.428-7.759c0.042-0.342,0.258-0.638,0.57-0.783c0.796-0.37,2.352-0.871,5.243-1.158
					c0.673-0.073,1.398-0.124,2.211-0.154c0.584-0.015,1.016,0.41,1.037,0.962s-0.409,1.016-0.961,1.037
					c-0.766,0.029-1.446,0.076-2.081,0.145c-2.145,0.213-3.419,0.546-4.105,0.784c-0.28,2.442-0.396,4.756-0.342,6.887
					c0.058,3.786,0.594,7.285,1.592,10.411c0.934,2.913,2.27,5.47,3.97,7.6c0.19,0.238,0.39,0.476,0.59,0.705
					c2.15,2.432,4.816,4.217,7.708,5.159c3.12,1.04,6.638,1.101,9.688,0.238c3.1-0.843,5.945-2.595,8.238-5.068
					c0.1-0.108,0.211-0.228,0.312-0.347c2.013-2.283,3.531-5.063,4.526-8.278c0.953-3.084,1.409-6.577,1.354-10.38
					c-0.008-0.771-0.041-1.584-0.101-2.478c-1.491-0.854-3.836-1.72-6.828-2.521c-2.334-0.633-4.987-1.196-7.679-1.631
					c-0.021-0.002-0.041-0.005-0.06-0.008c-2.206-0.375-4.419-0.667-6.576-0.871c-0.55-0.052-0.954-0.54-0.901-1.089
					c0.051-0.55,0.535-0.948,1.089-0.902c2.192,0.207,4.438,0.503,6.678,0.882c0.017,0.002,0.033,0.004,0.048,0.006
					c2.772,0.447,5.512,1.028,7.922,1.682c2.429,0.65,5.759,1.704,7.81,3.024c0.264,0.169,0.433,0.453,0.456,0.766
					c0.086,1.142,0.133,2.161,0.143,3.115c0.057,4.01-0.429,7.71-1.444,10.996c-1.078,3.487-2.735,6.514-4.925,8.996
					c-0.107,0.126-0.236,0.267-0.355,0.396c-2.55,2.749-5.721,4.698-9.172,5.637C44.583,106.772,42.902,107,41.18,107z"/>
			</g>
		</g>
		<g>
			<g>
				<path d="M36.791,72.65c-0.029,0-0.06-0.001-0.089-0.004l-0.341-0.03c-0.336-0.027-0.688-0.046-1.033-0.065l0.002-1.001
					l0.054-0.999c0.415,0.022,0.786,0.042,1.147,0.072l0.347,0.03c0.551,0.049,0.957,0.534,0.908,1.084
					C37.74,72.258,37.304,72.65,36.791,72.65z"/>
			</g>
		</g>
	</g>
	<g>
		<g>
			<g>
				<path d="M30.129,73h-0.258C28.288,73,27,71.712,27,70.129v-4.194C27,64.868,27.868,64,28.936,64H32c0.553,0,1,0.448,1,1v5.129
					C33,71.712,31.712,73,30.129,73z M28.936,66L29,70.129C29,70.609,29.391,71,29.871,71h0.258C30.609,71,31,70.609,31,70.129V66
					H28.936z"/>
			</g>
		</g>
		<g>
			<g>
				<path d="M34.129,73h-0.258C32.288,73,31,71.712,31,70.129V65c0-0.552,0.447-1,1-1h4c0.553,0,1,0.448,1,1v5.129
					C37,71.712,35.712,73,34.129,73z M33,66v4.129C33,70.609,33.391,71,33.871,71h0.258C34.609,71,35,70.609,35,70.129V66H33z"/>
			</g>
		</g>
		<g>
			<g>
				<path d="M38.129,73h-0.258C36.288,73,35,71.712,35,70.129V65c0-0.552,0.447-1,1-1h4c0.553,0,1,0.448,1,1v5.129
					C41,71.712,39.712,73,38.129,73z M37,66v4.129C37,70.609,37.391,71,37.871,71h0.258C38.609,71,39,70.609,39,70.129V66H37z"/>
			</g>
		</g>
		<g>
			<g>
				<path d="M42.129,73h-0.258C40.288,73,39,71.712,39,70.129V65c0-0.552,0.447-1,1-1h3.064C44.132,64,45,64.868,45,65.936v4.194
					C45,71.712,43.712,73,42.129,73z M41,65.979v4.151C41,70.609,41.391,71,41.871,71h0.258C42.609,71,43,70.609,43,70.129v-4.194
					L41,65.979z"/>
			</g>
		</g>
	</g>
	<g>
		<g>
			<g>
				<path d="M27.851,22.383c-0.184,0-0.369-0.05-0.536-0.156c-0.466-0.296-0.604-0.915-0.307-1.38l1.4-2.202
					c0.296-0.466,0.912-0.604,1.381-0.307c0.466,0.296,0.604,0.915,0.307,1.38l-1.4,2.202C28.505,22.22,28.182,22.383,27.851,22.383
					z"/>
			</g>
		</g>
		<g>
			<g>
				<path d="M31.262,16.981c-0.184,0-0.369-0.05-0.536-0.156c-0.466-0.296-0.604-0.915-0.307-1.38l1.4-2.202
					c0.296-0.466,0.912-0.604,1.381-0.307c0.466,0.296,0.604,0.915,0.307,1.38l-1.4,2.202
					C31.916,16.818,31.593,16.981,31.262,16.981z"/>
			</g>
		</g>
		<g>
			<g>
				<path d="M28.662,17.573c-0.182,0-0.366-0.049-0.532-0.154l-2.213-1.393c-0.467-0.294-0.607-0.912-0.313-1.379
					c0.295-0.467,0.911-0.608,1.38-0.313l2.213,1.393c0.467,0.294,0.607,0.912,0.313,1.379
					C29.319,17.407,28.994,17.573,28.662,17.573z"/>
			</g>
		</g>
		<g>
			<g>
				<path d="M34.064,20.983c-0.182,0-0.366-0.049-0.531-0.154l-2.214-1.393c-0.468-0.294-0.608-0.911-0.314-1.379
					c0.295-0.466,0.913-0.608,1.379-0.313l2.214,1.393c0.468,0.294,0.608,0.911,0.314,1.379
					C34.722,20.818,34.396,20.983,34.064,20.983z"/>
			</g>
		</g>
	</g>
</g>
</svg>
