<?xml version="1.0" encoding="utf-8"?>
<!-- Generator: Adobe Illustrator 24.2.3, SVG Export Plug-In . SVG Version: 6.00 Build 0)  -->
<svg version="1.1" id="_x31_0" xmlns="http://www.w3.org/2000/svg" xmlns:xlink="http://www.w3.org/1999/xlink" x="0px" y="0px"
	 viewBox="0 0 128 128" style="enable-background:new 0 0 128 128;" xml:space="preserve">
<g>
	<g>
		<g>
			<path d="M90.93,114H37.07c-1.579,0-3.124-0.639-4.237-1.753l-3.54-3.54c-0.286-0.286-0.372-0.716-0.217-1.09
				C29.23,107.244,29.596,107,30,107h42.93c0.553,0,1,0.448,1,1s-0.447,1-1,1H32.414l1.833,1.833
				c0.741,0.742,1.771,1.167,2.823,1.167H90.93c1.053,0,2.082-0.425,2.823-1.167L95.586,109H83.48c-0.553,0-1-0.448-1-1s0.447-1,1-1
				H98c0.404,0,0.77,0.244,0.924,0.617c0.155,0.374,0.069,0.804-0.217,1.09l-3.54,3.54C94.054,113.361,92.509,114,90.93,114z"/>
		</g>
	</g>
	<g>
		<g>
			<path d="M98,109H83.48c-0.553,0-1-0.448-1-1s0.447-1,1-1h14.283l6-3H24.236l6,3H72.93c0.553,0,1,0.448,1,1s-0.447,1-1,1H30
				c-0.155,0-0.309-0.036-0.447-0.105l-10-5c-0.415-0.208-0.633-0.673-0.526-1.125c0.107-0.451,0.51-0.77,0.974-0.77h88
				c0.464,0,0.866,0.319,0.974,0.77c0.106,0.452-0.111,0.917-0.526,1.125l-10,5C98.309,108.964,98.155,109,98,109z"/>
		</g>
	</g>
	<g>
		<g>
			<g>
				<g>
					<g>
						<path d="M31.62,66.3c-0.101,0-0.201-0.015-0.3-0.046l-5.67-1.78c-0.341-0.107-0.599-0.388-0.677-0.737l-1.12-5.04
							c-0.119-0.539,0.221-1.073,0.76-1.193c0.538-0.117,1.073,0.219,1.193,0.759l0.994,4.476l4.568,1.434l3.529-3.239l-0.605-2.716
							c-0.119-0.539,0.22-1.073,0.759-1.193c0.537-0.117,1.074,0.22,1.194,0.759l0.73,3.28c0.077,0.349-0.037,0.712-0.301,0.954
							l-4.38,4.02C32.109,66.208,31.867,66.3,31.62,66.3z"/>
					</g>
				</g>
				<g>
					<g>
						<path d="M38.587,73.886c-0.101,0-0.201-0.015-0.3-0.046l-5.67-1.781c-0.341-0.107-0.599-0.388-0.676-0.736l-1.293-5.801
							c-0.078-0.349,0.036-0.712,0.299-0.954l4.377-4.02c0.264-0.241,0.635-0.324,0.977-0.218l5.67,1.781
							c0.341,0.107,0.599,0.388,0.676,0.736l1.293,5.801c0.078,0.349-0.036,0.712-0.299,0.954l-4.377,4.02
							C39.076,73.794,38.834,73.886,38.587,73.886z M33.768,70.324l4.568,1.435l3.526-3.239l-1.042-4.673l-4.568-1.435l-3.526,3.239
							L33.768,70.324z"/>
					</g>
				</g>
				<g>
					<g>
						<path d="M48.63,71.65c-0.099,0-0.2-0.015-0.3-0.046l-5.67-1.78c-0.341-0.107-0.599-0.388-0.677-0.737l-1.29-5.81
							c-0.077-0.349,0.037-0.712,0.301-0.954l4.38-4.02c0.263-0.242,0.635-0.325,0.977-0.217l2.95,0.93
							c0.526,0.166,0.819,0.728,0.653,1.254c-0.166,0.527-0.725,0.821-1.255,0.653L46.3,60.167l-3.528,3.239l1.039,4.683
							l5.119,1.606c0.526,0.166,0.819,0.727,0.654,1.253C49.45,71.376,49.056,71.65,48.63,71.65z"/>
					</g>
				</g>
				<g>
					<g>
						<path d="M41.67,64.06c-0.101,0-0.201-0.015-0.3-0.046l-5.67-1.78c-0.341-0.107-0.599-0.388-0.677-0.737l-0.73-3.28
							c-0.119-0.539,0.22-1.073,0.759-1.193c0.537-0.117,1.074,0.22,1.194,0.759l0.604,2.716l4.568,1.435l3.53-3.24l-0.105-0.478
							c-0.119-0.539,0.222-1.073,0.761-1.192c0.544-0.122,1.072,0.222,1.192,0.761l0.229,1.04c0.077,0.348-0.038,0.711-0.301,0.952
							l-4.38,4.02C42.159,63.969,41.917,64.06,41.67,64.06z"/>
					</g>
				</g>
				<g>
					<g>
						<path d="M28.539,76.125c-0.101,0-0.201-0.015-0.3-0.046l-5.67-1.781c-0.341-0.107-0.599-0.388-0.676-0.736l-1.293-5.801
							c-0.078-0.349,0.036-0.713,0.299-0.954l4.378-4.02c0.264-0.243,0.635-0.325,0.977-0.218l5.67,1.781
							c0.341,0.107,0.599,0.388,0.676,0.736l1.293,5.801c0.078,0.349-0.036,0.713-0.299,0.955l-4.378,4.02
							C29.028,76.034,28.786,76.125,28.539,76.125z M23.72,72.563l4.568,1.435l3.527-3.239l-1.042-4.673l-4.568-1.436l-3.527,3.239
							L23.72,72.563z"/>
					</g>
				</g>
				<g>
					<g>
						<path d="M21.58,68.54c-0.102,0-0.203-0.015-0.303-0.047l-1.67-0.53c-0.526-0.167-0.817-0.729-0.65-1.256
							c0.167-0.526,0.728-0.818,1.256-0.65l1.117,0.355l3.519-3.237l-0.995-4.478c-0.119-0.539,0.221-1.073,0.76-1.193
							c0.538-0.117,1.073,0.219,1.193,0.759l1.12,5.04c0.077,0.348-0.037,0.711-0.3,0.953l-4.37,4.02
							C22.069,68.448,21.827,68.54,21.58,68.54z"/>
					</g>
				</g>
				<g>
					<g>
						<path d="M18.49,78.36c-0.101,0-0.201-0.015-0.299-0.046l-3.86-1.21c-0.527-0.165-0.82-0.726-0.655-1.253
							c0.164-0.527,0.723-0.822,1.253-0.655l3.311,1.037l3.529-3.239l-1.04-4.675l-1.121-0.356c-0.526-0.167-0.817-0.729-0.65-1.256
							c0.167-0.526,0.728-0.818,1.256-0.65l1.67,0.53c0.34,0.108,0.596,0.388,0.674,0.736l1.29,5.8
							c0.077,0.349-0.037,0.712-0.301,0.954l-4.38,4.02C18.979,78.269,18.737,78.36,18.49,78.36z"/>
					</g>
				</g>
				<g>
					<g>
						<path d="M17.4,86.35c-0.27,0-0.539-0.108-0.736-0.323c-0.373-0.407-0.348-1.039,0.06-1.413l1.955-1.8l-1.039-4.673
							l-3.309-1.037c-0.527-0.165-0.82-0.726-0.655-1.253c0.164-0.527,0.723-0.822,1.253-0.655l3.86,1.21
							c0.342,0.107,0.6,0.388,0.678,0.737l1.29,5.8c0.077,0.349-0.037,0.711-0.3,0.953l-2.38,2.19
							C17.886,86.263,17.643,86.35,17.4,86.35z"/>
					</g>
				</g>
				<g>
					<g>
						<path d="M35.502,83.707c-0.101,0-0.201-0.015-0.3-0.046l-5.67-1.781c-0.341-0.107-0.599-0.388-0.676-0.736l-1.293-5.801
							c-0.078-0.349,0.036-0.713,0.299-0.955l4.378-4.02c0.264-0.242,0.636-0.323,0.977-0.217l5.67,1.781
							c0.341,0.107,0.599,0.388,0.676,0.736l1.293,5.801c0.078,0.349-0.036,0.713-0.299,0.955l-4.378,4.02
							C35.991,83.615,35.749,83.707,35.502,83.707z M30.683,80.145l4.568,1.435l3.527-3.239l-1.042-4.673l-4.568-1.435l-3.527,3.239
							L30.683,80.145z"/>
					</g>
				</g>
				<g>
					<g>
						<path d="M45.55,81.47c-0.101,0-0.201-0.015-0.3-0.046l-5.67-1.78c-0.341-0.107-0.599-0.388-0.677-0.737l-1.29-5.8
							c-0.077-0.349,0.037-0.712,0.3-0.953l4.37-4.02c0.263-0.243,0.636-0.324,0.977-0.218l5.67,1.78
							c0.526,0.166,0.819,0.727,0.654,1.253c-0.165,0.526-0.726,0.821-1.254,0.655l-5.118-1.607l-3.521,3.239l1.039,4.673
							l4.568,1.435l3.024-2.78c0.406-0.372,1.04-0.347,1.413,0.06c0.374,0.407,0.347,1.04-0.06,1.413l-3.45,3.17
							C46.039,81.378,45.797,81.47,45.55,81.47z"/>
					</g>
				</g>
				<g>
					<g>
						<path d="M49,87.951c-0.1,0-0.2-0.015-0.301-0.047l-2.16-0.68c-0.34-0.107-0.598-0.388-0.676-0.736l-1.29-5.8
							c-0.077-0.349,0.037-0.712,0.3-0.954l3.45-3.17c0.406-0.372,1.04-0.347,1.413,0.06c0.374,0.407,0.347,1.04-0.06,1.413
							l-3.025,2.78l1.039,4.673l1.61,0.507c0.526,0.166,0.819,0.727,0.653,1.254C49.819,87.677,49.425,87.95,49,87.951z"/>
					</g>
				</g>
				<g>
					<g>
						<path d="M49,98.741c-0.1,0-0.2-0.015-0.301-0.047l-5.24-1.65c-0.34-0.107-0.598-0.388-0.676-0.736l-1.29-5.8
							c-0.077-0.349,0.037-0.712,0.3-0.953l4.37-4.02c0.264-0.243,0.636-0.326,0.978-0.218l2.16,0.68
							c0.526,0.166,0.819,0.727,0.653,1.254s-0.726,0.82-1.255,0.653l-1.608-0.506l-3.52,3.238l1.039,4.674l4.69,1.477
							c0.526,0.166,0.819,0.727,0.653,1.254C49.819,98.467,49.425,98.741,49,98.741z"/>
					</g>
				</g>
				<g>
					<g>
						<path d="M25.455,85.946c-0.101,0-0.201-0.015-0.3-0.046l-5.67-1.781c-0.341-0.107-0.599-0.388-0.676-0.736l-1.293-5.801
							c-0.078-0.349,0.036-0.712,0.299-0.954l4.377-4.02c0.264-0.242,0.635-0.324,0.977-0.218l5.67,1.781
							c0.341,0.107,0.599,0.388,0.676,0.736l1.293,5.801c0.078,0.349-0.036,0.712-0.299,0.954l-4.377,4.02
							C25.944,85.854,25.702,85.946,25.455,85.946z M20.636,82.384l4.568,1.435l3.526-3.239l-1.042-4.673l-4.568-1.435l-3.526,3.239
							L20.636,82.384z"/>
					</g>
				</g>
				<g>
					<g>
						<path d="M32.418,93.527c-0.101,0-0.201-0.015-0.3-0.046l-5.67-1.781c-0.341-0.107-0.599-0.388-0.676-0.736l-1.293-5.801
							c-0.078-0.349,0.036-0.712,0.299-0.954l4.377-4.02c0.264-0.242,0.636-0.324,0.977-0.218l5.67,1.781
							c0.341,0.107,0.599,0.388,0.676,0.736l1.293,5.801c0.078,0.349-0.036,0.712-0.299,0.954l-4.377,4.02
							C32.907,93.436,32.665,93.527,32.418,93.527z M27.599,89.965l4.568,1.435l3.526-3.239l-1.042-4.673l-4.568-1.435l-3.526,3.239
							L27.599,89.965z"/>
					</g>
				</g>
				<g>
					<g>
						<path d="M42.465,91.289c-0.101,0-0.201-0.015-0.3-0.046l-5.67-1.781c-0.341-0.107-0.599-0.388-0.676-0.736l-1.293-5.801
							c-0.078-0.349,0.036-0.713,0.299-0.955l4.378-4.02c0.264-0.242,0.636-0.324,0.977-0.217l5.67,1.781
							c0.341,0.107,0.599,0.388,0.676,0.736l1.293,5.801c0.078,0.349-0.036,0.713-0.299,0.954l-4.378,4.02
							C42.954,91.197,42.712,91.289,42.465,91.289z M37.646,87.726l4.568,1.436l3.527-3.239l-1.042-4.674l-4.568-1.435l-3.527,3.239
							L37.646,87.726z"/>
					</g>
				</g>
				<g>
					<g>
						<path d="M22.68,95.48c-0.271,0-0.54-0.109-0.737-0.324c-0.373-0.407-0.346-1.04,0.062-1.413l3.644-3.339l-1.047-4.673
							l-4.569-1.442l-1.954,1.798c-0.404,0.374-1.038,0.348-1.413-0.059c-0.373-0.407-0.348-1.039,0.06-1.413l2.38-2.19
							c0.262-0.243,0.638-0.326,0.978-0.218l5.67,1.79c0.34,0.107,0.597,0.387,0.675,0.735l1.3,5.8
							c0.078,0.35-0.036,0.714-0.3,0.956l-4.07,3.73C23.163,95.393,22.921,95.48,22.68,95.48z"/>
					</g>
				</g>
				<g>
					<g>
						<path d="M33.32,99.69c-0.27,0-0.537-0.108-0.734-0.321c-0.364-0.395-0.351-1.004,0.023-1.382l-1.04-4.676l-4.568-1.434
							l-3.646,3.34c-0.408,0.373-1.039,0.345-1.413-0.062c-0.373-0.407-0.346-1.04,0.062-1.413l4.07-3.73
							c0.264-0.242,0.636-0.322,0.976-0.217l5.67,1.78c0.341,0.107,0.599,0.388,0.677,0.737l1.29,5.8
							c0.077,0.348-0.036,0.71-0.298,0.952l-0.39,0.36C33.807,99.602,33.563,99.69,33.32,99.69z"/>
					</g>
				</g>
				<g>
					<g>
						<path d="M34.86,99.69c-0.099,0-0.199-0.015-0.299-0.046l-1.15-0.36c-0.341-0.107-0.6-0.388-0.678-0.737l-1.29-5.8
							c-0.077-0.349,0.037-0.712,0.301-0.954l4.38-4.02c0.263-0.242,0.635-0.323,0.976-0.217l5.67,1.78
							c0.341,0.107,0.599,0.388,0.677,0.737l1.29,5.8c0.077,0.349-0.037,0.712-0.3,0.954l-2.83,2.6
							c-0.406,0.374-1.038,0.348-1.413-0.06c-0.374-0.407-0.347-1.04,0.06-1.413l2.405-2.21l-1.039-4.672l-4.568-1.435l-3.529,3.239
							l1.039,4.672l0.599,0.187c0.526,0.165,0.82,0.726,0.655,1.253C35.681,99.416,35.286,99.69,34.86,99.69z"/>
					</g>
				</g>
			</g>
		</g>
		<g>
			<g>
				<path d="M49,103.69H22.8c-0.357,0-0.688-0.19-0.866-0.5L7.874,78.85c-0.179-0.309-0.179-0.69,0-1l14.06-24.35
					c0.179-0.31,0.509-0.5,0.866-0.5H49c0.553,0,1,0.448,1,1s-0.447,1-1,1H23.377L9.896,78.35l13.481,23.34H49c0.553,0,1,0.448,1,1
					S49.553,103.69,49,103.69z"/>
			</g>
		</g>
		<g>
			<g>
				<path d="M48.6,99.69H25.11c-0.357,0-0.688-0.19-0.866-0.5l-11.75-20.34c-0.179-0.309-0.179-0.69,0-1l11.75-20.35
					c0.179-0.31,0.509-0.5,0.866-0.5H48.6c0.356,0,0.686,0.19,0.865,0.498l0.4,0.69c0.277,0.478,0.114,1.09-0.363,1.367
					c-0.479,0.279-1.09,0.115-1.367-0.363L48.023,59H25.687L14.516,78.35l11.172,19.34h22.336l0.111-0.192
					c0.276-0.479,0.888-0.642,1.367-0.363c0.478,0.277,0.641,0.889,0.363,1.367l-0.4,0.69C49.285,99.5,48.956,99.69,48.6,99.69z"/>
			</g>
		</g>
	</g>
	<g>
		<g>
			<g>
				<path d="M57.5,48c-1.771,0-3.461-0.597-4.89-1.725c-3.577-2.84-4.667-8.234-2.537-12.548l6.53-13.2
					c0.169-0.341,0.517-0.557,0.896-0.557l0,0c0.381,0,0.728,0.216,0.896,0.557l2.21,4.47c0.245,0.495,0.042,1.095-0.453,1.34
					c-0.497,0.244-1.095,0.041-1.34-0.453L57.5,23.226l-5.634,11.387c-1.723,3.488-0.868,7.828,1.986,10.094
					c2.139,1.69,5.154,1.692,7.297-0.001c1.763-1.41,2.86-3.832,2.86-6.315c0-1.317-0.295-2.59-0.878-3.781l-1.969-3.976
					c-0.245-0.495-0.042-1.095,0.453-1.34c0.495-0.247,1.094-0.042,1.34,0.452l1.971,3.98c0.72,1.472,1.083,3.04,1.083,4.664
					c0,3.124-1.352,6.07-3.615,7.881C60.961,47.403,59.271,48,57.5,48z"/>
			</g>
		</g>
		<g>
			<g>
				<path d="M57.5,48c-1.772,0-3.462-0.597-4.888-1.726c-0.162-0.128-0.28-0.304-0.338-0.502c-0.342-1.16-0.547-2.955,0.409-4.911
					l3.92-7.915c0.169-0.341,0.517-0.556,0.896-0.556l0,0c0.381,0,0.728,0.216,0.896,0.557l3.909,7.91
					c0.967,1.956,0.762,3.752,0.42,4.915c-0.058,0.198-0.176,0.374-0.338,0.502C60.962,47.403,59.272,48,57.5,48z M54.113,44.901
					c2.021,1.44,4.752,1.44,6.773,0c0.185-0.813,0.227-1.943-0.374-3.158l-3.014-6.098l-3.021,6.099
					C53.885,42.958,53.929,44.088,54.113,44.901z M61.767,45.49h0.01H61.767z"/>
			</g>
		</g>
		<g>
			<g>
				<path d="M66,104H49c-0.553,0-1-0.448-1-1V51.69c0-0.297,0.132-0.578,0.359-0.768c3.639-3.033,6.816-1.806,9.617-0.726
					c2.429,0.938,4.719,1.821,7.63,0.575c0.309-0.131,0.664-0.101,0.944,0.084S67,51.354,67,51.69V71c0,0.552-0.447,1-1,1
					s-1-0.448-1-1V53.091c-3.016,0.793-5.509-0.168-7.743-1.029c-2.606-1.006-4.69-1.811-7.257,0.111V102h15V79.19
					c0-0.552,0.447-1,1-1s1,0.448,1,1V103C67,103.552,66.553,104,66,104z"/>
			</g>
		</g>
		<g>
			<g>
				<path d="M55.5,67c-1.93,0-3.5-1.57-3.5-3.5c0-0.552,0.447-1,1-1s1,0.448,1,1c0,0.827,0.673,1.5,1.5,1.5s1.5-0.673,1.5-1.5V58
					c0-0.552,0.447-1,1-1s1,0.448,1,1v5.5C59,65.43,57.43,67,55.5,67z"/>
			</g>
		</g>
		<g>
			<g>
				<path d="M59.5,83c-1.93,0-3.5-1.57-3.5-3.5c0-0.552,0.447-1,1-1s1,0.448,1,1c0,0.827,0.673,1.5,1.5,1.5s1.5-0.673,1.5-1.5V74
					c0-0.552,0.447-1,1-1s1,0.448,1,1v5.5C63,81.43,61.43,83,59.5,83z"/>
			</g>
		</g>
		<g>
			<g>
				<path d="M54.5,98c-1.93,0-3.5-1.57-3.5-3.5c0-0.552,0.447-1,1-1s1,0.448,1,1c0,0.827,0.673,1.5,1.5,1.5s1.5-0.673,1.5-1.5V89
					c0-0.552,0.447-1,1-1s1,0.448,1,1v5.5C58,96.43,56.43,98,54.5,98z"/>
			</g>
		</g>
	</g>
	<g>
		<g>
			<path d="M101,90.51c-0.553,0-1-0.448-1-1V85.3c0-0.552,0.447-1,1-1s1,0.448,1,1v4.21C102,90.062,101.553,90.51,101,90.51z"/>
		</g>
	</g>
	<g>
		<g>
			<path d="M101,104H73c-0.553,0-1-0.448-1-1V73.52c0-0.552,0.447-1,1-1s1,0.448,1,1V102h26v-6.97c0-0.552,0.447-1,1-1s1,0.448,1,1
				V103C102,103.552,101.553,104,101,104z"/>
		</g>
	</g>
	<g>
		<g>
			<path d="M99.191,87.004c-0.068,0-0.138-0.002-0.207-0.006c-2.028-0.12-3.614-1.951-3.614-4.168l0.01-3.833
				c0-0.454-0.184-0.88-0.504-1.168c-0.275-0.248-0.628-0.361-0.979-0.326c-0.665,0.071-1.206,0.805-1.206,1.636V80
				c0,0.914-0.394,1.768-1.08,2.341c-0.64,0.536-1.472,0.762-2.287,0.613c-1.356-0.236-2.383-1.554-2.383-3.064v-1.18
				c0-0.643-0.271-1.233-0.741-1.618c-0.397-0.324-0.879-0.45-1.36-0.352C84.003,76.915,83.072,77,82,77
				c-2.688,0-4.049-0.543-5.363-1.069c-0.753-0.301-1.465-0.585-2.447-0.756C72.34,74.849,71,73.19,71,71.23v-0.1
				c0-0.898,0.381-1.743,1.044-2.318c0.616-0.533,1.42-0.776,2.208-0.661c1.334,0.203,2.239,0.566,3.115,0.917
				C78.562,69.547,79.689,70,82,70c2.308,0,3.435-0.451,4.629-0.929C87.945,68.545,89.308,68,92,68c2.687,0,4.049,0.543,5.365,1.069
				c0.901,0.359,1.753,0.699,3.085,0.848c1.455,0.168,2.55,1.459,2.55,3.003v2c0,0.552-0.447,1-1,1s-1-0.448-1-1v-2
				c0-0.52-0.341-0.966-0.775-1.017c-1.597-0.177-2.615-0.584-3.601-0.977C95.431,70.45,94.303,70,92,70
				c-2.308,0-3.435,0.451-4.629,0.929C86.055,71.455,84.692,72,82,72c-2.696,0-4.06-0.547-5.378-1.076
				c-0.806-0.323-1.565-0.628-2.662-0.795c-0.276-0.039-0.479,0.084-0.605,0.194C73.129,70.518,73,70.812,73,71.13v0.1
				c0,0.988,0.646,1.818,1.534,1.975c1.187,0.207,2.029,0.543,2.845,0.869C78.57,74.55,79.696,75,82,75
				c0.933,0,1.729-0.072,2.436-0.219c1.065-0.218,2.172,0.061,3.029,0.763c0.938,0.766,1.476,1.92,1.476,3.167v1.18
				c0,0.542,0.321,1.023,0.731,1.095c0.298,0.053,0.523-0.066,0.655-0.177c0.228-0.19,0.363-0.492,0.363-0.808v-0.86
				c0-1.853,1.314-3.445,2.993-3.625c0.933-0.099,1.826,0.195,2.529,0.826c0.741,0.667,1.167,1.636,1.167,2.658l-0.01,3.833
				c0,1.139,0.775,2.113,1.729,2.169c0.453,0.017,0.912-0.145,1.265-0.478C100.768,84.141,101,83.586,101,83v-1.99
				c0-0.552,0.447-1,1-1s1,0.448,1,1V83c0,1.133-0.46,2.218-1.262,2.977C101.033,86.644,100.136,87.004,99.191,87.004z"/>
		</g>
	</g>
	<g>
		<g>
			<g>
				<path d="M87,66c-1.704,0-3.329-0.504-4.701-1.459c-3.545-2.452-4.615-7.128-2.489-10.875l6.32-11.159
					c0.355-0.627,1.385-0.627,1.74,0l2.43,4.29c0.272,0.48,0.104,1.091-0.377,1.363c-0.482,0.273-1.092,0.103-1.363-0.377L87,45.029
					l-5.45,9.624c-1.612,2.84-0.8,6.385,1.89,8.245c2.072,1.443,5.051,1.442,7.119,0.001c1.705-1.18,2.722-3.116,2.722-5.179
					c0-1.045-0.287-2.106-0.831-3.068l-1.311-2.32c-0.271-0.481-0.102-1.091,0.379-1.362c0.483-0.271,1.09-0.104,1.363,0.379
					l1.311,2.32c0.712,1.262,1.089,2.663,1.089,4.052c0,2.719-1.339,5.27-3.581,6.822C90.329,65.496,88.704,66,87,66z"/>
			</g>
		</g>
		<g>
			<g>
				<path d="M87,66c-1.699,0-3.325-0.503-4.701-1.454c-0.178-0.123-0.311-0.299-0.38-0.504c-0.346-1.029-0.555-2.618,0.413-4.348
					l3.798-6.691c0.178-0.313,0.51-0.506,0.87-0.506l0,0c0.36,0,0.692,0.194,0.87,0.507l3.787,6.686
					c0.979,1.731,0.771,3.323,0.423,4.354c-0.068,0.204-0.201,0.38-0.379,0.503C90.325,65.497,88.699,66,87,66z M83.724,63.088
					c1.954,1.196,4.601,1.194,6.553,0c0.2-0.828,0.079-1.638-0.359-2.413l-2.918-5.151l-2.924,5.152
					C83.643,61.448,83.524,62.26,83.724,63.088z M91.133,63.724h0.01H91.133z"/>
			</g>
		</g>
	</g>
	<g>
		<g>
			<path d="M80.5,90c-1.93,0-3.5-1.57-3.5-3.5V81c0-0.552,0.447-1,1-1s1,0.448,1,1v5.5c0,0.827,0.673,1.5,1.5,1.5s1.5-0.673,1.5-1.5
				c0-0.552,0.447-1,1-1s1,0.448,1,1C84,88.43,82.43,90,80.5,90z"/>
		</g>
	</g>
	<g>
		<g>
			<path d="M91.5,99c-1.93,0-3.5-1.57-3.5-3.5V90c0-0.552,0.447-1,1-1s1,0.448,1,1v5.5c0,0.827,0.673,1.5,1.5,1.5s1.5-0.673,1.5-1.5
				c0-0.552,0.447-1,1-1s1,0.448,1,1C95,97.43,93.43,99,91.5,99z"/>
		</g>
	</g>
	<g>
		<g>
			<g>
				<path d="M15.071,47.86c-0.068,0-0.137-0.007-0.206-0.021c-0.752-0.158-1.52-0.446-2.22-0.834
					c-1.158-0.64-2.111-1.518-2.685-2.472c-0.665-1.109-0.762-2.26-0.266-3.157c0.963-1.739,3.686-1.951,6.337-0.492
					c0.377,0.207,0.718,0.428,1.012,0.657c0.436,0.339,0.514,0.968,0.175,1.404c-0.34,0.435-0.969,0.513-1.403,0.174
					c-0.211-0.164-0.462-0.326-0.747-0.483c-1.773-0.975-3.33-0.823-3.623-0.292c-0.14,0.252-0.054,0.685,0.231,1.159
					c0.388,0.647,1.095,1.286,1.937,1.752c0.529,0.293,1.104,0.509,1.662,0.626c0.54,0.113,0.887,0.644,0.773,1.184
					C15.95,47.536,15.534,47.86,15.071,47.86z"/>
			</g>
		</g>
		<g>
			<g>
				<path d="M17.971,45.07c-0.37,0-0.727-0.207-0.899-0.562l0.898-0.438l-0.904,0.427c-0.326-0.446-0.215-1.05,0.23-1.375
					c0.444-0.326,1.084-0.209,1.411,0.238c0.067,0.091,0.117,0.18,0.161,0.271c0.242,0.497,0.036,1.095-0.46,1.337
					C18.267,45.038,18.117,45.07,17.971,45.07z"/>
			</g>
		</g>
		<g>
			<g>
				<path d="M28.191,41.35c-0.071,0-0.144-0.007-0.216-0.023c-0.539-0.119-0.881-0.652-0.762-1.191
					c0.364-1.658,1.215-2.802,2.394-3.221c1.018-0.36,2.162-0.118,3.145,0.663c0.433,0.344,0.505,0.973,0.161,1.405
					c-0.345,0.433-0.973,0.505-1.405,0.161c-0.254-0.202-0.749-0.513-1.23-0.344c-0.498,0.177-0.902,0.821-1.11,1.767
					C29.064,41.032,28.65,41.35,28.191,41.35z"/>
			</g>
		</g>
		<g>
			<g>
				<path d="M24.399,43.64c-0.157,0-0.316-0.037-0.465-0.115c-0.454-0.239-0.919-0.347-1.453-0.345
					c-0.035,0-0.071,0.001-0.105,0.004c-0.549,0.062-1.042-0.338-1.101-0.887c-0.06-0.549,0.338-1.042,0.888-1.101
					c0.933-0.102,1.878,0.125,2.703,0.56c0.488,0.257,0.677,0.862,0.419,1.351C25.106,43.446,24.759,43.64,24.399,43.64z"/>
			</g>
		</g>
		<g>
			<g>
				<path d="M17.12,51.74c-1.16,0-2.227-0.678-2.717-1.728c-0.502-1.063-0.608-2.278-0.298-3.416
					c0.375-1.423,1.36-2.604,2.701-3.232l0.624-0.297c0.498-0.237,1.108-0.038,1.349,0.454c0.24,0.493,0.059,1.078-0.432,1.323
					l-0.688,0.328c-0.808,0.378-1.397,1.085-1.623,1.942c-0.19,0.697-0.128,1.402,0.177,2.048c0.231,0.495,0.873,0.706,1.32,0.486
					l5.421-2.555c0.013-0.007,0.026-0.014,0.04-0.02l1.79-0.84c0.42-0.195,0.649-0.659,0.549-1.105
					c-0.017-0.072-0.024-0.146-0.024-0.22c0-0.552,0.447-1.005,1-1.005c0.505,0,0.922,0.37,0.99,0.854
					c0.268,1.336-0.426,2.71-1.668,3.288l-1.768,0.83c-0.012,0.006-0.024,0.012-0.036,0.018l-5.434,2.561
					C18.007,51.643,17.574,51.74,17.12,51.74z"/>
			</g>
		</g>
		<g>
			<g>
				<path d="M22.45,49.44c-0.405,0-0.786-0.248-0.937-0.65c-0.367-0.979-0.817-1.863-1.339-2.626
					c-0.312-0.456-0.195-1.078,0.261-1.39c0.457-0.31,1.079-0.194,1.39,0.261c0.613,0.896,1.138,1.923,1.562,3.054
					c0.193,0.517-0.068,1.093-0.586,1.287C22.686,49.42,22.566,49.44,22.45,49.44z"/>
			</g>
		</g>
		<g>
			<g>
				<path d="M21.151,46.601c-1.495,0-3.354-1.038-4.913-2.877c-0.962-1.135-1.649-2.407-1.936-3.581
					c-0.345-1.413-0.086-2.571,0.728-3.26c1.524-1.289,4.338-0.293,6.549,2.316c2.211,2.61,2.73,5.551,1.208,6.841
					C22.338,46.419,21.776,46.601,21.151,46.601z M16.676,38.312c-0.157,0-0.277,0.033-0.353,0.097
					c-0.159,0.134-0.244,0.576-0.077,1.26c0.211,0.865,0.764,1.872,1.518,2.761c1.604,1.893,3.327,2.426,3.73,2.083
					c0.403-0.341,0.163-2.128-1.44-4.022C18.748,38.95,17.363,38.312,16.676,38.312z"/>
			</g>
		</g>
		<g>
			<g>
				<path d="M25.583,51.28c-0.527,0-0.968-0.412-0.997-0.944c-0.036-0.345-0.572-1.188-0.909-1.383
					c-0.467,0.136-0.968-0.086-1.181-0.536c-0.234-0.5-0.021-1.096,0.479-1.331c0.53-0.25,1.137-0.2,1.709,0.143
					c1.012,0.605,1.851,2.108,1.898,2.998c0.028,0.551-0.395,1.022-0.946,1.051C25.619,51.28,25.601,51.28,25.583,51.28z"/>
			</g>
		</g>
		<g>
			<g>
				<path d="M22.768,52.605c-0.527,0-0.968-0.412-0.997-0.945c-0.036-0.345-0.571-1.188-0.908-1.383
					c-0.468,0.135-0.969-0.087-1.181-0.536c-0.234-0.5-0.021-1.096,0.479-1.331c0.53-0.25,1.138-0.199,1.708,0.143
					c1.012,0.605,1.851,2.109,1.898,2.998c0.028,0.551-0.395,1.022-0.946,1.051C22.804,52.604,22.785,52.605,22.768,52.605z"/>
			</g>
		</g>
		<g>
			<g>
				<path d="M26.891,45.985c-0.399,0-0.801-0.069-1.188-0.208c-0.879-0.317-1.582-0.958-1.979-1.803h-0.001
					c-0.397-0.846-0.442-1.796-0.126-2.676s0.957-1.583,1.803-1.981c0.847-0.398,1.798-0.442,2.677-0.126
					c0.879,0.317,1.583,0.958,1.98,1.804c0.821,1.746,0.069,3.835-1.677,4.657C27.905,45.873,27.398,45.985,26.891,45.985z
					 M26.888,40.982c-0.218,0-0.435,0.048-0.638,0.144c-0.362,0.17-0.637,0.472-0.772,0.849c-0.136,0.377-0.116,0.785,0.055,1.147v0
					c0.17,0.362,0.472,0.637,0.848,0.772c0.377,0.135,0.784,0.117,1.147-0.054c0.748-0.352,1.07-1.247,0.718-1.996
					c-0.17-0.363-0.472-0.637-0.848-0.773C27.231,41.012,27.06,40.982,26.888,40.982z"/>
			</g>
		</g>
	</g>
	<g>
		<g>
			<g>
				<path d="M90.733,30.477c-0.184,0-0.369-0.05-0.536-0.156c-0.466-0.296-0.604-0.915-0.307-1.38l1.4-2.202
					c0.296-0.466,0.912-0.604,1.381-0.307c0.466,0.296,0.604,0.915,0.307,1.38l-1.4,2.202
					C91.388,30.313,91.064,30.477,90.733,30.477z"/>
			</g>
		</g>
		<g>
			<g>
				<path d="M94.145,25.076c-0.184,0-0.369-0.05-0.536-0.156c-0.466-0.296-0.604-0.915-0.307-1.38l1.4-2.202
					c0.296-0.466,0.913-0.604,1.381-0.307c0.466,0.296,0.604,0.915,0.307,1.38l-1.4,2.202
					C94.799,24.912,94.476,25.076,94.145,25.076z"/>
			</g>
		</g>
		<g>
			<g>
				<path d="M91.545,25.667c-0.182,0-0.366-0.049-0.531-0.154L88.8,24.12c-0.468-0.294-0.608-0.911-0.314-1.379
					c0.295-0.467,0.912-0.609,1.379-0.313l2.214,1.393c0.468,0.294,0.608,0.911,0.314,1.379
					C92.202,25.501,91.877,25.667,91.545,25.667z"/>
			</g>
		</g>
		<g>
			<g>
				<path d="M96.946,29.078c-0.182,0-0.366-0.049-0.532-0.154l-2.213-1.393c-0.467-0.294-0.607-0.912-0.313-1.379
					c0.295-0.466,0.911-0.608,1.38-0.313l2.213,1.393c0.467,0.294,0.607,0.912,0.313,1.379
					C97.604,28.912,97.278,29.078,96.946,29.078z"/>
			</g>
		</g>
	</g>
	<g>
		<g>
			<g>
				<path d="M31.249,22.383c-0.184,0-0.369-0.05-0.536-0.156c-0.466-0.296-0.604-0.915-0.307-1.38l1.4-2.202
					c0.297-0.466,0.912-0.604,1.381-0.307c0.466,0.296,0.604,0.915,0.307,1.38l-1.4,2.202C31.903,22.22,31.58,22.383,31.249,22.383z
					"/>
			</g>
		</g>
		<g>
			<g>
				<path d="M34.66,16.981c-0.184,0-0.369-0.05-0.536-0.156c-0.466-0.296-0.604-0.915-0.307-1.38l1.4-2.202
					c0.297-0.466,0.913-0.604,1.381-0.307c0.466,0.296,0.604,0.915,0.307,1.38l-1.4,2.202C35.314,16.818,34.991,16.981,34.66,16.981
					z"/>
			</g>
		</g>
		<g>
			<g>
				<path d="M32.061,17.573c-0.182,0-0.366-0.049-0.532-0.154l-2.213-1.393c-0.467-0.294-0.607-0.912-0.313-1.379
					c0.295-0.467,0.911-0.608,1.38-0.313l2.213,1.393c0.467,0.294,0.607,0.912,0.313,1.379
					C32.718,17.407,32.393,17.573,32.061,17.573z"/>
			</g>
		</g>
		<g>
			<g>
				<path d="M37.463,20.983c-0.182,0-0.366-0.049-0.531-0.154l-2.214-1.393c-0.468-0.294-0.608-0.911-0.314-1.379
					c0.295-0.466,0.913-0.608,1.379-0.313l2.214,1.393c0.468,0.294,0.608,0.911,0.314,1.379
					C38.12,20.818,37.795,20.983,37.463,20.983z"/>
			</g>
		</g>
	</g>
</g>
</svg>
