<?xml version="1.0" encoding="utf-8"?>
<!-- Generator: Adobe Illustrator 24.2.3, SVG Export Plug-In . SVG Version: 6.00 Build 0)  -->
<svg version="1.1" id="_x31_5" xmlns="http://www.w3.org/2000/svg" xmlns:xlink="http://www.w3.org/1999/xlink" x="0px" y="0px"
	 viewBox="0 0 128 128" style="enable-background:new 0 0 128 128;" xml:space="preserve">
<g>
	<g>
		<g>
			<g>
				<g>
					<path d="M89.794,44.128c-3.588,0-6.971-1.667-9.179-4.562c-0.335-0.439-0.251-1.066,0.188-1.401
						c0.438-0.337,1.068-0.25,1.401,0.188c1.971,2.584,5.066,3.982,8.292,3.749l0.481-0.036l-0.035-0.483
						c-0.39-5.228-4.967-9.177-10.191-8.796l-0.48,0.036l0.035,0.473c0.047,0.653,0.156,1.281,0.324,1.869
						c0.152,0.53-0.154,1.084-0.686,1.236c-0.524,0.152-1.084-0.153-1.236-0.686c-0.207-0.72-0.341-1.485-0.396-2.274l-0.109-1.467
						c-0.041-0.551,0.372-1.03,0.923-1.071l1.479-0.11c6.317-0.453,11.862,4.315,12.332,10.643l0.109,1.481
						c0.041,0.551-0.373,1.03-0.924,1.07l-1.479,0.109C90.36,44.118,90.076,44.128,89.794,44.128z"/>
				</g>
			</g>
			<g>
				<g>
					<path d="M91.678,43.674c-0.232,0-0.465-0.08-0.653-0.243l-4.54-3.923c-0.418-0.361-0.465-0.993-0.104-1.41
						c0.362-0.42,0.995-0.464,1.41-0.104l4.54,3.923c0.418,0.361,0.465,0.993,0.104,1.41C92.236,43.557,91.958,43.674,91.678,43.674
						z"/>
				</g>
			</g>
		</g>
	</g>
	<g>
		<g>
			<path d="M19.289,78.04c-0.439,0-0.843-0.292-0.964-0.737c-0.466-1.712-0.876-3.505-1.218-5.328
				c-0.103-0.543,0.255-1.065,0.798-1.167c0.543-0.099,1.065,0.255,1.167,0.798c0.333,1.771,0.73,3.512,1.183,5.172
				c0.146,0.533-0.169,1.083-0.702,1.228C19.465,78.029,19.376,78.04,19.289,78.04z"/>
		</g>
	</g>
	<g>
		<g>
			<path d="M17.269,67.41c-0.501,0-0.933-0.375-0.992-0.885c-0.266-2.282-0.456-4.624-0.565-6.959
				c-0.025-0.552,0.4-1.02,0.952-1.046c0.547-0.024,1.021,0.401,1.046,0.952c0.106,2.29,0.293,4.585,0.554,6.822
				c0.064,0.548-0.329,1.045-0.878,1.108C17.346,67.408,17.307,67.41,17.269,67.41z"/>
		</g>
	</g>
	<g>
		<g>
			<path d="M64.1,108.992c-7.719,0-15.818-1.722-24.17-5.147c-1.941-0.788-3.506-1.566-4.918-2.446
				c-7.146-4.453-12.374-11.316-15.536-20.399c-0.182-0.521,0.094-1.092,0.615-1.273c0.523-0.182,1.092,0.094,1.273,0.615
				c3.051,8.764,7.861,15.096,14.705,19.36c1.312,0.817,2.779,1.546,4.616,2.292c10.623,4.356,20.794,5.879,30.231,4.517
				c7.581-1.085,14.476-5.038,19.417-11.13l8.108-10.019c1.493-1.837,2.783-3.87,3.837-6.047l6.28-13.019
				c0.24-0.497,0.836-0.705,1.335-0.466c0.497,0.239,0.706,0.838,0.466,1.335l-6.28,13.02c-1.122,2.316-2.496,4.481-4.084,6.437
				l-8.108,10.018c-5.26,6.485-12.606,10.694-20.687,11.852C68.874,108.825,66.505,108.992,64.1,108.992z"/>
		</g>
	</g>
	<g>
		<g>
			<path d="M103.219,56.12c-0.165,0-0.331-0.041-0.485-0.126c-2.375-1.323-5.164-2.403-8.779-3.4
				c-1.166-0.32-1.944-1.308-1.982-2.517c-0.038-1.197,0.67-2.223,1.803-2.612c0.042-0.015,0.083-0.029,0.125-0.043
				c-2.457-1.151-4.973-2.174-7.507-3.053c-0.084,0.023-0.167,0.048-0.25,0.074c-0.516,0.156-1.018,0.298-1.521,0.44l-0.1,0.028
				c-1.118,0.321-2.238,0.626-3.37,0.908c-0.536,0.128-1.078-0.193-1.213-0.729c-0.133-0.536,0.193-1.079,0.729-1.213
				c1.108-0.276,2.207-0.573,3.306-0.89l0.104-0.029c0.491-0.14,0.982-0.278,1.474-0.427c0.112-0.036,0.237-0.072,0.365-0.108
				l0.219-0.062c0.198-0.062,0.411-0.056,0.609,0.012c3.44,1.178,6.851,2.615,10.136,4.273c0.351,0.177,0.564,0.541,0.549,0.933
				s-0.259,0.738-0.622,0.886c-0.755,0.308-1.557,0.607-2.383,0.891c-0.423,0.146-0.458,0.509-0.453,0.657
				c0.004,0.121,0.052,0.525,0.514,0.652c3.774,1.04,6.704,2.179,9.222,3.58c0.482,0.27,0.656,0.878,0.388,1.36
				C103.91,55.936,103.569,56.12,103.219,56.12z"/>
		</g>
	</g>
	<g>
		<g>
			<path d="M111.71,63.08c-0.459,0-0.846-0.31-0.963-0.73c-1.898-1.903-3.425-3.254-4.92-4.354c-0.444-0.327-0.54-0.953-0.213-1.398
				c0.328-0.445,0.953-0.539,1.398-0.213c1.647,1.213,3.316,2.696,5.408,4.812c0.186,0.188,0.289,0.439,0.289,0.703v0.18
				C112.71,62.633,112.263,63.08,111.71,63.08z"/>
		</g>
	</g>
	<g>
		<g>
			<path d="M73.389,47.52c-0.473,0-0.893-0.336-0.982-0.816c-0.101-0.543,0.257-1.065,0.8-1.167
				c1.303-0.243,2.679-0.529,4.092-0.851c0.534-0.13,1.073,0.214,1.196,0.753c0.123,0.538-0.214,1.074-0.753,1.196
				c-1.438,0.328-2.84,0.62-4.168,0.868C73.512,47.514,73.449,47.52,73.389,47.52z"/>
		</g>
	</g>
	<g>
		<g>
			<g>
				<path d="M23.865,65.718c-0.013,0-0.025,0-0.038-0.001l-2.416-0.09c-0.552-0.021-0.982-0.484-0.962-1.036
					c0.02-0.552,0.48-0.996,1.036-0.962l2.416,0.09c0.552,0.021,0.982,0.484,0.962,1.036C24.844,65.294,24.4,65.718,23.865,65.718z"
					/>
			</g>
		</g>
		<g>
			<g>
				<path d="M40.409,69.271c-0.17,0-0.342-0.043-0.499-0.134c-0.479-0.276-0.643-0.888-0.366-1.366l2.052-3.553
					c0.179-0.31,0.509-0.5,0.866-0.5h4.103c0.553,0,1,0.447,1,1s-0.447,1-1,1h-3.525l-1.763,3.053
					C41.091,69.092,40.755,69.271,40.409,69.271z"/>
			</g>
		</g>
		<g>
			<g>
				<path d="M29.06,62.718c-0.17,0-0.342-0.043-0.499-0.134c-0.479-0.276-0.643-0.888-0.366-1.366l2.052-3.553
					c0.179-0.31,0.509-0.5,0.866-0.5h4.102c0.553,0,1,0.447,1,1s-0.447,1-1,1h-3.524l-1.763,3.053
					C29.741,62.539,29.405,62.718,29.06,62.718z"/>
			</g>
		</g>
		<g>
			<g>
				<path d="M51.76,62.718c-0.17,0-0.342-0.043-0.499-0.134c-0.479-0.276-0.643-0.888-0.366-1.366l2.052-3.553
					c0.179-0.31,0.509-0.5,0.866-0.5h4.102c0.553,0,1,0.447,1,1s-0.447,1-1,1H54.39l-1.763,3.053
					C52.441,62.539,52.105,62.718,51.76,62.718z"/>
			</g>
		</g>
		<g>
			<g>
				<path d="M63.109,69.271c-0.17,0-0.342-0.043-0.499-0.134c-0.479-0.276-0.643-0.888-0.366-1.366l2.052-3.553
					c0.179-0.31,0.509-0.5,0.866-0.5h4.103c0.553,0,1,0.447,1,1s-0.447,1-1,1h-3.525l-1.763,3.053
					C63.791,69.092,63.455,69.271,63.109,69.271z"/>
			</g>
		</g>
		<g>
			<g>
				<path d="M85.81,69.271c-0.17,0-0.342-0.043-0.499-0.134c-0.479-0.276-0.643-0.888-0.366-1.366l2.052-3.553
					c0.179-0.31,0.509-0.5,0.866-0.5h4.103c0.553,0,1,0.447,1,1s-0.447,1-1,1h-3.525l-1.763,3.053
					C86.491,69.092,86.155,69.271,85.81,69.271z"/>
			</g>
		</g>
		<g>
			<g>
				<path d="M74.46,62.718c-0.17,0-0.342-0.043-0.499-0.134c-0.479-0.276-0.643-0.888-0.366-1.366l2.052-3.553
					c0.179-0.31,0.509-0.5,0.866-0.5h4.102c0.553,0,1,0.447,1,1s-0.447,1-1,1H77.09l-1.763,3.053
					C75.142,62.539,74.806,62.718,74.46,62.718z"/>
			</g>
		</g>
		<g>
			<g>
				<path d="M97.159,62.72c-0.17,0-0.342-0.043-0.499-0.134c-0.479-0.276-0.643-0.889-0.366-1.366l0.45-0.779
					c0.276-0.479,0.888-0.643,1.366-0.366s0.643,0.889,0.366,1.366l-0.45,0.779C97.841,62.541,97.505,62.72,97.159,62.72z"/>
			</g>
		</g>
		<g>
			<g>
				<path d="M40.409,82.377c-0.17,0-0.342-0.043-0.499-0.134c-0.479-0.276-0.643-0.888-0.366-1.366l2.052-3.553
					c0.179-0.31,0.509-0.5,0.866-0.5h4.103c0.553,0,1,0.447,1,1s-0.447,1-1,1h-3.525l-1.763,3.053
					C41.091,82.198,40.755,82.377,40.409,82.377z"/>
			</g>
		</g>
		<g>
			<g>
				<path d="M29.06,75.824c-0.17,0-0.342-0.043-0.499-0.134c-0.479-0.276-0.643-0.888-0.366-1.366l2.052-3.553
					c0.179-0.31,0.509-0.5,0.866-0.5h4.102c0.553,0,1,0.447,1,1s-0.447,1-1,1h-3.524l-1.763,3.053
					C29.741,75.646,29.405,75.824,29.06,75.824z"/>
			</g>
		</g>
		<g>
			<g>
				<path d="M51.76,75.824c-0.17,0-0.342-0.043-0.499-0.134c-0.479-0.276-0.643-0.888-0.366-1.366l2.052-3.553
					c0.179-0.31,0.509-0.5,0.866-0.5h4.102c0.553,0,1,0.447,1,1s-0.447,1-1,1H54.39l-1.763,3.053
					C52.441,75.646,52.105,75.824,51.76,75.824z"/>
			</g>
		</g>
		<g>
			<g>
				<path d="M63.109,82.377c-0.17,0-0.342-0.043-0.499-0.134c-0.479-0.276-0.643-0.888-0.366-1.366l2.052-3.553
					c0.179-0.31,0.509-0.5,0.866-0.5h4.103c0.553,0,1,0.447,1,1s-0.447,1-1,1h-3.525l-1.763,3.053
					C63.791,82.198,63.455,82.377,63.109,82.377z"/>
			</g>
		</g>
		<g>
			<g>
				<path d="M85.81,82.377c-0.17,0-0.342-0.043-0.499-0.134c-0.479-0.276-0.643-0.888-0.366-1.366l2.052-3.553
					c0.179-0.31,0.509-0.5,0.866-0.5h4.103c0.553,0,1,0.447,1,1s-0.447,1-1,1h-3.525l-1.763,3.053
					C86.491,82.198,86.155,82.377,85.81,82.377z"/>
			</g>
		</g>
		<g>
			<g>
				<path d="M74.46,75.824c-0.17,0-0.342-0.043-0.499-0.134c-0.479-0.276-0.643-0.888-0.366-1.366l2.052-3.553
					c0.179-0.31,0.509-0.5,0.866-0.5h4.102c0.553,0,1,0.447,1,1s-0.447,1-1,1H77.09l-1.763,3.053
					C75.142,75.646,74.806,75.824,74.46,75.824z"/>
			</g>
		</g>
		<g>
			<g>
				<path d="M97.159,75.82c-0.17,0-0.342-0.043-0.499-0.134c-0.479-0.276-0.643-0.888-0.366-1.366l2.05-3.551
					c0.179-0.31,0.509-0.5,0.866-0.5h3.62c0.553,0,1,0.447,1,1s-0.447,1-1,1h-3.043l-1.761,3.051
					C97.841,75.641,97.505,75.82,97.159,75.82z"/>
			</g>
		</g>
		<g>
			<g>
				<path d="M40.409,95.482c-0.17,0-0.342-0.043-0.499-0.134c-0.479-0.276-0.643-0.888-0.366-1.366l2.052-3.553
					c0.179-0.31,0.509-0.5,0.866-0.5h4.103c0.553,0,1,0.447,1,1s-0.447,1-1,1h-3.525l-1.763,3.053
					C41.091,95.304,40.755,95.482,40.409,95.482z"/>
			</g>
		</g>
		<g>
			<g>
				<path d="M29.06,88.93c-0.17,0-0.342-0.043-0.499-0.134c-0.479-0.276-0.643-0.888-0.366-1.366l2.052-3.553
					c0.179-0.31,0.509-0.5,0.866-0.5h4.102c0.553,0,1,0.447,1,1s-0.447,1-1,1h-3.524l-1.763,3.053
					C29.741,88.751,29.405,88.93,29.06,88.93z"/>
			</g>
		</g>
		<g>
			<g>
				<path d="M51.76,88.93c-0.17,0-0.342-0.043-0.499-0.134c-0.479-0.276-0.643-0.888-0.366-1.366l2.052-3.553
					c0.179-0.31,0.509-0.5,0.866-0.5h4.102c0.553,0,1,0.447,1,1s-0.447,1-1,1H54.39l-1.763,3.053
					C52.441,88.751,52.105,88.93,51.76,88.93z"/>
			</g>
		</g>
		<g>
			<g>
				<path d="M63.109,95.482c-0.17,0-0.342-0.043-0.499-0.134c-0.479-0.276-0.643-0.888-0.366-1.366l2.052-3.553
					c0.179-0.31,0.509-0.5,0.866-0.5h4.103c0.553,0,1,0.447,1,1s-0.447,1-1,1h-3.525l-1.763,3.053
					C63.791,95.304,63.455,95.482,63.109,95.482z"/>
			</g>
		</g>
		<g>
			<g>
				<path d="M74.46,88.93c-0.17,0-0.342-0.043-0.499-0.134c-0.479-0.276-0.643-0.888-0.366-1.366l2.052-3.553
					c0.179-0.31,0.509-0.5,0.866-0.5h4.102c0.553,0,1,0.447,1,1s-0.447,1-1,1H77.09l-1.763,3.053
					C75.142,88.751,74.806,88.93,74.46,88.93z"/>
			</g>
		</g>
		<g>
			<g>
				<path d="M51.76,102.036c-0.17,0-0.342-0.043-0.499-0.134c-0.479-0.276-0.643-0.888-0.366-1.366l2.052-3.553
					c0.179-0.31,0.509-0.5,0.866-0.5h4.102c0.553,0,1,0.447,1,1s-0.447,1-1,1H54.39l-1.763,3.053
					C52.441,101.857,52.105,102.036,51.76,102.036z"/>
			</g>
		</g>
		<g>
			<g>
				<path d="M74.46,102.036c-0.17,0-0.342-0.043-0.499-0.134c-0.479-0.276-0.643-0.888-0.366-1.366l2.052-3.553
					c0.276-0.479,0.888-0.644,1.366-0.366c0.479,0.276,0.643,0.888,0.366,1.366l-2.052,3.553
					C75.142,101.857,74.806,102.036,74.46,102.036z"/>
			</g>
		</g>
	</g>
	<g>
		<g>
			<g>
				<path d="M25.6,75.82H22.86c-0.553,0-1-0.447-1-1s0.447-1,1-1h2.162l3.203-5.551l-3.203-5.55H20.86c-0.553,0-1-0.447-1-1
					s0.447-1,1-1H25.6c0.357,0,0.688,0.19,0.866,0.5l3.78,6.55c0.179,0.31,0.179,0.69,0,1l-3.78,6.551
					C26.287,75.63,25.957,75.82,25.6,75.82z"/>
			</g>
		</g>
		<g>
			<g>
				<path d="M48.297,75.823h-7.567c-0.357,0-0.688-0.19-0.866-0.5l-3.783-6.553c-0.179-0.31-0.179-0.69,0-1l3.783-6.553
					c0.179-0.31,0.509-0.5,0.866-0.5h7.567c0.357,0,0.688,0.19,0.866,0.5l3.783,6.553c0.179,0.31,0.179,0.69,0,1l-3.783,6.553
					C48.984,75.633,48.654,75.823,48.297,75.823z M41.307,73.823h6.413l3.206-5.553l-3.206-5.553h-6.413l-3.206,5.553L41.307,73.823
					z"/>
			</g>
		</g>
		<g>
			<g>
				<path d="M36.95,69.27h-7.57c-0.357,0-0.688-0.19-0.866-0.5l-3.78-6.55c-0.179-0.31-0.179-0.689,0-0.999l2.96-5.14
					c0.15-0.262,0.412-0.441,0.711-0.489c2.615-0.411,5.544-0.75,8.705-1.009c0.396-0.027,0.754,0.164,0.947,0.498l3.54,6.14
					c0.179,0.309,0.179,0.689,0,0.999l-3.78,6.55C37.638,69.079,37.308,69.27,36.95,69.27z M29.957,67.27h6.416l3.203-5.55
					l-2.935-5.09c-2.684,0.23-5.186,0.521-7.455,0.865l-2.433,4.224L29.957,67.27z"/>
			</g>
		</g>
		<g>
			<g>
				<path d="M59.646,69.271H52.08c-0.357,0-0.688-0.19-0.866-0.5l-3.783-6.553c-0.179-0.31-0.179-0.69,0-1l3.783-6.553
					c0.179-0.31,0.509-0.5,0.866-0.5h7.566c0.357,0,0.688,0.19,0.866,0.5l3.783,6.553c0.179,0.31,0.179,0.69,0,1l-3.783,6.553
					C60.334,69.08,60.004,69.271,59.646,69.271z M52.657,67.271h6.412l3.206-5.553l-3.206-5.553h-6.412l-3.206,5.553L52.657,67.271z
					"/>
			</g>
		</g>
		<g>
			<g>
				<path d="M70.997,75.823H63.43c-0.357,0-0.688-0.19-0.866-0.5l-3.783-6.553c-0.179-0.31-0.179-0.69,0-1l3.783-6.553
					c0.179-0.31,0.509-0.5,0.866-0.5h7.567c0.357,0,0.688,0.19,0.866,0.5l3.783,6.553c0.179,0.31,0.179,0.69,0,1l-3.783,6.553
					C71.685,75.633,71.354,75.823,70.997,75.823z M64.007,73.823h6.413l3.206-5.553l-3.206-5.553h-6.413l-3.206,5.553L64.007,73.823
					z"/>
			</g>
		</g>
		<g>
			<g>
				<path d="M93.697,75.823H86.13c-0.357,0-0.688-0.19-0.866-0.5l-3.783-6.553c-0.179-0.31-0.179-0.69,0-1l3.783-6.553
					c0.179-0.31,0.509-0.5,0.866-0.5h7.567c0.357,0,0.688,0.19,0.866,0.5l3.783,6.553c0.179,0.31,0.179,0.69,0,1l-3.783,6.553
					C94.385,75.633,94.055,75.823,93.697,75.823z M86.707,73.823h6.413l3.206-5.553l-3.206-5.553h-6.413l-3.206,5.553L86.707,73.823
					z"/>
			</g>
		</g>
		<g>
			<g>
				<path d="M71,62.72h-7.57c-0.357,0-0.688-0.191-0.866-0.501l-3.779-6.56c-0.164-0.285-0.178-0.632-0.037-0.929
					c0.237-0.498,0.838-0.722,1.338-0.483c0.245,0.116,0.422,0.316,0.51,0.55l3.413,5.923h6.414l2.882-4.999
					c0.274-0.479,0.886-0.644,1.365-0.367c0.479,0.275,0.644,0.887,0.367,1.365l-3.17,5.5C71.687,62.529,71.357,62.72,71,62.72z"/>
			</g>
		</g>
		<g>
			<g>
				<path d="M48.3,62.72H40.73c-0.357,0-0.688-0.19-0.866-0.501l-3.54-6.14c-0.276-0.478-0.111-1.09,0.367-1.365
					c0.479-0.276,1.091-0.111,1.365,0.367l3.252,5.639h6.413l3.27-5.673c-0.017-0.366,0.169-0.728,0.51-0.919
					c0.479-0.271,1.091-0.1,1.361,0.383l0.09,0.16c0.173,0.308,0.17,0.684-0.006,0.988l-3.78,6.56
					C48.987,62.529,48.657,62.72,48.3,62.72z"/>
			</g>
		</g>
		<g>
			<g>
				<path d="M25.6,62.72H20.86c-0.553,0-1-0.447-1-1s0.447-1,1-1h4.161l2.672-4.639c0.274-0.479,0.886-0.644,1.365-0.367
					c0.479,0.275,0.644,0.887,0.367,1.365l-2.96,5.14C26.288,62.528,25.957,62.72,25.6,62.72z"/>
			</g>
		</g>
		<g>
			<g>
				<path d="M104.28,69.27h-6.8c-0.357,0-0.688-0.19-0.866-0.5l-3.78-6.55c-0.178-0.309-0.179-0.689-0.001-0.998l0.96-1.67
					c0.275-0.479,0.884-0.645,1.365-0.369c0.479,0.275,0.645,0.887,0.369,1.365l-0.673,1.171l3.203,5.551h6.223c0.553,0,1,0.447,1,1
					S104.833,69.27,104.28,69.27z"/>
			</g>
		</g>
		<g>
			<g>
				<path d="M26.949,86.59c-0.17,0-0.342-0.043-0.499-0.134c-0.479-0.276-0.643-0.888-0.366-1.366l2.142-3.71l-3.204-5.56H22.86
					c-0.553,0-1-0.447-1-1s0.447-1,1-1H25.6c0.357,0,0.688,0.19,0.866,0.501l3.78,6.56c0.179,0.309,0.179,0.689,0,0.999l-2.43,4.21
					C27.631,86.41,27.295,86.59,26.949,86.59z"/>
			</g>
		</g>
		<g>
			<g>
				<path d="M48.297,88.93h-7.567c-0.357,0-0.688-0.19-0.866-0.5l-3.783-6.553c-0.179-0.31-0.179-0.69,0-1l3.783-6.554
					c0.179-0.31,0.509-0.5,0.866-0.5h7.567c0.357,0,0.688,0.19,0.866,0.5l3.783,6.554c0.179,0.31,0.179,0.69,0,1l-3.783,6.553
					C48.984,88.739,48.654,88.93,48.297,88.93z M41.307,86.93h6.413l3.206-5.553l-3.206-5.554h-6.413l-3.206,5.554L41.307,86.93z"/>
			</g>
		</g>
		<g>
			<g>
				<path d="M36.946,82.377H29.38c-0.357,0-0.688-0.19-0.866-0.5l-3.783-6.554c-0.179-0.31-0.179-0.69,0-1l3.783-6.553
					c0.179-0.31,0.509-0.5,0.866-0.5h7.566c0.357,0,0.688,0.19,0.866,0.5l3.783,6.553c0.179,0.31,0.179,0.69,0,1l-3.783,6.554
					C37.634,82.187,37.304,82.377,36.946,82.377z M29.957,80.377h6.412l3.206-5.554l-3.206-5.553h-6.412l-3.206,5.553L29.957,80.377
					z"/>
			</g>
		</g>
		<g>
			<g>
				<path d="M59.646,82.377H52.08c-0.357,0-0.688-0.19-0.866-0.5l-3.783-6.554c-0.179-0.31-0.179-0.69,0-1l3.783-6.553
					c0.179-0.31,0.509-0.5,0.866-0.5h7.566c0.357,0,0.688,0.19,0.866,0.5l3.783,6.553c0.179,0.31,0.179,0.69,0,1l-3.783,6.554
					C60.334,82.187,60.004,82.377,59.646,82.377z M52.657,80.377h6.412l3.206-5.554l-3.206-5.553h-6.412l-3.206,5.553L52.657,80.377
					z"/>
			</g>
		</g>
		<g>
			<g>
				<path d="M70.997,88.93H63.43c-0.357,0-0.688-0.19-0.866-0.5l-3.783-6.553c-0.179-0.31-0.179-0.69,0-1l3.783-6.554
					c0.179-0.31,0.509-0.5,0.866-0.5h7.567c0.357,0,0.688,0.19,0.866,0.5l3.783,6.554c0.179,0.31,0.179,0.69,0,1l-3.783,6.553
					C71.685,88.739,71.354,88.93,70.997,88.93z M64.007,86.93h6.413l3.206-5.553l-3.206-5.554h-6.413l-3.206,5.554L64.007,86.93z"/>
			</g>
		</g>
		<g>
			<g>
				<path d="M92.5,88.93h-6.37c-0.357,0-0.688-0.19-0.866-0.5l-3.78-6.55c-0.179-0.31-0.179-0.69,0-0.999l3.78-6.56
					c0.179-0.311,0.509-0.501,0.866-0.501h7.57c0.357,0,0.688,0.19,0.866,0.501l3.78,6.56c0.276,0.479,0.111,1.09-0.367,1.365
					c-0.479,0.277-1.091,0.111-1.365-0.367l-3.492-6.059h-6.414l-3.204,5.56l3.203,5.55H92.5c0.553,0,1,0.447,1,1
					S93.053,88.93,92.5,88.93z"/>
			</g>
		</g>
		<g>
			<g>
				<path d="M82.347,82.377H74.78c-0.357,0-0.688-0.19-0.866-0.5l-3.783-6.554c-0.179-0.31-0.179-0.69,0-1l3.783-6.553
					c0.179-0.31,0.509-0.5,0.866-0.5h7.566c0.357,0,0.688,0.19,0.866,0.5l3.783,6.553c0.179,0.31,0.179,0.69,0,1l-3.783,6.554
					C83.034,82.187,82.704,82.377,82.347,82.377z M75.357,80.377h6.412l3.206-5.554l-3.206-5.553h-6.412l-3.206,5.553L75.357,80.377
					z"/>
			</g>
		</g>
		<g>
			<g>
				<path d="M97.481,82.38c-0.346,0-0.683-0.18-0.867-0.501l-3.78-6.56c-0.179-0.309-0.179-0.689,0-0.999l3.78-6.551
					c0.179-0.31,0.509-0.5,0.866-0.5h6.8c0.553,0,1,0.447,1,1s-0.447,1-1,1h-6.223l-3.203,5.551l3.492,6.061
					c0.276,0.479,0.111,1.09-0.367,1.365C97.822,82.337,97.65,82.38,97.481,82.38z"/>
			</g>
		</g>
		<g>
			<g>
				<path d="M48.299,102.04c-0.169,0-0.341-0.043-0.498-0.134c-0.479-0.275-0.644-0.887-0.367-1.365l3.492-6.061l-3.203-5.551
					h-6.415l-3.203,5.552l1.663,2.89c0.275,0.479,0.11,1.091-0.368,1.366c-0.479,0.274-1.091,0.109-1.366-0.368l-1.95-3.39
					c-0.178-0.31-0.177-0.689,0.001-0.999l3.78-6.551c0.179-0.31,0.509-0.5,0.866-0.5H48.3c0.357,0,0.688,0.19,0.866,0.5l3.78,6.551
					c0.179,0.31,0.179,0.69,0,0.999l-3.78,6.56C48.981,101.86,48.645,102.04,48.299,102.04z"/>
			</g>
		</g>
		<g>
			<g>
				<path d="M36.95,95.48h-2.94c-0.553,0-1-0.447-1-1s0.447-1,1-1h2.363l3.203-5.551l-3.203-5.55h-6.416l-2.141,3.71
					c-0.277,0.478-0.891,0.642-1.366,0.366c-0.479-0.276-0.643-0.888-0.366-1.366l2.43-4.21c0.179-0.31,0.509-0.5,0.866-0.5h7.57
					c0.357,0,0.688,0.19,0.866,0.5l3.78,6.55c0.179,0.31,0.179,0.69,0,1l-3.78,6.551C37.638,95.29,37.308,95.48,36.95,95.48z"/>
			</g>
		</g>
		<g>
			<g>
				<path d="M59.646,95.482H52.08c-0.357,0-0.688-0.19-0.866-0.5l-3.783-6.553c-0.179-0.31-0.179-0.69,0-1l3.783-6.553
					c0.179-0.31,0.509-0.5,0.866-0.5h7.566c0.357,0,0.688,0.19,0.866,0.5l3.783,6.553c0.179,0.31,0.179,0.69,0,1l-3.783,6.553
					C60.334,95.292,60.004,95.482,59.646,95.482z M52.657,93.482h6.412l3.206-5.553l-3.206-5.553h-6.412l-3.206,5.553L52.657,93.482
					z"/>
			</g>
		</g>
		<g>
			<g>
				<path d="M70.997,102.035H63.43c-0.357,0-0.688-0.19-0.866-0.5l-3.783-6.553c-0.179-0.31-0.179-0.69,0-1l3.783-6.553
					c0.179-0.31,0.509-0.5,0.866-0.5h7.567c0.357,0,0.688,0.19,0.866,0.5l3.783,6.553c0.179,0.31,0.179,0.69,0,1l-3.783,6.553
					C71.685,101.845,71.354,102.035,70.997,102.035z M64.007,100.035h6.413l3.206-5.553L70.42,88.93h-6.413l-3.206,5.553
					L64.007,100.035z"/>
			</g>
		</g>
		<g>
			<g>
				<path d="M84.071,98.46c-0.346,0-0.682-0.179-0.867-0.5l-1.721-2.979c-0.179-0.31-0.179-0.69,0-1l3.78-6.551
					c0.179-0.31,0.509-0.5,0.866-0.5h6.37c0.553,0,1,0.447,1,1s-0.447,1-1,1h-5.793l-3.203,5.551l1.433,2.479
					c0.276,0.479,0.112,1.09-0.366,1.366C84.413,98.417,84.241,98.46,84.071,98.46z"/>
			</g>
		</g>
		<g>
			<g>
				<path d="M82.347,95.482H74.78c-0.357,0-0.688-0.19-0.866-0.5l-3.783-6.553c-0.179-0.31-0.179-0.69,0-1l3.783-6.553
					c0.179-0.31,0.509-0.5,0.866-0.5h7.566c0.357,0,0.688,0.19,0.866,0.5l3.783,6.553c0.179,0.31,0.179,0.69,0,1l-3.783,6.553
					C83.034,95.292,82.704,95.482,82.347,95.482z M75.357,93.482h6.412l3.206-5.553l-3.206-5.553h-6.412l-3.206,5.553L75.357,93.482
					z"/>
			</g>
		</g>
		<g>
			<g>
				<path d="M61.759,104.94c-0.169,0-0.341-0.043-0.498-0.134c-0.479-0.275-0.644-0.887-0.367-1.365l1.382-2.401l-3.203-5.56h-6.414
					l-3.492,6.059c-0.275,0.478-0.886,0.644-1.365,0.367c-0.479-0.275-0.644-0.887-0.367-1.365l3.78-6.56
					c0.179-0.311,0.509-0.501,0.866-0.501h7.57c0.357,0,0.688,0.191,0.866,0.501l3.779,6.56c0.179,0.309,0.179,0.689,0,0.998
					l-1.67,2.9C62.441,104.761,62.104,104.94,61.759,104.94z"/>
			</g>
		</g>
		<g>
			<g>
				<path d="M61.759,104.94c-0.169,0-0.341-0.043-0.498-0.134c-0.479-0.275-0.644-0.887-0.367-1.365l1.67-2.9
					c0.178-0.31,0.509-0.501,0.866-0.501H71c0.357,0,0.687,0.19,0.866,0.5l1.26,2.18c0.276,0.478,0.112,1.09-0.366,1.366
					c-0.478,0.274-1.09,0.113-1.366-0.366l-0.971-1.68h-6.415l-1.382,2.399C62.441,104.761,62.104,104.94,61.759,104.94z"/>
			</g>
		</g>
		<g>
			<g>
				<path d="M72.261,104.22c-0.346,0-0.682-0.179-0.867-0.5l-1.26-2.18c-0.179-0.309-0.179-0.689,0-0.999l3.78-6.56
					c0.179-0.311,0.509-0.501,0.866-0.501h7.569c0.357,0,0.688,0.19,0.866,0.5l1.721,2.979c0.276,0.479,0.112,1.09-0.366,1.366
					c-0.478,0.275-1.09,0.112-1.366-0.366l-1.432-2.479h-6.414l-3.204,5.559l0.972,1.681c0.276,0.478,0.112,1.09-0.366,1.366
					C72.603,104.177,72.431,104.22,72.261,104.22z"/>
			</g>
		</g>
	</g>
	<g>
		<g>
			<path d="M64.05,105c-0.777,0-1.554-0.02-2.342-0.061c-6.468-0.317-13.284-1.931-20.258-4.795
				c-1.092-0.438-2.082-0.895-3.018-1.391c-0.458-0.239-0.898-0.49-1.307-0.742c-1.329-0.824-2.598-1.758-3.771-2.775
				c-2.862-2.454-5.314-5.541-7.283-9.17c-1.74-3.195-3.147-6.897-4.181-11.002c-1.005-3.99-1.688-8.456-2.027-13.274
				c-0.079-0.992-0.142-2.086-0.202-3.539c-0.023-0.552,0.405-1.018,0.958-1.04c0.512-0.028,1.018,0.405,1.04,0.958
				c0.06,1.426,0.12,2.497,0.198,3.472c0.333,4.71,0.996,9.06,1.973,12.936c0.992,3.941,2.338,7.486,3.998,10.535
				c1.854,3.415,4.151,6.312,6.833,8.61c1.098,0.952,2.279,1.821,3.517,2.589c0.368,0.227,0.768,0.454,1.187,0.674
				c0.878,0.465,1.806,0.893,2.839,1.308c6.769,2.78,13.363,4.344,19.605,4.649c2.951,0.153,5.815,0.011,8.536-0.391
				c0.573-0.086,1.14-0.183,1.696-0.307c4.153-0.881,8.088-2.8,11.389-5.552c1.378-1.136,2.652-2.424,3.793-3.832l8.11-10.02
				c1.325-1.638,2.451-3.409,3.347-5.266l6.499-13.479c0.241-0.496,0.839-0.706,1.335-0.468c0.498,0.24,0.707,0.838,0.468,1.335
				l-6.501,13.48c-0.962,1.994-2.171,3.897-3.593,5.654l-8.11,10.021c-1.225,1.513-2.595,2.896-4.071,4.112
				c-3.546,2.957-7.779,5.021-12.239,5.967c-0.521,0.116-1.105,0.223-1.828,0.331C68.517,104.842,66.301,105,64.05,105z"/>
		</g>
	</g>
	<g>
		<g>
			<g>
				<path d="M104.022,23.665c-1.333,0-2.408-0.515-2.927-1.449c-0.462-0.863-0.408-1.897,0.143-2.928
					c0.261-0.487,0.865-0.67,1.354-0.41c0.487,0.261,0.671,0.866,0.41,1.354c-0.223,0.416-0.277,0.79-0.15,1.027
					c0.175,0.314,0.911,0.537,1.959,0.32c0.533-0.102,1.102-0.317,1.655-0.624c1.099-0.602,1.953-1.499,2.182-2.289
					c0.052-0.18,0.092-0.433-0.013-0.622c-0.296-0.528-1.854-0.682-3.622,0.292c-0.244,0.134-0.501,0.301-0.766,0.497
					c-0.445,0.328-1.07,0.235-1.399-0.206c-0.329-0.443-0.237-1.07,0.206-1.399c0.339-0.251,0.674-0.469,0.996-0.645
					c2.644-1.455,5.364-1.244,6.333,0.489c0.348,0.628,0.412,1.371,0.186,2.15c-0.38,1.313-1.554,2.616-3.138,3.484
					c-0.731,0.405-1.505,0.695-2.232,0.835C104.791,23.624,104.396,23.665,104.022,23.665z"/>
			</g>
		</g>
		<g>
			<g>
				<path d="M91.889,17.05c-0.459,0-0.872-0.317-0.976-0.784c-0.207-0.94-0.61-1.582-1.105-1.76c-0.484-0.176-0.984,0.14-1.24,0.341
					c-0.437,0.341-1.063,0.264-1.404-0.17c-0.341-0.436-0.265-1.063,0.17-1.404c0.991-0.775,2.14-1.012,3.15-0.648
					c1.173,0.421,2.019,1.561,2.383,3.21c0.119,0.54-0.222,1.073-0.761,1.192C92.032,17.042,91.96,17.05,91.889,17.05z"/>
			</g>
		</g>
		<g>
			<g>
				<path d="M95.681,19.34c-0.359,0-0.707-0.194-0.886-0.535c-0.258-0.488-0.069-1.093,0.42-1.35
					c0.834-0.438,1.761-0.657,2.702-0.561c0.55,0.053,0.952,0.542,0.898,1.092c-0.053,0.55-0.535,0.949-1.092,0.898
					c-0.068-0.006-0.126-0.005-0.193-0.005c-0.483,0-0.949,0.116-1.386,0.345C95.996,19.303,95.837,19.34,95.681,19.34z"/>
			</g>
		</g>
		<g>
			<g>
				<path d="M102.96,27.44c-0.453,0-0.885-0.098-1.284-0.29l-5.424-2.556l0.001-0.001c-0.016-0.007-0.029-0.014-0.044-0.021
					l-1.764-0.827c-1.265-0.587-1.946-1.959-1.654-3.333c0.115-0.541,0.648-0.885,1.187-0.771c0.54,0.115,0.885,0.646,0.771,1.187
					c-0.098,0.457,0.126,0.911,0.543,1.104l1.794,0.842c0.016,0.008,0.032,0.016,0.048,0.024l5.402,2.546
					c0.486,0.237,1.1,0.012,1.328-0.477c0.308-0.651,0.37-1.356,0.182-2.046c-0.146-0.532,0.169-1.082,0.702-1.228
					c0.528-0.146,1.082,0.168,1.228,0.702c0.311,1.139,0.204,2.354-0.301,3.421C105.187,26.762,104.121,27.44,102.96,27.44z"/>
			</g>
		</g>
		<g>
			<g>
				<path d="M97.63,25.14c-0.116,0-0.234-0.021-0.351-0.063c-0.517-0.193-0.779-0.77-0.586-1.287
					c0.423-1.132,0.948-2.159,1.562-3.055c0.312-0.454,0.935-0.572,1.391-0.26c0.455,0.312,0.571,0.935,0.26,1.391
					c-0.521,0.762-0.973,1.645-1.339,2.625C98.416,24.892,98.035,25.14,97.63,25.14z"/>
			</g>
		</g>
		<g>
			<g>
				<path d="M98.932,22.31c-0.634,0-1.191-0.189-1.638-0.568c-0.813-0.688-1.072-1.847-0.728-3.26
					c0.286-1.174,0.974-2.445,1.936-3.581c2.211-2.609,5.028-3.604,6.548-2.316c1.522,1.291,1.003,4.231-1.208,6.842l0,0
					c-0.961,1.135-2.103,2.021-3.213,2.497C100.025,22.182,99.453,22.31,98.932,22.31z M103.405,14.014
					c-0.687,0-2.071,0.639-3.378,2.18c-0.754,0.89-1.307,1.896-1.518,2.762c-0.167,0.685-0.082,1.126,0.077,1.261
					c0.159,0.134,0.608,0.145,1.255-0.132c0.819-0.351,1.721-1.062,2.475-1.951l0,0c1.604-1.894,1.845-3.681,1.441-4.022
					C103.683,14.047,103.562,14.014,103.405,14.014z"/>
			</g>
		</g>
		<g>
			<g>
				<path d="M94.496,26.96c-0.024,0-0.049-0.001-0.073-0.003c-0.541-0.041-0.952-0.484-0.925-1.026
					c0.046-0.889,0.885-2.392,1.896-2.997c0.571-0.343,1.18-0.395,1.71-0.145c0.5,0.235,0.714,0.831,0.479,1.331
					c-0.213,0.451-0.717,0.67-1.181,0.535c-0.338,0.195-0.873,1.039-0.908,1.383C95.443,26.554,95.007,26.96,94.496,26.96z"/>
			</g>
		</g>
		<g>
			<g>
				<path d="M97.312,28.285c-0.024,0-0.049-0.001-0.073-0.003c-0.541-0.041-0.952-0.484-0.925-1.026
					c0.046-0.889,0.885-2.393,1.896-2.998c0.572-0.343,1.18-0.395,1.71-0.145c0.5,0.235,0.714,0.831,0.479,1.331
					c-0.212,0.45-0.714,0.672-1.181,0.535c-0.338,0.195-0.873,1.04-0.908,1.384C98.259,27.879,97.822,28.285,97.312,28.285z"/>
			</g>
		</g>
		<g>
			<g>
				<path d="M93.19,21.688c-0.509,0-1.015-0.112-1.488-0.335c-0.846-0.397-1.486-1.101-1.804-1.98
					c-0.316-0.88-0.271-1.83,0.126-2.677c0.823-1.745,2.908-2.498,4.657-1.677c0.846,0.397,1.486,1.101,1.804,1.98
					c0.316,0.88,0.271,1.83-0.126,2.677c0,0,0,0-0.001,0c-0.397,0.846-1.102,1.486-1.98,1.803
					C93.99,21.618,93.59,21.688,93.19,21.688z M93.193,16.687c-0.563,0-1.104,0.318-1.358,0.86c-0.171,0.362-0.19,0.771-0.055,1.147
					c0.136,0.376,0.41,0.678,0.772,0.848c0.365,0.171,0.771,0.19,1.147,0.055s0.679-0.41,0.849-0.772l0,0
					c0.171-0.362,0.19-0.771,0.055-1.147c-0.136-0.376-0.41-0.678-0.772-0.848C93.625,16.732,93.407,16.687,93.193,16.687z
					 M95.454,19.25h0.01H95.454z"/>
			</g>
		</g>
	</g>
	<g>
		<g>
			<g>
				<path d="M26.901,32.55c-0.066,0-0.135-0.007-0.202-0.021c-0.755-0.155-1.503-0.436-2.223-0.834
					c-2.601-1.431-3.903-3.901-2.965-5.624c0.956-1.726,3.74-1.944,6.343-0.506c0.344,0.193,0.684,0.416,1.016,0.665
					c0.441,0.332,0.53,0.959,0.199,1.4c-0.333,0.442-0.959,0.53-1.4,0.199c-0.262-0.197-0.526-0.371-0.788-0.518
					c-1.759-0.973-3.319-0.816-3.616-0.278c-0.291,0.533,0.41,1.938,2.178,2.91c0.545,0.301,1.103,0.512,1.659,0.626
					c0.541,0.111,0.89,0.641,0.778,1.181C27.782,32.225,27.366,32.55,26.901,32.55z"/>
			</g>
		</g>
		<g>
			<g>
				<path d="M29.779,29.74c-0.387,0-0.744-0.226-0.908-0.582c-0.266-0.436-0.164-1.013,0.252-1.324
					c0.441-0.331,1.062-0.247,1.395,0.192c0.077,0.103,0.173,0.246,0.229,0.455c0.144,0.533-0.173,1.081-0.707,1.225
					C29.952,29.729,29.865,29.74,29.779,29.74z M28.923,29.233L28.923,29.233L28.923,29.233z M28.814,28.999
					c0,0.001,0,0.002,0,0.002S28.814,29,28.814,28.999z"/>
			</g>
		</g>
		<g>
			<g>
				<path d="M40.011,26.04c-0.071,0-0.144-0.008-0.216-0.023c-0.54-0.119-0.881-0.652-0.762-1.191c0.364-1.656,1.214-2.8,2.392-3.22
					c1.018-0.361,2.167-0.121,3.155,0.659c0.433,0.343,0.507,0.972,0.165,1.405s-0.971,0.507-1.405,0.165
					c-0.257-0.203-0.757-0.521-1.243-0.346c-0.497,0.178-0.902,0.821-1.11,1.766C40.884,25.722,40.47,26.04,40.011,26.04z"/>
			</g>
		</g>
		<g>
			<g>
				<path d="M36.219,28.33c-0.157,0-0.316-0.037-0.465-0.115c-0.454-0.238-0.943-0.349-1.447-0.345c-0.033,0-0.066,0-0.101,0.004
					c-0.551,0.066-1.042-0.338-1.101-0.888c-0.06-0.549,0.338-1.042,0.888-1.101c0.931-0.103,1.866,0.125,2.692,0.56
					c0.489,0.257,0.677,0.862,0.419,1.351C36.926,28.136,36.578,28.33,36.219,28.33z"/>
			</g>
		</g>
		<g>
			<g>
				<path d="M28.95,36.42c-1.161,0-2.228-0.678-2.717-1.728c-0.503-1.065-0.609-2.277-0.297-3.409
					c0.373-1.429,1.354-2.613,2.689-3.238l0.624-0.298c0.493-0.23,1.104-0.04,1.347,0.45c0.241,0.49,0.065,1.073-0.421,1.322
					l-0.696,0.334c-0.8,0.374-1.386,1.084-1.611,1.949c-0.188,0.683-0.125,1.402,0.176,2.04c0.231,0.495,0.876,0.702,1.321,0.487
					l2.618-1.234c0.027-0.013,0.055-0.024,0.083-0.035l4.549-2.136c0.42-0.195,0.649-0.66,0.549-1.105
					c-0.017-0.072-0.024-0.146-0.024-0.22c0-0.553,0.447-1.005,1-1.005c0.504,0,0.921,0.369,0.99,0.853
					c0.268,1.337-0.426,2.711-1.668,3.289l-4.594,2.158c-0.028,0.013-0.056,0.024-0.085,0.035l-2.557,1.205
					C29.837,36.323,29.404,36.42,28.95,36.42z"/>
			</g>
		</g>
		<g>
			<g>
				<path d="M34.28,34.12c-0.408,0-0.791-0.251-0.939-0.657c-0.35-0.958-0.787-1.814-1.336-2.618
					c-0.312-0.456-0.195-1.078,0.261-1.39c0.458-0.312,1.079-0.194,1.39,0.261c0.636,0.93,1.162,1.96,1.564,3.062
					c0.189,0.519-0.078,1.093-0.597,1.282C34.51,34.101,34.395,34.12,34.28,34.12z"/>
			</g>
		</g>
		<g>
			<g>
				<path d="M32.978,31.287c-1.495,0-3.354-1.037-4.913-2.877l0,0c-0.962-1.136-1.649-2.407-1.936-3.581
					c-0.345-1.413-0.086-2.571,0.728-3.26c0.813-0.69,2-0.755,3.335-0.182c1.111,0.475,2.252,1.361,3.214,2.497
					c2.211,2.61,2.729,5.551,1.208,6.84C34.164,31.105,33.603,31.287,32.978,31.287z M29.59,27.117
					c1.606,1.895,3.328,2.422,3.73,2.082c0.403-0.342,0.162-2.128-1.441-4.021c-0.753-0.89-1.655-1.602-2.474-1.952
					c-0.646-0.276-1.097-0.266-1.256-0.131s-0.244,0.576-0.077,1.261C28.283,25.221,28.836,26.228,29.59,27.117L29.59,27.117z"/>
			</g>
		</g>
		<g>
			<g>
				<path d="M37.409,35.967c-0.527,0-0.968-0.412-0.997-0.944c-0.036-0.345-0.572-1.188-0.909-1.384
					c-0.467,0.136-0.969-0.086-1.181-0.535c-0.234-0.5-0.021-1.096,0.479-1.331c0.529-0.249,1.137-0.199,1.709,0.144
					c1.012,0.605,1.851,2.108,1.898,2.998c0.028,0.552-0.395,1.022-0.946,1.052C37.445,35.967,37.427,35.967,37.409,35.967z"/>
			</g>
		</g>
		<g>
			<g>
				<path d="M34.594,37.291c-0.527,0-0.968-0.412-0.997-0.944c-0.036-0.345-0.572-1.188-0.909-1.383
					c-0.468,0.136-0.969-0.086-1.181-0.535c-0.234-0.5-0.021-1.096,0.479-1.331c0.53-0.248,1.137-0.199,1.709,0.144
					c1.012,0.605,1.851,2.108,1.898,2.997c0.028,0.552-0.395,1.022-0.946,1.052C34.63,37.291,34.611,37.291,34.594,37.291z"/>
			</g>
		</g>
		<g>
			<g>
				<path d="M38.72,30.669c-1.314,0-2.576-0.743-3.172-2.009c-0.001,0-0.001,0-0.001-0.001c-0.82-1.746-0.067-3.835,1.678-4.656
					c0.846-0.399,1.795-0.444,2.676-0.126c0.88,0.316,1.583,0.957,1.981,1.803c0.821,1.746,0.069,3.835-1.677,4.657
					C39.725,30.562,39.219,30.669,38.72,30.669z M37.357,27.809c0.351,0.747,1.247,1.071,1.996,0.718
					c0.748-0.352,1.07-1.247,0.718-1.995c-0.352-0.75-1.247-1.075-1.995-0.719C37.328,26.164,37.006,27.06,37.357,27.809z"/>
			</g>
		</g>
	</g>
	<g>
		<g>
			<g>
				<path d="M55.17,52.04c-0.553,0-1.01-0.447-1.01-1c0-0.528,0.401-0.962,0.92-0.998l0.084-0.012l1.136-0.222
					c5.148-1.003,8.521-6.008,7.519-11.157l-0.092-0.479l-0.467,0.09c-3.333,0.652-6.007,2.945-7.148,6.135
					c-0.187,0.521-0.762,0.789-1.278,0.604c-0.521-0.187-0.791-0.759-0.604-1.278c1.361-3.802,4.676-6.646,8.649-7.424l1.452-0.28
					c0.258-0.052,0.53,0.004,0.75,0.153c0.22,0.148,0.371,0.379,0.422,0.64l0.28,1.46c0.587,3.017-0.035,6.083-1.754,8.634
					c-1.719,2.55-4.328,4.278-7.347,4.866l-1.366,0.258C55.268,52.036,55.219,52.04,55.17,52.04z"/>
			</g>
		</g>
		<g>
			<g>
				<path d="M55.302,51.666c-0.192,0-0.387-0.056-0.559-0.171c-0.458-0.309-0.578-0.931-0.27-1.389l3.355-4.974
					c0.31-0.457,0.93-0.578,1.389-0.27c0.458,0.309,0.578,0.931,0.27,1.389l-3.355,4.974C55.938,51.512,55.623,51.666,55.302,51.666
					z"/>
			</g>
		</g>
	</g>
	<g>
		<g>
			<g>
				<path d="M55.311,52.02c-0.064,0-0.129-0.006-0.194-0.019c-0.542-0.107-0.895-0.633-0.788-1.175l0.27-1.401
					c0.33-1.681,0.202-3.418-0.37-5.031c-1.15-3.186-3.827-5.48-7.16-6.132l-0.464-0.09l-0.091,0.476
					c-0.176,0.887-0.222,1.8-0.137,2.721c0.05,0.551-0.354,1.037-0.904,1.088c-0.553,0.053-1.037-0.355-1.088-0.904
					c-0.102-1.113-0.046-2.219,0.166-3.286l0.277-1.453c0.05-0.261,0.202-0.491,0.422-0.641c0.219-0.148,0.493-0.205,0.75-0.153
					l1.45,0.28c4.032,0.788,7.269,3.562,8.661,7.421c0.694,1.957,0.85,4.059,0.451,6.084l-0.271,1.409
					C56.196,51.689,55.778,52.02,55.311,52.02z"/>
			</g>
		</g>
		<g>
			<g>
				<path d="M55.17,52.04h-0.02c-0.062,0-0.126-0.006-0.188-0.018l-1.311-0.25c-3.609-0.703-6.695-3.117-8.259-6.459
					c-0.233-0.5-0.018-1.096,0.482-1.33c0.501-0.231,1.097-0.018,1.33,0.482c1.293,2.765,3.845,4.762,6.825,5.343l1.287,0.245
					c0.474,0.08,0.842,0.491,0.842,0.986C56.16,51.593,55.723,52.04,55.17,52.04z"/>
			</g>
		</g>
		<g>
			<g>
				<path d="M55.028,51.666c-0.321,0-0.637-0.154-0.83-0.44l-3.355-4.974c-0.309-0.458-0.188-1.08,0.27-1.389
					c0.459-0.309,1.08-0.188,1.389,0.27l3.355,4.974c0.309,0.458,0.188,1.08-0.27,1.389C55.415,51.61,55.221,51.666,55.028,51.666z"
					/>
			</g>
		</g>
	</g>
	<g>
		<g>
			<g>
				<g>
					<path d="M104.754,58.368c-0.224,0-0.449-0.009-0.675-0.025l-1.151-0.084c-0.552-0.04-0.965-0.519-0.925-1.069l0.084-1.151
						c0.368-5.055,4.794-8.876,9.834-8.498l1.151,0.084c0.552,0.04,0.965,0.519,0.925,1.069l-0.084,1.151
						C113.562,54.673,109.52,58.368,104.754,58.368z M104.07,56.337l0.153,0.012c1.919,0.136,3.772-0.476,5.225-1.73
						c1.453-1.256,2.331-3.003,2.471-4.919l0.011-0.153l-0.153-0.012c-1.925-0.141-3.772,0.475-5.225,1.73
						c-1.453,1.256-2.331,3.003-2.471,4.919L104.07,56.337z"/>
				</g>
			</g>
			<g>
				<g>
					<path d="M103.286,58.015c-0.28,0-0.559-0.117-0.757-0.346c-0.361-0.418-0.314-1.05,0.103-1.411l3.535-3.055
						c0.418-0.359,1.048-0.315,1.411,0.103c0.361,0.418,0.314,1.05-0.103,1.411l-3.535,3.055
						C103.751,57.935,103.519,58.015,103.286,58.015z"/>
				</g>
			</g>
		</g>
	</g>
	<g>
		<g>
			<g>
				<path d="M63.658,22.987c-0.184,0-0.369-0.051-0.535-0.156c-0.467-0.296-0.604-0.914-0.308-1.38l1.4-2.202
					c0.297-0.466,0.915-0.604,1.38-0.308c0.467,0.296,0.604,0.914,0.308,1.38l-1.4,2.202C64.312,22.823,63.989,22.987,63.658,22.987
					z"/>
			</g>
		</g>
		<g>
			<g>
				<path d="M67.069,17.586c-0.184,0-0.369-0.051-0.535-0.156c-0.467-0.296-0.604-0.914-0.308-1.38l1.4-2.202
					c0.297-0.466,0.915-0.603,1.38-0.308c0.467,0.296,0.604,0.914,0.308,1.38l-1.4,2.202C67.724,17.422,67.4,17.586,67.069,17.586z"
					/>
			</g>
		</g>
		<g>
			<g>
				<path d="M64.47,18.177c-0.182,0-0.366-0.05-0.531-0.153l-2.214-1.394c-0.468-0.295-0.608-0.912-0.314-1.379
					c0.295-0.468,0.911-0.606,1.38-0.314l2.214,1.394c0.467,0.295,0.607,0.912,0.313,1.379
					C65.127,18.012,64.802,18.177,64.47,18.177z"/>
			</g>
		</g>
		<g>
			<g>
				<path d="M69.872,21.588c-0.182,0-0.366-0.05-0.531-0.153l-2.214-1.394c-0.468-0.295-0.608-0.912-0.314-1.379
					c0.296-0.469,0.91-0.606,1.38-0.314l2.214,1.394c0.467,0.295,0.607,0.912,0.313,1.379
					C70.529,21.423,70.204,21.588,69.872,21.588z"/>
			</g>
		</g>
	</g>
	<g>
		<g>
			<g>
				<path d="M16.884,107.825c-0.184,0-0.369-0.051-0.535-0.156c-0.467-0.296-0.604-0.914-0.308-1.38l1.4-2.202
					c0.296-0.466,0.914-0.604,1.38-0.308c0.467,0.296,0.604,0.914,0.308,1.38l-1.4,2.202
					C17.538,107.661,17.215,107.825,16.884,107.825z"/>
			</g>
		</g>
		<g>
			<g>
				<path d="M20.294,102.424c-0.184,0-0.369-0.051-0.535-0.156c-0.467-0.296-0.604-0.914-0.308-1.38l1.4-2.202
					c0.296-0.466,0.915-0.604,1.38-0.308c0.467,0.296,0.604,0.914,0.308,1.38l-1.4,2.202
					C20.948,102.26,20.625,102.424,20.294,102.424z"/>
			</g>
		</g>
		<g>
			<g>
				<path d="M17.695,103.015c-0.182,0-0.366-0.05-0.532-0.153l-2.214-1.394c-0.467-0.295-0.607-0.912-0.313-1.379
					c0.295-0.468,0.912-0.606,1.379-0.314l2.214,1.394c0.468,0.295,0.608,0.912,0.314,1.379
					C18.353,102.85,18.027,103.015,17.695,103.015z"/>
			</g>
		</g>
		<g>
			<g>
				<path d="M23.097,106.426c-0.182,0-0.366-0.05-0.531-0.153l-2.214-1.394c-0.468-0.295-0.608-0.912-0.314-1.379
					c0.295-0.468,0.911-0.605,1.38-0.314l2.214,1.394c0.467,0.295,0.607,0.912,0.313,1.379
					C23.754,106.261,23.429,106.426,23.097,106.426z"/>
			</g>
		</g>
	</g>
	<g>
		<g>
			<g>
				<path d="M104.415,102.098c-0.184,0-0.369-0.051-0.535-0.156c-0.467-0.296-0.604-0.914-0.308-1.38l1.4-2.202
					c0.296-0.466,0.914-0.603,1.38-0.308c0.467,0.296,0.604,0.914,0.308,1.38l-1.4,2.202
					C105.069,101.934,104.746,102.098,104.415,102.098z"/>
			</g>
		</g>
		<g>
			<g>
				<path d="M107.826,96.695c-0.184,0-0.369-0.051-0.536-0.156c-0.466-0.297-0.604-0.915-0.307-1.381l1.4-2.201
					c0.296-0.465,0.912-0.603,1.381-0.307c0.466,0.297,0.604,0.915,0.307,1.381l-1.4,2.201
					C108.48,96.531,108.157,96.695,107.826,96.695z"/>
			</g>
		</g>
		<g>
			<g>
				<path d="M105.227,97.287c-0.182,0-0.366-0.05-0.532-0.153l-2.214-1.394c-0.467-0.295-0.607-0.912-0.313-1.379
					c0.295-0.468,0.912-0.607,1.379-0.314l2.214,1.394c0.468,0.295,0.608,0.912,0.314,1.379
					C105.884,97.122,105.559,97.287,105.227,97.287z"/>
			</g>
		</g>
		<g>
			<g>
				<path d="M110.628,100.697c-0.182,0-0.366-0.05-0.531-0.153l-2.213-1.393c-0.468-0.295-0.608-0.912-0.314-1.379
					c0.296-0.468,0.913-0.606,1.379-0.314l2.213,1.393c0.468,0.295,0.608,0.912,0.314,1.379
					C111.285,100.532,110.96,100.697,110.628,100.697z"/>
			</g>
		</g>
	</g>
	<g>
		<g>
			<g>
				<path d="M61.529,49.27c-0.506,0-0.94-0.383-0.994-0.896c-0.057-0.55,0.343-1.041,0.892-1.099
					c2.664-0.275,5.363-0.639,8.252-1.111c0.547-0.086,1.06,0.281,1.148,0.826s-0.281,1.059-0.826,1.148
					c-2.928,0.478-5.665,0.847-8.367,1.127C61.599,49.268,61.563,49.27,61.529,49.27z"/>
			</g>
		</g>
		<g>
			<g>
				<path d="M111.71,69.81c-0.277,0-0.549-0.115-0.742-0.329c-0.599-0.663-1.314-1.324-2.127-1.965
					c-0.97-0.747-2.063-1.459-3.244-2.109c-2.309-1.284-5.1-2.466-8.298-3.516c-0.951-0.311-1.93-0.606-2.906-0.877
					c-5.816-1.657-12.656-2.936-20.335-3.8c-4.546-0.517-9.402-0.878-14.437-1.075C56.985,56.047,54.417,56,51.99,56
					c-5.092,0-10.044,0.194-14.718,0.577c-0.133,0.009-0.192,0.013-0.253,0.013l-1.537,0.146c-0.252,0.018-0.476,0.043-0.706,0.069
					c-0.881,0.089-1.666,0.179-2.43,0.268l-2.69,0.354c-0.312,0.043-0.622,0.086-0.929,0.138c-2.957,0.455-5.576,0.995-7.802,1.608
					c-1.436,0.394-2.728,0.822-3.841,1.272c-2.325,0.938-3.924,2.006-4.626,3.088c-0.251,0.39-0.735,0.551-1.172,0.399
					c-0.436-0.154-0.709-0.587-0.662-1.047l1.74-16.79c0.029-0.279,0.175-0.534,0.401-0.701c0.226-0.166,0.512-0.233,0.788-0.176
					c11.511,2.284,24.039,3.275,36.243,2.881L49.84,50.1h-0.01c-11.943,0.387-24.229-0.545-35.588-2.709l-1.347,12.99
					c0.926-0.641,2.074-1.238,3.44-1.789c1.184-0.479,2.55-0.933,4.06-1.347c2.299-0.633,4.995-1.189,8.012-1.653
					c0.311-0.053,0.641-0.1,0.973-0.146l2.73-0.359c0.779-0.091,1.574-0.181,2.38-0.262c0.32-0.036,0.569-0.063,0.827-0.082
					l1.607-0.148c0.004-0.001,0.1-0.006,0.104-0.007c0.057-0.005,0.111-0.008,0.162-0.008c4.646-0.384,9.653-0.58,14.8-0.58
					c2.45,0,5.042,0.047,7.705,0.141c5.087,0.199,9.993,0.564,14.587,1.086c7.787,0.877,14.735,2.176,20.652,3.861
					c0.998,0.277,2.006,0.581,2.986,0.902c3.32,1.089,6.229,2.322,8.646,3.666c1.266,0.698,2.445,1.467,3.504,2.282
					c0.222,0.175,0.435,0.349,0.64,0.522v-4.148c-1.881-1.884-3.397-3.224-4.883-4.316c-0.444-0.327-0.54-0.953-0.213-1.398
					c0.328-0.445,0.953-0.539,1.398-0.213c1.647,1.213,3.316,2.696,5.408,4.812c0.186,0.188,0.289,0.439,0.289,0.703v6.909
					c0,0.414-0.255,0.784-0.641,0.934C111.952,69.788,111.831,69.81,111.71,69.81z"/>
			</g>
		</g>
		<g>
			<g>
				<path d="M80.909,45.85c-0.448,0-0.855-0.304-0.97-0.758c-0.133-0.536,0.193-1.079,0.729-1.213
					c1.108-0.276,2.207-0.573,3.306-0.89c0.539-0.144,1.058-0.3,1.577-0.456c0.112-0.036,0.237-0.072,0.365-0.108l0.219-0.062
					c0.412-0.125,0.811-0.252,1.228-0.396c0.629-0.222,1.333,0.28,1.333,0.944c0,0.467-0.316,0.858-0.747,0.969
					c-0.418,0.145-0.819,0.271-1.239,0.398l-0.246,0.071c-0.107,0.031-0.214,0.061-0.32,0.095c-0.555,0.168-1.095,0.33-1.637,0.474
					c-1.102,0.316-2.222,0.621-3.354,0.903C81.071,45.84,80.989,45.85,80.909,45.85z"/>
			</g>
		</g>
		<g>
			<g>
				<path d="M103.219,56.12c-0.165,0-0.331-0.041-0.485-0.126c-2.375-1.323-5.164-2.403-8.779-3.4
					c-1.166-0.32-1.944-1.308-1.982-2.517c-0.038-1.197,0.67-2.223,1.803-2.612c0.792-0.271,1.558-0.558,2.278-0.851
					c5.038-1.98,9.128-4.436,12.497-7.503v-4.274c-4.901,2.905-10.365,5.455-16.269,7.594c-0.517,0.186-1.093-0.081-1.281-0.6
					c-0.188-0.52,0.081-1.093,0.6-1.281c6.395-2.315,12.256-5.121,17.422-8.339c0.308-0.192,0.696-0.201,1.014-0.025
					s0.515,0.511,0.515,0.874v6.49c0,0.277-0.115,0.542-0.317,0.73c-3.617,3.38-8.012,6.059-13.437,8.19
					c-0.744,0.303-1.546,0.603-2.372,0.886c-0.423,0.146-0.458,0.509-0.453,0.657c0.004,0.121,0.052,0.525,0.514,0.652
					c3.774,1.04,6.704,2.179,9.222,3.58c0.482,0.27,0.656,0.878,0.388,1.36C103.91,55.936,103.569,56.12,103.219,56.12z"/>
			</g>
		</g>
		<g>
			<g>
				<path d="M90.79,42.9h-0.01c-0.553,0-1-0.447-1-1s0.447-1,1-1s1.005,0.447,1.005,1S91.343,42.9,90.79,42.9z"/>
			</g>
		</g>
		<g>
			<g>
				<path d="M73.389,47.52c-0.472,0-0.892-0.335-0.981-0.815c-0.103-0.542,0.255-1.065,0.798-1.167
					c1.292-0.244,2.67-0.53,4.094-0.853c0.537-0.118,1.074,0.217,1.196,0.755c0.122,0.539-0.217,1.074-0.755,1.196
					c-1.448,0.327-2.85,0.619-4.166,0.866C73.512,47.514,73.45,47.52,73.389,47.52z"/>
			</g>
		</g>
		<g>
			<g>
				<path d="M67.689,52.54c-0.487,0-0.914-0.356-0.988-0.853c-0.081-0.547,0.296-1.056,0.842-1.137
					c2.02-0.3,3.951-0.624,5.741-0.963c0.341-0.061,0.673-0.129,1.004-0.197c0.538-0.109,1.069,0.235,1.182,0.777
					c0.111,0.54-0.236,1.069-0.777,1.182c-0.349,0.072-0.698,0.143-1.047,0.205c-1.806,0.342-3.763,0.67-5.808,0.975
					C67.788,52.536,67.738,52.54,67.689,52.54z M78.659,50.49c-0.456,0-0.868-0.313-0.974-0.777
					c-0.123-0.538,0.214-1.074,0.752-1.197c1.797-0.411,3.35-0.797,4.748-1.181c0.532-0.142,1.083,0.166,1.229,0.7
					c0.146,0.533-0.168,1.083-0.7,1.229c-1.427,0.391-3.007,0.783-4.832,1.2C78.808,50.482,78.733,50.49,78.659,50.49z"/>
			</g>
		</g>
	</g>
</g>
</svg>
