<?xml version="1.0" encoding="utf-8"?>
<!-- Generator: Adobe Illustrator 24.2.3, SVG Export Plug-In . SVG Version: 6.00 Build 0)  -->
<svg version="1.1" id="_x31_7" xmlns="http://www.w3.org/2000/svg" xmlns:xlink="http://www.w3.org/1999/xlink" x="0px" y="0px"
	 viewBox="0 0 128 128" style="enable-background:new 0 0 128 128;" xml:space="preserve">
<g>
	<g>
		<g>
			<g>
				<path d="M43.341,63.42c-0.34,0-0.671-0.173-0.859-0.486l-11.55-19.28c-1.433-2.38-0.49-6.664,2.147-9.753
					c1.652-1.936,3.67-3.005,5.403-2.856c1.116,0.095,2.052,0.685,2.636,1.663l3.949,6.589c0.284,0.474,0.13,1.088-0.344,1.371
					c-0.475,0.285-1.088,0.131-1.372-0.344l-3.95-6.59c-0.256-0.429-0.611-0.656-1.087-0.696c-0.842-0.071-2.26,0.459-3.714,2.162
					c-2.253,2.639-2.829,5.97-1.953,7.425l11.551,19.282c0.284,0.474,0.13,1.088-0.344,1.371
					C43.693,63.374,43.516,63.42,43.341,63.42z"/>
			</g>
		</g>
		<g>
			<g>
				<path d="M59.07,77.25c-0.552,0-1-0.447-1-1V64.877l-4.877-8.122c-0.093-0.155-0.143-0.333-0.143-0.515
					c0-0.553,0.448-1.005,1-1.005c0.399,0,0.743,0.231,0.904,0.567l4.974,8.282c0.093,0.155,0.143,0.333,0.143,0.515v11.65
					C60.07,76.803,59.622,77.25,59.07,77.25z"/>
			</g>
		</g>
		<g>
			<g>
				<path d="M56.63,75.84c-0.552,0-1-0.447-1-1v-6.935l-6.496-0.58l-1.403,1.751c-0.346,0.432-0.974,0.499-1.406,0.154
					c-0.431-0.346-0.5-0.975-0.155-1.406l1.74-2.17c0.21-0.261,0.534-0.404,0.872-0.37l7.937,0.71
					c0.516,0.046,0.912,0.479,0.912,0.996v7.85C57.63,75.393,57.182,75.84,56.63,75.84z"/>
			</g>
		</g>
	</g>
	<g>
		<g>
			<g>
				<path d="M70.14,55.78c-0.205,0-0.409-0.062-0.583-0.187c-0.049-0.034-0.097-0.071-0.137-0.109
					c-0.4-0.382-0.416-1.015-0.035-1.414c0.345-0.362,0.897-0.409,1.295-0.132c0.067,0.045,0.131,0.098,0.183,0.151
					c0.381,0.399,0.367,1.032-0.033,1.414C70.637,55.688,70.388,55.78,70.14,55.78z"/>
			</g>
		</g>
		<g>
			<g>
				<path d="M63.629,59.09c-0.17,0-0.342-0.043-0.499-0.134l-28.67-16.56c-0.034-0.02-0.066-0.041-0.097-0.064
					c-0.309-0.183-0.554-0.424-0.731-0.72c-0.773-1.316-0.323-3.495,1.042-5.075c1.169-1.366,2.653-1.839,3.749-1.218
					c0.03,0.014,0.059,0.028,0.088,0.045l28.48,16.439c0.478,0.276,0.642,0.888,0.366,1.366c-0.277,0.477-0.888,0.643-1.366,0.366
					L37.624,37.162c-0.063-0.025-0.124-0.059-0.181-0.099c-0.067-0.047-0.601,0.015-1.253,0.777
					c-0.893,1.033-1.091,2.319-0.837,2.753c0.061,0.029,0.119,0.066,0.173,0.108L64.13,57.224c0.479,0.276,0.642,0.888,0.366,1.366
					C64.311,58.911,63.975,59.09,63.629,59.09z"/>
			</g>
		</g>
		<g>
			<g>
				<g>
					<path d="M47.059,45.989c-0.169,0-0.34-0.043-0.497-0.133l-3.857-2.208c-0.48-0.274-0.647-0.885-0.374-1.364
						s0.883-0.647,1.364-0.374l3.863,2.212c0.479,0.275,0.644,0.887,0.369,1.365C47.742,45.81,47.405,45.989,47.059,45.989z"/>
				</g>
			</g>
			<g>
				<g>
					<path d="M51.749,48.68c-0.168,0-0.339-0.042-0.496-0.132l-1.8-1.03c-0.479-0.274-0.646-0.886-0.371-1.365
						c0.274-0.479,0.886-0.646,1.364-0.371l1.8,1.03c0.479,0.274,0.646,0.886,0.371,1.365C52.433,48.499,52.096,48.68,51.749,48.68z
						"/>
				</g>
			</g>
			<g>
				<g>
					<path d="M47.059,45.979c-0.167,0-0.335-0.041-0.491-0.129l-3.857-2.215c-0.479-0.275-0.643-0.887-0.368-1.365
						c0.276-0.479,0.889-0.644,1.366-0.367l3.843,2.205c0.481,0.271,0.65,0.882,0.379,1.363
						C47.747,45.797,47.408,45.979,47.059,45.979z"/>
				</g>
			</g>
			<g>
				<g>
					<path d="M53.779,49.84c-0.169,0-0.34-0.043-0.497-0.133L50.5,48.111c-0.352-0.203-0.703-0.405-1.05-0.611
						c-0.475-0.281-0.632-0.895-0.351-1.37c0.281-0.476,0.894-0.632,1.37-0.351c0.341,0.202,0.685,0.4,1.03,0.6l2.778,1.594
						c0.479,0.274,0.645,0.886,0.37,1.365C54.462,49.659,54.125,49.84,53.779,49.84z"/>
				</g>
			</g>
		</g>
	</g>
	<g>
		<g>
			<g>
				<path d="M28.569,122c-0.169,0-0.341-0.043-0.499-0.134l-16.11-9.3c-0.31-0.179-0.5-0.509-0.5-0.866V66.71
					c0-0.357,0.19-0.688,0.5-0.866c0.31-0.178,0.69-0.178,1,0l25.86,14.93c0.479,0.276,0.642,0.888,0.366,1.366
					c-0.277,0.477-0.888,0.642-1.366,0.366L13.46,68.441v42.682l15.61,9.011c0.478,0.276,0.642,0.888,0.366,1.366
					C29.25,121.82,28.915,122,28.569,122z"/>
			</g>
		</g>
		<g>
			<g>
				<path d="M89.81,122c-0.552,0-1-0.447-1-1v-9.053l-15.63-9.021c-0.31-0.179-0.5-0.509-0.5-0.866c0-0.553,0.448-1.005,1-1.005
					c0.221,0,0.425,0.07,0.59,0.19l16.04,9.259c0.31,0.179,0.5,0.509,0.5,0.866V121C90.81,121.553,90.362,122,89.81,122z"/>
			</g>
		</g>
		<g>
			<g>
				<path d="M70.539,101.24c-0.169,0-0.341-0.043-0.499-0.134l-29.78-17.19c-0.478-0.276-0.642-0.888-0.366-1.366
					c0.276-0.478,0.887-0.643,1.366-0.366l29.78,17.19c0.478,0.276,0.642,0.888,0.366,1.366
					C71.221,101.061,70.885,101.24,70.539,101.24z"/>
			</g>
		</g>
	</g>
	<g>
		<g>
			<g>
				<path d="M67.672,61.239c-0.065,0-0.13-0.003-0.194-0.008c-0.687-0.058-1.263-0.42-1.622-1.019l0,0
					c-0.776-1.294-0.332-3.474,1.032-5.07c0.876-1.026,1.938-1.565,2.911-1.486c0.687,0.058,1.263,0.42,1.623,1.02
					c0.775,1.293,0.331,3.473-1.033,5.069C69.571,60.703,68.591,61.239,67.672,61.239z M69.589,55.689
					c-0.289,0-0.724,0.219-1.18,0.752c-0.89,1.042-1.091,2.32-0.838,2.742c0,0.001,0,0.001,0,0.001
					c0.03,0.05,0.039,0.051,0.073,0.054c0.209,0.028,0.7-0.18,1.223-0.792c0.891-1.043,1.092-2.32,0.839-2.742
					C69.671,55.694,69.631,55.689,69.589,55.689z"/>
			</g>
		</g>
		<g>
			<g>
				<path d="M75.561,82.02c-0.34,0-0.671-0.173-0.859-0.486l-11.55-19.279c-1.432-2.367-0.49-6.651,2.146-9.751
					c1.649-1.933,3.666-2.999,5.399-2.854c1.117,0.093,2.054,0.682,2.64,1.657l8.431,14.07c0.284,0.474,0.13,1.088-0.344,1.371
					c-0.475,0.285-1.088,0.132-1.372-0.344l-8.43-14.069c-0.255-0.426-0.612-0.652-1.09-0.692c-0.844-0.066-2.261,0.46-3.711,2.158
					c-2.252,2.648-2.83,5.977-1.955,7.423l11.553,19.283c0.284,0.474,0.13,1.088-0.344,1.371
					C75.913,81.974,75.736,82.02,75.561,82.02z"/>
			</g>
		</g>
		<g>
			<g>
				<path d="M91.29,95.85c-0.552,0-1-0.447-1-1V83.478l-4.877-8.133c-0.284-0.474-0.13-1.088,0.343-1.372s1.088-0.13,1.372,0.343
					l5.02,8.37c0.093,0.155,0.143,0.333,0.143,0.515V94.85C92.29,95.402,91.842,95.85,91.29,95.85z"/>
			</g>
		</g>
		<g>
			<g>
				<path d="M88.85,94.44c-0.552,0-1-0.447-1-1v-6.936l-7.022-0.629c-0.55-0.051-0.955-0.538-0.904-1.088
					c0.05-0.55,0.53-0.962,1.087-0.904l7.927,0.71c0.516,0.046,0.912,0.479,0.912,0.996v7.851
					C89.85,93.993,89.402,94.44,88.85,94.44z"/>
			</g>
		</g>
	</g>
	<g>
		<g>
			<path d="M57.529,87.57c-0.169,0-0.34-0.043-0.497-0.133l-3.83-2.2c-0.479-0.275-0.644-0.887-0.369-1.365
				c0.275-0.479,0.888-0.642,1.365-0.369l3.83,2.2c0.479,0.275,0.644,0.887,0.369,1.365C58.212,87.391,57.875,87.57,57.529,87.57z"
				/>
		</g>
	</g>
	<g>
		<g>
			<path d="M89.81,106.22c-0.172,0-0.345-0.045-0.5-0.134c-0.038-0.021-0.074-0.046-0.109-0.072L73.18,96.767
				c-0.478-0.276-0.642-0.888-0.366-1.366c0.275-0.478,0.886-0.644,1.366-0.366l15.638,9.025l9.201-5.325
				c0.479-0.278,1.091-0.114,1.366,0.364c0.277,0.478,0.114,1.09-0.364,1.366l-9.71,5.62C90.156,106.175,89.983,106.22,89.81,106.22
				z"/>
		</g>
	</g>
	<g>
		<g>
			<path d="M70.859,95.27c-0.169,0-0.341-0.043-0.499-0.134l-9.79-5.649c-0.478-0.276-0.642-0.888-0.366-1.366
				c0.275-0.478,0.887-0.643,1.366-0.366l9.79,5.649c0.478,0.276,0.642,0.888,0.366,1.366C71.541,95.09,71.205,95.27,70.859,95.27z"
				/>
		</g>
	</g>
	<g>
		<g>
			<path d="M99.53,100.6h-0.01c-0.175,0-0.348-0.046-0.5-0.134l-20.65-11.92c-0.478-0.276-0.642-0.888-0.366-1.366
				c0.276-0.478,0.886-0.644,1.366-0.366l20.617,11.901c0.319,0.168,0.538,0.501,0.538,0.885
				C100.525,100.152,100.082,100.6,99.53,100.6z"/>
		</g>
	</g>
	<g>
		<g>
			<path d="M74.159,85.96c-0.169,0-0.341-0.043-0.499-0.134l-27.65-15.96c-0.478-0.276-0.642-0.888-0.366-1.366
				c0.276-0.478,0.886-0.643,1.366-0.366l27.65,15.96c0.478,0.276,0.642,0.888,0.366,1.366C74.841,85.78,74.505,85.96,74.159,85.96z
				"/>
		</g>
	</g>
	<g>
		<g>
			<path d="M47.819,81.97c-0.17,0-0.342-0.043-0.5-0.134l-7.06-4.08c-0.478-0.276-0.642-0.889-0.365-1.366
				c0.275-0.479,0.886-0.643,1.366-0.366l7.06,4.08c0.478,0.276,0.642,0.889,0.365,1.366C48.5,81.791,48.165,81.97,47.819,81.97z"/>
		</g>
	</g>
	<g>
		<g>
			<path d="M38.639,76.67c-0.169,0-0.341-0.043-0.499-0.134l-26.18-15.11c-0.31-0.179-0.5-0.509-0.5-0.866s0.191-0.688,0.5-0.866
				l9.72-5.609c0.31-0.178,0.691-0.178,1,0l19.76,11.41c0.479,0.276,0.642,0.888,0.366,1.366c-0.276,0.478-0.889,0.643-1.366,0.366
				L22.18,56.104l-7.72,4.455l24.68,14.244c0.478,0.276,0.642,0.888,0.366,1.366C39.321,76.49,38.985,76.67,38.639,76.67z"/>
		</g>
	</g>
	<g>
		<g>
			<path d="M31.079,68.84c-0.169,0-0.341-0.043-0.499-0.134l-8.75-5.05c-0.478-0.276-0.642-0.888-0.366-1.366
				c0.276-0.478,0.886-0.643,1.366-0.366l8.75,5.05c0.478,0.276,0.642,0.888,0.366,1.366C31.761,68.66,31.425,68.84,31.079,68.84z"
				/>
		</g>
	</g>
	<g>
		<g>
			<path d="M63.969,87.83c-0.169,0-0.341-0.043-0.499-0.134l-5.77-3.33c-0.478-0.276-0.642-0.888-0.366-1.366
				c0.275-0.478,0.887-0.644,1.366-0.366l5.77,3.33c0.478,0.276,0.642,0.888,0.366,1.366C64.651,87.65,64.315,87.83,63.969,87.83z"
				/>
		</g>
	</g>
	<g>
		<g>
			<path d="M53.269,81.65c-0.169,0-0.341-0.043-0.498-0.134l-5.02-2.891c-0.479-0.275-0.643-0.887-0.368-1.365
				c0.276-0.479,0.888-0.643,1.366-0.367l5.02,2.891c0.479,0.275,0.643,0.887,0.368,1.365C53.952,81.471,53.615,81.65,53.269,81.65z
				"/>
		</g>
	</g>
	<g>
		<g>
			<path d="M99.53,122c-0.552,0-1-0.447-1-1v-19.673l-7.72,4.46V121c0,0.553-0.448,1-1,1s-1-0.447-1-1v-15.78
				c0-0.357,0.19-0.697,0.5-0.876l9.71-5.61c0.152-0.088,0.325-0.134,0.5-0.134c0.552,0,1.01,0.447,1.01,1V121
				C100.53,121.553,100.082,122,99.53,122z"/>
		</g>
	</g>
	<g>
		<g>
			<g>
				<path d="M38.319,82.64c-0.169,0-0.341-0.043-0.499-0.134l-25.86-14.93c-0.31-0.179-0.5-0.509-0.5-0.866v-6.15
					c0-0.357,0.19-0.688,0.5-0.866c0.31-0.178,0.69-0.178,1,0l26.18,15.11c0.478,0.276,0.642,0.888,0.366,1.366
					c-0.276,0.478-0.888,0.643-1.366,0.366L13.46,62.291v3.842l25.36,14.641c0.479,0.276,0.642,0.888,0.366,1.366
					C39,82.46,38.665,82.64,38.319,82.64z"/>
			</g>
		</g>
		<g>
			<g>
				<path d="M70.539,101.24c-0.169,0-0.341-0.043-0.499-0.134l-29.78-17.19c-0.478-0.276-0.642-0.888-0.366-1.366
					c0.276-0.478,0.887-0.643,1.366-0.366l29.78,17.19c0.478,0.276,0.642,0.888,0.366,1.366
					C71.221,101.061,70.885,101.24,70.539,101.24z"/>
			</g>
		</g>
		<g>
			<g>
				<path d="M47.819,81.97c-0.17,0-0.342-0.043-0.5-0.134l-7.06-4.08c-0.478-0.276-0.642-0.889-0.365-1.366
					c0.275-0.479,0.886-0.643,1.366-0.366l7.06,4.08c0.478,0.276,0.642,0.889,0.365,1.366C48.5,81.791,48.165,81.97,47.819,81.97z"
					/>
			</g>
		</g>
		<g>
			<g>
				<path d="M89.81,112.37c-0.173,0-0.345-0.045-0.5-0.134l-16.13-9.311c-0.31-0.179-0.5-0.509-0.5-0.866
					c0-0.553,0.448-1.005,1-1.005c0.221,0,0.425,0.07,0.59,0.19l14.54,8.394v-3.842L60.57,89.496
					c-0.478-0.276-0.642-0.888-0.366-1.366c0.276-0.478,0.887-0.643,1.366-0.366l28.74,16.59c0.31,0.179,0.5,0.509,0.5,0.866v6.15
					c0,0.357-0.19,0.688-0.5,0.866C90.155,112.325,89.983,112.37,89.81,112.37z"/>
			</g>
		</g>
		<g>
			<g>
				<path d="M57.519,87.58c-0.17,0-0.342-0.043-0.5-0.135l-3.82-2.21c-0.478-0.276-0.641-0.888-0.365-1.366
					c0.277-0.479,0.888-0.642,1.367-0.364l3.82,2.21c0.478,0.276,0.641,0.888,0.365,1.366C58.2,87.401,57.864,87.58,57.519,87.58z"
					/>
			</g>
		</g>
	</g>
	<g>
		<g>
			<g>
				<g>
					<path d="M79.74,122c-0.234,0-0.47-0.082-0.66-0.249c-0.415-0.365-0.455-0.997-0.09-1.412c0.21-0.238,0.33-0.686,0.33-1.229
						l-0.08-3.92c0-1.989,1.226-2.87,2.44-2.87c0.541,0,1.098,0.162,1.656,0.481c0.825,0.479,1.589,1.271,2.155,2.23
						c0.281,0.476,0.122,1.089-0.354,1.369c-0.475,0.28-1.089,0.122-1.369-0.354c-0.389-0.659-0.91-1.211-1.431-1.513
						c-0.244-0.14-0.473-0.215-0.658-0.215c-0.364,0-0.44,0.462-0.44,0.85l0.08,3.92c0,1.073-0.287,1.955-0.829,2.571
						C80.293,121.886,80.017,122,79.74,122z"/>
				</g>
			</g>
			<g>
				<g>
					<path d="M76.609,122c-0.182,0-0.366-0.05-0.531-0.153c-0.971-0.611-1.895-1.613-2.601-2.823
						c-0.752-1.293-1.167-2.7-1.167-3.964v-6.04c0-0.553,0.448-1,1-1s1,0.447,1,1v6.04c0,0.902,0.326,1.98,0.894,2.957
						c0.546,0.936,1.235,1.694,1.938,2.137c0.468,0.294,0.608,0.911,0.314,1.379C77.266,121.835,76.941,122,76.609,122z"/>
				</g>
			</g>
			<g>
				<g>
					<path d="M67.529,114.012c-0.554,0-1.146-0.177-1.725-0.525c-0.997-0.584-1.706-1.544-2.123-2.244
						c-0.583-1.005-0.901-2.093-0.901-3.072v-3.46c0-1.632-0.426-3.161-1.232-4.421c-1.026-1.606-2.138-2.179-2.838-2.179
						c-0.848,0-0.94,1.049-0.94,1.5v11.449c0,0.932-0.381,1.688-1.045,2.072c-0.665,0.386-1.512,0.339-2.322-0.125
						c-1.355-0.789-2.373-2.553-2.373-4.106v-7.21c0-1.229-0.545-2.378-1.457-3.076c-0.411-0.312-0.731-0.424-0.893-0.424
						c-0.262,0-0.29,0.469-0.29,0.67v6.109c0,1.556-0.602,2.795-1.652,3.4c-1.048,0.605-2.423,0.506-3.769-0.274
						c-1.106-0.642-2.153-1.707-2.951-3.001c-0.29-0.47-0.143-1.086,0.327-1.376c0.471-0.289,1.086-0.143,1.376,0.327
						c0.626,1.018,1.426,1.842,2.25,2.319c0.71,0.41,1.354,0.512,1.767,0.271c0.414-0.238,0.651-0.846,0.651-1.667V98.86
						c0-1.845,1.15-2.67,2.29-2.67c0.668,0,1.376,0.28,2.105,0.834c1.406,1.075,2.245,2.819,2.245,4.666v7.21
						c0,0.824,0.655,1.957,1.374,2.375c0.191,0.109,0.314,0.112,0.342,0.116c-0.034-0.017,0.024-0.106,0.025-0.332V99.61
						c0-2.418,1.477-3.5,2.94-3.5c1.592,0,3.283,1.159,4.523,3.102c1.012,1.582,1.547,3.483,1.547,5.498v3.46
						c0,0.623,0.228,1.374,0.625,2.059c0.415,0.696,0.921,1.246,1.421,1.539c0.445,0.267,0.748,0.277,0.876,0.206
						c0.128-0.072,0.278-0.339,0.278-0.854v-6.95c0-1.501,0.905-2.55,2.2-2.55c0.23,0,0.426,0.038,0.587,0.076
						c0.538,0.125,0.872,0.663,0.747,1.2c-0.126,0.538-0.667,0.868-1.201,0.747c-0.025-0.006-0.102-0.023-0.133-0.023
						c-0.198,0-0.2,0.527-0.2,0.55v6.95c0,1.185-0.472,2.131-1.295,2.596C68.334,113.913,67.942,114.012,67.529,114.012z"/>
				</g>
			</g>
			<g>
				<g>
					<path d="M40.55,100.74c-0.552,0-1-0.447-1-1v-7.01c0-0.657-0.156-1.297-0.452-1.849c-0.26-0.487-0.077-1.093,0.41-1.354
						c0.485-0.259,1.093-0.076,1.354,0.41c0.45,0.841,0.688,1.807,0.688,2.792v7.01C41.55,100.293,41.102,100.74,40.55,100.74z"/>
				</g>
			</g>
			<g>
				<g>
					<path d="M34.381,97.346c-0.521,0-1.077-0.163-1.621-0.485c-0.768-0.453-1.494-1.219-2.043-2.154
						c-0.547-0.945-0.847-1.973-0.847-2.896V83.4c0-1.176-0.898-2.729-1.923-3.326c-0.298-0.168-0.484-0.194-0.567-0.194
						c-0.316,0-0.35,0.511-0.35,0.73V85.8c0,1.118-0.448,2.017-1.229,2.464c-0.778,0.447-1.776,0.382-2.736-0.181
						c-0.775-0.465-1.493-1.227-2.03-2.15c-0.545-0.942-0.845-1.969-0.845-2.893V71.75c0-0.553,0.448-1,1-1s1,0.447,1,1v11.29
						c0,0.577,0.204,1.248,0.575,1.889c0.364,0.626,0.845,1.149,1.319,1.434c0.345,0.201,0.613,0.229,0.722,0.167
						c0.111-0.064,0.224-0.314,0.224-0.729V80.61c0-2.183,1.861-3.427,3.911-2.271c1.648,0.959,2.929,3.18,2.929,5.062v8.409
						c0,0.569,0.209,1.258,0.575,1.89c0.377,0.643,0.852,1.155,1.333,1.439c0.354,0.21,0.62,0.243,0.727,0.182
						c0.104-0.059,0.215-0.31,0.215-0.721V89.86c0-1.607,0.962-2.73,2.34-2.73c0.587,0,1.195,0.203,1.807,0.604
						c0.462,0.302,0.592,0.922,0.29,1.384c-0.302,0.464-0.92,0.594-1.384,0.29c-0.277-0.182-0.524-0.277-0.712-0.277
						c-0.307,0-0.34,0.511-0.34,0.73V94.6c0,1.119-0.447,2.015-1.225,2.459C35.158,97.25,34.78,97.346,34.381,97.346z"/>
				</g>
			</g>
			<g>
				<g>
					<path d="M45.39,105.19c-0.238,0-0.478-0.085-0.669-0.257c-0.469-0.423-0.917-0.99-1.295-1.641
						c-0.278-0.478-0.116-1.09,0.361-1.367c0.476-0.277,1.09-0.117,1.367,0.361c0.272,0.467,0.593,0.879,0.905,1.16
						c0.41,0.37,0.443,1.002,0.073,1.412C45.936,105.079,45.663,105.19,45.39,105.19z"/>
				</g>
			</g>
			<g>
				<g>
					<path d="M43.55,101.45c-0.552,0-1-0.447-1-1v-4.99c0-0.553,0.448-1,1-1s1,0.447,1,1v4.99
						C44.55,101.003,44.102,101.45,43.55,101.45z"/>
				</g>
			</g>
			<g>
				<g>
					<path d="M28.569,122c-0.169,0-0.341-0.043-0.499-0.134l-10.93-6.31c-0.31-0.179-0.5-0.509-0.5-0.866V69.7
						c0-0.357,0.191-0.688,0.501-0.866c0.309-0.179,0.691-0.179,1.001,0.001L38.82,80.773c0.479,0.276,0.642,0.888,0.366,1.366
						c-0.277,0.477-0.888,0.642-1.366,0.366L18.64,71.434v42.68l10.43,6.021c0.478,0.276,0.642,0.888,0.366,1.366
						C29.25,121.82,28.915,122,28.569,122z"/>
				</g>
			</g>
			<g>
				<g>
					<path d="M84.63,122c-0.552,0-1-0.447-1-1v-12.043l-10.45-6.031c-0.31-0.179-0.5-0.509-0.5-0.866c0-0.553,0.448-1.005,1-1.005
						c0.221,0,0.425,0.07,0.59,0.19l10.86,6.269c0.31,0.179,0.5,0.509,0.5,0.866V121C85.63,121.553,85.182,122,84.63,122z"/>
				</g>
			</g>
			<g>
				<g>
					<path d="M70.539,101.24c-0.169,0-0.341-0.043-0.499-0.134l-29.78-17.19c-0.478-0.276-0.642-0.888-0.366-1.366
						c0.276-0.478,0.887-0.643,1.366-0.366l29.78,17.19c0.478,0.276,0.642,0.888,0.366,1.366
						C71.221,101.061,70.885,101.24,70.539,101.24z"/>
				</g>
			</g>
		</g>
	</g>
	<g>
		<g>
			<g>
				<path d="M47.726,63.117c-0.012,0-0.025,0-0.038,0c-0.699-0.012-1.3-0.33-1.693-0.896c-0.558-0.803-0.619-1.992-0.168-3.264
					c0.695-1.964,2.338-3.43,3.836-3.43c0.012,0,0.025,0,0.038,0c0.699,0.012,1.3,0.33,1.693,0.896
					c0.557,0.803,0.619,1.992,0.168,3.264C50.867,61.651,49.223,63.117,47.726,63.117z M49.705,57.562
					c-0.582,0-1.547,0.804-1.993,2.062c-0.269,0.759-0.192,1.286-0.075,1.455c0.592,0.07,1.582-0.767,2.04-2.061
					c0.269-0.759,0.191-1.286,0.074-1.455C49.736,57.563,49.721,57.562,49.705,57.562z"/>
			</g>
		</g>
		<g>
			<g>
				<path d="M57.21,48.31c-0.111,0-0.224-0.019-0.334-0.058c-0.521-0.185-0.793-0.756-0.608-1.276l6.26-17.67
					c0.184-0.521,0.757-0.792,1.276-0.608c0.521,0.185,0.793,0.756,0.608,1.276l-6.26,17.67C58.007,48.054,57.622,48.31,57.21,48.31
					z"/>
			</g>
		</g>
		<g>
			<g>
				<path d="M50.13,44.23c-0.111,0-0.224-0.019-0.334-0.058c-0.521-0.185-0.793-0.756-0.608-1.276l7-19.75
					c1.352-3.831,4.569-6.79,7.379-6.746c1.139,0.02,2.118,0.538,2.756,1.459c0.988,1.427,1.07,3.705,0.219,6.096l-0.044,0.134
					c-0.176,0.522-0.744,0.806-1.267,0.628c-0.523-0.176-0.805-0.743-0.629-1.267l0.05-0.149c0.754-2.118,0.507-3.608,0.026-4.303
					c-0.273-0.394-0.648-0.589-1.146-0.598c-0.011,0-0.023,0-0.034,0c-1.704,0-4.278,2.16-5.426,5.413l-7,19.751
					C50.927,43.975,50.542,44.23,50.13,44.23z"/>
			</g>
		</g>
		<g>
			<g>
				<path d="M40.76,91.42c-0.005,0-0.011,0-0.017,0l-2.44-0.04c-0.545-0.009-0.983-0.454-0.983-1v-13.8
					c0-0.114,0.02-0.227,0.058-0.334l9.73-27.453c0.129-0.404,0.507-0.698,0.952-0.698c0.552,0,1,0.442,1,0.995v0.01
					c0,0.114-0.02,0.227-0.058,0.334L39.32,76.752v12.645l0.44,0.007V76.15c0-0.228,0.078-0.449,0.22-0.626l7.93-9.87
					c0.21-0.262,0.53-0.404,0.871-0.37l0.975,0.09l4.431-12.527c0.184-0.521,0.757-0.792,1.276-0.609
					c0.521,0.184,0.793,0.755,0.609,1.275l-4.69,13.261c-0.153,0.432-0.578,0.705-1.034,0.663l-1.215-0.111l-7.374,9.177V90.42
					c0,0.268-0.107,0.524-0.299,0.713C41.274,91.317,41.022,91.42,40.76,91.42z"/>
			</g>
		</g>
	</g>
	<g>
		<g>
			<path d="M88.609,45.16c-0.17,0-0.342-0.043-0.499-0.134l-15.77-9.11c-0.479-0.276-0.642-0.889-0.366-1.366
				c0.275-0.479,0.888-0.643,1.366-0.366l15.77,9.11c0.479,0.276,0.642,0.889,0.366,1.366C89.291,44.981,88.955,45.16,88.609,45.16z
				"/>
		</g>
	</g>
	<g>
		<g>
			<path d="M91.299,39.64c-0.169,0-0.341-0.043-0.499-0.134l-28.668-16.55c-0.038-0.016-0.076-0.034-0.112-0.055
				c-0.545-0.048-1.58,0.787-2.026,2.06c-0.332,0.93-0.136,1.427-0.056,1.471c0.048,0.025,0.093,0.056,0.136,0.088L67,30.523
				c0.478,0.276,0.642,0.889,0.365,1.366c-0.276,0.479-0.889,0.642-1.366,0.366l-7.04-4.069c-0.047-0.027-0.091-0.059-0.132-0.092
				c-1.01-0.672-1.302-2.17-0.719-3.801c0.687-1.96,2.327-3.424,3.827-3.424c0.015,0,0.029,0,0.044,0c0,0,0,0,0.001,0
				c0.284,0,0.572,0.068,0.863,0.207c0.057,0.02,0.113,0.045,0.167,0.076l28.79,16.62c0.478,0.276,0.642,0.888,0.366,1.366
				C91.981,39.46,91.645,39.64,91.299,39.64z"/>
		</g>
	</g>
	<g>
		<g>
			<path d="M71.609,31.8c-0.167,0-0.335-0.041-0.491-0.129l-3.857-2.215c-0.479-0.275-0.643-0.887-0.368-1.365
				c0.276-0.479,0.888-0.643,1.366-0.367l3.843,2.205c0.481,0.271,0.65,0.882,0.379,1.363C72.297,31.617,71.958,31.8,71.609,31.8z"
				/>
		</g>
	</g>
	<g>
		<g>
			<path d="M78.329,35.66c-0.169,0-0.34-0.043-0.497-0.133l-2.727-1.563c-0.371-0.214-0.74-0.427-1.106-0.644
				c-0.475-0.281-0.632-0.895-0.351-1.37c0.281-0.476,0.895-0.632,1.37-0.351c0.359,0.213,0.722,0.422,1.086,0.633l2.722,1.561
				c0.479,0.274,0.645,0.886,0.37,1.365C79.013,35.479,78.676,35.66,78.329,35.66z"/>
		</g>
	</g>
	<g>
		<g>
			<path d="M92.222,47.063c-0.012,0-0.024,0-0.036,0c-0.7-0.012-1.301-0.33-1.694-0.896c-0.557-0.803-0.619-1.993-0.168-3.265
				c0.696-1.963,2.339-3.429,3.837-3.429c0.012,0,0.025,0,0.038,0c0.698,0.011,1.299,0.329,1.693,0.895
				c0.558,0.803,0.619,1.993,0.168,3.266l0,0C95.364,45.597,93.72,47.063,92.222,47.063z M94.203,41.508
				c-0.582,0-1.548,0.805-1.994,2.062c-0.269,0.759-0.191,1.287-0.074,1.456c0.574,0.034,1.582-0.769,2.04-2.061
				c0.269-0.76,0.191-1.287,0.074-1.456C94.234,41.509,94.219,41.508,94.203,41.508z M95.118,43.3h0.01H95.118z"/>
		</g>
	</g>
	<g>
		<g>
			<path d="M73.68,110.02c-0.004,0-0.008,0-0.012,0l-3.14-0.039c-0.548-0.007-0.988-0.452-0.988-1V95.18
				c0-0.113,0.02-0.227,0.058-0.334l13.56-38.279c0.184-0.521,0.756-0.793,1.276-0.608c0.521,0.185,0.793,0.756,0.608,1.276
				L71.54,95.352v12.642l1.14,0.014V94.75c0-0.213,0.068-0.42,0.194-0.592l7.24-9.87c0.207-0.283,0.542-0.44,0.898-0.404
				l0.965,0.089l14.9-42.087c0.75-2.106,0.505-3.597,0.026-4.288c-0.273-0.394-0.649-0.589-1.15-0.598c-0.011,0-0.022,0-0.034,0
				c-1.697,0-4.269,2.161-5.427,5.415l-3.169,8.949c-0.185,0.521-0.755,0.794-1.277,0.608c-0.521-0.185-0.793-0.756-0.608-1.276
				l3.17-8.95C89.76,37.945,92.961,35,95.721,35c0.022,0,0.044,0,0.066,0c1.142,0.02,2.122,0.538,2.76,1.459
				c0.986,1.424,1.067,3.703,0.215,6.096L83.603,85.374c-0.153,0.431-0.579,0.707-1.035,0.662l-1.177-0.108l-6.711,9.149v13.942
				c0,0.268-0.107,0.523-0.297,0.712C74.196,109.916,73.943,110.02,73.68,110.02z"/>
		</g>
	</g>
	<g>
		<g>
			<path d="M79.947,81.72c-0.012,0-0.025,0-0.038,0c-0.699-0.012-1.3-0.33-1.693-0.896c-0.558-0.803-0.619-1.992-0.168-3.264
				c0.695-1.964,2.339-3.43,3.837-3.43c0.012,0,0.025,0,0.038,0c0.699,0.012,1.3,0.33,1.693,0.896
				c0.558,0.803,0.619,1.992,0.168,3.264l0,0C83.088,80.254,81.445,81.72,79.947,81.72z M81.926,76.165
				c-0.581,0-1.547,0.804-1.993,2.062c-0.269,0.759-0.191,1.286-0.074,1.455c0.583,0.047,1.582-0.769,2.039-2.061h0
				c0.269-0.759,0.191-1.286,0.074-1.455C81.957,76.165,81.942,76.165,81.926,76.165z"/>
		</g>
	</g>
	<g>
		<g>
			<path d="M109,122H22c-0.552,0-1-0.447-1-1s0.448-1,1-1h87c0.552,0,1,0.447,1,1S109.552,122,109,122z"/>
		</g>
	</g>
	<g>
		<g>
			<g>
				<path d="M91.711,26.823c-0.184,0-0.369-0.051-0.536-0.156c-0.466-0.296-0.604-0.914-0.307-1.38l1.4-2.202
					c0.296-0.467,0.914-0.603,1.38-0.308c0.466,0.296,0.604,0.914,0.307,1.38l-1.4,2.202C92.366,26.659,92.042,26.823,91.711,26.823
					z"/>
			</g>
		</g>
		<g>
			<g>
				<path d="M95.122,21.421c-0.184,0-0.37-0.051-0.536-0.156c-0.466-0.297-0.603-0.915-0.307-1.381l1.401-2.201
					c0.297-0.465,0.915-0.602,1.381-0.307c0.466,0.297,0.603,0.915,0.307,1.381l-1.401,2.201
					C95.776,21.257,95.453,21.421,95.122,21.421z"/>
			</g>
		</g>
		<g>
			<g>
				<path d="M92.523,22.013c-0.182,0-0.366-0.05-0.532-0.153l-2.213-1.394c-0.467-0.295-0.608-0.912-0.313-1.38
					c0.293-0.468,0.911-0.606,1.379-0.313l2.213,1.394c0.467,0.295,0.608,0.912,0.313,1.38
					C93.18,21.848,92.855,22.013,92.523,22.013z"/>
			</g>
		</g>
		<g>
			<g>
				<path d="M97.925,25.423c-0.182,0-0.366-0.05-0.531-0.153l-2.214-1.393c-0.468-0.294-0.608-0.912-0.314-1.379
					c0.294-0.468,0.913-0.606,1.379-0.314l2.214,1.393c0.468,0.294,0.608,0.912,0.314,1.379
					C98.582,25.258,98.257,25.423,97.925,25.423z"/>
			</g>
		</g>
	</g>
	<g>
		<g>
			<g>
				<path d="M112.189,75.15c-0.463,0-0.878-0.322-0.978-0.794c-0.114-0.54,0.231-1.07,0.772-1.185
					c0.562-0.118,1.136-0.335,1.662-0.627c1.763-0.975,2.46-2.378,2.167-2.916c-0.291-0.526-1.85-0.682-3.622,0.288
					c-0.242,0.133-0.499,0.3-0.765,0.497c-0.172,0.127-0.381,0.196-0.596,0.196c-0.552,0-1.005-0.447-1.005-1
					c0-0.368,0.197-0.69,0.492-0.863c0.311-0.226,0.617-0.422,0.913-0.584c2.648-1.453,5.373-1.236,6.335,0.503
					c0.94,1.725-0.357,4.194-2.951,5.629c-0.697,0.387-1.464,0.675-2.217,0.834C112.327,75.144,112.257,75.15,112.189,75.15z"/>
			</g>
		</g>
		<g>
			<g>
				<path d="M99.069,68.64c-0.459,0-0.873-0.318-0.976-0.785c-0.208-0.944-0.612-1.588-1.11-1.765
					c-0.484-0.176-0.986,0.143-1.243,0.345c-0.433,0.343-1.062,0.27-1.405-0.164c-0.342-0.434-0.269-1.062,0.165-1.404
					c0.989-0.783,2.138-1.026,3.156-0.66c1.177,0.42,2.026,1.563,2.391,3.219c0.119,0.539-0.222,1.073-0.762,1.191
					C99.212,68.632,99.14,68.64,99.069,68.64z"/>
			</g>
		</g>
		<g>
			<g>
				<path d="M102.861,70.93c-0.36,0-0.707-0.194-0.886-0.535c-0.257-0.488-0.069-1.093,0.42-1.35
					c0.831-0.437,1.777-0.668,2.704-0.558c0.548,0.065,0.94,0.563,0.875,1.112c-0.066,0.549-0.57,0.942-1.112,0.874
					c-0.051-0.007-0.102-0.004-0.151-0.004c-0.483,0-0.949,0.116-1.385,0.345C103.177,70.893,103.018,70.93,102.861,70.93z"/>
			</g>
		</g>
		<g>
			<g>
				<path d="M110.13,79.03c-0.453,0-0.885-0.098-1.284-0.289l-2.531-1.192c-0.028-0.011-0.056-0.021-0.083-0.034l-2.708-1.282
					c-0.042-0.014-0.083-0.03-0.123-0.049l-1.79-0.851c-1.255-0.583-1.951-1.994-1.646-3.352c0.121-0.539,0.659-0.877,1.195-0.757
					c0.539,0.121,0.877,0.655,0.756,1.194c-0.1,0.446,0.129,0.91,0.546,1.104l1.696,0.807c0.042,0.013,0.082,0.029,0.121,0.048
					l2.738,1.296c0.027,0.01,0.054,0.021,0.08,0.033l2.61,1.229c0.484,0.229,1.101,0.009,1.327-0.478
					c0.307-0.649,0.371-1.358,0.189-2.055c-0.225-0.862-0.815-1.572-1.617-1.948l-0.635-0.302c-0.499-0.237-0.71-0.834-0.473-1.333
					s0.833-0.708,1.333-0.474l0.63,0.3c1.337,0.627,2.322,1.812,2.698,3.251c0.297,1.14,0.187,2.351-0.313,3.409
					C112.358,78.352,111.292,79.03,110.13,79.03z"/>
			</g>
		</g>
		<g>
			<g>
				<path d="M104.8,76.73c-0.115,0-0.232-0.02-0.346-0.062c-0.519-0.191-0.784-0.766-0.593-1.284c0.41-1.113,0.936-2.143,1.563-3.06
					c0.312-0.455,0.933-0.573,1.39-0.261c0.456,0.312,0.573,0.934,0.261,1.39c-0.534,0.781-0.984,1.663-1.337,2.622
					C105.589,76.48,105.207,76.73,104.8,76.73z"/>
			</g>
		</g>
		<g>
			<g>
				<path d="M106.104,73.891c-0.625,0-1.187-0.182-1.636-0.562c-1.522-1.29-1.003-4.23,1.208-6.841
					c2.211-2.609,5.026-3.605,6.548-2.316c0.814,0.689,1.072,1.848,0.728,3.261c-0.286,1.174-0.974,2.445-1.935,3.581c0,0,0,0,0,0
					C109.458,72.853,107.598,73.891,106.104,73.891z M110.579,65.601c-0.687,0-2.072,0.639-3.377,2.18
					c-1.604,1.894-1.845,3.681-1.441,4.022c0.406,0.342,2.126-0.19,3.73-2.083c0.753-0.89,1.307-1.896,1.518-2.762
					c0.167-0.685,0.081-1.126-0.078-1.261C110.857,65.634,110.736,65.601,110.579,65.601z M110.254,70.366h0.01H110.254z"/>
			</g>
		</g>
		<g>
			<g>
				<path d="M101.67,78.547c-0.024,0-0.048-0.001-0.073-0.003c-0.541-0.041-0.953-0.484-0.924-1.026
					c0.046-0.889,0.884-2.392,1.896-2.998c0.573-0.343,1.18-0.391,1.71-0.144c0.5,0.235,0.714,0.831,0.479,1.331
					c-0.212,0.45-0.717,0.669-1.181,0.535c-0.337,0.195-0.873,1.039-0.907,1.383C102.618,78.141,102.181,78.547,101.67,78.547z"/>
			</g>
		</g>
		<g>
			<g>
				<path d="M104.485,79.872c-0.024,0-0.049-0.001-0.074-0.002c-0.541-0.042-0.952-0.485-0.924-1.027
					c0.046-0.89,0.885-2.394,1.897-2.999c0.571-0.343,1.178-0.391,1.709-0.144c0.5,0.235,0.714,0.831,0.479,1.331
					c-0.212,0.451-0.719,0.666-1.18,0.536c-0.337,0.194-0.874,1.039-0.908,1.384C105.433,79.466,104.996,79.872,104.485,79.872z"/>
			</g>
		</g>
		<g>
			<g>
				<path d="M100.364,73.274c-0.508,0-1.014-0.112-1.488-0.335c-0.846-0.397-1.486-1.101-1.803-1.98
					c-0.316-0.88-0.272-1.83,0.125-2.677c0.822-1.745,2.91-2.497,4.658-1.677c0.846,0.397,1.486,1.102,1.803,1.98
					c0.317,0.88,0.272,1.83-0.126,2.677l0,0c-0.398,0.846-1.102,1.486-1.981,1.803C101.165,73.205,100.764,73.274,100.364,73.274z
					 M100.368,68.273c-0.563,0-1.104,0.318-1.359,0.86c-0.17,0.362-0.189,0.771-0.054,1.147c0.136,0.376,0.41,0.678,0.772,0.848
					s0.77,0.189,1.147,0.055c0.377-0.136,0.678-0.41,0.849-0.772l0,0c0.17-0.362,0.19-0.771,0.054-1.147
					c-0.136-0.376-0.41-0.678-0.772-0.848C100.799,68.319,100.582,68.273,100.368,68.273z M102.628,70.837h0.01H102.628z"/>
			</g>
		</g>
	</g>
	<g>
		<g>
			<g>
				<path d="M18.711,27.4c-0.068,0-0.138-0.007-0.208-0.021c-0.753-0.159-1.521-0.447-2.218-0.834
					c-2.593-1.435-3.891-3.904-2.953-5.623c0.955-1.727,3.739-1.947,6.342-0.507c0.345,0.193,0.685,0.416,1.016,0.665
					c0.442,0.331,0.531,0.958,0.2,1.4c-0.331,0.442-0.958,0.531-1.4,0.199c-0.262-0.196-0.527-0.37-0.79-0.518
					c-1.759-0.973-3.319-0.813-3.615-0.277c-0.291,0.532,0.407,1.936,2.169,2.91c0.527,0.292,1.101,0.509,1.663,0.627
					c0.541,0.114,0.886,0.645,0.772,1.185C19.589,27.077,19.174,27.4,18.711,27.4z"/>
			</g>
		</g>
		<g>
			<g>
				<path d="M31.831,20.89c-0.071,0-0.144-0.008-0.216-0.023c-0.54-0.118-0.88-0.652-0.762-1.191
					c0.364-1.655,1.213-2.799,2.391-3.219c1.017-0.364,2.167-0.122,3.156,0.66c0.433,0.342,0.507,0.971,0.165,1.404
					s-0.972,0.507-1.405,0.164c-0.257-0.202-0.761-0.521-1.243-0.345c-0.498,0.177-0.902,0.82-1.11,1.765
					C32.704,20.571,32.29,20.89,31.831,20.89z"/>
			</g>
		</g>
		<g>
			<g>
				<path d="M28.039,23.18c-0.157,0-0.316-0.037-0.465-0.115c-0.455-0.239-0.949-0.347-1.451-0.345c-0.028,0-0.057,0-0.085,0.004
					c-0.54,0.066-1.046-0.325-1.112-0.874c-0.065-0.549,0.326-1.047,0.875-1.112c0.927-0.114,1.874,0.12,2.705,0.558
					c0.489,0.257,0.676,0.861,0.419,1.351C28.746,22.985,28.398,23.18,28.039,23.18z"/>
			</g>
		</g>
		<g>
			<g>
				<path d="M20.76,31.27c-1.151,0-2.213-0.672-2.704-1.713c-0.5-1.059-0.611-2.27-0.313-3.409c0.375-1.438,1.361-2.624,2.703-3.253
					l0.625-0.298c0.499-0.235,1.095-0.025,1.333,0.474c0.237,0.499,0.025,1.096-0.473,1.333l-0.63,0.3
					c-0.808,0.378-1.397,1.088-1.622,1.95c-0.182,0.696-0.118,1.405,0.187,2.05c0.229,0.483,0.851,0.697,1.335,0.47l2.604-1.228
					c0.043-0.021,0.111-0.052,0.19-0.079l4.441-2.092c0.42-0.195,0.65-0.659,0.55-1.104c-0.016-0.072-0.024-0.146-0.024-0.22
					c0-0.553,0.448-1.005,1-1.005c0.504,0,0.921,0.368,0.99,0.853c0.268,1.337-0.425,2.712-1.669,3.289l-4.49,2.115
					c-0.062,0.03-0.127,0.053-0.194,0.069l-2.55,1.213C21.637,31.175,21.206,31.27,20.76,31.27z"/>
			</g>
		</g>
		<g>
			<g>
				<path d="M26.1,28.97c-0.407,0-0.79-0.25-0.938-0.654c-0.353-0.959-0.803-1.841-1.337-2.621c-0.312-0.455-0.195-1.078,0.26-1.39
					c0.456-0.312,1.078-0.195,1.39,0.261c0.627,0.916,1.153,1.944,1.563,3.059c0.191,0.519-0.075,1.093-0.593,1.284
					C26.332,28.95,26.215,28.97,26.1,28.97z"/>
			</g>
		</g>
		<g>
			<g>
				<path d="M24.796,26.139c-1.494,0-3.354-1.037-4.913-2.877c0,0,0,0,0,0c-2.21-2.61-2.729-5.552-1.208-6.841
					c1.522-1.29,4.338-0.294,6.549,2.315c0.962,1.136,1.649,2.407,1.936,3.581c0.344,1.413,0.086,2.57-0.728,3.26
					C25.983,25.957,25.421,26.139,24.796,26.139z M21.409,21.969c0.754,0.89,1.656,1.601,2.475,1.951
					c0.648,0.277,1.097,0.265,1.255,0.131c0.159-0.135,0.244-0.576,0.077-1.26c-0.211-0.865-0.764-1.872-1.518-2.762
					c-1.603-1.893-3.328-2.427-3.73-2.083C19.564,18.288,19.805,20.075,21.409,21.969L21.409,21.969z"/>
			</g>
		</g>
		<g>
			<g>
				<path d="M29.228,30.818c-0.527,0-0.968-0.413-0.998-0.945c-0.036-0.345-0.571-1.188-0.908-1.382
					c-0.461,0.128-0.968-0.085-1.18-0.536c-0.235-0.5-0.021-1.096,0.479-1.331c0.531-0.247,1.138-0.199,1.709,0.144
					c1.012,0.605,1.851,2.109,1.897,2.999c0.029,0.551-0.395,1.021-0.946,1.051C29.263,30.818,29.246,30.818,29.228,30.818z"/>
			</g>
		</g>
		<g>
			<g>
				<path d="M26.413,32.144c-0.527,0-0.968-0.412-0.998-0.945c-0.036-0.345-0.571-1.188-0.908-1.383
					c-0.464,0.134-0.969-0.084-1.181-0.535c-0.235-0.5-0.021-1.096,0.479-1.331c0.531-0.246,1.138-0.198,1.709,0.144
					c1.012,0.606,1.851,2.109,1.897,2.999c0.029,0.551-0.395,1.021-0.946,1.051C26.448,32.144,26.43,32.144,26.413,32.144z"/>
			</g>
		</g>
		<g>
			<g>
				<path d="M30.539,25.521c-1.315,0-2.577-0.743-3.172-2.009c0,0,0,0,0,0c-0.821-1.747-0.068-3.836,1.678-4.658
					c1.747-0.818,3.835-0.067,4.657,1.678c0.822,1.746,0.07,3.835-1.677,4.657C31.544,25.414,31.038,25.521,30.539,25.521z
					 M29.177,22.66c0.353,0.749,1.248,1.072,1.996,0.718c0.362-0.17,0.637-0.472,0.772-0.849s0.117-0.784-0.054-1.146
					c-0.352-0.749-1.247-1.07-1.996-0.719C29.147,21.016,28.825,21.911,29.177,22.66L29.177,22.66z"/>
			</g>
		</g>
	</g>
</g>
</svg>
