<?xml version="1.0" encoding="utf-8"?>
<!-- Generator: Adobe Illustrator 24.2.3, SVG Export Plug-In . SVG Version: 6.00 Build 0)  -->
<svg version="1.1" id="_x31_1" xmlns="http://www.w3.org/2000/svg" xmlns:xlink="http://www.w3.org/1999/xlink" x="0px" y="0px"
	 viewBox="0 0 128 128" style="enable-background:new 0 0 128 128;" xml:space="preserve">
<g>
	<g>
		<g>
			<g>
				<path d="M33.932,90.32c-0.053,0-0.105-0.004-0.159-0.013c-0.545-0.087-0.917-0.6-0.83-1.145
					c0.301-1.887,0.642-3.854,1.013-5.911c0.098-0.543,0.617-0.904,1.162-0.807c0.543,0.099,0.904,0.618,0.806,1.162
					c-0.369,2.044-0.708,3.997-1.006,5.87C34.839,89.97,34.414,90.32,33.932,90.32z"/>
			</g>
		</g>
		<g>
			<g>
				<path d="M32.939,102.28c-0.535,0-0.978-0.423-0.999-0.961c-0.093-2.384,0.039-4.973,0.416-8.147
					c0.065-0.548,0.565-0.94,1.111-0.875c0.549,0.065,0.94,0.562,0.875,1.111c-0.364,3.067-0.493,5.557-0.404,7.833
					c0.021,0.552-0.408,1.017-0.96,1.038C32.966,102.28,32.952,102.28,32.939,102.28z"/>
			</g>
		</g>
		<g>
			<g>
				<path d="M48.87,115H33.64c-1.541,0-2.949-0.974-3.504-2.423c-0.515-1.37-0.943-2.79-1.31-4.348
					c-1.013-4.424-1.173-8.969-0.521-14.742c0.062-0.549,0.56-0.936,1.106-0.882c0.549,0.062,0.943,0.558,0.881,1.106
					c-0.626,5.539-0.478,9.877,0.481,14.064c0.346,1.468,0.75,2.809,1.231,4.092c0.259,0.675,0.917,1.132,1.634,1.132h15.23
					c0.751,0,1.419-0.482,1.663-1.201c0.45-1.339,0.834-2.694,1.143-4.024c2.887-12.089,0.805-24.235-1.209-35.981
					c-0.637-3.718-1.239-7.229-1.669-10.669C48.792,61.083,48.79,61.041,48.79,61v-1.96c0-2.46,1.139-4.856,3.125-6.576
					c1.317-1.149,2.464-2.712,3.406-4.643c0.149-0.306,0.229-0.656,0.229-1.012c0-0.244-0.037-0.478-0.108-0.694
					c-0.055-0.161-0.186-0.227-0.259-0.25s-0.22-0.05-0.368,0.053l-3.762,2.694c-0.626,0.453-1.439,0.505-2.119,0.136
					c-0.68-0.368-1.08-1.08-1.043-1.855l0.84-18.668c-0.001-0.329-0.188-0.583-0.468-0.677c-0.254-0.086-0.46-0.003-0.56,0.053
					c-0.174,0.099-0.293,0.261-0.338,0.458l-2.598,12.15c-0.107,0.501-0.573,0.839-1.083,0.785C43.176,40.94,42.79,40.512,42.79,40
					V25.78c0-0.431-0.35-0.78-0.78-0.78h-0.55c-0.411,0-0.75,0.317-0.771,0.724l-0.9,14.339c-0.031,0.496-0.421,0.894-0.917,0.935
					c-0.5,0.031-0.944-0.289-1.056-0.772l-2.72-11.81C35.037,28.175,34.82,28,34.57,28c-0.216,0-0.35,0.117-0.411,0.187
					c-0.061,0.07-0.159,0.22-0.129,0.435l1.75,12.237c0.066,0.462-0.196,0.909-0.633,1.075c-0.437,0.168-0.929,0.01-1.189-0.379
					l-4.95-7.42c-0.149-0.229-0.388-0.245-0.458-0.245c-0.158,0-0.287,0.052-0.393,0.157c-0.146,0.146-0.197,0.356-0.137,0.563
					l3.136,10.165c0.21,0.673,0.381,1.368,0.508,2.064c0.138,0.715,0.27,1.429,0.4,2.152c0.098,0.544-0.263,1.063-0.806,1.162
					c-0.547,0.099-1.064-0.264-1.162-0.807c-0.129-0.716-0.259-1.422-0.398-2.138c-0.114-0.628-0.266-1.243-0.453-1.842
					l-3.141-10.184c-0.268-0.92-0.021-1.892,0.639-2.552c0.479-0.479,1.121-0.743,1.807-0.743c0.865,0,1.661,0.428,2.128,1.145
					l2.499,3.745l-1.126-7.878c-0.103-0.733,0.116-1.472,0.6-2.027S33.833,26,34.57,26c1.176,0,2.192,0.804,2.472,1.955l1.181,5.126
					l0.469-7.474C38.77,24.149,39.986,23,41.46,23h0.55c1.533,0,2.78,1.247,2.78,2.78v4.761l0.622-2.91
					c0.169-0.755,0.645-1.396,1.307-1.771c0.66-0.375,1.454-0.449,2.176-0.21c1.098,0.367,1.834,1.383,1.834,2.529
					c0,0.015,0,0.12-0.001,0.135l-0.84,18.671l3.769-2.698c0.637-0.447,1.415-0.56,2.148-0.323c0.729,0.239,1.288,0.792,1.532,1.517
					c0.142,0.424,0.212,0.87,0.212,1.329c0,0.658-0.149,1.312-0.431,1.889c-1.06,2.172-2.369,3.946-3.892,5.275
					c-1.55,1.342-2.437,3.188-2.437,5.066v1.897c0.424,3.376,1.019,6.846,1.648,10.518c1.953,11.389,4.166,24.297,1.185,36.777
					c-0.321,1.386-0.724,2.803-1.194,4.206C51.908,113.972,50.479,115,48.87,115z"/>
			</g>
		</g>
		<g>
			<g>
				<path d="M30.611,85.91c-0.058,0-0.116-0.005-0.175-0.016c-0.544-0.096-0.907-0.614-0.811-1.158l0.365-2.051
					c0.928-5.197,1.98-11.089,2.534-17.63c0.215-2.456,0.018-4.99-0.586-7.535l-0.79-3.33c-0.127-0.537,0.205-1.076,0.742-1.203
					c0.536-0.128,1.076,0.204,1.204,0.742l0.79,3.33c0.653,2.753,0.866,5.501,0.633,8.167c-0.561,6.631-1.622,12.57-2.557,17.811
					l-0.364,2.047C31.509,85.569,31.087,85.91,30.611,85.91z"/>
			</g>
		</g>
		<g>
			<g>
				<path d="M35.219,52.33c-0.463,0-0.879-0.323-0.978-0.795c-0.184-0.878-0.342-1.763-0.5-2.645l-0.125-0.692
					c-0.09-0.44-0.194-0.904-0.326-1.358c-0.155-0.53,0.15-1.086,0.68-1.24c0.529-0.155,1.085,0.149,1.24,0.68
					c0.148,0.507,0.264,1.023,0.37,1.54l0.13,0.719c0.155,0.862,0.31,1.728,0.49,2.587c0.113,0.541-0.234,1.071-0.774,1.184
					C35.356,52.323,35.287,52.33,35.219,52.33z"/>
			</g>
		</g>
		<g>
			<g>
				<path d="M36.709,58.78c-0.451,0-0.861-0.308-0.971-0.766l-0.73-3.03c-0.129-0.537,0.201-1.077,0.738-1.207
					c0.538-0.127,1.077,0.201,1.207,0.738l0.73,3.03c0.129,0.537-0.201,1.077-0.738,1.207C36.865,58.771,36.787,58.78,36.709,58.78z
					"/>
			</g>
		</g>
		<g>
			<g>
				<path d="M48.875,115h-15.23c-1.561,0-2.974-0.985-3.518-2.452c-0.523-1.393-0.948-2.809-1.297-4.323
					c-0.068-0.297,0.002-0.609,0.192-0.848C29.212,107.139,29.5,107,29.805,107h22.85c0.305,0,0.594,0.14,0.784,0.379
					c0.189,0.239,0.26,0.552,0.19,0.849c-0.33,1.411-0.732,2.822-1.197,4.193C51.914,113.962,50.484,115,48.875,115z M31.085,109
					c0.263,0.978,0.566,1.918,0.916,2.849c0.256,0.69,0.916,1.151,1.644,1.151h15.23c0.749,0,1.417-0.49,1.662-1.219
					c0.309-0.914,0.59-1.845,0.838-2.781H31.085z"/>
			</g>
		</g>
		<g>
			<g>
				<path d="M33.794,111c-0.552,0-1-0.447-1-1v-2c0-0.553,0.448-1,1-1s1,0.447,1,1v2C34.794,110.553,34.347,111,33.794,111z"/>
			</g>
		</g>
		<g>
			<g>
				<path d="M40.794,111c-0.552,0-1-0.447-1-1v-2c0-0.553,0.448-1,1-1s1,0.447,1,1v2C41.794,110.553,41.347,111,40.794,111z"/>
			</g>
		</g>
		<g>
			<g>
				<path d="M48.794,111c-0.552,0-1-0.447-1-1v-2c0-0.553,0.448-1,1-1s1,0.447,1,1v2C49.794,110.553,49.347,111,48.794,111z"/>
			</g>
		</g>
		<g>
			<g>
				<path d="M44.794,115c-0.552,0-1-0.447-1-1v-3c0-0.553,0.448-1,1-1s1,0.447,1,1v3C45.794,114.553,45.347,115,44.794,115z"/>
			</g>
		</g>
		<g>
			<g>
				<path d="M36.794,115c-0.552,0-1-0.447-1-1v-2c0-0.553,0.448-1,1-1s1,0.447,1,1v2C37.794,114.553,37.347,115,36.794,115z"/>
			</g>
		</g>
		<g>
			<g>
				<path d="M41.811,66.012c-2.833,0-5.669-0.41-8.49-1.231c-0.53-0.154-0.835-0.709-0.681-1.239
					c0.154-0.531,0.71-0.834,1.239-0.681c5.326,1.549,10.71,1.534,16.004-0.049c0.528-0.158,1.086,0.143,1.245,0.672
					s-0.143,1.086-0.671,1.244C47.593,65.584,44.704,66.012,41.811,66.012z"/>
			</g>
		</g>
		<g>
			<g>
				<path d="M41.797,71.992c-3.021,0-6.04-0.47-9.036-1.408c-0.527-0.165-0.821-0.726-0.655-1.253
					c0.165-0.527,0.727-0.82,1.253-0.655c5.766,1.805,11.621,1.751,17.407-0.165c0.526-0.173,1.09,0.11,1.264,0.635
					c0.174,0.524-0.11,1.09-0.635,1.264C48.208,71.465,45.001,71.992,41.797,71.992z"/>
			</g>
		</g>
		<g>
			<g>
				<path d="M35.995,71.39c-0.105,0-0.212-0.017-0.317-0.052c-0.524-0.175-0.806-0.742-0.631-1.266l0.8-2.39
					c0.175-0.522,0.741-0.806,1.266-0.631c0.524,0.175,0.806,0.742,0.631,1.266l-0.8,2.39C36.803,71.125,36.413,71.39,35.995,71.39z
					"/>
			</g>
		</g>
		<g>
			<g>
				<path d="M42.794,69c-0.552,0-1-0.447-1-1v-3c0-0.553,0.448-1,1-1s1,0.447,1,1v3C43.794,68.553,43.347,69,42.794,69z"/>
			</g>
		</g>
		<g>
			<g>
				<path d="M47.795,71c-0.367,0-0.72-0.202-0.896-0.553l-1-2c-0.247-0.494-0.047-1.095,0.447-1.342
					c0.495-0.246,1.095-0.047,1.342,0.447l1,2c0.247,0.494,0.047,1.095-0.447,1.342C48.098,70.966,47.945,71,47.795,71z"/>
			</g>
		</g>
	</g>
	<g>
		<g>
			<g>
				<path d="M98.629,83.7c-0.477,0-0.898-0.342-0.984-0.827l-0.094-0.533c-0.696-3.958-1.416-8.051-1.964-12.59
					c-0.2-1.703-0.347-3.141-0.464-4.526c-0.042-0.455-0.073-0.919-0.083-1.381c-0.062-2.245,0.179-4.529,0.717-6.784l1.961-8.201
					c0.099-1.365,0.356-2.737,0.765-4.079l3.141-10.184c0.056-0.191,0.004-0.401-0.142-0.548c-0.106-0.105-0.235-0.157-0.393-0.157
					c-0.07,0-0.309,0.018-0.453,0.237l-4.955,7.428c-0.259,0.389-0.753,0.546-1.189,0.379c-0.437-0.166-0.699-0.613-0.633-1.075
					l1.75-12.24c0.029-0.212-0.068-0.361-0.129-0.432C95.42,28.117,95.286,28,95.07,28c-0.25,0-0.467,0.176-0.528,0.427
					l-2.717,11.798c-0.112,0.483-0.558,0.806-1.056,0.772c-0.495-0.041-0.885-0.438-0.917-0.935l-0.9-14.33
					C88.93,25.317,88.591,25,88.18,25h-0.55c-0.43,0-0.78,0.35-0.78,0.78V40c0,0.512-0.386,0.94-0.895,0.994
					c-0.508,0.054-0.976-0.284-1.083-0.785l-2.6-12.16c-0.042-0.188-0.162-0.35-0.336-0.448c-0.1-0.056-0.305-0.141-0.561-0.052
					c-0.278,0.093-0.465,0.347-0.465,0.631l0.849,18.715c0.028,0.789-0.38,1.499-1.067,1.863c-0.677,0.358-1.482,0.303-2.102-0.151
					l-3.771-2.693c-0.141-0.099-0.287-0.074-0.362-0.048c-0.073,0.023-0.204,0.089-0.259,0.254c-0.071,0.214-0.108,0.447-0.108,0.69
					c0,0.355,0.079,0.705,0.229,1.012c0.942,1.93,2.089,3.493,3.409,4.646c0.868,0.755,1.575,1.632,2.103,2.607
					c0.262,0.486,0.082,1.093-0.404,1.355c-0.487,0.259-1.093,0.082-1.355-0.404c-0.412-0.764-0.97-1.453-1.657-2.051
					c-1.523-1.33-2.833-3.104-3.893-5.276c-0.282-0.578-0.431-1.231-0.431-1.889c0-0.458,0.071-0.904,0.211-1.325
					c0.245-0.729,0.803-1.28,1.532-1.52c0.73-0.243,1.511-0.125,2.141,0.316l3.787,2.705l-0.85-18.671
					c0-0.016-0.001-0.12-0.001-0.136c0-1.146,0.737-2.162,1.833-2.528c0.724-0.24,1.518-0.164,2.177,0.208
					c0.662,0.374,1.138,1.017,1.306,1.761l0.625,2.921V25.78c0-1.533,1.247-2.78,2.78-2.78h0.55c1.474,0,2.69,1.149,2.769,2.616
					l0.469,7.464l1.178-5.114C92.878,26.804,93.895,26,95.07,26c0.737,0,1.437,0.318,1.92,0.874
					c0.484,0.556,0.703,1.294,0.601,2.024l-1.126,7.881l2.504-3.754c0.462-0.708,1.257-1.136,2.122-1.136
					c0.686,0,1.327,0.264,1.807,0.742c0.661,0.661,0.907,1.633,0.644,2.537l-3.145,10.196c-0.372,1.221-0.604,2.471-0.688,3.712
					c-0.003,0.056-0.012,0.111-0.025,0.165l-1.98,8.28c-0.497,2.085-0.72,4.195-0.663,6.271c0.009,0.422,0.039,0.839,0.077,1.256
					c0.115,1.37,0.261,2.787,0.457,4.465c0.541,4.482,1.256,8.548,1.948,12.48l0.094,0.533c0.096,0.544-0.268,1.062-0.812,1.158
					C98.745,83.695,98.686,83.7,98.629,83.7z"/>
			</g>
		</g>
		<g>
			<g>
				<path d="M96,115H80.77c-0.372,0-0.737-0.057-1.085-0.168c-0.092-0.021-0.213-0.063-0.331-0.121
					c-0.009-0.003-0.019-0.007-0.028-0.01h0c-0.138-0.054-0.263-0.12-0.387-0.188c-0.321-0.176-0.617-0.403-0.864-0.663
					c-0.11-0.125-0.191-0.219-0.273-0.323c-0.071-0.095-0.16-0.213-0.237-0.36c-0.058-0.087-0.108-0.176-0.157-0.274
					c-0.083-0.181-0.145-0.322-0.196-0.476c-0.464-1.373-0.867-2.783-1.195-4.188c-1.221-5.112-1.671-10.64-1.375-16.895
					c0.026-0.552,0.508-0.982,1.046-0.952c0.551,0.026,0.978,0.494,0.952,1.046c-0.287,6.064,0.146,11.41,1.324,16.341
					c0.314,1.348,0.699,2.695,1.145,4.012c0.03,0.091,0.068,0.17,0.104,0.25c0-0.001,0-0.002,0-0.002
					c0.001,0,0.015,0.026,0.033,0.051c0.039,0.055,0.073,0.113,0.1,0.175c0.092,0.116,0.151,0.183,0.21,0.25
					c0.077,0.08,0.203,0.177,0.335,0.249c0.063,0.035,0.107,0.062,0.156,0.083c0.07,0.021,0.138,0.051,0.203,0.088
					c0.2,0.054,0.355,0.077,0.522,0.077H96c0.729,0,1.388-0.461,1.642-1.147c0.495-1.317,0.895-2.649,1.223-4.077
					c1.42-6.2,0.833-12.197-0.014-17.755c-0.083-0.546,0.292-1.056,0.838-1.139c0.543-0.083,1.056,0.292,1.139,0.838
					c0.876,5.753,1.481,11.976-0.014,18.504c-0.349,1.516-0.773,2.932-1.298,4.328C98.975,114.015,97.561,115,96,115z"/>
			</g>
		</g>
		<g>
			<g>
				<path d="M76.231,85.42c-0.039,0-0.079-0.002-0.118-0.007c-0.548-0.064-0.941-0.562-0.876-1.109
					c0.514-4.376,1.251-8.676,1.964-12.834c0.631-3.677,1.227-7.151,1.649-10.532V59.88c0-0.553,0.448-1,1-1s1,0.447,1,1V61
					c0,0.041-0.002,0.083-0.008,0.124c-0.429,3.445-1.032,6.961-1.67,10.684c-0.708,4.133-1.441,8.405-1.949,12.729
					C77.164,85.045,76.731,85.42,76.231,85.42z"/>
			</g>
		</g>
		<g>
			<g>
				<path d="M83.85,61.28c-0.552,0-1-0.447-1-1v-1.24c0-1.396-0.302-2.815-0.874-4.104c-0.224-0.505,0.004-1.096,0.509-1.319
					c0.501-0.226,1.095,0.004,1.319,0.509c0.684,1.542,1.046,3.242,1.046,4.915v1.24C84.85,60.833,84.402,61.28,83.85,61.28z"/>
			</g>
		</g>
		<g>
			<g>
				<path d="M79.921,88.55c-0.031,0-0.062-0.001-0.094-0.004c-0.55-0.052-0.954-0.539-0.903-1.089
					c0.162-1.743,0.366-3.491,0.605-5.195c0.077-0.547,0.583-0.933,1.129-0.852c0.547,0.077,0.928,0.582,0.851,1.129
					c-0.235,1.674-0.435,3.391-0.595,5.104C80.867,88.161,80.432,88.55,79.921,88.55z"/>
			</g>
		</g>
		<g>
			<g>
				<path d="M79.639,99.24c-0.528,0-0.97-0.414-0.998-0.947c-0.109-2.079-0.116-4.168-0.021-6.386
					c0.024-0.552,0.505-0.981,1.042-0.956c0.552,0.023,0.98,0.49,0.956,1.042c-0.093,2.154-0.086,4.18,0.02,6.194
					c0.029,0.552-0.395,1.022-0.946,1.052C79.675,99.24,79.657,99.24,79.639,99.24z"/>
			</g>
		</g>
		<g>
			<g>
				<path d="M96,115H80.77c-1.609,0-3.039-1.038-3.558-2.582c-0.465-1.375-0.868-2.785-1.196-4.19c-0.069-0.298,0-0.61,0.19-0.849
					C76.396,107.14,76.685,107,76.99,107h22.85c0.305,0,0.593,0.139,0.782,0.377c0.19,0.238,0.261,0.551,0.192,0.848
					c-0.349,1.515-0.773,2.931-1.298,4.327C98.975,114.015,97.561,115,96,115z M78.27,109c0.248,0.934,0.528,1.864,0.837,2.779
					c0.246,0.73,0.914,1.221,1.663,1.221H96c0.729,0,1.388-0.461,1.642-1.147c0.351-0.934,0.654-1.875,0.917-2.853H78.27z"/>
			</g>
		</g>
		<g>
			<g>
				<path d="M95.85,111c-0.552,0-1-0.447-1-1v-2c0-0.553,0.448-1,1-1s1,0.447,1,1v2C96.85,110.553,96.402,111,95.85,111z"/>
			</g>
		</g>
		<g>
			<g>
				<path d="M88.85,111c-0.552,0-1-0.447-1-1v-2c0-0.553,0.448-1,1-1s1,0.447,1,1v2C89.85,110.553,89.402,111,88.85,111z"/>
			</g>
		</g>
		<g>
			<g>
				<path d="M80.85,111c-0.552,0-1-0.447-1-1v-2c0-0.553,0.448-1,1-1s1,0.447,1,1v2C81.85,110.553,81.402,111,80.85,111z"/>
			</g>
		</g>
		<g>
			<g>
				<path d="M84.85,115c-0.552,0-1-0.447-1-1v-3c0-0.553,0.448-1,1-1s1,0.447,1,1v3C85.85,114.553,85.402,115,84.85,115z"/>
			</g>
		</g>
		<g>
			<g>
				<path d="M92.85,115c-0.552,0-1-0.447-1-1v-2c0-0.553,0.448-1,1-1s1,0.447,1,1v2C93.85,114.553,93.402,115,92.85,115z"/>
			</g>
		</g>
		<g>
			<g>
				<path d="M87.833,66.012c-2.893,0-5.781-0.428-8.646-1.284c-0.529-0.158-0.83-0.715-0.671-1.244
					c0.158-0.529,0.713-0.83,1.245-0.672c5.293,1.584,10.677,1.599,16.004,0.049c0.53-0.153,1.085,0.149,1.239,0.681
					c0.154,0.53-0.15,1.085-0.681,1.239C93.503,65.602,90.666,66.012,87.833,66.012z"/>
			</g>
		</g>
		<g>
			<g>
				<path d="M87.848,71.992c-3.205,0-6.411-0.527-9.598-1.583c-0.524-0.174-0.809-0.739-0.635-1.264
					c0.173-0.524,0.736-0.81,1.264-0.635c5.786,1.917,11.642,1.972,17.407,0.165c0.525-0.163,1.088,0.128,1.253,0.655
					c0.166,0.527-0.128,1.088-0.655,1.253C93.888,71.522,90.869,71.992,87.848,71.992z"/>
			</g>
		</g>
		<g>
			<g>
				<path d="M93.65,71.39c-0.418,0-0.808-0.264-0.948-0.683l-0.8-2.39c-0.175-0.523,0.107-1.091,0.631-1.266
					c0.525-0.177,1.09,0.106,1.266,0.631l0.8,2.39c0.175,0.523-0.107,1.091-0.631,1.266C93.862,71.373,93.755,71.39,93.65,71.39z"/>
			</g>
		</g>
		<g>
			<g>
				<path d="M86.85,69c-0.552,0-1-0.447-1-1v-3c0-0.553,0.448-1,1-1s1,0.447,1,1v3C87.85,68.553,87.402,69,86.85,69z"/>
			</g>
		</g>
		<g>
			<g>
				<path d="M81.849,71c-0.15,0-0.303-0.034-0.446-0.105c-0.494-0.247-0.694-0.848-0.447-1.342l1-2
					c0.247-0.494,0.847-0.693,1.342-0.447c0.494,0.247,0.694,0.848,0.447,1.342l-1,2C82.569,70.798,82.216,71,81.849,71z"/>
			</g>
		</g>
	</g>
	<g>
		<g>
			<g>
				<path d="M106.009,88.38c-0.465,0-0.881-0.325-0.979-0.798c-0.111-0.541,0.237-1.07,0.778-1.182
					c0.557-0.115,1.115-0.325,1.659-0.625c0.842-0.466,1.548-1.105,1.937-1.753c0.284-0.474,0.371-0.906,0.231-1.158
					c-0.104-0.19-0.334-0.29-0.508-0.342c-0.788-0.228-2.01,0.016-3.115,0.623c-0.247,0.137-0.505,0.305-0.766,0.498
					c-0.518,0.391-0.943,0.854-1.191,1.301c-0.009,0.017-0.018,0.032-0.027,0.047c-0.209,0.452-0.728,0.684-1.214,0.531
					c-0.525-0.17-0.814-0.733-0.645-1.259c0.037-0.115,0.093-0.229,0.164-0.336c0.387-0.68,0.979-1.33,1.716-1.887
					c0.338-0.251,0.672-0.467,0.999-0.646c1.598-0.88,3.332-1.174,4.642-0.791c0.772,0.226,1.36,0.675,1.7,1.298
					c0.494,0.891,0.397,2.041-0.269,3.15c-0.573,0.954-1.526,1.833-2.685,2.474c-0.72,0.397-1.467,0.679-2.223,0.834
					C106.144,88.373,106.076,88.38,106.009,88.38z M104.072,84.877c0,0.001,0,0.002,0,0.002S104.072,84.878,104.072,84.877z"/>
			</g>
		</g>
		<g>
			<g>
				<path d="M92.889,81.87c-0.459,0-0.873-0.318-0.976-0.785c-0.208-0.945-0.612-1.59-1.108-1.769
					c-0.479-0.172-0.981,0.14-1.238,0.341c-0.433,0.342-1.062,0.264-1.404-0.17c-0.341-0.435-0.265-1.063,0.17-1.404
					c0.989-0.774,2.138-1.013,3.147-0.648c1.174,0.421,2.021,1.564,2.386,3.221c0.119,0.539-0.222,1.072-0.762,1.191
					C93.033,81.862,92.96,81.87,92.889,81.87z"/>
			</g>
		</g>
		<g>
			<g>
				<path d="M96.681,84.15c-0.362,0-0.711-0.196-0.889-0.54c-0.254-0.49-0.062-1.094,0.428-1.348c0.71-0.368,1.505-0.562,2.3-0.562
					c0.137,0,0.275,0.002,0.398,0.016c0.549,0.06,0.946,0.553,0.886,1.103c-0.06,0.549-0.551,0.947-1.102,0.886
					c-0.057-0.006-0.12-0.004-0.182-0.004c-0.476,0-0.953,0.117-1.38,0.338C96.993,84.114,96.836,84.15,96.681,84.15z"/>
			</g>
		</g>
		<g>
			<g>
				<path d="M103.96,92.25c-0.456,0-0.888-0.098-1.286-0.291l-7.23-3.404c-1.264-0.588-1.945-1.96-1.652-3.334
					c0.115-0.541,0.647-0.889,1.187-0.769c0.54,0.114,0.885,0.646,0.77,1.187c-0.097,0.456,0.126,0.911,0.544,1.105l7.243,3.41
					c0.486,0.234,1.101,0.011,1.329-0.477c0.303-0.643,0.367-1.362,0.183-2.031c-0.229-0.876-0.817-1.585-1.62-1.961l-0.636-0.302
					l0.39-0.924l0.456-0.89l0.644,0.307c1.337,0.626,2.322,1.812,2.698,3.251c0.308,1.116,0.202,2.328-0.303,3.398
					C106.188,91.571,105.122,92.25,103.96,92.25z"/>
			</g>
		</g>
		<g>
			<g>
				<path d="M98.63,89.95c-0.118,0-0.237-0.021-0.353-0.064c-0.517-0.194-0.777-0.771-0.583-1.288
					c0.43-1.141,0.955-2.168,1.561-3.052c0.312-0.455,0.933-0.573,1.39-0.261c0.456,0.312,0.572,0.935,0.26,1.39
					c-0.515,0.753-0.966,1.638-1.34,2.628C99.415,89.703,99.034,89.95,98.63,89.95z"/>
			</g>
		</g>
		<g>
			<g>
				<path d="M99.925,87.115c-0.64,0-1.205-0.194-1.638-0.567c-0.984-0.822-1.14-2.401-0.404-4.214
					c0.367-0.899,0.924-1.804,1.612-2.619c0.965-1.138,2.107-2.024,3.219-2.499c1.338-0.571,2.521-0.507,3.333,0.182
					c1.361,1.145,1.131,3.562-0.576,6.014c-0.316,0.453-0.939,0.566-1.392,0.249c-0.454-0.315-0.565-0.938-0.25-1.392
					c1.206-1.731,1.245-3.076,0.927-3.343c-0.159-0.138-0.609-0.147-1.256,0.129c-0.819,0.35-1.723,1.062-2.478,1.952
					c-0.553,0.655-0.999,1.375-1.287,2.081c-0.456,1.122-0.337,1.782-0.155,1.935c0.084,0.072,0.242,0.104,0.434,0.09
					c0.513-0.029,1.417-0.384,2.442-1.291c0.407-0.359,1.078-0.374,1.446,0.024c0.37,0.399,0.402,0.976,0.012,1.354
					c-0.063,0.062-0.121,0.114-0.192,0.169c-1.171,1.04-2.465,1.676-3.585,1.74C100.066,87.113,99.995,87.115,99.925,87.115z"/>
			</g>
		</g>
		<g>
			<g>
				<path d="M95.496,91.772c-0.024,0-0.049-0.001-0.074-0.002c-0.541-0.042-0.952-0.485-0.924-1.027
					c0.046-0.89,0.885-2.394,1.897-2.999c0.571-0.342,1.178-0.392,1.709-0.144c0.5,0.235,0.714,0.831,0.479,1.331
					c-0.212,0.451-0.719,0.665-1.18,0.536c-0.337,0.194-0.874,1.039-0.908,1.384C96.443,91.366,96.006,91.772,95.496,91.772z"/>
			</g>
		</g>
		<g>
			<g>
				<path d="M98.312,93.097c-0.024,0-0.049,0-0.073-0.002c-0.542-0.042-0.953-0.485-0.924-1.027c0.046-0.89,0.885-2.393,1.897-2.999
					c0.572-0.343,1.18-0.393,1.709-0.144c0.5,0.235,0.714,0.831,0.479,1.331c-0.212,0.451-0.716,0.67-1.181,0.535
					c-0.337,0.195-0.873,1.04-0.908,1.385C99.259,92.69,98.822,93.097,98.312,93.097z"/>
			</g>
		</g>
		<g>
			<g>
				<path d="M94.19,86.5c-0.508,0-1.014-0.112-1.488-0.335c-1.747-0.822-2.499-2.911-1.677-4.657
					c0.398-0.846,1.102-1.486,1.981-1.804c0.88-0.315,1.83-0.272,2.676,0.127c1.746,0.821,2.499,2.91,1.677,4.656l0,0
					c-0.398,0.846-1.102,1.486-1.981,1.804C94.991,86.43,94.59,86.5,94.19,86.5z M94.193,81.497c-0.171,0-0.343,0.029-0.509,0.089
					c-0.377,0.136-0.678,0.41-0.849,0.773c-0.352,0.748-0.03,1.644,0.719,1.995c0.363,0.171,0.769,0.189,1.147,0.055
					c0.377-0.136,0.678-0.41,0.849-0.773l0,0c0.352-0.748,0.029-1.644-0.719-1.995C94.628,81.545,94.411,81.497,94.193,81.497z
					 M96.455,84.062h0.01H96.455z"/>
			</g>
		</g>
	</g>
	<g>
		<g>
			<g>
				<path d="M12.069,67.34c-0.139,0-0.28-0.029-0.415-0.091c-0.705-0.322-1.371-0.76-1.979-1.302
					c-1.357-1.205-2.215-2.738-2.294-4.101c-0.047-0.806,0.179-1.512,0.653-2.043c1.327-1.481,4.031-1.087,6.29,0.918
					c0.318,0.284,0.607,0.585,0.861,0.896c0.35,0.428,0.286,1.058-0.142,1.407c-0.428,0.348-1.057,0.287-1.407-0.142
					c-0.188-0.23-0.404-0.455-0.642-0.667c-1.507-1.339-3.063-1.535-3.468-1.079c-0.142,0.158-0.159,0.41-0.148,0.594
					c0.047,0.818,0.686,1.887,1.626,2.722c0.46,0.41,0.958,0.739,1.481,0.979c0.502,0.229,0.724,0.822,0.494,1.325
					C12.812,67.123,12.449,67.34,12.069,67.34z"/>
			</g>
		</g>
		<g>
			<g>
				<path d="M15.51,65.245c-0.478,0-0.876-0.331-0.976-0.777c-0.24-0.491-0.021-1.042,0.471-1.287
					c0.493-0.248,1.113-0.002,1.36,0.492c0.07,0.141,0.101,0.265,0.117,0.33c0.019,0.078,0.028,0.157,0.028,0.237
					C16.51,64.793,16.062,65.245,15.51,65.245z"/>
			</g>
		</g>
		<g>
			<g>
				<path d="M26.29,63.89c-0.141,0-0.285-0.029-0.421-0.093c-0.501-0.233-0.718-0.828-0.485-1.329
					c0.715-1.538,1.795-2.47,3.041-2.622c1.074-0.131,2.144,0.355,2.934,1.336c0.347,0.43,0.279,1.06-0.15,1.406
					c-0.43,0.348-1.059,0.28-1.406-0.15c-0.204-0.253-0.625-0.663-1.134-0.606c-0.527,0.064-1.063,0.604-1.471,1.48
					C27.027,63.676,26.667,63.89,26.29,63.89z"/>
			</g>
		</g>
		<g>
			<g>
				<path d="M13.65,71.62c-1.388,0-2.618-0.988-2.925-2.351c-0.257-1.161-0.091-2.368,0.464-3.403
					c0.683-1.301,1.898-2.237,3.331-2.562l0.698-0.152c0.534-0.114,1.084,0.214,1.207,0.748c0.124,0.533-0.185,1.062-0.717,1.191
					l-0.754,0.166c-0.852,0.192-1.583,0.757-1.998,1.547c-0.333,0.621-0.431,1.339-0.278,2.029c0.121,0.538,0.674,0.863,1.221,0.755
					l7.786-1.716c0.448-0.102,0.781-0.509,0.786-0.965c0-0.074-0.013-0.165-0.031-0.251c-0.14-0.624-0.482-1.189-0.984-1.612
					c-0.43-0.37-0.938-0.604-1.475-0.686c-0.546-0.083-0.922-0.593-0.839-1.139s0.595-0.909,1.138-0.84
					c0.908,0.138,1.763,0.532,2.472,1.141c0.833,0.702,1.403,1.645,1.645,2.72c0.048,0.236,0.075,0.464,0.075,0.679
					c-0.016,1.381-1.003,2.598-2.348,2.904l-7.818,1.723C14.066,71.594,13.865,71.62,13.65,71.62z"/>
			</g>
		</g>
		<g>
			<g>
				<path d="M18.918,70.5c-0.493,0-0.923-0.365-0.99-0.868c-0.139-1.04-0.383-1.994-0.725-2.835
					c-0.208-0.512,0.038-1.095,0.549-1.303c0.511-0.211,1.095,0.038,1.303,0.549c0.406,0.998,0.694,2.116,0.855,3.325
					c0.073,0.547-0.312,1.05-0.859,1.123C19.007,70.497,18.963,70.5,18.918,70.5z"/>
			</g>
		</g>
		<g>
			<g>
				<path d="M18.69,67.5c-1.615,0-3.513-1.511-4.792-3.964c-1.582-3.032-1.44-6.015,0.329-6.938
					c0.945-0.493,2.116-0.296,3.293,0.558c0.979,0.708,1.896,1.825,2.584,3.144c1.582,3.033,1.44,6.017-0.329,6.939
					C19.438,67.415,19.072,67.5,18.69,67.5z M15.327,58.337c-0.072,0-0.13,0.012-0.175,0.035c-0.469,0.244-0.628,2.04,0.52,4.239
					c0,0.001,0,0.001,0,0.001c1.148,2.201,2.713,3.088,3.18,2.854c0.468-0.244,0.627-2.041-0.52-4.24
					c-0.539-1.034-1.262-1.927-1.984-2.449C15.915,58.463,15.555,58.337,15.327,58.337z"/>
			</g>
		</g>
		<g>
			<g>
				<path d="M21.571,72.992c-0.056,0-0.113-0.005-0.17-0.015c-0.543-0.093-0.908-0.608-0.816-1.152
					c0.041-0.344-0.295-1.283-0.581-1.548c-0.491,0.054-0.926-0.296-1.034-0.782c-0.119-0.539,0.222-1.073,0.761-1.192
					c0.572-0.126,1.154,0.058,1.636,0.517c0.854,0.814,1.34,2.465,1.189,3.342C22.472,72.648,22.049,72.992,21.571,72.992z"/>
			</g>
		</g>
		<g>
			<g>
				<path d="M18.533,73.664c-0.056,0-0.113-0.005-0.17-0.015c-0.543-0.093-0.908-0.608-0.816-1.152
					c0.041-0.344-0.296-1.284-0.582-1.548c-0.48,0.031-0.926-0.297-1.033-0.783c-0.119-0.539,0.222-1.073,0.761-1.192
					c0.572-0.128,1.154,0.058,1.635,0.517c0.854,0.814,1.341,2.466,1.19,3.343C19.434,73.32,19.011,73.664,18.533,73.664z"/>
			</g>
		</g>
		<g>
			<g>
				<path d="M24.569,68.174c-0.543,0-1.073-0.122-1.547-0.359c-0.494-0.247-0.694-0.849-0.446-1.342
					c0.248-0.494,0.847-0.692,1.342-0.447c0.293,0.146,0.632,0.188,0.979,0.115c0.795-0.177,1.307-0.982,1.126-1.794
					c-0.062-0.279-0.207-0.534-0.409-0.719c-0.385-0.377-0.895-0.526-1.387-0.419c-0.586,0.13-1.048,0.622-1.14,1.223
					c-0.083,0.545-0.593,0.923-1.14,0.837c-0.546-0.083-0.92-0.594-0.837-1.14c0.215-1.408,1.296-2.563,2.691-2.874
					c1.161-0.248,2.349,0.098,3.188,0.921c0.478,0.437,0.837,1.062,0.986,1.739c0.419,1.886-0.774,3.763-2.66,4.182
					C25.068,68.147,24.817,68.174,24.569,68.174z"/>
			</g>
		</g>
	</g>
	<g>
		<g>
			<g>
				<path d="M108.145,19.033c-0.184,0-0.37-0.051-0.536-0.156c-0.466-0.297-0.604-0.915-0.307-1.381l1.4-2.201
					c0.296-0.465,0.915-0.602,1.38-0.307c0.466,0.297,0.604,0.915,0.307,1.381l-1.4,2.201
					C108.799,18.869,108.475,19.033,108.145,19.033z"/>
			</g>
		</g>
		<g>
			<g>
				<path d="M111.555,13.632c-0.184,0-0.369-0.051-0.536-0.156c-0.466-0.296-0.604-0.914-0.307-1.38l1.4-2.202
					c0.296-0.466,0.915-0.604,1.38-0.308s0.604,0.914,0.307,1.38l-1.4,2.202C112.209,13.468,111.886,13.632,111.555,13.632z"/>
			</g>
		</g>
		<g>
			<g>
				<path d="M108.956,14.223c-0.182,0-0.366-0.05-0.531-0.153l-2.214-1.393c-0.468-0.294-0.608-0.912-0.314-1.379
					c0.294-0.469,0.912-0.607,1.379-0.314l2.214,1.393c0.468,0.294,0.608,0.912,0.314,1.379
					C109.613,14.058,109.289,14.223,108.956,14.223z"/>
			</g>
		</g>
		<g>
			<g>
				<path d="M114.358,17.634c-0.182,0-0.366-0.05-0.531-0.153l-2.214-1.393c-0.468-0.294-0.608-0.912-0.314-1.379
					c0.294-0.469,0.912-0.606,1.379-0.314l2.214,1.393c0.468,0.294,0.608,0.912,0.314,1.379
					C115.015,17.469,114.69,17.634,114.358,17.634z"/>
			</g>
		</g>
	</g>
	<g>
		<g>
			<g>
				<path d="M21.063,22.835c-0.184,0-0.37-0.051-0.536-0.156c-0.466-0.297-0.604-0.915-0.307-1.381l1.4-2.201
					c0.296-0.465,0.916-0.603,1.38-0.307c0.466,0.297,0.604,0.915,0.307,1.381l-1.4,2.201
					C21.717,22.671,21.394,22.835,21.063,22.835z"/>
			</g>
		</g>
		<g>
			<g>
				<path d="M24.474,17.434c-0.184,0-0.369-0.051-0.536-0.156c-0.466-0.296-0.604-0.914-0.307-1.38l1.4-2.202
					c0.296-0.467,0.915-0.604,1.38-0.308s0.604,0.914,0.307,1.38l-1.4,2.202C25.128,17.27,24.804,17.434,24.474,17.434z"/>
			</g>
		</g>
		<g>
			<g>
				<path d="M21.875,18.024c-0.182,0-0.366-0.05-0.531-0.153l-2.214-1.393c-0.468-0.294-0.608-0.912-0.314-1.379
					c0.295-0.469,0.912-0.606,1.379-0.314l2.214,1.393c0.468,0.294,0.608,0.912,0.314,1.379
					C22.532,17.859,22.207,18.024,21.875,18.024z"/>
			</g>
		</g>
		<g>
			<g>
				<path d="M27.276,21.436c-0.182,0-0.366-0.05-0.532-0.153l-2.214-1.394c-0.467-0.295-0.608-0.912-0.313-1.379
					c0.294-0.469,0.911-0.607,1.379-0.314l2.214,1.394c0.467,0.295,0.608,0.912,0.313,1.379
					C27.934,21.271,27.608,21.436,27.276,21.436z"/>
			</g>
		</g>
	</g>
</g>
</svg>
