<?xml version="1.0" encoding="utf-8"?>
<!-- Generator: Adobe Illustrator 24.2.3, SVG Export Plug-In . SVG Version: 6.00 Build 0)  -->
<svg version="1.1" id="_x30_8" xmlns="http://www.w3.org/2000/svg" xmlns:xlink="http://www.w3.org/1999/xlink" x="0px" y="0px"
	 viewBox="0 0 128 128" style="enable-background:new 0 0 128 128;" xml:space="preserve">
<g>
	<g>
		<g>
			<path d="M99.001,87.02c-0.291,0-0.579-0.126-0.777-0.369c-0.348-0.429-0.283-1.059,0.146-1.407
				c1.973-1.603,4.311-2.793,6.949-3.537C105.731,81.59,106,81.256,106,80.86c0-0.466-0.394-0.86-0.86-0.86H99c-0.553,0-1-0.448-1-1
				s0.447-1,1-1h6.14c1.577,0,2.86,1.283,2.86,2.86c0,1.293-0.858,2.407-2.136,2.771c-2.378,0.67-4.474,1.735-6.233,3.165
				C99.445,86.947,99.223,87.02,99.001,87.02z"/>
		</g>
	</g>
	<g>
		<g>
			<path d="M98.999,92.85c-0.197,0-0.397-0.058-0.571-0.18c-0.453-0.316-0.563-0.939-0.248-1.392c2-2.865,4.689-4.736,8.222-5.721
				c2.117-0.598,3.599-2.53,3.599-4.697c0-2.68-2.181-4.86-4.86-4.86H99c-0.553,0-1-0.448-1-1s0.447-1,1-1h6.14
				c3.783,0,6.86,3.077,6.86,6.86c0,3.058-2.08,5.781-5.059,6.623c-3.07,0.856-5.398,2.472-7.121,4.94
				C99.626,92.701,99.314,92.85,98.999,92.85z"/>
		</g>
	</g>
	<g>
		<g>
			<g>
				<path d="M31.379,29.26c-0.152,0-0.307-0.035-0.452-0.108c-0.67-0.341-1.313-0.822-1.911-1.431
					c-2.088-2.114-2.634-4.852-1.24-6.231c1.412-1.381,4.144-0.8,6.227,1.32c0.292,0.292,0.559,0.606,0.79,0.929
					c0.321,0.449,0.218,1.074-0.231,1.396c-0.451,0.32-1.074,0.217-1.396-0.231c-0.167-0.234-0.364-0.465-0.584-0.686
					c-1.417-1.443-2.959-1.735-3.402-1.302c-0.431,0.426-0.157,1.967,1.262,3.402c0.448,0.457,0.915,0.809,1.392,1.051
					c0.492,0.25,0.688,0.852,0.438,1.345C32.095,29.06,31.744,29.26,31.379,29.26z"/>
			</g>
		</g>
		<g>
			<g>
				<path d="M45.809,26.75c-0.163,0-0.328-0.04-0.48-0.124c-0.484-0.266-0.661-0.874-0.395-1.358
					c0.815-1.485,1.952-2.342,3.201-2.414c1.084-0.058,2.113,0.491,2.841,1.517c0.32,0.451,0.214,1.075-0.236,1.395
					c-0.45,0.319-1.074,0.214-1.395-0.236c-0.189-0.266-0.575-0.702-1.096-0.678c-0.528,0.03-1.098,0.533-1.562,1.38
					C46.504,26.563,46.162,26.75,45.809,26.75z"/>
			</g>
		</g>
		<g>
			<g>
				<path d="M41.53,27.86c-0.25,0-0.5-0.093-0.693-0.279c-0.402-0.387-0.904-0.659-1.454-0.787
					c-0.538-0.125-0.872-0.663-0.746-1.201c0.125-0.538,0.661-0.876,1.201-0.746c0.9,0.21,1.725,0.657,2.386,1.293
					c0.398,0.383,0.41,1.016,0.027,1.414C42.054,27.757,41.792,27.86,41.53,27.86z"/>
			</g>
		</g>
		<g>
			<g>
				<path d="M32.83,33.65c-1.478,0-2.758-1.096-2.979-2.549c-0.179-1.16,0.061-2.354,0.675-3.362
					c0.779-1.259,2.057-2.108,3.508-2.336l0.688-0.11c0.546-0.087,1.058,0.285,1.145,0.83c0.087,0.545-0.284,1.058-0.83,1.145
					l-0.69,0.11c-0.878,0.138-1.649,0.651-2.117,1.409c-0.366,0.599-0.51,1.315-0.402,2.011c0.083,0.544,0.57,0.9,1.19,0.838
					l2.77-0.427c0.077-0.017,0.146-0.023,0.201-0.026l2.919-0.46c0.023-0.003,0.046-0.006,0.07-0.008
					c0.024-0.003,0.05-0.006,0.076-0.008l1.823-0.283c0.457-0.069,0.811-0.455,0.847-0.919c0.042-0.551,0.52-0.967,1.074-0.92
					c0.55,0.042,0.962,0.523,0.92,1.074c-0.107,1.383-1.174,2.536-2.539,2.742l-1.865,0.29c-0.035,0.005-0.071,0.009-0.106,0.011
					l-2.969,0.468c-0.037,0.006-0.074,0.01-0.111,0.012l-2.855,0.439C33.087,33.639,32.952,33.65,32.83,33.65z M36.292,33.14
					c0,0-0.001,0-0.002,0C36.291,33.141,36.291,33.14,36.292,33.14z"/>
			</g>
		</g>
		<g>
			<g>
				<path d="M38.019,32.87c-0.519,0-0.958-0.401-0.996-0.927c-0.079-1.063-0.261-2.036-0.542-2.89
					c-0.173-0.524,0.112-1.09,0.637-1.263c0.525-0.172,1.089,0.112,1.263,0.637c0.333,1.009,0.547,2.143,0.637,3.37
					c0.041,0.551-0.373,1.03-0.924,1.07C38.068,32.869,38.043,32.87,38.019,32.87z"/>
			</g>
		</g>
		<g>
			<g>
				<path d="M38.083,29.862c-1.653,0-3.533-1.654-4.688-4.272c-1.38-3.129-1.045-6.096,0.78-6.902
					c1.826-0.801,4.244,0.948,5.624,4.077c0.601,1.361,0.899,2.775,0.841,3.982c-0.07,1.453-0.646,2.49-1.622,2.92
					C38.72,29.799,38.406,29.862,38.083,29.862z M35.133,20.49c-0.057,0-0.107,0.009-0.15,0.028
					c-0.483,0.213-0.759,1.995,0.243,4.265c0,0,0,0,0,0c1.001,2.27,2.497,3.273,2.987,3.054c0.19-0.084,0.397-0.483,0.431-1.187
					c0.043-0.89-0.203-2.012-0.673-3.079C37.056,21.501,35.727,20.49,35.133,20.49z"/>
			</g>
		</g>
		<g>
			<g>
				<path d="M40.5,35.528c-0.077,0-0.156-0.009-0.234-0.027c-0.537-0.129-0.867-0.667-0.74-1.203
					c0.063-0.341-0.211-1.301-0.479-1.583c-0.482-0.003-0.904-0.356-0.98-0.848c-0.084-0.546,0.291-1.056,0.836-1.14
					c0.578-0.093,1.147,0.131,1.598,0.622c0.799,0.868,1.178,2.548,0.97,3.413C41.361,35.22,40.952,35.528,40.5,35.528z"/>
			</g>
		</g>
		<g>
			<g>
				<path d="M37.425,36c-0.077,0-0.156-0.009-0.234-0.027c-0.537-0.129-0.867-0.667-0.74-1.203c0.063-0.341-0.211-1.301-0.479-1.583
					c-0.482-0.003-0.904-0.356-0.98-0.848c-0.084-0.546,0.291-1.056,0.836-1.14c0.578-0.092,1.147,0.131,1.598,0.622
					c0.799,0.868,1.178,2.548,0.97,3.413C38.286,35.692,37.876,36,37.425,36z"/>
			</g>
		</g>
		<g>
			<g>
				<path d="M43.958,30.92c-1.698,0-3.192-1.241-3.458-2.969c-0.293-1.907,1.021-3.697,2.927-3.991
					c1.911-0.29,3.699,1.021,3.991,2.928c0.142,0.924-0.084,1.848-0.637,2.602s-1.367,1.247-2.291,1.389
					C44.312,30.907,44.134,30.92,43.958,30.92z M43.963,25.919c-0.077,0-0.153,0.006-0.23,0.018c-0.817,0.126-1.38,0.893-1.255,1.71
					c0.125,0.818,0.898,1.38,1.71,1.255c0.396-0.061,0.745-0.272,0.982-0.595c0.237-0.323,0.334-0.719,0.273-1.115
					s-0.272-0.745-0.595-0.982C44.587,26.02,44.28,25.919,43.963,25.919z"/>
			</g>
		</g>
	</g>
	<g>
		<g>
			<path d="M88.66,104H75.34c-1.283,0-2.552-0.217-3.771-0.646c-0.521-0.183-0.795-0.754-0.611-1.275s0.754-0.794,1.275-0.611
				c1.006,0.354,2.051,0.533,3.107,0.533h13.32c5.15,0,9.34-4.19,9.34-9.34V74c0-0.551-0.448-1-1-1H67c-0.552,0-1,0.449-1,1v16.79
				c0,0.552-0.447,1-1,1c-0.552,0-1-0.448-1-1V74c0-1.654,1.346-3,3-3h30c1.654,0,3,1.346,3,3v18.66
				C100,98.913,94.913,104,88.66,104z"/>
		</g>
	</g>
	<g>
		<g>
			<path d="M88.67,100H76.72c-0.553,0-1-0.448-1-1s0.447-1,1-1h11.95c2.939,0,5.33-2.391,5.33-5.33V81.031
				c-1.778,0.088-2.93,0.335-3.833,0.576c-0.533,0.141-1.081-0.175-1.224-0.709c-0.142-0.534,0.176-1.082,0.71-1.223
				c1.183-0.314,2.742-0.641,5.334-0.674c0.271,0.013,0.525,0.101,0.715,0.289C95.893,79.476,96,79.732,96,80v12.67
				C96,96.712,92.712,100,88.67,100z"/>
		</g>
	</g>
	<g>
		<g>
			<path d="M69.531,96.201c-0.385,0-0.751-0.223-0.916-0.597C68.207,94.679,68,93.691,68,92.67V80c0-0.267,0.106-0.523,0.297-0.711
				C68.484,79.104,68.737,79,69,79c0.004,0,0.008,0,0.011,0c3.229,0.036,4.933,0.543,6.581,1.034c1.65,0.492,3.21,0.956,6.408,0.956
				c0.483,0,0.937-0.01,1.354-0.029c0.023-0.005,0.085-0.011,0.156-0.011c0.553,0,1,0.448,1,1c0,0.534-0.419,0.97-0.945,0.999
				c-0.052,0.005-0.128,0.011-0.164,0.011c-0.398,0.02-0.884,0.03-1.4,0.03c-3.49,0-5.264-0.528-6.979-1.039
				c-1.394-0.415-2.719-0.81-5.021-0.922V92.67c0,0.742,0.149,1.457,0.445,2.126c0.223,0.505-0.006,1.096-0.512,1.319
				C69.803,96.173,69.666,96.2,69.531,96.201z"/>
		</g>
	</g>
	<g>
		<g>
			<path d="M78.661,86.81c-0.038,0-0.076-0.002-0.114-0.006c-1.976-0.226-3.365-0.632-4.591-0.992l-0.395-0.119
				c-0.272-0.083-0.536-0.165-0.81-0.234c-0.535-0.137-0.857-0.681-0.721-1.216s0.685-0.858,1.217-0.721
				c0.304,0.078,0.596,0.167,0.898,0.259l0.301,0.091c1.275,0.374,2.521,0.738,4.326,0.944c0.549,0.062,0.943,0.558,0.88,1.107
				C79.596,86.434,79.163,86.81,78.661,86.81z"/>
		</g>
	</g>
	<g>
		<g>
			<g>
				<path d="M85.57,91.638c-0.57,0-1.133-0.117-1.667-0.347c-1.48-0.644-2.454-2.043-2.542-3.653
					c-0.116-1.899,0.217-3.873,0.963-5.702c1.479-3.587,3.024-7.045,4.724-10.576c1.029-2.156,2.153-4.398,3.436-6.85
					c1.62-3.1,3.185-5.941,4.502-8.312c0.269-0.482,0.877-0.656,1.359-0.388c0.483,0.268,0.657,0.877,0.389,1.36
					c-1.311,2.36-2.868,5.188-4.479,8.268c-1.271,2.43-2.384,4.651-3.403,6.788c-1.685,3.499-3.214,6.923-4.677,10.471
					c-0.632,1.549-0.915,3.22-0.817,4.828c0.047,0.855,0.561,1.594,1.341,1.933c0.466,0.2,0.976,0.235,1.471,0.102
					c0.917-0.259,1.573-1.089,1.622-2.065c0.133-2.372,0.581-5,1.333-7.818c0.403-1.608,0.938-3.354,1.632-5.324
					c1.883-5.341,4.601-11.246,7.86-17.076c0.434-0.784,0.878-1.562,1.333-2.332c1.011-1.73,2.054-3.417,3.117-5.042l-1.015,0.515
					c-0.998,0.499-1.856,1.188-2.556,2.048c-0.35,0.43-0.978,0.494-1.407,0.146c-0.429-0.349-0.493-0.978-0.146-1.407
					c0.881-1.083,1.96-1.95,3.209-2.574l4.476-2.268c0.409-0.207,0.909-0.109,1.21,0.239c0.3,0.348,0.324,0.856,0.058,1.231
					c-1.794,2.53-3.552,5.264-5.223,8.125c-0.448,0.757-0.883,1.518-1.309,2.289c-3.207,5.737-5.877,11.534-7.722,16.769
					c-0.673,1.911-1.19,3.599-1.583,5.161c-0.721,2.7-1.146,5.192-1.271,7.422c-0.092,1.828-1.332,3.392-3.087,3.887
					C86.324,91.587,85.945,91.638,85.57,91.638z"/>
			</g>
		</g>
		<g>
			<g>
				<path d="M90.091,80.93c-0.083,0-0.166-0.01-0.25-0.031c-0.534-0.137-0.856-0.682-0.72-1.217l0.051-0.2
					c0.075-0.293,0.151-0.592,0.235-0.891l0.107-0.364c0.064-0.223,0.13-0.447,0.204-0.676c0.094-0.332,0.199-0.699,0.325-1.066
					l0.037-0.119c0.098-0.312,0.196-0.63,0.303-0.941c0.12-0.359,0.243-0.717,0.376-1.084c0.187-0.519,0.759-0.79,1.28-0.601
					c0.52,0.188,0.788,0.76,0.601,1.28c-0.127,0.352-0.244,0.695-0.362,1.047c-0.103,0.301-0.196,0.6-0.288,0.895l-0.046,0.147
					c-0.122,0.359-0.218,0.692-0.312,1.025c-0.078,0.244-0.138,0.449-0.197,0.653l-0.107,0.363
					c-0.073,0.264-0.146,0.549-0.217,0.828l-0.052,0.202C90.942,80.63,90.536,80.93,90.091,80.93z"/>
			</g>
		</g>
		<g>
			<g>
				<path d="M91.369,65.97c-0.53,0-0.972-0.417-0.998-0.952L90.102,60c-0.2-2.987-0.429-5.629-0.692-7.996l-0.646,1.057
					c-0.812,1.327-1.07,2.975-0.71,4.521c0.079,0.344,0.151,0.693,0.222,1.037l0.034,0.169c0.111,0.541-0.237,1.07-0.778,1.181
					c-0.547,0.112-1.07-0.238-1.181-0.778l-0.035-0.171c-0.067-0.328-0.135-0.66-0.21-0.985c-0.479-2.051-0.132-4.245,0.951-6.016
					l2.14-3.5c0.221-0.36,0.642-0.543,1.059-0.458c0.413,0.087,0.729,0.424,0.785,0.843c0.425,3.092,0.771,6.68,1.058,10.969
					l0.271,5.049c0.026,0.552-0.399,1.021-0.951,1.047C91.402,65.97,91.386,65.97,91.369,65.97z"/>
			</g>
		</g>
		<g>
			<g>
				<path d="M87.951,72.79c-0.03,0-0.061-0.001-0.092-0.004c-0.55-0.05-0.955-0.537-0.905-1.086c0.246-2.703,0.266-5.224,0.06-7.707
					c-0.046-0.55,0.363-1.033,0.913-1.079c0.562-0.051,1.034,0.364,1.079,0.914c0.216,2.6,0.196,5.233-0.06,8.053
					C88.898,72.4,88.463,72.79,87.951,72.79z"/>
			</g>
		</g>
		<g>
			<g>
				<path d="M85.572,91.634c-0.571,0-1.14-0.115-1.666-0.342c-1.485-0.642-2.461-2.042-2.546-3.654
					c-0.111-1.924,0.223-3.898,0.967-5.702c1.178-2.87,2.4-5.652,3.738-8.502c0.23-0.49,0.809-0.707,1.302-0.493l4.369,1.887
					c0.479,0.207,0.718,0.746,0.551,1.239c-0.48,1.414-0.894,2.797-1.23,4.113c-0.721,2.697-1.145,5.189-1.264,7.417
					c-0.092,1.833-1.335,3.396-3.096,3.886c-0.001,0-0.002,0.001-0.004,0.001C86.326,91.584,85.948,91.634,85.572,91.634z
					 M86.43,90.52h0.01H86.43z M87.467,75.162c-1.166,2.516-2.245,4.99-3.29,7.535c-0.631,1.53-0.914,3.2-0.819,4.831
					c0.045,0.854,0.56,1.591,1.342,1.929c0.463,0.2,0.97,0.235,1.464,0.099c0.928-0.259,1.584-1.087,1.632-2.062
					c0.127-2.369,0.573-4.999,1.327-7.819c0.276-1.083,0.606-2.216,0.98-3.374L87.467,75.162z"/>
			</g>
		</g>
		<g>
			<g>
				<path d="M83.37,83.023c-0.353,0-0.693-0.186-0.876-0.516c-0.268-0.483-0.093-1.092,0.391-1.359
					c0.62-0.343,1.257-0.642,1.895-0.888c1.698-0.659,3.508-1.007,5.23-1.007c0.553,0,1,0.448,1,1s-0.447,1-1,1
					c-1.479,0-3.037,0.302-4.509,0.872c-0.553,0.214-1.107,0.474-1.647,0.773C83.7,82.983,83.534,83.023,83.37,83.023z"/>
			</g>
		</g>
	</g>
	<g>
		<g>
			<g>
				<path d="M51.58,90.84H24.42c-1.886,0-3.42-1.534-3.42-3.42c0-0.913,0.369-1.797,1.011-2.425C22.623,84.369,23.507,84,24.42,84
					h2.7c0.552,0,1,0.448,1,1s-0.448,1-1,1h-2.7c-0.378,0-0.741,0.149-0.995,0.409C23.149,86.679,23,87.042,23,87.42
					c0,0.783,0.637,1.42,1.42,1.42h27.16c0.378,0,0.741-0.149,0.995-0.409C52.851,88.161,53,87.798,53,87.42
					c0-0.783-0.637-1.42-1.42-1.42H31.25c-0.552,0-1-0.448-1-1s0.448-1,1-1h20.33c1.886,0,3.42,1.534,3.42,3.42
					c0,0.914-0.369,1.798-1.011,2.425C53.377,90.471,52.493,90.84,51.58,90.84z"/>
			</g>
		</g>
		<g>
			<g>
				<path d="M51.54,109H24.46c-1.908,0-3.46-1.534-3.46-3.42v-2.17c0-0.552,0.448-1,1-1s1,0.448,1,1v2.17
					c0,0.783,0.655,1.42,1.46,1.42h27.08c0.805,0,1.46-0.637,1.46-1.42v-9.69c0-0.366-0.156-0.731-0.427-1.002
					c-1.222-1.199-1.917-2.593-2.02-4.048H25.446c-0.103,1.455-0.798,2.85-2.026,4.054C23.156,95.159,23,95.524,23,95.89v2.48
					c0,0.552-0.448,1-1,1s-1-0.448-1-1v-2.48c0-0.893,0.37-1.774,1.014-2.417c0.663-0.651,1.446-1.695,1.446-3.013v-0.62
					c0-0.552,0.448-1,1-1h27.08c0.552,0,1,0.448,1,1v0.62c0,1.317,0.783,2.362,1.44,3.006c0.65,0.65,1.02,1.531,1.02,2.424v9.69
					C55,107.466,53.448,109,51.54,109z"/>
			</g>
		</g>
		<g>
			<g>
				<path d="M26.35,103.63c-0.552,0-1-0.448-1-1v-3.78c0-0.552,0.448-1,1-1s1,0.448,1,1v3.78
					C27.35,103.182,26.902,103.63,26.35,103.63z"/>
			</g>
		</g>
		<g>
			<g>
				<path d="M44,97c-2.925,0-4.407-0.539-5.841-1.06C36.828,95.457,35.57,95,32.99,95c-2.567,0-3.821,0.456-5.147,0.939
					C26.41,96.46,24.928,97,22,97c-0.552,0-1-0.448-1-1s0.448-1,1-1c2.575,0,3.83-0.457,5.159-0.94C28.59,93.539,30.07,93,32.99,93
					c2.932,0,4.417,0.539,5.852,1.061C40.171,94.544,41.427,95,44,95c2.57,0,3.825-0.456,5.154-0.938
					c1.077-0.391,2.191-0.795,3.938-0.967c0.548-0.057,1.039,0.348,1.093,0.897c0.054,0.55-0.348,1.039-0.897,1.093
					c-1.497,0.147-2.446,0.492-3.451,0.856C48.403,96.462,46.921,97,44,97z"/>
			</g>
		</g>
	</g>
	<g>
		<g>
			<g>
				<path d="M32,70.4c-0.552,0-1-0.448-1-1v-3.52c0-0.552,0.448-1,1-1s1,0.448,1,1v3.52C33,69.952,32.552,70.4,32,70.4z"/>
			</g>
		</g>
		<g>
			<g>
				<path d="M43.5,82c-1.208,0-2.338-0.472-3.183-1.328C39.472,79.838,39,78.708,39,77.5V74c0-0.551-0.449-1-1-1
					c-0.267,0-0.513,0.102-0.694,0.288C37.102,73.487,37,73.733,37,74v2c0,1.654-1.346,3-3,3c-0.811,0-1.565-0.317-2.126-0.892
					C31.317,77.565,31,76.811,31,76v-2.61c0-0.552,0.448-1,1-1s1,0.448,1,1V76c0,0.267,0.102,0.513,0.288,0.694
					C33.487,76.898,33.733,77,34,77c0.551,0,1-0.449,1-1v-2c0-0.811,0.317-1.565,0.892-2.126C36.435,71.317,37.189,71,38,71
					c1.654,0,3,1.346,3,3v3.5c0,0.668,0.26,1.293,0.732,1.758C42.207,79.74,42.832,80,43.5,80c1.378,0,2.5-1.122,2.5-2.5V65.04
					c0-0.552,0.448-1,1-1s1,0.448,1,1V77.5C48,79.981,45.981,82,43.5,82z"/>
			</g>
		</g>
	</g>
	<g>
		<g>
			<path d="M106,109H58c-0.552,0-1-0.448-1-1v-5c0-0.552,0.448-1,1-1h48c0.553,0,1,0.448,1,1v5C107,108.552,106.553,109,106,109z
				 M59,107h46v-3H59V107z"/>
		</g>
	</g>
	<g>
		<g>
			<g>
				<path d="M51.602,54.843c-0.331,0-0.655-0.164-0.846-0.464l-2.142-3.378c-0.142-0.224-0.189-0.495-0.131-0.754
					c0.058-0.259,0.217-0.484,0.44-0.626l35.47-22.493c0.676-0.429,1.479-0.57,2.262-0.394c0.782,0.175,1.449,0.645,1.878,1.321
					c0.429,0.676,0.569,1.479,0.395,2.261c-0.175,0.782-0.645,1.449-1.321,1.878l-35.47,22.493
					C51.971,54.793,51.785,54.843,51.602,54.843z M50.839,50.774l1.071,1.689l34.626-21.958c0.225-0.143,0.381-0.365,0.439-0.625
					s0.012-0.528-0.132-0.754c-0.143-0.226-0.365-0.382-0.625-0.44c-0.264-0.059-0.53-0.012-0.755,0.131L50.839,50.774z"/>
			</g>
		</g>
		<g>
			<g>
				<g>
					<path d="M49.917,57.913c-0.994,0-1.967-0.492-2.538-1.392l-2.143-3.378c-0.886-1.398-0.47-3.255,0.928-4.141
						c0.677-0.429,1.48-0.567,2.262-0.394c0.782,0.175,1.449,0.645,1.878,1.322l2.142,3.377c0.429,0.676,0.569,1.48,0.394,2.262
						c-0.175,0.782-0.644,1.449-1.321,1.877l0,0C51.022,57.763,50.466,57.913,49.917,57.913z M47.768,50.536
						c-0.187,0-0.371,0.053-0.533,0.156c-0.466,0.295-0.604,0.915-0.309,1.381l2.142,3.377c0.295,0.465,0.913,0.603,1.38,0.309
						c0,0,0,0,0,0c0.226-0.143,0.382-0.365,0.44-0.625c0.058-0.261,0.012-0.528-0.131-0.754l-2.143-3.378
						c-0.143-0.226-0.365-0.382-0.626-0.441C47.915,50.544,47.841,50.536,47.768,50.536z"/>
				</g>
			</g>
			<g>
				<g>
					<path d="M33.945,67.994c-1.075,0-2.125-0.53-2.739-1.498l-1.89-2.98c-0.954-1.504-0.506-3.504,0.999-4.46l0.444-0.286
						c1.19-0.75,2.757-0.643,3.818,0.257c0.422,0.357,0.474,0.988,0.117,1.409c-0.358,0.422-0.99,0.473-1.409,0.117
						c-0.405-0.342-1.001-0.382-1.451-0.098l-0.441,0.285c-0.58,0.368-0.751,1.131-0.388,1.704l1.89,2.98
						c0.364,0.573,1.132,0.744,1.713,0.379l0.436-0.277c0.578-0.363,0.747-1.131,0.38-1.714l0.817-0.582l0.858-0.513l0.03,0.05
						c0.941,1.498,0.491,3.502-1.016,4.45l-0.436,0.277C35.138,67.832,34.538,67.994,33.945,67.994z"/>
				</g>
			</g>
			<g>
				<g>
					<path d="M48.149,62.59c-0.222,0-0.445-0.025-0.667-0.075c-0.782-0.176-1.449-0.645-1.877-1.32l-1.971-3.111
						c-0.295-0.467-0.157-1.084,0.31-1.38c0.466-0.295,1.084-0.156,1.38,0.31l1.97,3.11c0.142,0.224,0.365,0.38,0.627,0.439
						c0.263,0.058,0.529,0.013,0.752-0.129c0.466-0.296,0.606-0.915,0.311-1.38l-5.359-8.45c-0.143-0.226-0.365-0.381-0.624-0.439
						c-0.259-0.057-0.526-0.009-0.754,0.136c-0.294,0.187-0.468,0.499-0.468,0.837c0,0.179,0.058,0.369,0.172,0.563l0.87,1.358
						c0.298,0.465,0.162,1.083-0.303,1.381c-0.466,0.297-1.083,0.162-1.381-0.303l-0.89-1.39c-0.317-0.538-0.468-1.068-0.468-1.609
						c0-1.028,0.521-1.972,1.396-2.525c0.673-0.431,1.476-0.575,2.261-0.401c0.781,0.174,1.448,0.642,1.878,1.319l5.361,8.452
						c0.427,0.674,0.566,1.478,0.39,2.261c-0.176,0.782-0.645,1.449-1.32,1.877C49.261,62.432,48.711,62.59,48.149,62.59z"/>
				</g>
			</g>
			<g>
				<g>
					<path d="M39.775,67.854c-1.075,0-2.125-0.53-2.739-1.498l-1.61-2.541l0.815-0.585l0.858-0.513l1.626,2.568
						c0.363,0.573,1.132,0.744,1.713,0.378l0.436-0.277c0.572-0.369,0.746-1.137,0.382-1.71l-5.12-8.07
						c-0.361-0.557-1.121-0.721-1.69-0.361l-0.438,0.279c-0.573,0.369-0.747,1.138-0.383,1.711l1.18,1.86
						c0.296,0.466,0.158,1.084-0.309,1.38c-0.466,0.296-1.084,0.158-1.38-0.309l-1.18-1.86c-0.95-1.498-0.505-3.501,0.993-4.466
						l0.444-0.283c1.493-0.947,3.487-0.512,4.446,0.97l5.125,8.078c0.95,1.498,0.505,3.501-0.993,4.466l-0.445,0.283
						C40.968,67.692,40.368,67.854,39.775,67.854z"/>
				</g>
			</g>
			<g>
				<g>
					<path d="M44.999,66.96c-0.221,0-0.444-0.024-0.666-0.074c-0.782-0.176-1.449-0.645-1.877-1.32l-7.501-11.832
						c-0.877-1.383-0.463-3.239,0.923-4.134l0.864-0.538c1.387-0.878,3.243-0.464,4.132,0.931l1.949,3.069
						c0.298,0.465,0.162,1.083-0.303,1.381c-0.466,0.297-1.083,0.162-1.381-0.303l-1.954-3.076
						c-0.301-0.471-0.907-0.609-1.378-0.309l-0.857,0.534c-0.455,0.293-0.597,0.915-0.304,1.376l7.5,11.829
						c0.143,0.226,0.366,0.382,0.628,0.441c0.262,0.058,0.528,0.013,0.752-0.129l0.834-0.537c0.234-0.146,0.389-0.366,0.448-0.625
						c0.06-0.262,0.013-0.531-0.131-0.758l-3.041-4.801c-0.295-0.467-0.157-1.084,0.31-1.38c0.466-0.295,1.084-0.156,1.38,0.31
						l3.04,4.801c0.431,0.678,0.57,1.485,0.393,2.27c-0.177,0.782-0.647,1.446-1.326,1.872l-0.831,0.534
						C46.113,66.801,45.561,66.96,44.999,66.96z"/>
				</g>
			</g>
		</g>
	</g>
	<g>
		<g>
			<path d="M88.67,100H76.72c-0.553,0-1-0.448-1-1s0.447-1,1-1h11.95c2.939,0,5.33-2.391,5.33-5.33V73H70v19.67
				c0,0.742,0.149,1.457,0.445,2.126c0.223,0.505-0.006,1.096-0.512,1.319c-0.504,0.224-1.095-0.006-1.318-0.511
				C68.207,94.679,68,93.691,68,92.67V72c0-0.552,0.447-1,1-1h26c0.553,0,1,0.448,1,1v20.67C96,96.712,92.712,100,88.67,100z"/>
		</g>
	</g>
	<g>
		<g>
			<g>
				<path d="M101.999,29.521c-0.184,0-0.369-0.05-0.536-0.156c-0.466-0.296-0.604-0.915-0.307-1.38l1.4-2.202
					c0.296-0.466,0.913-0.604,1.381-0.307c0.466,0.296,0.604,0.915,0.307,1.38l-1.4,2.202
					C102.653,29.357,102.33,29.521,101.999,29.521z"/>
			</g>
		</g>
		<g>
			<g>
				<path d="M105.41,24.119c-0.184,0-0.369-0.05-0.536-0.156c-0.466-0.296-0.604-0.915-0.307-1.38l1.4-2.202
					c0.296-0.467,0.913-0.604,1.381-0.307c0.466,0.296,0.604,0.915,0.307,1.38l-1.4,2.202
					C106.064,23.956,105.741,24.119,105.41,24.119z"/>
			</g>
		</g>
		<g>
			<g>
				<path d="M102.811,24.71c-0.182,0-0.366-0.049-0.531-0.154l-2.213-1.393c-0.468-0.294-0.608-0.911-0.314-1.379
					c0.295-0.466,0.913-0.608,1.379-0.313l2.213,1.393c0.468,0.294,0.608,0.911,0.314,1.379
					C103.468,24.544,103.143,24.71,102.811,24.71z"/>
			</g>
		</g>
		<g>
			<g>
				<path d="M108.213,28.121c-0.182,0-0.366-0.049-0.531-0.154l-2.214-1.393c-0.468-0.294-0.608-0.911-0.314-1.379
					c0.295-0.467,0.913-0.608,1.379-0.313l2.214,1.393c0.468,0.294,0.608,0.911,0.314,1.379
					C108.87,27.956,108.545,28.121,108.213,28.121z"/>
			</g>
		</g>
	</g>
	<g>
		<g>
			<g>
				<path d="M13.786,56.75c-0.184,0-0.369-0.05-0.536-0.156c-0.466-0.296-0.604-0.915-0.307-1.38l1.4-2.202
					c0.295-0.466,0.915-0.604,1.38-0.307c0.466,0.296,0.604,0.915,0.307,1.38l-1.4,2.202C14.44,56.586,14.116,56.75,13.786,56.75z"
					/>
			</g>
		</g>
		<g>
			<g>
				<path d="M17.196,51.348c-0.184,0-0.37-0.05-0.536-0.156c-0.466-0.297-0.603-0.915-0.307-1.381l1.401-2.201
					c0.297-0.466,0.915-0.604,1.381-0.307s0.603,0.915,0.307,1.381l-1.401,2.201C17.85,51.184,17.527,51.348,17.196,51.348z"/>
			</g>
		</g>
		<g>
			<g>
				<path d="M14.597,51.939c-0.182,0-0.366-0.049-0.532-0.154l-2.213-1.393c-0.467-0.294-0.608-0.912-0.313-1.379
					c0.294-0.468,0.91-0.61,1.379-0.313l2.213,1.393c0.467,0.294,0.608,0.912,0.313,1.379
					C15.254,51.773,14.929,51.939,14.597,51.939z"/>
			</g>
		</g>
		<g>
			<g>
				<path d="M19.999,55.35c-0.182,0-0.366-0.049-0.532-0.154l-2.214-1.393c-0.467-0.294-0.608-0.911-0.313-1.379
					c0.294-0.467,0.911-0.609,1.379-0.313l2.214,1.393c0.467,0.294,0.608,0.911,0.313,1.379
					C20.656,55.185,20.332,55.35,19.999,55.35z"/>
			</g>
		</g>
	</g>
	<g>
		<g>
			<g>
				<g>
					<path d="M69.409,104c-0.469,0-0.887-0.331-0.98-0.807c-0.106-0.542,0.247-1.068,0.789-1.174l1.083-0.21
						c0.468-0.096,0.876-0.205,1.271-0.343c0.027-0.009,0.056-0.018,0.084-0.025c1.686-0.591,3.165-1.649,4.278-3.06
						c1.729-2.18,2.415-4.997,1.884-7.729l-0.092-0.479l-0.467,0.09c-2.516,0.492-4.678,1.928-6.088,4.043
						c-0.29,0.43-0.527,0.856-0.729,1.306c-0.14,0.28-0.232,0.538-0.327,0.796l-1.884-0.671c0.128-0.349,0.251-0.677,0.405-0.984
						c0.23-0.515,0.522-1.038,0.873-1.56c1.706-2.558,4.323-4.297,7.368-4.893l1.452-0.28c0.257-0.05,0.529,0.005,0.75,0.154
						c0.22,0.149,0.371,0.379,0.422,0.64l0.28,1.46c0.642,3.305-0.188,6.714-2.279,9.35c-1.352,1.712-3.151,2.997-5.204,3.713
						v-0.001c-0.03,0.011-0.062,0.021-0.094,0.029c-0.469,0.162-0.964,0.294-1.515,0.407l-1.088,0.211
						C69.538,103.994,69.473,104,69.409,104z"/>
				</g>
			</g>
			<g>
				<g>
					<path d="M69.302,103.667c-0.192,0-0.387-0.055-0.559-0.171c-0.457-0.309-0.578-0.931-0.27-1.388l3.355-4.974
						c0.31-0.458,0.93-0.579,1.389-0.27c0.457,0.309,0.578,0.931,0.27,1.388l-3.355,4.974
						C69.938,103.512,69.623,103.667,69.302,103.667z"/>
				</g>
			</g>
			<g>
				<g>
					<path d="M69.311,104c-0.066,0-0.134-0.006-0.202-0.021c-0.541-0.111-0.89-0.64-0.778-1.181l0.325-1.693
						c0.25-1.564,0.104-3.192-0.428-4.691c-0.698-1.959-2.038-3.66-3.772-4.785c-1.028-0.667-2.168-1.127-3.389-1.368l-0.463-0.089
						l-0.092,0.477c-0.142,0.729-0.2,1.47-0.172,2.205c0.021,0.552-0.411,1.016-0.962,1.037c-0.581,0.014-1.016-0.411-1.037-0.962
						c-0.033-0.887,0.037-1.781,0.208-2.659l0.28-1.457c0.05-0.261,0.202-0.491,0.421-0.64c0.22-0.148,0.49-0.205,0.75-0.154
						l1.45,0.28c1.476,0.291,2.853,0.847,4.095,1.653c2.101,1.364,3.723,3.421,4.568,5.793c0.643,1.815,0.821,3.784,0.515,5.693
						l-0.338,1.763C70.192,103.674,69.775,104,69.311,104z"/>
				</g>
			</g>
			<g>
				<g>
					<path d="M68.941,104c-0.062,0-0.125-0.006-0.188-0.018l-1.101-0.21c-3.634-0.712-6.63-3.042-8.225-6.393
						c-0.237-0.499-0.026-1.095,0.473-1.333c0.498-0.238,1.095-0.025,1.333,0.473c1.32,2.773,3.798,4.7,6.799,5.288l1.096,0.209
						c0.542,0.104,0.898,0.627,0.795,1.17C69.831,103.667,69.412,104,68.941,104z"/>
				</g>
			</g>
		</g>
		<g>
			<g>
				<g>
					<path d="M69.311,104c-0.066,0-0.134-0.006-0.202-0.021c-0.541-0.111-0.89-0.64-0.778-1.181l0.325-1.693
						c0.25-1.564,0.104-3.192-0.428-4.691c-0.698-1.959-2.038-3.66-3.772-4.785c-1.028-0.667-2.168-1.127-3.389-1.368l-0.463-0.089
						l-0.092,0.477c-0.142,0.729-0.2,1.47-0.172,2.205c0.021,0.552-0.411,1.016-0.962,1.037c-0.581,0.014-1.016-0.411-1.037-0.962
						c-0.033-0.887,0.037-1.781,0.208-2.659l0.28-1.457c0.05-0.261,0.202-0.491,0.421-0.64c0.22-0.148,0.49-0.205,0.75-0.154
						l1.45,0.28c1.476,0.291,2.853,0.847,4.095,1.653c2.101,1.364,3.723,3.421,4.568,5.793c0.643,1.815,0.821,3.784,0.515,5.693
						l-0.338,1.763C70.192,103.674,69.775,104,69.311,104z"/>
				</g>
			</g>
			<g>
				<g>
					<path d="M68.941,104c-0.062,0-0.125-0.006-0.188-0.018l-1.101-0.21c-3.634-0.712-6.63-3.042-8.225-6.393
						c-0.237-0.499-0.026-1.095,0.473-1.333c0.498-0.238,1.095-0.025,1.333,0.473c1.32,2.773,3.798,4.7,6.799,5.288l1.096,0.209
						c0.542,0.104,0.898,0.627,0.795,1.17C69.831,103.667,69.412,104,68.941,104z"/>
				</g>
			</g>
			<g>
				<g>
					<path d="M69.028,103.667c-0.321,0-0.637-0.154-0.83-0.441l-3.355-4.974c-0.309-0.458-0.188-1.079,0.27-1.388
						c0.459-0.309,1.079-0.188,1.389,0.27l3.355,4.974c0.309,0.458,0.188,1.079-0.27,1.388
						C69.415,103.611,69.221,103.667,69.028,103.667z"/>
				</g>
			</g>
		</g>
	</g>
</g>
</svg>
