<?xml version="1.0" encoding="utf-8"?>
<!-- Generator: Adobe Illustrator 24.2.3, SVG Export Plug-In . SVG Version: 6.00 Build 0)  -->
<svg version="1.1" id="_x30_3" xmlns="http://www.w3.org/2000/svg" xmlns:xlink="http://www.w3.org/1999/xlink" x="0px" y="0px"
	 viewBox="0 0 128 128" style="enable-background:new 0 0 128 128;" xml:space="preserve">
<g>
	<g>
		<g>
			<g>
				<path d="M33.101,87.07c-0.024,0-0.048-0.001-0.073-0.002c-2.101-0.152-4.292-0.336-6.702-0.562
					c-0.55-0.052-0.954-0.539-0.902-1.089c0.052-0.55,0.524-0.958,1.089-0.902c2.394,0.225,4.572,0.408,6.659,0.558
					c0.551,0.04,0.965,0.519,0.925,1.07C34.06,86.668,33.621,87.07,33.101,87.07z"/>
			</g>
		</g>
		<g>
			<g>
				<path d="M52.69,87.86c-0.002,0-0.004,0-0.007,0c-3.021-0.02-6.101-0.091-9.152-0.211c-0.552-0.021-0.982-0.486-0.96-1.038
					c0.021-0.552,0.497-0.976,1.038-0.96c3.03,0.119,6.087,0.189,9.088,0.209c0.552,0.004,0.997,0.455,0.993,1.007
					C53.686,87.417,53.239,87.86,52.69,87.86z"/>
			</g>
		</g>
		<g>
			<g>
				<path d="M21.66,98.56h-0.01c-0.127,0-0.253-0.024-0.372-0.072c-0.56-0.224-1.119-0.458-1.678-0.702
					C13.349,95.707,10,87.771,10,74.87s3.349-20.837,9.684-22.949c0.373-0.167,0.83-0.353,1.282-0.537l0.27-0.11
					c0.637-0.292,1.425,0.207,1.425,0.905c0,0.404-0.24,0.752-0.585,0.91c-0.019,0.009-0.038,0.018-0.058,0.025l-0.299,0.122
					c-0.436,0.177-0.877,0.356-1.318,0.549C14.875,55.632,12,62.912,12,74.87s2.875,19.238,8.316,21.051
					c0.613,0.263,1.146,0.486,1.676,0.699c0.385,0.14,0.662,0.508,0.662,0.94C22.655,98.112,22.212,98.56,21.66,98.56z"/>
			</g>
		</g>
		<g>
			<g>
				<path d="M53.568,105.008c-8.562,0-16.941-1.331-25.381-4.015l-0.292-0.094c-0.524-0.174-0.809-0.74-0.635-1.264
					c0.174-0.524,0.739-0.811,1.264-0.635l0.284,0.091c11.593,3.687,23.086,4.757,35.119,3.266c0.548-0.073,1.048,0.321,1.115,0.869
					c0.068,0.548-0.321,1.047-0.869,1.115C60.597,104.786,57.067,105.008,53.568,105.008z"/>
			</g>
		</g>
		<g>
			<g>
				<path d="M28.21,50.791c-0.417,0-0.807-0.264-0.948-0.681c-0.176-0.523,0.105-1.091,0.628-1.267l0.287-0.092
					c1.459-0.464,2.997-0.906,4.581-1.318c0.537-0.14,1.081,0.182,1.22,0.716c0.139,0.535-0.182,1.081-0.716,1.22
					c-1.55,0.403-3.053,0.835-4.468,1.286l-0.264,0.084C28.423,50.773,28.316,50.791,28.21,50.791z"/>
			</g>
		</g>
		<g>
			<g>
				<path d="M49.669,46.84c-0.529,0-0.971-0.415-0.998-0.949c-0.028-0.552,0.396-1.021,0.948-1.049
					c2.075-0.106,4.209-0.127,6.529-0.061c0.552,0.015,0.987,0.475,0.972,1.027c-0.016,0.552-0.481,0.986-1.027,0.972
					c-2.266-0.062-4.35-0.043-6.372,0.059C49.704,46.839,49.686,46.84,49.669,46.84z"/>
			</g>
		</g>
		<g>
			<g>
				<path d="M39.499,47.98c-0.477,0-0.899-0.342-0.984-0.827c-0.096-0.544,0.268-1.062,0.812-1.158
					c1.668-0.292,3.412-0.541,5.182-0.739c0.548-0.067,1.043,0.333,1.104,0.883c0.062,0.549-0.334,1.043-0.883,1.104
					c-1.729,0.193-3.431,0.436-5.058,0.721C39.614,47.975,39.556,47.98,39.499,47.98z"/>
			</g>
		</g>
		<g>
			<g>
				<g>
					<path d="M25.929,56.462c-0.47,0-0.889-0.332-0.981-0.81c-0.104-0.542,0.25-1.067,0.792-1.172
						c2.284-0.441,4.625-0.833,7.157-1.198c0.543-0.073,1.054,0.3,1.132,0.847s-0.301,1.054-0.847,1.132
						c-2.5,0.36-4.81,0.747-7.062,1.182C26.056,56.456,25.992,56.462,25.929,56.462z"/>
				</g>
			</g>
			<g>
				<g>
					<path d="M44.219,54.15c-0.524,0-0.964-0.408-0.997-0.938c-0.034-0.551,0.385-1.026,0.937-1.06
						c2.875-0.177,5.826-0.272,8.768-0.282c0.001,0,0.002,0,0.003,0c0.551,0,0.998,0.445,1,0.997
						c0.002,0.552-0.444,1.001-0.997,1.003c-2.904,0.01-5.815,0.104-8.652,0.278C44.261,54.149,44.24,54.15,44.219,54.15z"/>
				</g>
			</g>
			<g>
				<g>
					<path d="M52.59,97.872c-0.001,0-0.002,0-0.003,0c-5.682-0.021-11.404-0.379-17.008-1.067c-0.548-0.067-0.938-0.566-0.871-1.115
						c0.068-0.548,0.571-0.93,1.115-0.871c5.525,0.678,11.168,1.033,16.771,1.053c0.552,0.002,0.999,0.451,0.997,1.003
						C53.588,97.427,53.141,97.872,52.59,97.872z"/>
				</g>
			</g>
			<g>
				<g>
					<path d="M14.048,66.81c-0.484,0-0.909-0.352-0.986-0.846c-0.085-0.545,0.288-1.057,0.833-1.142
						c0.542-0.085,1.084-0.163,1.62-0.239l0.518-0.074c0.551-0.08,1.096-0.159,1.649-0.23c0.545-0.074,1.049,0.315,1.12,0.864
						c0.071,0.547-0.316,1.049-0.864,1.12c-0.542,0.07-1.077,0.148-1.618,0.226l-0.522,0.075c-0.527,0.076-1.061,0.152-1.594,0.235
						C14.152,66.806,14.1,66.81,14.048,66.81z"/>
				</g>
			</g>
			<g>
				<g>
					<path d="M50,63.89c-0.549,0-0.996-0.442-1-0.992c-0.004-0.552,0.44-1.003,0.992-1.008c1.316-0.01,2.621-0.02,3.925-0.01
						c0.552,0.004,0.997,0.455,0.993,1.007c-0.004,0.55-0.451,0.993-1,0.993c-0.002,0-0.005,0-0.007,0
						c-1.296-0.011-2.59,0-3.895,0.01C50.005,63.89,50.002,63.89,50,63.89z"/>
				</g>
			</g>
			<g>
				<g>
					<path d="M17.821,85.48c-0.049,0-0.098-0.003-0.147-0.011l-1.848-0.259c-0.61-0.086-1.225-0.182-1.839-0.277
						c-0.545-0.085-0.965-0.604-0.88-1.149c0.085-0.546,0.554-0.923,1.096-0.842c0,0,0.091,0.014,0.091,0.015
						c0.605,0.094,1.21,0.188,1.815,0.273l1.855,0.261c0.546,0.081,0.924,0.588,0.844,1.135
						C18.736,85.123,18.309,85.48,17.821,85.48z"/>
				</g>
			</g>
			<g>
				<g>
					<path d="M26.32,75.87h-3.69c-0.552,0-1-0.448-1-1s0.448-1,1-1h3.69c0.552,0,1,0.448,1,1S26.872,75.87,26.32,75.87z"/>
				</g>
			</g>
			<g>
				<g>
					<path d="M54.44,75.87h-2.82c-0.552,0-1-0.448-1-1s0.448-1,1-1h2.82c0.552,0,1,0.448,1,1S54.992,75.87,54.44,75.87z"/>
				</g>
			</g>
		</g>
		<g>
			<g>
				<path d="M26.682,102.471c-0.276,0-0.555-0.045-0.829-0.138l0,0c-0.862-0.294-1.723-0.603-2.584-0.926
					c-0.557-0.209-1.024-0.605-1.317-1.114c-3.726-6.501-5.863-15.766-5.863-25.42c0-9.644,2.132-18.906,5.85-25.414
					c0.294-0.514,0.766-0.913,1.33-1.123c0.863-0.322,1.728-0.631,2.595-0.927c0.99-0.338,2.066-0.038,2.742,0.762
					c0.679,0.803,0.793,1.918,0.293,2.841c-3.349,6.172-5.269,14.869-5.269,23.86c0,8.995,1.921,17.693,5.272,23.865
					c0.5,0.92,0.387,2.032-0.288,2.832C28.121,102.152,27.414,102.471,26.682,102.471z M26.499,100.439
					c0.315,0.11,0.515-0.076,0.586-0.161c0.069-0.082,0.213-0.303,0.059-0.587c-3.556-6.55-5.514-15.365-5.514-24.819
					c0-9.451,1.957-18.263,5.511-24.813c0.156-0.287,0.008-0.513-0.063-0.597s-0.267-0.263-0.568-0.16
					c-0.848,0.29-1.696,0.592-2.541,0.908c-0.127,0.047-0.23,0.133-0.292,0.242c-3.55,6.214-5.586,15.115-5.586,24.421
					c0,9.315,2.041,18.218,5.598,24.425c0.061,0.106,0.163,0.19,0.286,0.237C24.815,99.851,25.656,100.152,26.499,100.439
					L26.499,100.439z"/>
			</g>
		</g>
		<g>
			<g>
				<g>
					<g>
						<path d="M40.649,73.934c-0.173,0-0.345-0.044-0.5-0.134l-3.356-1.938c-0.31-0.179-0.5-0.509-0.5-0.866v-3.875
							c0-0.357,0.19-0.688,0.5-0.866l3.356-1.938c0.31-0.179,0.69-0.179,1,0l3.356,1.938c0.31,0.179,0.5,0.509,0.5,0.866v3.875
							c0,0.357-0.19,0.688-0.5,0.866L41.149,73.8C40.995,73.89,40.822,73.934,40.649,73.934z M38.293,70.419l2.356,1.36l2.356-1.36
							v-2.721l-2.356-1.36l-2.356,1.36V70.419z M44.005,70.997h0.01H44.005z"/>
					</g>
				</g>
				<g>
					<g>
						<path d="M40.649,85.56c-0.173,0-0.345-0.044-0.5-0.134l-3.356-1.938c-0.31-0.179-0.5-0.509-0.5-0.866v-3.875
							c0-0.357,0.19-0.688,0.5-0.866l3.356-1.938c0.31-0.179,0.69-0.179,1,0l3.356,1.938c0.31,0.179,0.5,0.509,0.5,0.866v3.875
							c0,0.357-0.19,0.688-0.5,0.866l-3.356,1.938C40.995,85.516,40.822,85.56,40.649,85.56z M38.293,82.045l2.356,1.36l2.356-1.36
							v-2.721l-2.356-1.36l-2.356,1.36V82.045z M44.005,82.623h0.01H44.005z"/>
					</g>
				</g>
				<g>
					<g>
						<path d="M37.293,79.747c-0.173,0-0.345-0.044-0.5-0.134l-3.356-1.938c-0.31-0.179-0.5-0.509-0.5-0.866v-3.875
							c0-0.357,0.19-0.688,0.5-0.866l3.356-1.938c0.31-0.179,0.69-0.179,1,0l3.356,1.938c0.31,0.179,0.5,0.509,0.5,0.866v3.875
							c0,0.357-0.19,0.688-0.5,0.866l-3.356,1.938C37.638,79.703,37.466,79.747,37.293,79.747z M34.937,76.232l2.356,1.36
							l2.356-1.36v-2.72l-2.356-1.36l-2.356,1.36V76.232z M40.649,76.81h0.01H40.649z"/>
					</g>
				</g>
			</g>
			<g>
				<g>
					<path d="M38.971,88.519c-7.525,0-13.647-6.122-13.647-13.647c0-7.525,6.122-13.647,13.647-13.647s13.647,6.122,13.647,13.647
						C52.619,82.397,46.497,88.519,38.971,88.519z M38.971,63.225c-6.422,0-11.647,5.225-11.647,11.647s5.225,11.647,11.647,11.647
						s11.647-5.225,11.647-11.647S45.394,63.225,38.971,63.225z"/>
				</g>
			</g>
		</g>
	</g>
	<g>
		<g>
			<g>
				<path d="M59.008,36.76c-0.503,0-0.937-0.379-0.993-0.892C58.002,35.741,58,35.627,58,35.5c0-1.804,1.371-3.422,4.073-4.81
					c0.796-0.403,1.667-0.767,2.669-1.115c0.52-0.182,1.091,0.095,1.272,0.617s-0.095,1.091-0.616,1.273
					c-0.916,0.318-1.707,0.647-2.417,1.007C61.061,33.458,60,34.535,60,35.5c0,0.052-0.002,0.099,0.004,0.152
					c0.06,0.549-0.337,1.042-0.886,1.102C59.081,36.758,59.044,36.76,59.008,36.76z"/>
			</g>
		</g>
		<g>
			<g>
				<path d="M85.8,43.95c-0.553,0-1-0.448-1-1s0.447-1,1-1c0.079-0.007,0.138-0.01,0.2-0.01c9.207-0.362,17.007-2.412,19.369-5.1
					c0.422-0.466,0.631-0.913,0.631-1.34c0-3.068-9.836-6.5-23-6.5c-1.502,0-3.036,0.046-4.56,0.138
					c-0.539,0.039-1.025-0.386-1.059-0.938c-0.033-0.551,0.387-1.025,0.938-1.058C79.884,27.048,81.458,27,83,27
					c12.119,0,25,2.979,25,8.5c0,0.939-0.383,1.837-1.139,2.671c-2.733,3.111-10.91,5.379-20.822,5.768
					C85.921,43.947,85.862,43.95,85.8,43.95z"/>
			</g>
		</g>
		<g>
			<g>
				<path d="M70.689,30.07c-0.47,0-0.889-0.332-0.98-0.81c-0.105-0.542,0.249-1.067,0.792-1.172
					c1.289-0.249,2.638-0.452,4.011-0.602c0.535-0.06,1.043,0.337,1.103,0.885c0.06,0.549-0.336,1.043-0.886,1.103
					c-1.317,0.144-2.612,0.338-3.849,0.578C70.816,30.064,70.752,30.07,70.689,30.07z"/>
			</g>
		</g>
		<g>
			<g>
				<path d="M105.62,39c-0.235,0-0.472-0.083-0.661-0.25C101.737,35.909,92.913,34,83,34c-8.475,0-16.298,1.416-20.416,3.695
					c-0.483,0.269-1.092,0.093-1.359-0.391s-0.092-1.092,0.391-1.359C66.013,33.512,74.207,32,83,32
					c10.527,0,19.666,2.061,23.281,5.25c0.414,0.365,0.454,0.997,0.089,1.412C106.173,38.886,105.896,39,105.62,39z"/>
			</g>
		</g>
		<g>
			<g>
				<path d="M93.641,93.58c-0.031,0-0.062-0.001-0.095-0.004c-0.55-0.051-0.953-0.539-0.902-1.089
					c0.227-2.413,0.409-4.591,0.56-6.659c0.04-0.551,0.528-0.955,1.069-0.925c0.551,0.04,0.965,0.519,0.925,1.07
					c-0.15,2.082-0.335,4.274-0.562,6.701C94.587,93.191,94.151,93.58,93.641,93.58z"/>
			</g>
		</g>
		<g>
			<g>
				<path d="M94.781,76.43c-0.014,0-0.026,0-0.04-0.001c-0.552-0.021-0.981-0.486-0.96-1.038c0.118-3.015,0.188-6.073,0.209-9.088
					c0.004-0.55,0.451-0.993,1-0.993c0.002,0,0.005,0,0.007,0c0.552,0.004,0.997,0.455,0.993,1.007
					c-0.021,3.037-0.092,6.116-0.211,9.152C95.759,76.008,95.315,76.43,94.781,76.43z"/>
			</g>
		</g>
		<g>
			<g>
				<path d="M83,109c-12.901,0-20.837-3.349-22.949-9.684c-0.167-0.373-0.353-0.83-0.537-1.282l-0.11-0.27
					c-0.061-0.133-0.095-0.279-0.095-0.425c0-0.552,0.448-1,1-1c0.404,0,0.752,0.24,0.91,0.585c0.009,0.019,0.018,0.038,0.025,0.058
					l0.122,0.299c0.177,0.436,0.356,0.877,0.549,1.318c1.846,5.525,9.125,8.4,21.083,8.4s19.238-2.875,21.052-8.316
					c0.264-0.613,0.485-1.146,0.699-1.677c0.14-0.385,0.508-0.661,0.939-0.661c0.553,0,1,0.442,1,0.995v0.01
					c0,0.127-0.024,0.254-0.072,0.373c-0.225,0.559-0.458,1.119-0.702,1.678C103.837,105.651,95.901,109,83,109z"/>
			</g>
		</g>
		<g>
			<g>
				<path d="M108.08,91.791c-0.105,0-0.214-0.017-0.319-0.053c-0.523-0.176-0.805-0.744-0.628-1.267l0.089-0.279
					c3.692-11.619,4.759-23.144,3.256-35.218c-0.005-0.041-0.008-0.082-0.008-0.124c0-0.552,0.447-1.005,1-1.005
					c0.528,0,0.96,0.404,0.997,0.922c1.532,12.352,0.438,24.143-3.344,36.045l-0.096,0.297
					C108.887,91.527,108.498,91.791,108.08,91.791z"/>
			</g>
		</g>
		<g>
			<g>
				<path d="M57.92,91.791c-0.419,0-0.81-0.266-0.949-0.686l-0.09-0.282c-3.789-11.919-4.881-23.719-3.345-36.082
					c0.055-0.501,0.479-0.896,0.994-0.896c0.552,0,1,0.442,1,0.995c0,0.042-0.002,0.093-0.008,0.134
					c-1.503,12.076-0.436,23.601,3.261,35.233l0.086,0.269c0.174,0.524-0.11,1.09-0.635,1.264
					C58.13,91.774,58.024,91.791,57.92,91.791z"/>
			</g>
		</g>
		<g>
			<g>
				<path d="M110.769,51.22c-0.513,0-0.949-0.392-0.995-0.912c-0.006-0.07-0.02-0.134-0.032-0.203
					c-0.701-3.896-1.68-7.88-2.919-11.891c-2.771,3.088-10.917,5.337-20.783,5.724c-0.118,0.008-0.177,0.011-0.239,0.011
					c-0.553,0-1-0.448-1-1c0-0.55,0.444-0.997,0.993-1c0.087-0.007,0.145-0.01,0.207-0.01c9.207-0.362,17.007-2.412,19.369-5.1
					c0.422-0.466,0.631-0.913,0.631-1.34c0-0.49,0.355-0.908,0.84-0.987c0.479-0.08,0.953,0.205,1.108,0.67
					c1.641,4.911,2.904,9.803,3.756,14.54c0.027,0.149,0.05,0.273,0.062,0.409c0.049,0.55-0.357,1.036-0.908,1.084
					C110.828,51.219,110.798,51.22,110.769,51.22z"/>
			</g>
		</g>
		<g>
			<g>
				<path d="M55.231,51.22c-0.031,0-0.062-0.001-0.093-0.004c-0.55-0.051-0.955-0.538-0.903-1.088
					c0.012-0.129,0.032-0.248,0.056-0.375c0.326-1.828,0.697-3.595,1.108-5.281c0.18-0.772,0.374-1.554,0.587-2.336
					c0.199-0.766,0.411-1.544,0.633-2.322c0.099-0.378,0.214-0.776,0.34-1.164c0.069-0.254,0.158-0.544,0.249-0.837l0.066-0.216
					c0.02-0.069,0.044-0.143,0.069-0.216c0.151-0.503,0.321-1.025,0.501-1.556c0.125-0.41,0.506-0.711,0.956-0.711
					c0.552,0,1,0.443,1,0.995c0,0.109-0.018,0.228-0.053,0.332c-0.176,0.519-0.342,1.028-0.499,1.548l-0.128,0.412
					c-0.084,0.275-0.168,0.547-0.245,0.825c-0.127,0.395-0.231,0.756-0.327,1.118c-0.223,0.782-0.431,1.544-0.629,2.306
					c-0.209,0.77-0.397,1.528-0.574,2.286c-0.404,1.655-0.766,3.381-1.08,5.138c-0.02,0.106-0.032,0.169-0.039,0.237
					C56.178,50.831,55.742,51.22,55.231,51.22z"/>
			</g>
		</g>
		<g>
			<g>
				<g>
					<path d="M63.589,94.07c-0.47,0-0.889-0.332-0.981-0.81c-0.439-2.273-0.831-4.615-1.198-7.157
						c-0.079-0.546,0.3-1.054,0.847-1.132c0.544-0.073,1.054,0.3,1.132,0.847c0.362,2.511,0.749,4.821,1.182,7.062
						c0.104,0.542-0.25,1.067-0.792,1.172C63.715,94.064,63.652,94.07,63.589,94.07z"/>
				</g>
			</g>
			<g>
				<g>
					<path d="M61.279,75.78c-0.523,0-0.964-0.407-0.997-0.937c-0.253-4.009-0.334-8.163-0.241-12.345
						c0.012-0.553,0.483-0.979,1.021-0.978c0.552,0.013,0.99,0.47,0.978,1.022c-0.091,4.126-0.011,8.222,0.238,12.175
						c0.035,0.551-0.384,1.026-0.935,1.061C61.321,75.779,61.3,75.78,61.279,75.78z"/>
				</g>
			</g>
			<g>
				<g>
					<path d="M103.941,84.3c-0.04,0-0.081-0.002-0.123-0.007c-0.548-0.067-0.938-0.566-0.87-1.114
						c0.678-5.531,1.032-11.174,1.052-16.771c0.002-0.551,0.449-0.997,1-0.997c0.001,0,0.002,0,0.004,0
						c0.552,0.002,0.998,0.451,0.996,1.003c-0.02,5.677-0.379,11.399-1.067,17.008C104.871,83.928,104.439,84.3,103.941,84.3z"/>
				</g>
			</g>
			<g>
				<g>
					<path d="M103.759,47.42c-0.497,0-0.929-0.37-0.991-0.876c-0.282-2.26-0.606-4.494-0.964-6.639
						c-0.091-0.545,0.277-1.06,0.822-1.151c0.547-0.092,1.061,0.277,1.15,0.822c0.362,2.172,0.69,4.434,0.976,6.721
						c0.068,0.548-0.32,1.047-0.868,1.116C103.842,47.417,103.8,47.42,103.759,47.42z"/>
				</g>
			</g>
			<g>
				<g>
					<path d="M73.939,105.95c-0.484,0-0.909-0.352-0.987-0.845c-0.089-0.568-0.17-1.137-0.25-1.698l-0.063-0.44
						c-0.08-0.551-0.158-1.096-0.23-1.649c-0.07-0.547,0.316-1.049,0.864-1.12c0.551-0.075,1.049,0.316,1.12,0.864
						c0.069,0.542,0.147,1.077,0.226,1.618l0.064,0.446c0.078,0.552,0.158,1.111,0.246,1.669c0.085,0.545-0.287,1.058-0.833,1.143
						C74.043,105.946,73.991,105.95,73.939,105.95z"/>
				</g>
			</g>
			<g>
				<g>
					<path d="M71.02,70c-0.547,0-0.993-0.439-1-0.988c-0.026-2.171-0.023-4.515,0.011-7.165c0.007-0.552,0.447-1.033,1.013-0.987
						c0.553,0.007,0.994,0.46,0.987,1.013c-0.034,2.633-0.037,4.96-0.011,7.115c0.007,0.552-0.436,1.005-0.987,1.012
						C71.027,70,71.023,70,71.02,70z"/>
				</g>
			</g>
			<g>
				<g>
					<path d="M94.839,57.35c-0.536,0-0.98-0.426-0.998-0.967c-0.029-0.855-0.066-1.72-0.103-2.577l-0.007-0.154
						c-0.07-1.745-0.17-3.477-0.279-5.2c-0.035-0.551,0.384-1.026,0.935-1.061c0.543-0.04,1.026,0.383,1.062,0.935
						c0.109,1.737,0.211,3.485,0.281,5.243l0.007,0.151c0.037,0.863,0.074,1.734,0.103,2.596c0.019,0.552-0.414,1.014-0.966,1.033
						C94.861,57.35,94.851,57.35,94.839,57.35z"/>
				</g>
			</g>
			<g>
				<g>
					<path d="M92.061,105.95c-0.052,0-0.104-0.004-0.156-0.012c-0.546-0.085-0.918-0.598-0.833-1.143
						c0.101-0.635,0.199-1.27,0.288-1.904l0.123-0.875c0.045-0.33,0.091-0.657,0.139-0.982c0.082-0.546,0.59-0.92,1.137-0.842
						c0.546,0.082,0.923,0.59,0.842,1.137c-0.048,0.317-0.092,0.638-0.136,0.96l-0.125,0.887c-0.09,0.64-0.19,1.285-0.291,1.931
						C92.97,105.599,92.545,105.95,92.061,105.95z"/>
				</g>
			</g>
			<g>
				<g>
					<path d="M83,68.38c-0.553,0-1-0.448-1-1V63c0-0.552,0.447-1,1-1s1,0.448,1,1v4.38C84,67.932,83.553,68.38,83,68.38z"/>
				</g>
			</g>
			<g>
				<g>
					<path d="M83,97.37c-0.553,0-1-0.448-1-1v-3.69c0-0.552,0.447-1,1-1s1,0.448,1,1v3.69C84,96.922,83.553,97.37,83,97.37z"/>
				</g>
			</g>
		</g>
		<g>
			<g>
				<path d="M83,64c-7.987,0-15.763-1.459-21.897-4.109c-0.373-0.146-0.638-0.508-0.638-0.931c0-0.552,0.442-1,0.995-1h0.01
					c0.137,0,0.272,0.028,0.397,0.083C67.762,60.594,75.267,62,83,62c12.015,0,23.025-3.341,28.734-8.718
					c0.297-0.274,0.435-0.656,0.377-1.028c-0.005-0.033-0.009-0.066-0.011-0.1c-0.076-0.383-0.322-0.688-0.683-0.845
					c-0.365-0.158-0.765-0.121-1.092,0.104C103.781,55.892,93.821,58.46,83,58.46c-3.251,0-6.422-0.232-9.425-0.689
					c-0.489-0.066-0.87-0.484-0.87-0.991c0-0.603,0.562-1.079,1.155-0.989c2.908,0.444,5.983,0.669,9.14,0.669
					c10.275,0,20.067-2.503,26.195-6.695c0.894-0.614,2.022-0.721,3.019-0.29c1.008,0.437,1.709,1.347,1.874,2.435
					c0.006,0.039,0.01,0.078,0.011,0.117c0.13,1.006-0.24,2.017-1,2.719C107.04,60.451,95.505,64,83,64z"/>
			</g>
		</g>
		<g>
			<g>
				<path d="M70.223,57.158c-0.105,0-0.211-0.017-0.312-0.05c-2.148-0.444-4.25-1.031-6.248-1.746
					c-0.521-0.186-0.791-0.758-0.605-1.278c0.186-0.52,0.76-0.791,1.278-0.604c1.943,0.694,3.99,1.264,6.083,1.691
					c0.185,0.038,0.354,0.127,0.49,0.257c0.399,0.381,0.42,1.019,0.038,1.419C70.751,57.053,70.486,57.158,70.223,57.158z"/>
			</g>
		</g>
		<g>
			<g>
				<path d="M58.37,58.44c-0.207,0-0.399-0.063-0.559-0.17c-1.889-1.052-3.542-2.24-4.916-3.531
					c-0.757-0.699-1.128-1.716-0.993-2.727c0.002-0.038,0.005-0.076,0.009-0.103c0.167-1.088,0.868-1.998,1.876-2.435
					c0.997-0.431,2.125-0.322,3.019,0.292c0.538,0.366,1.111,0.724,1.702,1.074c0.476,0.281,0.633,0.894,0.352,1.37
					c-0.281,0.476-0.894,0.632-1.37,0.352c-0.668-0.395-1.261-0.769-1.813-1.144c-0.333-0.229-0.732-0.266-1.096-0.107
					c-0.364,0.157-0.612,0.467-0.686,0.854c-0.002,0.033-0.005,0.065-0.008,0.089c-0.058,0.373,0.081,0.755,0.371,1.022
					c1.275,1.198,2.815,2.3,4.585,3.281v0c0.312,0.173,0.526,0.506,0.526,0.884C59.37,57.992,58.922,58.44,58.37,58.44z"/>
			</g>
		</g>
		<g>
			<g>
				<path d="M83,102.91c-9.644,0-18.906-2.132-25.414-5.85c-0.514-0.294-0.912-0.766-1.122-1.329
					c-0.323-0.864-0.632-1.729-0.927-2.596c-0.337-0.989-0.039-2.065,0.762-2.741c0.803-0.678,1.92-0.793,2.841-0.293
					C65.312,93.45,74.009,95.37,83,95.37c8.995,0,17.693-1.921,23.864-5.272c0.923-0.5,2.033-0.385,2.832,0.288
					c0.804,0.679,1.104,1.762,0.764,2.76l0,0c-0.293,0.862-0.602,1.724-0.926,2.584c-0.21,0.558-0.605,1.025-1.114,1.317
					C101.919,100.773,92.653,102.91,83,102.91z M57.932,91.79c-0.163,0-0.285,0.084-0.342,0.132c-0.083,0.07-0.263,0.265-0.16,0.568
					c0.289,0.849,0.592,1.697,0.908,2.542c0.047,0.126,0.133,0.23,0.242,0.292c6.213,3.55,15.115,5.586,24.42,5.586
					c9.315,0,18.218-2.041,24.426-5.598c0.106-0.061,0.19-0.163,0.237-0.287c0.316-0.84,0.617-1.681,0.904-2.524c0,0,0,0,0,0
					c0.107-0.316-0.077-0.515-0.161-0.586c-0.081-0.069-0.302-0.214-0.588-0.059C101.27,95.412,92.455,97.37,83,97.37
					c-9.451,0-18.263-1.957-24.813-5.511C58.095,91.809,58.009,91.79,57.932,91.79z"/>
			</g>
		</g>
		<g>
			<g>
				<path d="M61,60c-1.067,0-2.071-0.417-2.827-1.173c-0.262-0.262-0.489-0.564-0.676-0.899C57.172,57.345,57,56.679,57,56v-8
					c0-0.976-0.461-1.908-1.234-2.493c-0.315-0.239-0.46-0.641-0.37-1.026c0.662-2.817,1.474-5.704,2.413-8.581
					c0.264-0.772,0.907-1.361,1.683-1.551c1.08-0.271,2.173,0.242,2.706,1.243C64.08,37.486,71.565,40,83,40
					c1.066,0,2.071,0.417,2.827,1.173C86.584,41.929,87,42.933,87,44v9.34c0,1.018-0.426,2.004-1.169,2.708
					c-0.702,0.665-1.608,1.003-2.536,0.951c-0.864-0.055-1.668-0.417-2.271-1.021C80.363,55.317,80,54.438,80,53.5v-3.84
					c0-0.471-0.198-0.928-0.543-1.255c-0.3-0.283-0.666-0.435-1.053-0.407c-0.36,0.023-0.707,0.179-0.967,0.438
					C77.159,48.715,77,49.103,77,49.5v4c0,1.879-1.185,3.575-2.946,4.219c-1.529,0.565-3.255,0.24-4.473-0.798
					c-0.091-0.078-0.182-0.167-0.258-0.244C68.472,55.84,68,54.709,68,53.5v-2.84c0-0.471-0.198-0.928-0.543-1.255
					c-0.301-0.283-0.665-0.435-1.053-0.407c-0.248,0.017-0.489,0.094-0.702,0.228c-0.467,0.295-1.085,0.153-1.379-0.314
					s-0.153-1.085,0.314-1.379c0.495-0.311,1.048-0.49,1.643-0.531c0.959-0.043,1.849,0.286,2.551,0.95
					C69.574,48.656,70,49.643,70,50.66v2.84c0,0.669,0.26,1.293,0.731,1.757c0.049,0.048,0.099,0.1,0.148,0.143
					c0.674,0.576,1.615,0.762,2.484,0.442C74.344,55.483,75,54.543,75,53.5v-4c0-0.938,0.363-1.817,1.023-2.477
					c0.604-0.604,1.407-0.967,2.263-1.021c0.951-0.054,1.843,0.286,2.545,0.951C81.574,47.656,82,48.643,82,49.66v3.84
					c0,0.397,0.159,0.785,0.437,1.063c0.26,0.26,0.606,0.416,0.976,0.439c0.376,0.027,0.744-0.124,1.044-0.407
					C84.802,54.268,85,53.811,85,53.34V44c0-0.533-0.208-1.035-0.587-1.413S83.532,42,83,42c-11.704,0-20.113-2.595-22.371-5.159
					c-0.064-0.073-0.152-0.214-0.193-0.302c-0.079-0.155-0.249-0.305-0.434-0.259c-0.153,0.04-0.256,0.135-0.296,0.253
					c-0.853,2.613-1.601,5.245-2.223,7.822C58.442,45.31,59,46.629,59,48v8c0,0.343,0.082,0.664,0.243,0.952
					c0.098,0.175,0.214,0.331,0.345,0.462c0.442,0.442,1.091,0.683,1.674,0.566C62.276,57.831,63,56.983,63,56v-3.55
					c0-0.552,0.448-1,1-1s1,0.448,1,1V56c0,1.969-1.46,3.667-3.396,3.95C61.443,59.983,61.229,60,61,60z M62.087,35.473
					c0.019,0.021,0.039,0.043,0.059,0.064C62.129,35.517,62.109,35.495,62.087,35.473z"/>
			</g>
		</g>
		<g>
			<g>
				<path d="M60.748,44.67c-0.083,0-0.167-0.011-0.25-0.032c-0.535-0.138-0.856-0.684-0.718-1.218
					c0.224-0.865,0.46-1.733,0.71-2.602c0.152-0.531,0.706-0.84,1.237-0.685c0.531,0.152,0.838,0.706,0.685,1.237
					c-0.244,0.852-0.477,1.703-0.695,2.55C61.599,44.37,61.193,44.67,60.748,44.67z"/>
			</g>
		</g>
		<g>
			<g>
				<g>
					<g>
						<path d="M79.125,82.707H75.25c-0.357,0-0.688-0.19-0.866-0.5l-1.938-3.356c-0.179-0.31-0.179-0.691,0-1l1.938-3.356
							c0.179-0.31,0.509-0.5,0.866-0.5h3.875c0.357,0,0.687,0.19,0.866,0.5l1.938,3.356c0.179,0.31,0.179,0.69,0,1l-1.938,3.356
							C79.812,82.517,79.482,82.707,79.125,82.707z M75.827,80.707h2.721l1.36-2.356l-1.36-2.356h-2.721l-1.36,2.356L75.827,80.707z
							"/>
					</g>
				</g>
				<g>
					<g>
						<path d="M90.75,82.707h-3.875c-0.357,0-0.688-0.19-0.866-0.5l-1.938-3.356c-0.179-0.31-0.179-0.69,0-1l1.938-3.356
							c0.179-0.31,0.509-0.5,0.866-0.5h3.875c0.357,0,0.687,0.19,0.866,0.5l1.938,3.356c0.179,0.309,0.179,0.69,0,1l-1.938,3.356
							C91.437,82.517,91.107,82.707,90.75,82.707z M87.452,80.707h2.721l1.36-2.356l-1.36-2.356h-2.721l-1.36,2.356L87.452,80.707z"
							/>
					</g>
				</g>
				<g>
					<g>
						<path d="M84.937,86.063h-3.875c-0.357,0-0.687-0.19-0.866-0.5l-1.938-3.356c-0.179-0.31-0.179-0.69,0-1l1.938-3.356
							c0.179-0.31,0.509-0.5,0.866-0.5h3.875c0.357,0,0.688,0.19,0.866,0.5l1.938,3.356c0.179,0.31,0.179,0.69,0,1l-1.938,3.356
							C85.625,85.873,85.295,86.063,84.937,86.063z M81.64,84.063h2.721l1.36-2.356l-1.36-2.356H81.64l-1.36,2.356L81.64,84.063z"/>
					</g>
				</g>
			</g>
			<g>
				<g>
					<path d="M83,93.68c-7.526,0-13.65-6.124-13.65-13.65c0-4.181,1.88-8.071,5.158-10.673c0.434-0.345,1.062-0.272,1.405,0.162
						c0.344,0.433,0.271,1.062-0.161,1.405c-2.798,2.221-4.402,5.54-4.402,9.106c0,6.424,5.227,11.65,11.65,11.65
						s11.65-5.227,11.65-11.65S89.424,68.38,83,68.38c-1.022,0-2.018,0.129-2.957,0.385c-0.532,0.146-1.083-0.169-1.228-0.703
						c-0.145-0.533,0.17-1.083,0.702-1.227C80.629,66.533,81.8,66.38,83,66.38c7.526,0,13.65,6.124,13.65,13.65
						C96.65,87.557,90.526,93.68,83,93.68z"/>
				</g>
			</g>
		</g>
	</g>
	<g>
		<g>
			<g>
				<path d="M30.691,31.55c-0.067,0-0.135-0.006-0.203-0.021c-0.758-0.156-1.505-0.437-2.223-0.835
					c-1.589-0.878-2.763-2.188-3.138-3.503c-0.221-0.774-0.156-1.51,0.19-2.129c0.95-1.716,3.733-1.938,6.337-0.498
					c0.316,0.173,0.651,0.39,0.991,0.641c0.444,0.329,0.538,0.955,0.209,1.399c-0.328,0.444-0.953,0.539-1.399,0.209
					c-0.267-0.198-0.525-0.365-0.766-0.497c-1.768-0.978-3.327-0.819-3.625-0.283c-0.104,0.185-0.065,0.432-0.015,0.607
					c0.226,0.791,1.083,1.694,2.184,2.303c0.541,0.3,1.099,0.51,1.658,0.625c0.541,0.112,0.889,0.641,0.777,1.182
					C31.572,31.225,31.155,31.55,30.691,31.55z"/>
			</g>
		</g>
		<g>
			<g>
				<path d="M43.811,25.03c-0.071,0-0.144-0.007-0.216-0.023c-0.54-0.119-0.88-0.652-0.762-1.191
					c0.363-1.652,1.211-2.794,2.387-3.214c1.016-0.363,2.162-0.125,3.149,0.654c0.434,0.342,0.508,0.971,0.166,1.404
					c-0.341,0.435-0.971,0.507-1.404,0.166c-0.256-0.201-0.757-0.512-1.237-0.341c-0.496,0.177-0.9,0.819-1.107,1.761
					C44.684,24.711,44.27,25.03,43.811,25.03z"/>
			</g>
		</g>
		<g>
			<g>
				<path d="M40.019,27.32c-0.155,0-0.312-0.036-0.459-0.112c-0.45-0.233-0.964-0.333-1.458-0.338c-0.036,0-0.071,0.001-0.104,0.004
					c-0.545,0.06-1.042-0.336-1.102-0.886c-0.06-0.549,0.337-1.042,0.886-1.102c0.123-0.013,0.261-0.016,0.398-0.016
					c0.795,0,1.59,0.194,2.3,0.562c0.49,0.254,0.682,0.857,0.428,1.348C40.73,27.123,40.381,27.32,40.019,27.32z"/>
			</g>
		</g>
		<g>
			<g>
				<path d="M32.74,35.42c-1.162,0-2.228-0.678-2.717-1.728c-0.502-1.064-0.609-2.276-0.297-3.408c0.372-1.425,1.357-2.611,2.7-3.24
					l0.624-0.297c0.497-0.237,1.096-0.027,1.333,0.473c0.237,0.499,0.026,1.095-0.473,1.333l-0.63,0.3
					c-0.809,0.379-1.398,1.088-1.623,1.95c-0.188,0.683-0.124,1.403,0.177,2.04c0.23,0.495,0.869,0.705,1.322,0.486l7.248-3.414
					c0.422-0.196,0.646-0.65,0.548-1.106c-0.115-0.54,0.229-1.071,0.77-1.187c0.538-0.119,1.071,0.228,1.187,0.77
					c0.293,1.374-0.388,2.745-1.656,3.335l-7.237,3.409C33.625,35.323,33.193,35.42,32.74,35.42z"/>
			</g>
		</g>
		<g>
			<g>
				<path d="M38.07,33.121c-0.405,0-0.787-0.249-0.937-0.65c-0.366-0.979-0.816-1.862-1.338-2.626
					c-0.312-0.456-0.195-1.078,0.261-1.39c0.457-0.312,1.079-0.194,1.39,0.261c0.614,0.897,1.139,1.925,1.561,3.055
					c0.193,0.518-0.069,1.094-0.586,1.287C38.305,33.1,38.186,33.121,38.07,33.121z"/>
			</g>
		</g>
		<g>
			<g>
				<path d="M36.773,30.285c-1.495,0-3.354-1.038-4.913-2.878c-2.211-2.61-2.73-5.55-1.208-6.84
					c1.524-1.291,4.338-0.294,6.549,2.315c2.211,2.61,2.73,5.551,1.208,6.841C37.959,30.103,37.398,30.285,36.773,30.285z
					 M32.298,21.995c-0.157,0-0.278,0.033-0.353,0.097c-0.403,0.342-0.163,2.128,1.441,4.021l0,0
					c1.604,1.894,3.329,2.427,3.729,2.083c0.404-0.342,0.163-2.128-1.441-4.021C34.37,22.634,32.985,21.995,32.298,21.995z"/>
			</g>
		</g>
		<g>
			<g>
				<path d="M41.205,34.964c-0.527,0-0.968-0.413-0.998-0.945c-0.036-0.345-0.571-1.188-0.908-1.382
					c-0.464,0.134-0.969-0.085-1.181-0.536c-0.235-0.5-0.021-1.096,0.479-1.331c0.532-0.25,1.139-0.198,1.709,0.143
					c1.012,0.606,1.851,2.109,1.897,2.998c0.029,0.552-0.395,1.022-0.946,1.051C41.24,34.963,41.222,34.964,41.205,34.964z"/>
			</g>
		</g>
		<g>
			<g>
				<path d="M38.389,36.289c-0.527,0-0.968-0.413-0.998-0.945c-0.036-0.345-0.571-1.188-0.908-1.382
					c-0.463,0.133-0.968-0.085-1.18-0.536c-0.235-0.5-0.021-1.095,0.479-1.331c0.53-0.25,1.138-0.199,1.708,0.143
					c1.012,0.606,1.851,2.109,1.897,2.999c0.029,0.552-0.395,1.022-0.946,1.051C38.424,36.288,38.407,36.289,38.389,36.289z"/>
			</g>
		</g>
		<g>
			<g>
				<path d="M42.513,29.668c-0.4,0-0.801-0.069-1.188-0.208c-0.88-0.317-1.583-0.958-1.981-1.803l0,0
					c-0.822-1.747-0.069-3.835,1.677-4.657c1.747-0.82,3.836-0.068,4.657,1.678c0.398,0.845,0.443,1.795,0.126,2.675
					c-0.317,0.88-0.958,1.583-1.804,1.981C43.527,29.557,43.021,29.668,42.513,29.668z M42.508,24.667
					c-0.213,0-0.43,0.046-0.636,0.143c-0.748,0.352-1.07,1.248-0.718,1.996v0c0.17,0.362,0.472,0.637,0.849,0.772
					c0.377,0.136,0.784,0.117,1.147-0.054c0.363-0.17,0.637-0.472,0.773-0.849s0.116-0.784-0.054-1.146
					C43.612,24.985,43.071,24.667,42.508,24.667z"/>
			</g>
		</g>
	</g>
	<g>
		<g>
			<g>
				<path d="M91.691,17.93c-0.29,0-0.576-0.125-0.774-0.366c-0.35-0.427-0.288-1.057,0.14-1.407c0.426-0.35,0.827-0.809,1.162-1.329
					c0.68-1.048,1.007-2.243,0.835-3.045c-0.039-0.183-0.124-0.426-0.307-0.544c-0.181-0.118-0.435-0.096-0.613-0.056
					c-0.798,0.171-1.753,0.964-2.433,2.019c-0.18,0.282-0.321,0.539-0.429,0.778c-0.227,0.503-0.814,0.73-1.323,0.501
					c-0.503-0.227-0.728-0.819-0.501-1.322c0.147-0.327,0.333-0.666,0.568-1.035c0.986-1.529,2.366-2.609,3.696-2.896
					c0.787-0.17,1.521-0.055,2.12,0.332c0.6,0.388,1.007,1.012,1.177,1.805c0.285,1.335-0.13,3.036-1.111,4.549
					c-0.45,0.7-0.98,1.303-1.574,1.789C92.139,17.856,91.914,17.93,91.691,17.93z"/>
			</g>
		</g>
		<g>
			<g>
				<path d="M72.64,18.521c-0.133,0-0.268-0.027-0.396-0.083c-0.507-0.219-0.74-0.807-0.521-1.314
					c0.497-1.152,1.394-1.907,2.458-2.069c1.241-0.188,2.531,0.417,3.638,1.704c0.36,0.419,0.313,1.05-0.105,1.41
					c-0.418,0.361-1.051,0.314-1.41-0.105c-0.633-0.735-1.302-1.108-1.82-1.031c-0.505,0.077-0.795,0.588-0.924,0.885
					C73.395,18.294,73.026,18.521,72.64,18.521z"/>
			</g>
		</g>
		<g>
			<g>
				<path d="M81.469,18.62c-0.198,0-0.397-0.059-0.572-0.181c-0.452-0.316-0.562-0.94-0.246-1.393
					c0.537-0.768,1.259-1.367,2.086-1.732c0.505-0.22,1.096,0.007,1.318,0.511c0.223,0.505-0.006,1.096-0.512,1.319
					c-0.492,0.217-0.926,0.58-1.254,1.048C82.095,18.471,81.784,18.62,81.469,18.62z"/>
			</g>
		</g>
		<g>
			<g>
				<path d="M82.79,22.982c-1.319,0-2.515-0.89-2.881-2.166c-0.152-0.531,0.154-1.085,0.685-1.237
					c0.537-0.156,1.085,0.155,1.237,0.685c0.127,0.441,0.551,0.742,1.006,0.718l7.987-0.43c0.525-0.024,0.945-0.469,0.945-0.991
					v-0.11c-0.041-0.652-0.329-1.325-0.809-1.835c-0.606-0.653-1.462-1.001-2.345-0.946l-0.688,0.04
					c-0.544,0.024-1.024-0.389-1.056-0.94c-0.032-0.551,0.389-1.024,0.94-1.057l0.689-0.04c1.478-0.08,2.913,0.491,3.922,1.579
					c0.794,0.846,1.272,1.962,1.344,3.14l0.002,0.17c0,1.601-1.249,2.914-2.843,2.989l-7.981,0.43
					C82.894,22.981,82.842,22.982,82.79,22.982z"/>
			</g>
		</g>
		<g>
			<g>
				<path d="M85.939,22.82c-0.494,0-0.923-0.365-0.99-0.868c-0.156-1.169-0.181-2.316-0.074-3.409
					c0.054-0.549,0.536-0.952,1.093-0.898c0.549,0.054,0.951,0.542,0.897,1.092c-0.092,0.94-0.069,1.933,0.066,2.95
					c0.073,0.547-0.312,1.05-0.859,1.124C86.028,22.817,85.983,22.82,85.939,22.82z"/>
			</g>
		</g>
		<g>
			<g>
				<path d="M84.991,19.915c-0.161,0-0.323-0.017-0.484-0.051c-1.043-0.222-1.818-1.12-2.184-2.527
					c-0.304-1.169-0.3-2.615,0.01-4.07c0.713-3.345,2.722-5.552,4.673-5.139c1.043,0.222,1.818,1.12,2.184,2.527
					c0.304,1.169,0.3,2.615-0.01,4.07l0,0c-0.31,1.455-0.896,2.776-1.648,3.721C86.764,19.406,85.878,19.915,84.991,19.915z
					 M86.524,10.076c-0.551,0-1.738,1.275-2.234,3.606c-0.243,1.141-0.255,2.289-0.031,3.151c0.177,0.681,0.461,1.03,0.664,1.073
					c0.204,0.045,0.605-0.159,1.045-0.71c0.556-0.696,1.013-1.75,1.255-2.89c0,0,0,0,0,0c0.518-2.427-0.116-4.114-0.633-4.225
					C86.569,10.078,86.547,10.076,86.524,10.076z"/>
			</g>
		</g>
		<g>
			<g>
				<path d="M84.028,25.907c-0.367,0-0.714-0.201-0.882-0.557c-0.38-0.805-0.353-2.526,0.252-3.539
					c0.342-0.572,0.853-0.904,1.438-0.936c0.56-0.017,1.022,0.395,1.052,0.945c0.026,0.497-0.315,0.929-0.787,1.031
					c-0.205,0.331-0.277,1.329-0.145,1.648c0.208,0.501-0.014,1.098-0.51,1.317C84.311,25.878,84.168,25.907,84.028,25.907z"/>
			</g>
		</g>
		<g>
			<g>
				<path d="M87.135,25.742c-0.367,0-0.715-0.202-0.882-0.558c-0.38-0.806-0.352-2.527,0.253-3.54
					c0.342-0.571,0.852-0.902,1.437-0.934c0.588-0.018,1.022,0.395,1.053,0.945c0.026,0.497-0.315,0.929-0.786,1.03
					c-0.205,0.332-0.277,1.33-0.146,1.649c0.208,0.502-0.015,1.098-0.511,1.317C87.416,25.713,87.274,25.742,87.135,25.742z"/>
			</g>
		</g>
		<g>
			<g>
				<path d="M79.208,22.172c-1.844,0-3.393-1.449-3.493-3.313c-0.102-1.928,1.383-3.579,3.31-3.682
					c0.928-0.051,1.83,0.267,2.525,0.892c0.696,0.625,1.106,1.483,1.156,2.417s-0.267,1.831-0.892,2.526
					c-0.625,0.695-1.483,1.105-2.417,1.155C79.334,22.171,79.271,22.172,79.208,22.172z M79.213,17.173
					c-0.027,0-0.055,0-0.082,0.002c-0.826,0.044-1.462,0.752-1.418,1.578c0.045,0.826,0.787,1.463,1.577,1.418
					c0.4-0.021,0.769-0.197,1.036-0.496c0.269-0.298,0.404-0.682,0.382-1.082v0c-0.021-0.4-0.196-0.768-0.495-1.036
					C79.936,17.308,79.583,17.173,79.213,17.173z"/>
			</g>
		</g>
	</g>
	<g>
		<g>
			<g>
				<path d="M17.593,116.569c-0.184,0-0.369-0.05-0.536-0.156c-0.466-0.296-0.604-0.915-0.307-1.38l1.4-2.202
					c0.296-0.466,0.914-0.604,1.38-0.307c0.466,0.296,0.604,0.915,0.307,1.38l-1.4,2.202
					C18.248,116.405,17.924,116.569,17.593,116.569z"/>
			</g>
		</g>
		<g>
			<g>
				<path d="M21.004,111.167c-0.184,0-0.369-0.05-0.536-0.156c-0.466-0.296-0.604-0.915-0.307-1.38l1.4-2.202
					c0.296-0.466,0.915-0.604,1.38-0.307c0.466,0.296,0.604,0.915,0.307,1.38l-1.4,2.202
					C21.659,111.003,21.335,111.167,21.004,111.167z"/>
			</g>
		</g>
		<g>
			<g>
				<path d="M18.405,111.758c-0.182,0-0.366-0.049-0.532-0.154l-2.213-1.393c-0.467-0.294-0.608-0.912-0.313-1.379
					c0.293-0.468,0.911-0.609,1.379-0.313l2.213,1.393c0.467,0.294,0.608,0.912,0.313,1.379
					C19.062,111.593,18.737,111.758,18.405,111.758z"/>
			</g>
		</g>
		<g>
			<g>
				<path d="M23.807,115.169c-0.182,0-0.366-0.049-0.532-0.154l-2.213-1.393c-0.467-0.294-0.608-0.912-0.313-1.379
					c0.294-0.468,0.912-0.609,1.379-0.313l2.213,1.393c0.467,0.294,0.608,0.912,0.313,1.379
					C24.464,115.003,24.139,115.169,23.807,115.169z"/>
			</g>
		</g>
	</g>
	<g>
		<g>
			<g>
				<path d="M107.193,21.802c-0.184,0-0.369-0.05-0.536-0.156c-0.466-0.296-0.604-0.915-0.307-1.38l1.4-2.202
					c0.297-0.466,0.913-0.604,1.381-0.307c0.466,0.296,0.604,0.915,0.307,1.38l-1.4,2.202
					C107.848,21.638,107.524,21.802,107.193,21.802z"/>
			</g>
		</g>
		<g>
			<g>
				<path d="M110.604,16.4c-0.184,0-0.369-0.05-0.536-0.156c-0.466-0.296-0.604-0.915-0.307-1.38l1.4-2.202
					c0.296-0.466,0.913-0.604,1.381-0.307c0.466,0.296,0.604,0.915,0.307,1.38l-1.4,2.202C111.259,16.236,110.936,16.4,110.604,16.4
					z"/>
			</g>
		</g>
		<g>
			<g>
				<path d="M108.005,16.991c-0.182,0-0.366-0.049-0.532-0.154l-2.213-1.393c-0.467-0.294-0.607-0.912-0.313-1.379
					c0.295-0.467,0.911-0.609,1.38-0.313l2.213,1.393c0.467,0.294,0.607,0.912,0.313,1.379
					C108.662,16.826,108.337,16.991,108.005,16.991z"/>
			</g>
		</g>
		<g>
			<g>
				<path d="M113.407,20.402c-0.182,0-0.366-0.049-0.531-0.154l-2.214-1.393c-0.468-0.294-0.608-0.911-0.314-1.379
					c0.295-0.467,0.912-0.609,1.379-0.313l2.214,1.393c0.468,0.294,0.608,0.911,0.314,1.379
					C114.064,20.236,113.739,20.402,113.407,20.402z"/>
			</g>
		</g>
	</g>
</g>
</svg>
