<?xml version="1.0" encoding="utf-8"?>
<!-- Generator: Adobe Illustrator 24.2.3, SVG Export Plug-In . SVG Version: 6.00 Build 0)  -->
<svg version="1.1" id="_x31_3" xmlns="http://www.w3.org/2000/svg" xmlns:xlink="http://www.w3.org/1999/xlink" x="0px" y="0px"
	 viewBox="0 0 128 128" style="enable-background:new 0 0 128 128;" xml:space="preserve">
<g>
	<g>
		<g>
			<path d="M91.55,98.51c-0.256,0-0.512-0.098-0.707-0.293l-3.68-3.68c-0.391-0.391-0.391-1.023,0-1.414s1.023-0.391,1.414,0
				l3.68,3.68c0.391,0.391,0.391,1.023,0,1.414C92.062,98.412,91.806,98.51,91.55,98.51z"/>
		</g>
	</g>
	<g>
		<g>
			<path d="M101.264,110.54c-2.312,0-4.642-0.894-6.421-2.673l-16.27-16.26c-1.167-1.168-3.011-1.229-4.109-0.138
				c-1.631,1.636-3.823,2.539-6.169,2.539c-2.417,0-4.695-0.949-6.413-2.673L49.853,79.317c-0.188-0.188-0.293-0.441-0.293-0.707
				c0-0.265,0.105-0.52,0.293-0.707l2.83-2.83c0.391-0.391,1.023-0.391,1.414,0l12.02,12.02c0.572,0.572,1.32,0.898,2.107,0.918
				c0.792-0.004,1.478-0.258,1.998-0.777c3.438-3.438,9.087-3.379,12.595,0.13l2.06,2.06c0.391,0.391,0.391,1.023,0,1.414
				s-1.023,0.391-1.414,0l-2.06-2.06c-2.729-2.728-7.108-2.785-9.767-0.13c-0.911,0.912-2.116,1.394-3.462,1.362
				c-1.303-0.032-2.536-0.566-3.472-1.503L53.39,77.194l-1.416,1.416l11.322,11.312c1.342,1.346,3.116,2.086,4.998,2.086
				c1.811,0,3.5-0.694,4.757-1.955c1.883-1.869,4.992-1.805,6.936,0.14l16.269,16.259c2.729,2.729,7.104,2.793,9.757,0.141
				l4.79-4.79c1.261-1.257,1.955-2.944,1.956-4.754c0.002-1.885-0.739-3.665-2.086-5.012c-0.391-0.391-0.391-1.023,0-1.414
				s1.023-0.391,1.414,0c1.726,1.725,2.674,4.008,2.672,6.428c-0.002,2.344-0.905,4.534-2.543,6.167l-4.789,4.789
				C105.736,109.697,103.508,110.54,101.264,110.54z"/>
		</g>
	</g>
	<g>
		<g>
			<path d="M101.253,106.55c-1.347,0-2.621-0.533-3.59-1.503l-2.99-2.99c-0.391-0.391-0.391-1.023,0-1.414s1.023-0.391,1.414,0
				l2.99,2.99c0.592,0.592,1.364,0.917,2.176,0.917c0.002,0,0.003,0,0.005,0c0.738-0.001,1.421-0.28,1.922-0.784l4.793-4.793
				c0.507-0.504,0.786-1.187,0.787-1.925c0.002-0.813-0.324-1.588-0.917-2.181c-0.391-0.39-0.391-1.023,0-1.414s1.023-0.391,1.414,0
				c0.972,0.971,1.505,2.249,1.503,3.598c-0.002,1.274-0.49,2.46-1.376,3.339l-4.787,4.787c-0.876,0.883-2.062,1.371-3.336,1.373
				C101.259,106.55,101.256,106.55,101.253,106.55z"/>
		</g>
	</g>
	<g>
		<g>
			<path d="M106.367,96.195c-0.003,0-0.006,0-0.009,0c-1-0.003-1.938-0.394-2.639-1.102L92.873,84.247
				c-0.72-0.7-0.932-1.766-0.518-2.644c0.408-0.827-0.095-1.875-0.771-2.553c-0.682-0.685-1.737-1.195-2.555-0.792
				c-0.847,0.419-1.911,0.226-2.648-0.493l-3.079-3.078c-0.924-0.924-0.92-2.433,0.009-3.363l5.871-5.881
				c0.931-0.93,2.439-0.934,3.363-0.012l3.081,3.081c0.724,0.726,0.925,1.793,0.502,2.657c-0.402,0.814,0.1,1.86,0.775,2.538
				c0.681,0.684,1.735,1.198,2.557,0.794c0.843-0.422,1.91-0.226,2.646,0.491l3.109,3.109c0.391,0.391,0.391,1.023,0,1.414
				s-1.023,0.391-1.414,0l-3.1-3.1c-0.116-0.112-0.282-0.155-0.355-0.122c-1.509,0.738-3.414,0.276-4.86-1.175
				c-1.438-1.443-1.891-3.34-1.153-4.833c0.043-0.087-0.012-0.25-0.122-0.361l-3.079-3.079c-0.144-0.143-0.388-0.138-0.536,0.011
				l-5.87,5.88c-0.152,0.153-0.157,0.389-0.01,0.536l3.07,3.069c0.115,0.112,0.283,0.157,0.355,0.123
				c1.507-0.74,3.413-0.278,4.859,1.173c1.438,1.443,1.892,3.341,1.154,4.834c-0.038,0.083,0.012,0.244,0.121,0.351l10.859,10.859
				c0.327,0.33,0.762,0.511,1.226,0.513c0.002,0,0.003,0,0.005,0c0.473,0,0.919-0.186,1.256-0.522l3.92-3.92
				c0.333-0.333,0.517-0.774,0.517-1.243s-0.183-0.912-0.514-1.25l-3.513-3.513c-0.391-0.391-0.391-1.023,0-1.414
				s1.023-0.391,1.414,0l3.52,3.52c0.707,0.72,1.093,1.661,1.093,2.657c0,1.003-0.392,1.946-1.103,2.657l-3.92,3.92
				C108.322,95.802,107.375,96.194,106.367,96.195z"/>
		</g>
	</g>
	<g>
		<g>
			<g>
				<path d="M78.96,69.355c-0.639,0-1.237-0.248-1.688-0.699l-43.08-43.079c-0.161-0.16-0.262-0.371-0.287-0.597l-0.98-8.82
					c-0.034-0.302,0.072-0.603,0.287-0.817s0.514-0.318,0.818-0.287l8.81,0.98c0.226,0.025,0.436,0.127,0.596,0.287l10.67,10.67
					c0.391,0.391,0.391,1.023,0,1.414s-1.023,0.391-1.414,0L42.271,17.985l-7.219-0.804l0.803,7.229l42.833,42.832
					c0.197,0.197,0.353,0.193,0.546,0l1.897-1.908c0.389-0.391,1.022-0.394,1.414-0.004s0.394,1.022,0.004,1.414l-1.899,1.91
					C80.197,69.107,79.599,69.355,78.96,69.355z"/>
			</g>
		</g>
		<g>
			<g>
				<path d="M83.96,64.92c-0.256,0-0.512-0.098-0.707-0.293c-0.391-0.391-0.391-1.023,0-1.414l1.85-1.85
					c0.15-0.15,0.15-0.396,0-0.546l-26.729-26.73c-0.391-0.391-0.391-1.023,0-1.414s1.023-0.391,1.414,0l26.729,26.73
					c0.931,0.931,0.931,2.443,0,3.374l-1.85,1.85C84.472,64.822,84.216,64.92,83.96,64.92z"/>
			</g>
		</g>
		<g>
			<g>
				<path d="M49.804,34.475c-0.65,0-1.3-0.247-1.795-0.742l-9.995-9.995c-0.161-0.16-0.262-0.371-0.287-0.597l-0.271-2.448
					c-0.033-0.302,0.072-0.603,0.287-0.817c0.215-0.214,0.514-0.318,0.818-0.287l2.447,0.272c0.226,0.025,0.436,0.127,0.596,0.287
					l9.995,9.995c0.479,0.479,0.744,1.116,0.744,1.795s-0.264,1.315-0.744,1.795C51.104,34.228,50.454,34.475,49.804,34.475z
					 M39.675,22.571l9.747,9.747c0.21,0.209,0.552,0.209,0.762,0c0.102-0.102,0.158-0.237,0.158-0.381s-0.056-0.279-0.158-0.381
					l-9.747-9.747l-0.856-0.096L39.675,22.571z"/>
			</g>
		</g>
		<g>
			<g>
				<path d="M61.172,45.75c-0.641,0-1.281-0.244-1.768-0.731l-4.243-4.242c-0.974-0.975-0.974-2.561,0-3.535
					c0.975-0.975,2.561-0.975,3.536,0l4.243,4.242c0.472,0.473,0.732,1.101,0.732,1.768c0,0.668-0.26,1.296-0.732,1.768
					C62.452,45.506,61.812,45.75,61.172,45.75z M56.929,38.509c-0.128,0-0.256,0.049-0.354,0.146c-0.194,0.195-0.194,0.512,0,0.707
					l4.242,4.242l0,0c0.196,0.195,0.513,0.196,0.708,0c0.127-0.127,0.146-0.275,0.146-0.354c0-0.077-0.019-0.227-0.146-0.354
					l-4.242-4.242C57.185,38.558,57.057,38.509,56.929,38.509z"/>
			</g>
		</g>
		<g>
			<g>
				<path d="M73.192,57.771c-0.641,0-1.28-0.244-1.768-0.731l-4.243-4.243c-0.974-0.975-0.974-2.561-0.001-3.534
					c0.976-0.977,2.562-0.978,3.537-0.001l4.242,4.242c0.975,0.975,0.975,2.562,0,3.536C74.473,57.527,73.833,57.771,73.192,57.771z
					 M68.95,50.529c-0.129,0-0.257,0.049-0.354,0.146c-0.194,0.194-0.194,0.513,0.001,0.708l4.242,4.242
					c0.128,0.128,0.276,0.146,0.354,0.146s0.226-0.019,0.354-0.146c0.195-0.195,0.195-0.513,0-0.708l-4.242-4.242
					C69.206,50.578,69.078,50.529,68.95,50.529z"/>
			</g>
		</g>
		<g>
			<g>
				<path d="M106.367,96.195c-0.003,0-0.006,0-0.009,0c-1-0.003-1.938-0.394-2.639-1.102L92.873,84.247
					c-0.72-0.7-0.932-1.766-0.518-2.644c0.408-0.827-0.095-1.875-0.771-2.553c-0.682-0.685-1.737-1.195-2.555-0.792
					c-0.847,0.419-1.911,0.226-2.648-0.493l-3.079-3.078c-0.924-0.924-0.92-2.433,0.009-3.363l5.871-5.881
					c0.931-0.93,2.439-0.934,3.363-0.012l3.081,3.081c0.724,0.726,0.925,1.793,0.502,2.657c-0.402,0.814,0.1,1.86,0.775,2.538
					c0.681,0.684,1.735,1.198,2.557,0.794c0.843-0.422,1.91-0.226,2.646,0.491l3.109,3.109c0.391,0.391,0.391,1.023,0,1.414
					s-1.023,0.391-1.414,0l-3.1-3.1c-0.116-0.112-0.282-0.155-0.355-0.122c-1.509,0.738-3.414,0.276-4.86-1.175
					c-1.438-1.443-1.891-3.34-1.153-4.833c0.043-0.087-0.012-0.25-0.122-0.361l-3.079-3.079c-0.144-0.143-0.388-0.138-0.536,0.011
					l-5.87,5.88c-0.152,0.153-0.157,0.389-0.01,0.536l3.07,3.069c0.115,0.112,0.283,0.157,0.355,0.123
					c1.507-0.74,3.413-0.278,4.859,1.173c1.438,1.443,1.892,3.341,1.154,4.834c-0.038,0.083,0.012,0.244,0.121,0.351l10.859,10.859
					c0.327,0.33,0.762,0.511,1.226,0.513c0.002,0,0.003,0,0.005,0c0.473,0,0.919-0.186,1.256-0.522l3.92-3.92
					c0.333-0.333,0.517-0.774,0.517-1.243s-0.183-0.912-0.514-1.25l-3.513-3.513c-0.391-0.391-0.391-1.023,0-1.414
					s1.023-0.391,1.414,0l3.52,3.52c0.707,0.72,1.093,1.661,1.093,2.657c0,1.003-0.392,1.946-1.103,2.657l-3.92,3.92
					C108.322,95.802,107.375,96.194,106.367,96.195z"/>
			</g>
		</g>
		<g>
			<g>
				<g>
					<path d="M108.55,89.51c-0.256,0-0.512-0.098-0.707-0.293l-2.37-2.37c-0.391-0.391-0.391-1.023,0-1.414s1.023-0.391,1.414,0
						l2.37,2.37c0.391,0.391,0.391,1.023,0,1.414C109.062,89.412,108.806,89.51,108.55,89.51z M103.99,84.95
						c-0.256,0-0.512-0.098-0.707-0.293l-2.13-2.13c-0.391-0.391-0.391-1.023,0-1.414s1.023-0.391,1.414,0l2.13,2.13
						c0.391,0.391,0.391,1.023,0,1.414C104.502,84.853,104.246,84.95,103.99,84.95z"/>
				</g>
			</g>
		</g>
		<g>
			<g>
				<path d="M85.92,71.121c-0.256,0-0.512-0.098-0.707-0.293l-7.424-7.425c-0.472-0.472-0.732-1.099-0.732-1.768
					c0-0.668,0.26-1.295,0.732-1.768c0.941-0.942,2.59-0.946,3.535,0l7.425,7.425c0.188,0.188,0.293,0.441,0.293,0.707
					s-0.105,0.52-0.293,0.707l-2.122,2.121C86.432,71.023,86.176,71.121,85.92,71.121z M79.557,61.136
					c-0.077,0-0.226,0.019-0.353,0.146c-0.129,0.129-0.147,0.277-0.147,0.354s0.019,0.226,0.146,0.353l6.718,6.719L86.628,68
					l-6.718-6.718C79.782,61.155,79.634,61.136,79.557,61.136z"/>
			</g>
		</g>
		<g>
			<g>
				<path d="M88.749,73.95c-0.256,0-0.512-0.098-0.707-0.293c-0.391-0.391-0.391-1.023,0-1.414l2.121-2.122
					c0.391-0.391,1.023-0.391,1.414,0s0.391,1.023,0,1.414l-2.121,2.122C89.261,73.853,89.005,73.95,88.749,73.95z"/>
			</g>
		</g>
		<g>
			<g>
				<path d="M97.941,83.143c-0.256,0-0.512-0.098-0.707-0.293c-0.391-0.391-0.391-1.023,0-1.414l2.121-2.122
					c0.391-0.391,1.023-0.391,1.414,0s0.391,1.023,0,1.414l-2.121,2.122C98.453,83.045,98.197,83.143,97.941,83.143z"/>
			</g>
		</g>
	</g>
	<g>
		<g>
			<path d="M47.736,80.902c-1.255,0-2.436-0.489-3.324-1.377l-3.747-3.747c-0.78-0.779-0.78-2.049,0-2.828l7.071-7.071
				c0.753-0.755,2.072-0.757,2.828,0l3.747,3.747c1.833,1.833,1.833,4.814,0,6.647l-3.252,3.252
				C50.172,80.413,48.992,80.902,47.736,80.902z M49.151,67.293l-7.071,7.071l3.747,3.747c1.02,1.02,2.798,1.019,3.819,0
				l3.252-3.252c1.053-1.053,1.053-2.767,0-3.819L49.151,67.293z"/>
		</g>
	</g>
	<g>
		<g>
			<path d="M42.787,73.242c-0.256,0-0.512-0.098-0.707-0.293l-4.243-4.242c-0.391-0.391-0.391-1.023,0-1.414s1.023-0.391,1.414,0
				l3.536,3.535L45.615,68l-3.536-3.535c-0.391-0.391-0.391-1.023,0-1.414s1.023-0.391,1.414,0l4.243,4.242
				c0.188,0.188,0.293,0.441,0.293,0.707s-0.105,0.52-0.293,0.707l-4.243,4.242C43.298,73.145,43.042,73.242,42.787,73.242z"/>
		</g>
	</g>
	<g>
		<g>
			<g>
				<path d="M48.447,75.156c1.93,0,1.934-3,0-3C46.516,72.156,46.513,75.156,48.447,75.156L48.447,75.156z"/>
			</g>
		</g>
	</g>
	<g>
		<g>
			<g>
				<path d="M29.232,56.802c-0.184,0-0.369-0.051-0.536-0.156c-0.466-0.296-0.604-0.914-0.307-1.38l1.4-2.202
					c0.296-0.467,0.915-0.603,1.38-0.308c0.466,0.296,0.604,0.914,0.307,1.38l-1.4,2.202C29.887,56.638,29.563,56.802,29.232,56.802
					z"/>
			</g>
		</g>
		<g>
			<g>
				<path d="M32.643,51.4c-0.184,0-0.369-0.051-0.536-0.156c-0.466-0.296-0.604-0.914-0.307-1.38l1.4-2.202
					c0.296-0.467,0.914-0.603,1.38-0.308c0.466,0.296,0.604,0.914,0.307,1.38l-1.4,2.202C33.297,51.236,32.974,51.4,32.643,51.4z"/>
			</g>
		</g>
		<g>
			<g>
				<path d="M30.044,51.991c-0.182,0-0.366-0.05-0.532-0.153l-2.214-1.394c-0.467-0.295-0.608-0.912-0.313-1.379
					c0.294-0.469,0.911-0.608,1.379-0.314l2.214,1.394c0.467,0.295,0.608,0.912,0.313,1.379
					C30.701,51.826,30.376,51.991,30.044,51.991z"/>
			</g>
		</g>
		<g>
			<g>
				<path d="M35.445,55.402c-0.182,0-0.366-0.05-0.532-0.153L32.7,53.855c-0.467-0.295-0.608-0.912-0.313-1.38
					c0.294-0.468,0.911-0.606,1.379-0.313l2.213,1.394c0.467,0.295,0.608,0.912,0.313,1.38
					C36.103,55.237,35.777,55.402,35.445,55.402z"/>
			</g>
		</g>
	</g>
	<g>
		<g>
			<g>
				<path d="M104.763,59.503c-0.184,0-0.369-0.051-0.535-0.156c-0.467-0.296-0.604-0.914-0.308-1.38l1.4-2.202
					c0.296-0.466,0.914-0.604,1.38-0.308c0.467,0.296,0.604,0.914,0.308,1.38l-1.4,2.202
					C105.417,59.339,105.094,59.503,104.763,59.503z"/>
			</g>
		</g>
		<g>
			<g>
				<path d="M108.174,54.101c-0.184,0-0.369-0.051-0.536-0.156c-0.466-0.297-0.604-0.915-0.307-1.381l1.4-2.201
					c0.296-0.465,0.913-0.603,1.381-0.307c0.466,0.297,0.604,0.915,0.307,1.381l-1.4,2.201
					C108.828,53.937,108.505,54.101,108.174,54.101z"/>
			</g>
		</g>
		<g>
			<g>
				<path d="M105.574,54.692c-0.182,0-0.366-0.05-0.532-0.154l-2.213-1.394c-0.467-0.294-0.607-0.911-0.312-1.379
					c0.293-0.467,0.91-0.607,1.379-0.312l2.213,1.394c0.467,0.294,0.607,0.911,0.312,1.379
					C106.231,54.527,105.906,54.692,105.574,54.692z"/>
			</g>
		</g>
		<g>
			<g>
				<path d="M110.977,58.103c-0.182,0-0.366-0.05-0.531-0.153l-2.214-1.393c-0.468-0.294-0.608-0.912-0.314-1.379
					c0.295-0.468,0.913-0.606,1.379-0.314l2.214,1.393c0.468,0.294,0.608,0.912,0.314,1.379
					C111.634,57.938,111.309,58.103,110.977,58.103z"/>
			</g>
		</g>
	</g>
	<g>
		<g>
			<g>
				<path d="M74.626,26.429c-0.184,0-0.369-0.051-0.536-0.156c-0.466-0.297-0.604-0.915-0.307-1.381l1.4-2.201
					c0.296-0.465,0.913-0.603,1.381-0.307c0.466,0.297,0.604,0.915,0.307,1.381l-1.4,2.201
					C75.28,26.265,74.957,26.429,74.626,26.429z"/>
			</g>
		</g>
		<g>
			<g>
				<path d="M78.036,21.027c-0.184,0-0.369-0.051-0.535-0.156c-0.467-0.296-0.604-0.914-0.308-1.38l1.4-2.202
					c0.297-0.466,0.915-0.604,1.38-0.308c0.467,0.296,0.604,0.914,0.308,1.38l-1.4,2.202C78.69,20.863,78.367,21.027,78.036,21.027z
					"/>
			</g>
		</g>
		<g>
			<g>
				<path d="M75.437,21.618c-0.182,0-0.366-0.05-0.531-0.153l-2.214-1.393c-0.468-0.294-0.608-0.912-0.314-1.379
					c0.296-0.468,0.913-0.606,1.379-0.314l2.214,1.393c0.468,0.294,0.608,0.912,0.314,1.379
					C76.095,21.453,75.77,21.618,75.437,21.618z"/>
			</g>
		</g>
		<g>
			<g>
				<path d="M80.839,25.029c-0.182,0-0.366-0.05-0.531-0.153l-2.214-1.393c-0.468-0.294-0.608-0.912-0.314-1.379
					c0.295-0.468,0.912-0.606,1.379-0.314l2.214,1.393c0.468,0.294,0.608,0.912,0.314,1.379
					C81.496,24.864,81.171,25.029,80.839,25.029z"/>
			</g>
		</g>
	</g>
</g>
</svg>
