<?xml version="1.0" encoding="utf-8"?>
<!-- Generator: Adobe Illustrator 24.2.3, SVG Export Plug-In . SVG Version: 6.00 Build 0)  -->
<svg version="1.1" id="_x31_4" xmlns="http://www.w3.org/2000/svg" xmlns:xlink="http://www.w3.org/1999/xlink" x="0px" y="0px"
	 viewBox="0 0 128 128" style="enable-background:new 0 0 128 128;" xml:space="preserve">
<g>
	<g>
		<g>
			<g>
				<path d="M42.389,97.23c-0.464,0-0.88-0.324-0.979-0.797c-0.112-0.54,0.235-1.07,0.776-1.183c0.562-0.116,1.12-0.327,1.659-0.626
					c0.843-0.466,1.55-1.104,1.938-1.752c0.283-0.474,0.37-0.906,0.23-1.158c-0.296-0.536-1.855-0.692-3.622,0.281
					c-0.244,0.134-0.501,0.301-0.766,0.497c-0.445,0.328-1.07,0.236-1.399-0.206c-0.329-0.443-0.237-1.07,0.206-1.399
					c0.339-0.251,0.674-0.469,0.996-0.645c2.646-1.457,5.371-1.241,6.335,0.503c0.496,0.896,0.399,2.047-0.267,3.156
					c-0.572,0.954-1.525,1.832-2.684,2.473c-0.715,0.396-1.463,0.677-2.222,0.835C42.524,97.224,42.456,97.23,42.389,97.23z"/>
			</g>
		</g>
		<g>
			<g>
				<path d="M29.269,90.72c-0.459,0-0.873-0.318-0.976-0.785c-0.208-0.945-0.611-1.59-1.107-1.768
					c-0.481-0.174-0.982,0.139-1.239,0.34c-0.436,0.342-1.064,0.264-1.403-0.171c-0.341-0.435-0.265-1.063,0.171-1.403
					c0.988-0.775,2.135-1.015,3.148-0.647c1.174,0.421,2.021,1.565,2.384,3.22c0.119,0.539-0.223,1.073-0.762,1.191
					C29.412,90.712,29.34,90.72,29.269,90.72z"/>
			</g>
		</g>
		<g>
			<g>
				<path d="M33.061,93.01c-0.359,0-0.707-0.194-0.886-0.535c-0.258-0.488-0.069-1.093,0.42-1.35
					c0.825-0.435,1.769-0.663,2.702-0.56c0.55,0.059,0.947,0.552,0.888,1.101c-0.059,0.549-0.55,0.945-1.101,0.888
					c-0.057-0.007-0.117-0.003-0.174-0.004c-0.483,0-0.949,0.116-1.386,0.345C33.376,92.973,33.217,93.01,33.061,93.01z"/>
			</g>
		</g>
		<g>
			<g>
				<path d="M40.34,101.1c-0.454,0-0.887-0.097-1.284-0.289l-7.231-3.396c-1.267-0.604-1.944-1.979-1.651-3.344
					c0.115-0.54,0.648-0.891,1.187-0.769c0.54,0.115,0.885,0.646,0.769,1.187c-0.098,0.457,0.13,0.916,0.553,1.118l7.234,3.397
					c0.48,0.233,1.101,0.011,1.329-0.478c0.303-0.642,0.366-1.361,0.182-2.03c-0.229-0.875-0.818-1.586-1.62-1.962l-0.636-0.302
					c-0.498-0.237-0.711-0.834-0.474-1.333c0.236-0.498,0.833-0.71,1.333-0.474l0.631,0.3c1.337,0.627,2.321,1.813,2.697,3.251
					c0.309,1.116,0.202,2.328-0.303,3.399C42.566,100.422,41.5,101.1,40.34,101.1z"/>
			</g>
		</g>
		<g>
			<g>
				<path d="M35.01,98.8c-0.117,0-0.235-0.021-0.351-0.063c-0.518-0.194-0.779-0.771-0.586-1.287
					c0.424-1.131,0.949-2.158,1.562-3.054c0.311-0.455,0.933-0.573,1.39-0.261c0.456,0.312,0.572,0.934,0.261,1.39
					c-0.521,0.763-0.972,1.646-1.339,2.626C35.796,98.553,35.415,98.8,35.01,98.8z"/>
			</g>
		</g>
		<g>
			<g>
				<path d="M36.312,95.972c-0.635,0-1.192-0.189-1.639-0.568c-0.813-0.689-1.072-1.847-0.728-3.26
					c0.286-1.174,0.974-2.445,1.936-3.58c2.21-2.608,5.025-3.607,6.549-2.315c1.522,1.29,1.002,4.23-1.209,6.84
					c-0.961,1.135-2.103,2.022-3.213,2.497C37.405,95.844,36.833,95.972,36.312,95.972z M40.785,87.682
					c-0.224,0-0.531,0.063-0.903,0.223c-0.818,0.351-1.721,1.062-2.475,1.952s-1.307,1.896-1.518,2.761
					c-0.167,0.685-0.082,1.126,0.077,1.261c0.159,0.133,0.608,0.146,1.255-0.131c0.819-0.351,1.721-1.062,2.474-1.952
					c0.001,0,0.001,0,0.001,0c1.604-1.893,1.845-3.68,1.441-4.021C41.07,87.717,40.95,87.682,40.785,87.682z"/>
			</g>
		</g>
		<g>
			<g>
				<path d="M31.876,100.623c-0.024,0-0.049-0.001-0.073-0.003c-0.541-0.041-0.952-0.484-0.925-1.026
					c0.046-0.889,0.885-2.393,1.896-2.998c0.572-0.343,1.18-0.395,1.71-0.145c0.5,0.235,0.714,0.831,0.479,1.331
					c-0.212,0.45-0.714,0.67-1.181,0.535c-0.338,0.195-0.873,1.04-0.908,1.384C32.823,100.217,32.387,100.623,31.876,100.623z"/>
			</g>
		</g>
		<g>
			<g>
				<path d="M34.691,101.947c-0.024,0-0.049-0.001-0.073-0.003c-0.541-0.041-0.952-0.484-0.925-1.026
					c0.046-0.889,0.885-2.393,1.896-2.998c0.572-0.344,1.18-0.394,1.71-0.145c0.5,0.235,0.714,0.831,0.479,1.331
					c-0.212,0.45-0.713,0.671-1.181,0.535c-0.338,0.195-0.873,1.04-0.908,1.384C35.639,101.541,35.202,101.947,34.691,101.947z"/>
			</g>
		</g>
		<g>
			<g>
				<path d="M30.569,95.351c-0.508,0-1.014-0.112-1.487-0.336c-0.846-0.397-1.486-1.101-1.804-1.98
					c-0.316-0.88-0.271-1.83,0.127-2.676c0.397-0.846,1.101-1.486,1.98-1.804c0.879-0.314,1.829-0.271,2.676,0.126
					c0.846,0.398,1.486,1.102,1.804,1.981c0.316,0.88,0.271,1.83-0.126,2.676c-0.398,0.846-1.103,1.486-1.981,1.804
					C31.37,95.28,30.97,95.351,30.569,95.351z M30.572,90.348c-0.171,0-0.343,0.029-0.509,0.089
					c-0.377,0.136-0.679,0.41-0.849,0.773c-0.171,0.362-0.19,0.77-0.055,1.146s0.41,0.679,0.773,0.849
					c0.363,0.171,0.77,0.191,1.146,0.055c0.377-0.136,0.679-0.41,0.849-0.773l0,0c0.171-0.362,0.19-0.77,0.055-1.146
					s-0.41-0.679-0.773-0.849C31.007,90.396,30.79,90.348,30.572,90.348z"/>
			</g>
		</g>
	</g>
	<g>
		<g>
			<g>
				<path d="M50.271,38.37c-0.067,0-0.135-0.007-0.203-0.021c-0.755-0.156-1.503-0.437-2.222-0.835
					c-1.158-0.64-2.111-1.518-2.685-2.473c-0.666-1.108-0.763-2.26-0.267-3.156c0.337-0.618,0.926-1.066,1.698-1.292
					c1.308-0.384,3.043-0.088,4.639,0.79c0.324,0.178,0.659,0.395,0.995,0.644c0.443,0.329,0.535,0.956,0.206,1.399
					c-0.328,0.442-0.953,0.535-1.399,0.206c-0.262-0.195-0.52-0.362-0.765-0.496c-1.106-0.609-2.328-0.851-3.115-0.624
					c-0.175,0.052-0.405,0.151-0.506,0.336c-0.143,0.258-0.056,0.69,0.229,1.164c0.389,0.647,1.095,1.286,1.938,1.752
					c0.543,0.301,1.101,0.511,1.658,0.626c0.541,0.111,0.889,0.641,0.777,1.182C51.151,38.045,50.735,38.37,50.271,38.37z"/>
			</g>
		</g>
		<g>
			<g>
				<path d="M53.17,35.575c-0.412,0-0.767-0.247-0.92-0.603c-0.259-0.468-0.117-1.078,0.343-1.357
					c0.474-0.287,1.075-0.156,1.361,0.315c0.016,0.026,0.102,0.174,0.114,0.201c0.067,0.137,0.102,0.286,0.102,0.438
					C54.17,35.123,53.723,35.575,53.17,35.575z"/>
			</g>
		</g>
		<g>
			<g>
				<path d="M63.391,31.86c-0.071,0-0.144-0.008-0.216-0.023c-0.539-0.119-0.881-0.652-0.762-1.191
					c0.365-1.657,1.213-2.801,2.388-3.221c1.014-0.361,2.161-0.121,3.149,0.66c0.433,0.343,0.507,0.972,0.165,1.405
					c-0.343,0.434-0.971,0.508-1.405,0.165c-0.256-0.202-0.756-0.518-1.237-0.347c-0.495,0.177-0.898,0.82-1.106,1.767
					C64.264,31.542,63.85,31.86,63.391,31.86z"/>
			</g>
		</g>
		<g>
			<g>
				<path d="M59.599,34.15c-0.157,0-0.317-0.037-0.466-0.116c-0.452-0.238-0.92-0.347-1.453-0.344c-0.034,0-0.069,0-0.102,0.004
					c-0.555,0.056-1.043-0.338-1.103-0.886c-0.06-0.55,0.337-1.043,0.886-1.103c0.935-0.104,1.882,0.125,2.705,0.561
					c0.488,0.258,0.676,0.862,0.417,1.351C60.305,33.957,59.958,34.15,59.599,34.15z"/>
			</g>
		</g>
		<g>
			<g>
				<path d="M52.32,42.24c-1.162,0-2.229-0.679-2.717-1.729c-0.503-1.064-0.609-2.275-0.298-3.406
					c0.372-1.426,1.357-2.611,2.699-3.241l0.625-0.298c0.496-0.233,1.112-0.036,1.351,0.459c0.239,0.496,0.053,1.082-0.442,1.323
					l-0.679,0.324c-0.808,0.379-1.397,1.089-1.622,1.95c-0.188,0.683-0.124,1.403,0.177,2.04c0.23,0.494,0.87,0.705,1.321,0.486
					l7.25-3.404c0.414-0.192,0.648-0.667,0.55-1.104c-0.017-0.072-0.025-0.147-0.025-0.222c0-0.553,0.447-1.005,1-1.005
					c0.503,0,0.92,0.367,0.989,0.851c0.271,1.335-0.422,2.711-1.667,3.291l-7.237,3.398C53.205,42.143,52.773,42.24,52.32,42.24z"/>
			</g>
		</g>
		<g>
			<g>
				<path d="M57.65,39.94c-0.405,0-0.786-0.248-0.937-0.649c-0.366-0.979-0.816-1.862-1.34-2.628
					c-0.312-0.456-0.194-1.078,0.263-1.39c0.454-0.309,1.077-0.193,1.39,0.263c0.613,0.897,1.138,1.925,1.561,3.054
					c0.193,0.518-0.068,1.094-0.586,1.287C57.886,39.92,57.767,39.94,57.65,39.94z"/>
			</g>
		</g>
		<g>
			<g>
				<path d="M56.35,37.107c-1.494,0-3.354-1.038-4.912-2.878c-0.962-1.136-1.649-2.407-1.936-3.58
					c-0.345-1.413-0.086-2.571,0.728-3.26c0.812-0.689,1.997-0.754,3.335-0.183c1.11,0.476,2.252,1.362,3.213,2.497
					c2.211,2.61,2.73,5.551,1.209,6.841C57.537,36.926,56.976,37.107,56.35,37.107z M51.875,28.823
					c-0.165,0-0.285,0.035-0.353,0.092c-0.159,0.135-0.244,0.576-0.077,1.26c0.211,0.865,0.764,1.872,1.518,2.762
					s1.656,1.602,2.475,1.952c0.646,0.275,1.096,0.264,1.256,0.131c0.403-0.342,0.162-2.129-1.441-4.022
					c-0.754-0.89-1.655-1.601-2.475-1.951C52.405,28.887,52.099,28.823,51.875,28.823z"/>
			</g>
		</g>
		<g>
			<g>
				<path d="M60.782,41.787c-0.527,0-0.968-0.412-0.997-0.944c-0.036-0.345-0.572-1.188-0.909-1.384
					c-0.469,0.135-0.969-0.086-1.181-0.535c-0.234-0.5-0.021-1.096,0.479-1.331c0.53-0.248,1.137-0.199,1.709,0.144
					c1.012,0.605,1.851,2.108,1.898,2.998c0.028,0.552-0.395,1.022-0.946,1.052C60.818,41.787,60.8,41.787,60.782,41.787z"/>
			</g>
		</g>
		<g>
			<g>
				<path d="M57.967,43.111c-0.527,0-0.968-0.412-0.997-0.944c-0.036-0.346-0.572-1.188-0.909-1.384
					c-0.47,0.134-0.969-0.086-1.181-0.535c-0.234-0.5-0.021-1.096,0.479-1.331c0.53-0.248,1.137-0.199,1.709,0.144
					c1.012,0.605,1.851,2.108,1.898,2.998c0.028,0.552-0.395,1.022-0.946,1.052C58.003,43.111,57.984,43.111,57.967,43.111z"/>
			</g>
		</g>
		<g>
			<g>
				<path d="M62.09,36.491c-0.399,0-0.801-0.069-1.188-0.209c-0.88-0.316-1.583-0.957-1.98-1.803
					c-0.398-0.846-0.443-1.796-0.126-2.676c0.316-0.88,0.957-1.583,1.803-1.98c0.845-0.399,1.795-0.444,2.676-0.127
					c0.879,0.316,1.583,0.957,1.981,1.803c0.397,0.847,0.442,1.797,0.126,2.677c-0.317,0.879-0.958,1.583-1.804,1.981
					C63.104,36.38,62.598,36.491,62.09,36.491z M62.087,31.489c-0.218,0-0.435,0.048-0.638,0.144
					c-0.362,0.17-0.637,0.472-0.773,0.849c-0.136,0.377-0.116,0.784,0.055,1.146c0.17,0.362,0.472,0.637,0.849,0.773
					c0.376,0.135,0.782,0.116,1.146-0.055c0.363-0.17,0.638-0.472,0.773-0.849s0.116-0.785-0.055-1.147
					c-0.17-0.362-0.472-0.637-0.849-0.772C62.43,31.519,62.258,31.489,62.087,31.489z"/>
			</g>
		</g>
	</g>
	<g>
		<g>
			<path d="M97.79,85.08c-0.256,0-0.512-0.098-0.707-0.293L85.062,72.767c-0.391-0.391-0.391-1.023,0-1.414
				c0.391-0.391,1.023-0.391,1.414,0l12.021,12.021c0.391,0.391,0.391,1.023,0,1.414C98.302,84.982,98.046,85.08,97.79,85.08z"/>
		</g>
	</g>
	<g>
		<g>
			<path d="M90.634,111.013c-0.803,0-1.498-0.232-2.031-0.766l-0.271-0.271c-0.034-0.027-0.064-0.055-0.088-0.078l-32.17-32.181l0,0
				c-0.391-0.391-0.391-1.023,0-1.414s1.023-0.391,1.414,0l0,0c0.229,0.229,1.217,0.382,3.326-0.673
				c2.043-1.022,4.376-2.793,6.569-4.987c3.825-3.816,5.827-7.554,5.828-9.274c0-0.207-0.029-0.482-0.168-0.621
				c-0.195-0.195-0.293-0.451-0.293-0.707s0.098-0.512,0.293-0.707c0.391-0.391,1.023-0.391,1.414,0l9.2,9.2
				c0.391,0.391,0.391,1.023,0,1.414s-1.023,0.391-1.414,0l-7.22-7.22c-0.651,2.576-2.952,6.062-6.228,9.33
				c-2.34,2.341-4.857,4.245-7.087,5.36c-0.855,0.429-1.598,0.705-2.239,0.867l30.15,30.16c0.03,0.024,0.06,0.051,0.087,0.078
				l0.31,0.31c0.627,0.623,4.017-0.315,8.555-4.396c0.449-0.401,0.896-0.817,1.342-1.264c0.459-0.459,0.889-0.918,1.309-1.377
				c4.055-4.511,4.977-7.894,4.352-8.519l-5.66-5.66c-0.391-0.391-0.391-1.023,0-1.414s1.023-0.391,1.414,0l5.66,5.66
				c2.129,2.129-0.617,7.196-4.283,11.275c-0.445,0.487-0.896,0.968-1.377,1.448c-0.474,0.474-0.947,0.917-1.421,1.339
				C97.003,108.536,93.252,111.012,90.634,111.013z"/>
		</g>
	</g>
	<g>
		<g>
			<path d="M58.105,78.472c-0.944,0-1.566-0.317-1.973-0.697L36.284,63.043c-0.734-0.534-1.201-1.369-1.275-2.284
				c-0.074-0.924,0.257-1.832,0.91-2.492l1.744-1.743c0.679-0.68,1.617-1.01,2.574-0.907l8.033,0.818
				c0.55,0.056,0.95,0.546,0.895,1.096c-0.055,0.55-0.533,0.943-1.096,0.895l-8.039-0.819c-0.361-0.043-0.707,0.086-0.952,0.331
				l-1.741,1.74c-0.238,0.241-0.362,0.579-0.334,0.921c0.027,0.339,0.192,0.635,0.466,0.835l19.907,14.774
				c0.04,0.029,0.077,0.062,0.111,0.096c0.229,0.229,1.217,0.382,3.326-0.673c2.043-1.022,4.376-2.793,6.569-4.987
				c3.825-3.816,5.827-7.554,5.828-9.274c0-0.118-0.01-0.259-0.044-0.384l-12.428-1.27c-0.55-0.056-0.95-0.547-0.895-1.096
				c0.057-0.549,0.54-0.94,1.096-0.895l12.913,1.321c0.229,0.023,0.441,0.125,0.604,0.287c0.344,0.344,0.754,0.977,0.754,2.036
				c-0.002,2.607-2.52,6.802-6.415,10.688c-2.34,2.341-4.857,4.245-7.087,5.36C60.164,78.19,58.992,78.472,58.105,78.472z"/>
		</g>
	</g>
	<g>
		<g>
			<path d="M56.44,59.27H56.43l-2.031-0.2c-0.954-0.098-1.903-0.194-2.834-0.284c-0.55-0.053-0.953-0.541-0.899-1.091
				c0.053-0.55,0.547-0.945,1.091-0.899c0.935,0.09,1.888,0.187,2.846,0.284l1.927,0.195c0.553,0,0.956,0.445,0.956,0.998
				C57.484,58.824,56.993,59.27,56.44,59.27z"/>
		</g>
	</g>
	<g>
		<g>
			<path d="M62.331,63.89c-0.033,0-0.066-0.002-0.101-0.005l-0.748-0.074c-0.807-0.08-1.688-0.167-2.645-0.266
				c-0.55-0.057-0.949-0.548-0.893-1.098c0.058-0.549,0.548-0.936,1.098-0.893c0.953,0.099,1.832,0.186,2.637,0.266l0.749,0.074
				c0.55,0.055,0.951,0.545,0.896,1.094C63.273,63.505,62.839,63.89,62.331,63.89z"/>
		</g>
	</g>
	<g>
		<g>
			<path d="M54.291,63.08c-0.034,0-0.068-0.002-0.103-0.005l-6.466-0.66c-0.549-0.054-0.951-0.543-0.897-1.093
				s0.534-0.949,1.093-0.897l6.474,0.66c0.55,0.057,0.949,0.547,0.894,1.097C55.232,62.696,54.798,63.08,54.291,63.08z"/>
		</g>
	</g>
	<g>
		<g>
			<g>
				<path d="M90.575,110.758c-0.932,0-1.731-0.267-2.33-0.866l-3.535-3.535c-0.195-0.195-0.293-0.451-0.293-0.707
					s0.098-0.512,0.293-0.707c0.391-0.391,1.023-0.391,1.414,0c0.502,0.502,1.921,0.331,3.614-0.438
					c2.098-0.953,4.455-2.682,6.639-4.865c4.748-4.747,6.312-9.243,5.304-10.253c-0.391-0.391-0.391-1.023,0-1.414
					s1.023-0.391,1.414,0l3.535,3.536c1.166,1.165,1.155,3.245-0.031,5.855c-1.05,2.311-2.922,4.876-5.271,7.226
					C97.928,107.988,93.571,110.758,90.575,110.758z M88.276,107.095l1.383,1.383c1.008,1.009,5.506-0.556,10.254-5.303
					c2.184-2.184,3.911-4.542,4.864-6.639c0.77-1.692,0.941-3.111,0.438-3.614l-1.391-1.391c-0.594,2.881-3.075,6.563-6.034,9.521
					c-2.349,2.35-4.914,4.222-7.225,5.271C89.747,106.697,88.979,106.954,88.276,107.095z"/>
			</g>
		</g>
	</g>
	<g>
		<g>
			<g>
				<path d="M77.527,97.676c-0.982,0-1.785-0.29-2.364-0.869l-3.524-3.522c-0.002-0.002-0.004-0.005-0.006-0.007l0,0
					c-0.001-0.001-0.001-0.001-0.002-0.002c-0.389-0.392-0.388-1.023,0.003-1.413c0.391-0.389,1.022-0.39,1.413,0.001l0.006,0.006
					c0.188,0.187,0.503,0.281,0.936,0.281c0.001,0,0.002,0,0.002,0c1.791,0,5.465-1.751,9.302-5.597
					c0.851-0.851,1.656-1.754,2.395-2.685c0.343-0.433,0.972-0.508,1.404-0.162c0.433,0.343,0.506,0.972,0.162,1.404
					c-0.785,0.991-1.643,1.952-2.546,2.855c-3.234,3.242-6.812,5.494-9.506,6.05l1.376,1.376c0.504,0.503,1.925,0.335,3.615-0.435
					c2.097-0.951,4.455-2.68,6.641-4.865c1.399-1.41,2.636-2.909,3.571-4.333l0.058-0.09c0.129-0.2,0.251-0.389,0.365-0.585
					c1.693-2.815,1.862-4.691,1.306-5.248l-1.379-1.379c-0.179,0.883-0.54,1.868-1.082,2.936c-0.251,0.491-0.853,0.686-1.345,0.438
					c-0.492-0.25-0.688-0.853-0.438-1.345c1.218-2.396,1.146-3.749,0.714-4.181c-0.195-0.195-0.293-0.451-0.293-0.707
					s0.098-0.512,0.293-0.707c0.391-0.391,1.023-0.391,1.414,0l3.53,3.53c1.437,1.437,1.072,4.237-0.999,7.683
					c-0.123,0.209-0.259,0.421-0.402,0.645l-0.063,0.099c-1.015,1.544-2.338,3.15-3.832,4.655c-2.354,2.354-4.921,4.227-7.23,5.275
					C79.705,97.377,78.523,97.675,77.527,97.676z"/>
			</g>
		</g>
	</g>
	<g>
		<g>
			<g>
				<path d="M61.616,81.766c-0.981,0-1.784-0.289-2.363-0.868c-0.391-0.391-0.391-1.023,0-1.414s1.023-0.391,1.414,0
					c0.503,0.503,1.922,0.333,3.616-0.435c2.097-0.953,4.454-2.681,6.64-4.866c4.742-4.753,6.307-9.249,5.3-10.256
					c-0.391-0.391-0.391-1.023,0-1.414s1.023-0.391,1.414,0c2.549,2.549-0.736,8.511-5.299,13.083
					c-2.352,2.352-4.918,4.225-7.229,5.273C63.794,81.467,62.613,81.766,61.616,81.766z"/>
			</g>
		</g>
	</g>
	<g>
		<g>
			<path d="M109.812,91.446c-0.256,0-0.512-0.098-0.707-0.293L76.578,58.627c-0.188-0.188-0.293-0.441-0.293-0.707
				s0.105-0.52,0.293-0.707l2.121-2.121c0.391-0.391,1.023-0.391,1.414,0l32.527,32.526c0.188,0.188,0.293,0.441,0.293,0.707
				s-0.105,0.52-0.293,0.707l-2.121,2.121C110.324,91.349,110.068,91.446,109.812,91.446z M78.699,57.92l31.113,31.112l0.707-0.707
				L79.406,57.213L78.699,57.92z"/>
		</g>
	</g>
	<g>
		<g>
			<path d="M107.775,80.034c-0.275,0-0.551-0.113-0.748-0.336l-11.115-12.53c-0.366-0.414-0.329-1.046,0.084-1.412
				c0.412-0.366,1.045-0.331,1.412,0.084l11.115,12.53c0.366,0.414,0.329,1.046-0.084,1.412
				C108.249,79.951,108.012,80.034,107.775,80.034z"/>
		</g>
	</g>
	<g>
		<g>
			<path d="M114.098,87.162c-0.275,0-0.551-0.113-0.748-0.337l-3.091-3.486c-0.366-0.413-0.328-1.045,0.085-1.411
				c0.411-0.366,1.044-0.331,1.411,0.085l3.091,3.486c0.366,0.413,0.328,1.045-0.085,1.411
				C114.57,87.079,114.334,87.162,114.098,87.162z"/>
		</g>
	</g>
	<g>
		<g>
			<path d="M91.533,61.713c-0.275,0-0.551-0.113-0.748-0.336l-7.347-8.28c-0.366-0.413-0.329-1.046,0.084-1.412
				c0.412-0.366,1.045-0.33,1.412,0.084l7.347,8.28c0.366,0.413,0.329,1.046-0.084,1.412C92.007,61.63,91.77,61.713,91.533,61.713z"
				/>
		</g>
	</g>
	<g>
		<g>
			<path d="M101.06,65.92c-0.299,0-0.595-0.133-0.792-0.388l-8.09-10.451c-0.338-0.437-0.258-1.065,0.179-1.403
				c0.438-0.337,1.065-0.259,1.403,0.179l8.09,10.451c0.338,0.437,0.258,1.065-0.179,1.403
				C101.488,65.852,101.273,65.92,101.06,65.92z"/>
		</g>
	</g>
	<g>
		<g>
			<path d="M111.865,79.897c-0.254,0-0.508-0.097-0.702-0.291c-0.03-0.03-0.065-0.068-0.091-0.103l-6.979-9.029
				c-0.338-0.437-0.258-1.064,0.18-1.402c0.437-0.338,1.064-0.258,1.402,0.18l6.972,9.019c0.312,0.393,0.291,0.97-0.072,1.333
				C112.378,79.799,112.121,79.897,111.865,79.897z"/>
		</g>
	</g>
	<g>
		<g>
			<path d="M106.44,65.771c-0.317,0-0.629-0.15-0.823-0.431l-1.754-2.531c-0.314-0.454-0.201-1.077,0.253-1.392
				c0.454-0.315,1.076-0.201,1.392,0.253l1.754,2.531c0.314,0.454,0.201,1.077-0.253,1.392
				C106.835,65.714,106.637,65.771,106.44,65.771z"/>
		</g>
	</g>
	<g>
		<g>
			<path d="M98.882,54.818c-0.317,0-0.63-0.15-0.824-0.432l-6.569-9.511c-0.313-0.454-0.199-1.077,0.255-1.392
				c0.454-0.312,1.077-0.2,1.392,0.255l6.569,9.511c0.313,0.454,0.199,1.077-0.255,1.392C99.275,54.761,99.078,54.818,98.882,54.818
				z"/>
		</g>
	</g>
	<g>
		<g>
			<path d="M111.93,89.33c-0.266,0-0.52-0.105-0.707-0.293l-31.819-31.82c-0.188-0.188-0.293-0.441-0.293-0.707
				c0-0.061,0.006-0.131,0.017-0.189l0.63-3.44c0.1-0.543,0.623-0.905,1.163-0.804c0.544,0.1,0.903,0.62,0.804,1.163l-0.537,2.933
				l30.743,30.744l7.073-7.073c0.391-0.391,1.023-0.391,1.414,0s0.391,1.023,0,1.414l-7.78,7.78
				C112.449,89.225,112.195,89.33,111.93,89.33z"/>
		</g>
	</g>
	<g>
		<g>
			<path d="M84.799,49.99c-0.475,0-0.896-0.339-0.983-0.823c-0.098-0.543,0.264-1.063,0.808-1.161l2.766-0.497l0.497-2.766
				c0.074-0.412,0.397-0.734,0.81-0.808l2.753-0.489l0.497-2.763c0.074-0.412,0.396-0.734,0.809-0.808l3.141-0.561
				c0.545-0.094,1.064,0.265,1.16,0.809c0.097,0.544-0.265,1.063-0.809,1.16l-2.455,0.438l-0.497,2.764
				c-0.074,0.412-0.397,0.734-0.81,0.808l-2.753,0.489l-0.497,2.764c-0.074,0.411-0.396,0.733-0.808,0.808l-3.45,0.62
				C84.917,49.985,84.857,49.99,84.799,49.99z"/>
		</g>
	</g>
	<g>
		<g>
			<path d="M118.3,82.96c-0.049,0-0.098-0.004-0.147-0.011c-0.312-0.047-0.586-0.239-0.734-0.519l-22.63-42.419
				c-0.207-0.388-0.137-0.865,0.173-1.177l2.12-2.13c0.225-0.226,0.544-0.327,0.855-0.284c0.313,0.047,0.587,0.239,0.736,0.519
				l2.76,5.18c0.26,0.488,0.075,1.094-0.412,1.354c-0.49,0.258-1.094,0.074-1.354-0.412l-2.123-3.985L96.9,39.722l21.646,40.577
				l0.642-0.643l-13.44-25.195c-0.261-0.487-0.076-1.093,0.411-1.353c0.49-0.261,1.094-0.075,1.353,0.411l13.79,25.85
				c0.208,0.389,0.137,0.866-0.175,1.178l-2.12,2.12C118.818,82.856,118.563,82.96,118.3,82.96z"/>
		</g>
	</g>
	<g>
		<g>
			<path d="M104.681,51.32c-0.357,0-0.703-0.191-0.883-0.528l-2.149-4.021c-0.261-0.487-0.077-1.093,0.41-1.354
				c0.487-0.26,1.094-0.077,1.354,0.41l2.149,4.021c0.261,0.487,0.077,1.093-0.41,1.354C105.001,51.282,104.84,51.32,104.681,51.32z
				"/>
		</g>
	</g>
	<g>
		<g>
			<path d="M97.791,89.91c-0.768,0-1.536-0.293-2.121-0.878c0,0,0,0-0.001,0c-1.167-1.17-1.167-3.072,0-4.242l4.244-4.243
				c0.188-0.188,0.441-0.293,0.707-0.293l0,0c0.266,0,0.52,0.105,0.707,0.293l2.828,2.829c0.391,0.391,0.391,1.023,0,1.414
				l-4.242,4.242C99.328,89.617,98.56,89.91,97.791,89.91z M97.084,87.618c0.392,0.391,1.024,0.391,1.415,0l3.535-3.535
				l-1.414-1.415l-3.536,3.536C96.695,86.594,96.695,87.229,97.084,87.618z"/>
		</g>
	</g>
	<g>
		<g>
			<path d="M82.941,75.061c-0.768,0-1.536-0.292-2.12-0.877c-1.17-1.17-1.17-3.073,0-4.243l4.242-4.242
				c0.391-0.391,1.023-0.391,1.414,0l2.828,2.828c0.391,0.391,0.391,1.023,0,1.414l-4.242,4.243
				C84.479,74.769,83.71,75.061,82.941,75.061z M85.771,67.819l-3.535,3.535c-0.39,0.391-0.39,1.024,0,1.415
				c0.389,0.389,1.023,0.39,1.414-0.001l3.535-3.535L85.771,67.819z"/>
		</g>
	</g>
	<g>
		<g>
			<g>
				<path d="M19.594,51.102c-0.184,0-0.369-0.051-0.536-0.156c-0.466-0.297-0.604-0.915-0.307-1.381l1.4-2.201
					c0.296-0.465,0.913-0.602,1.381-0.307c0.466,0.297,0.604,0.915,0.307,1.381l-1.4,2.201
					C20.248,50.938,19.925,51.102,19.594,51.102z"/>
			</g>
		</g>
		<g>
			<g>
				<path d="M23.004,45.7c-0.184,0-0.369-0.051-0.535-0.156c-0.467-0.296-0.604-0.914-0.308-1.38l1.4-2.202
					c0.296-0.466,0.915-0.604,1.38-0.308c0.467,0.296,0.604,0.914,0.308,1.38l-1.4,2.202C23.658,45.536,23.335,45.7,23.004,45.7z"/>
			</g>
		</g>
		<g>
			<g>
				<path d="M20.405,46.291c-0.182,0-0.366-0.05-0.531-0.153l-2.214-1.393c-0.468-0.294-0.608-0.912-0.314-1.379
					c0.295-0.468,0.913-0.606,1.379-0.314l2.214,1.393c0.468,0.294,0.608,0.912,0.314,1.379
					C21.062,46.126,20.737,46.291,20.405,46.291z"/>
			</g>
		</g>
		<g>
			<g>
				<path d="M25.807,49.702c-0.182,0-0.366-0.05-0.532-0.153l-2.214-1.394c-0.467-0.295-0.607-0.912-0.313-1.379
					c0.295-0.468,0.912-0.607,1.379-0.314l2.214,1.394c0.468,0.295,0.608,0.912,0.314,1.379
					C26.464,49.537,26.139,49.702,25.807,49.702z"/>
			</g>
		</g>
	</g>
	<g>
		<g>
			<g>
				<path d="M99.812,28.831c-0.184,0-0.369-0.051-0.535-0.156c-0.467-0.296-0.604-0.914-0.308-1.38l1.4-2.202
					c0.296-0.466,0.915-0.604,1.38-0.308c0.467,0.296,0.604,0.914,0.308,1.38l-1.4,2.202
					C100.466,28.667,100.143,28.831,99.812,28.831z"/>
			</g>
		</g>
		<g>
			<g>
				<path d="M103.223,23.429c-0.184,0-0.369-0.051-0.536-0.156c-0.466-0.297-0.604-0.915-0.307-1.381l1.4-2.201
					c0.296-0.465,0.913-0.603,1.381-0.307c0.466,0.297,0.604,0.915,0.307,1.381l-1.4,2.201
					C103.877,23.265,103.554,23.429,103.223,23.429z"/>
			</g>
		</g>
		<g>
			<g>
				<path d="M100.623,24.021c-0.182,0-0.366-0.05-0.532-0.153l-2.214-1.394c-0.467-0.295-0.607-0.912-0.313-1.379
					c0.295-0.468,0.912-0.606,1.379-0.314l2.214,1.394c0.468,0.295,0.608,0.912,0.314,1.379
					C101.28,23.855,100.955,24.021,100.623,24.021z"/>
			</g>
		</g>
		<g>
			<g>
				<path d="M106.024,27.431c-0.182,0-0.366-0.05-0.531-0.153l-2.213-1.393c-0.468-0.295-0.608-0.912-0.314-1.379
					c0.295-0.469,0.913-0.606,1.379-0.314l2.213,1.393c0.468,0.295,0.608,0.912,0.314,1.379
					C106.682,27.266,106.356,27.431,106.024,27.431z"/>
			</g>
		</g>
	</g>
</g>
</svg>
