<?xml version="1.0" encoding="utf-8"?>
<!-- Generator: Adobe Illustrator 24.2.3, SVG Export Plug-In . SVG Version: 6.00 Build 0)  -->
<svg version="1.1" id="_x30_5" xmlns="http://www.w3.org/2000/svg" xmlns:xlink="http://www.w3.org/1999/xlink" x="0px" y="0px"
	 viewBox="0 0 128 128" style="enable-background:new 0 0 128 128;" xml:space="preserve">
<g>
	<g>
		<g>
			<g>
				<path d="M71,54H60.52c-0.553,0-1-0.448-1-1s0.447-1,1-1H70v-5h-5.62c-0.553,0-1-0.448-1-1s0.447-1,1-1H70c1.103,0,2,0.897,2,2v6
					C72,53.552,71.553,54,71,54z"/>
			</g>
		</g>
		<g>
			<g>
				<path d="M71,50h-5c-0.553,0-1-0.448-1-1s0.447-1,1-1h5c0.553,0,1,0.448,1,1S71.553,50,71,50z"/>
			</g>
		</g>
	</g>
	<g>
		<g>
			<g>
				<path d="M29.8,86.11c-0.173,0-0.346-0.045-0.501-0.134l-7.729-4.47c-0.309-0.179-0.499-0.509-0.499-0.866v-8.92
					c0-0.357,0.19-0.687,0.499-0.866l7.729-4.47c0.311-0.179,0.691-0.179,1.002,0l2.3,1.33c0.478,0.276,0.642,0.888,0.364,1.366
					c-0.276,0.478-0.887,0.641-1.366,0.365L29.8,68.405l-6.729,3.892v7.767l6.729,3.892l6.74-3.892v-7.767l-1.882-1.091
					c-0.478-0.277-0.641-0.889-0.363-1.367s0.887-0.641,1.367-0.363l2.38,1.38c0.309,0.179,0.498,0.509,0.498,0.865v8.92
					c0,0.357-0.19,0.688-0.5,0.866l-7.74,4.47C30.146,86.065,29.973,86.11,29.8,86.11z"/>
			</g>
		</g>
		<g>
			<g>
				<path d="M26.073,75.025c-0.346,0-0.682-0.179-0.867-0.5c-0.276-0.478-0.112-1.09,0.366-1.366l3.731-2.155
					c0.477-0.276,1.09-0.113,1.366,0.366c0.276,0.478,0.112,1.09-0.366,1.366l-3.731,2.155
					C26.415,74.982,26.243,75.025,26.073,75.025z"/>
			</g>
		</g>
		<g>
			<g>
				<path d="M37.54,99.5c-0.173,0-0.345-0.044-0.499-0.134l-7.74-4.46c-0.31-0.178-0.501-0.509-0.501-0.866v-8.93
					c0-0.357,0.19-0.688,0.5-0.866l7.74-4.47c0.309-0.179,0.692-0.179,1.001,0.001l0.69,0.4c0.479,0.277,0.642,0.889,0.364,1.366
					c-0.277,0.478-0.892,0.64-1.366,0.364l-0.19-0.11L30.8,85.687v7.775l6.74,3.884l6.729-3.883v-7.776l-3.131-1.811
					c-0.478-0.277-0.642-0.889-0.364-1.367c0.275-0.478,0.886-0.643,1.366-0.365l3.63,2.1c0.309,0.179,0.499,0.509,0.499,0.866v8.93
					c0,0.357-0.19,0.688-0.5,0.866l-7.729,4.46C37.885,99.456,37.713,99.5,37.54,99.5z"/>
			</g>
		</g>
		<g>
			<g>
				<path d="M33.805,88.417c-0.346,0-0.682-0.179-0.867-0.5c-0.276-0.478-0.112-1.09,0.366-1.366l3.732-2.155
					c0.477-0.277,1.089-0.113,1.366,0.366c0.276,0.478,0.112,1.09-0.366,1.366l-3.732,2.155
					C34.146,88.375,33.975,88.417,33.805,88.417z"/>
			</g>
		</g>
		<g>
			<g>
				<path d="M38.229,82.04c-0.17,0-0.343-0.043-0.5-0.135l-0.69-0.4c-0.309-0.179-0.499-0.508-0.499-0.865v-8.92
					c0-0.357,0.19-0.687,0.499-0.866l7.729-4.47c0.309-0.178,0.687-0.18,0.997-0.002l0.351,0.2c0.479,0.273,0.646,0.884,0.372,1.364
					c-0.243,0.425-0.752,0.605-1.199,0.448l-6.749,3.903v7.767l0.191,0.111c0.479,0.277,0.642,0.889,0.364,1.366
					C38.91,81.861,38.574,82.04,38.229,82.04z"/>
			</g>
		</g>
		<g>
			<g>
				<path d="M45.27,86.11c-0.173,0-0.346-0.045-0.501-0.134l-3.63-2.1c-0.478-0.277-0.642-0.889-0.364-1.367
					c0.275-0.478,0.886-0.643,1.366-0.365l3.129,1.811l5.23-3.021c0.477-0.278,1.089-0.113,1.366,0.366
					c0.276,0.478,0.112,1.09-0.366,1.366l-5.73,3.31C45.615,86.065,45.442,86.11,45.27,86.11z"/>
			</g>
		</g>
		<g>
			<g>
				<path d="M41.541,75.02c-0.345,0-0.68-0.178-0.865-0.497c-0.277-0.477-0.116-1.089,0.361-1.367l0.79-0.46
					c0.477-0.279,1.09-0.117,1.367,0.361c0.277,0.477,0.116,1.089-0.361,1.367l-0.79,0.46C41.885,74.977,41.712,75.02,41.541,75.02z
					"/>
			</g>
		</g>
	</g>
	<g>
		<g>
			<path d="M72.09,111H55c-2.757,0-5-2.243-5-5V66.94c0-0.552,0.447-1,1-1s1,0.448,1,1V106c0,1.654,1.346,3,3,3h17.09
				c0.553,0,1,0.448,1,1S72.643,111,72.09,111z"/>
		</g>
	</g>
	<g>
		<g>
			<path d="M77,85.94c-0.553,0-1-0.448-1-1V65c0-1.97-0.723-3.86-2.034-5.322l-1.002-1.122c-0.367-0.412-0.332-1.044,0.08-1.412
				c0.41-0.368,1.043-0.333,1.412,0.08l1,1.12C77.096,60.172,78,62.537,78,65v19.94C78,85.492,77.553,85.94,77,85.94z"/>
		</g>
	</g>
	<g>
		<g>
			<g>
				<path d="M64,86.86c-0.173,0-0.346-0.045-0.501-0.134l-7.73-4.47c-0.309-0.179-0.499-0.509-0.499-0.866v-8.93
					c0-0.357,0.19-0.688,0.501-0.866l1.891-1.09c0.479-0.277,1.091-0.112,1.365,0.367c0.276,0.479,0.111,1.09-0.367,1.366
					l-1.39,0.801v7.775L64,84.705l6.73-3.892v-7.775l-6.731-3.884l-1.361,0.783c-0.478,0.275-1.089,0.111-1.365-0.368
					c-0.275-0.479-0.11-1.09,0.369-1.365l1.86-1.07c0.31-0.179,0.688-0.178,0.998,0l7.73,4.46c0.31,0.179,0.5,0.509,0.5,0.866v8.93
					c0,0.357-0.19,0.687-0.499,0.866l-7.73,4.47C64.346,86.815,64.173,86.86,64,86.86z"/>
			</g>
		</g>
		<g>
			<g>
				<path d="M59.27,77.85c-0.553,0-1-0.448-1-1V74.2c0-0.356,0.189-0.686,0.497-0.865l2.771-1.61
					c0.477-0.277,1.089-0.116,1.367,0.362c0.278,0.478,0.116,1.089-0.361,1.367l-2.273,1.321v2.075
					C60.27,77.402,59.822,77.85,59.27,77.85z"/>
			</g>
		</g>
	</g>
	<g>
		<g>
			<g>
				<path d="M67.49,97H55c-0.553,0-1-0.448-1-1v-5c0-0.552,0.447-1,1-1h15.06c0.553,0,1,0.448,1,1s-0.447,1-1,1H56v3h11.49
					c0.553,0,1,0.448,1,1S68.043,97,67.49,97z"/>
			</g>
		</g>
	</g>
	<g>
		<g>
			<g>
				<path d="M106.629,60.26c-0.463,0-0.879-0.324-0.978-0.795c-0.113-0.541,0.233-1.071,0.773-1.184
					c0.559-0.117,1.133-0.333,1.661-0.625c1.762-0.975,2.46-2.378,2.166-2.917c-0.294-0.532-1.853-0.689-3.618,0.286
					c-0.257,0.145-0.522,0.319-0.783,0.515c-0.44,0.331-1.069,0.244-1.4-0.199c-0.331-0.442-0.242-1.069,0.199-1.4
					c0.33-0.248,0.671-0.471,1.011-0.662c2.609-1.443,5.393-1.222,6.345,0.497c0.94,1.725-0.356,4.195-2.951,5.629
					c-0.699,0.388-1.467,0.676-2.219,0.833C106.766,60.253,106.697,60.26,106.629,60.26z"/>
			</g>
		</g>
		<g>
			<g>
				<path d="M93.509,53.75c-0.459,0-0.873-0.318-0.976-0.785c-0.208-0.944-0.612-1.588-1.111-1.767
					c-0.482-0.175-0.988,0.138-1.246,0.339c-0.434,0.341-1.062,0.265-1.403-0.17s-0.265-1.063,0.171-1.404
					c0.99-0.776,2.139-1.011,3.155-0.647c1.176,0.423,2.024,1.566,2.388,3.22c0.119,0.54-0.223,1.073-0.762,1.191
					C93.652,53.743,93.58,53.75,93.509,53.75z"/>
			</g>
		</g>
		<g>
			<g>
				<path d="M104.57,64.13c-0.453,0-0.885-0.097-1.283-0.289l-7.231-3.396c-1.267-0.604-1.944-1.978-1.654-3.343
					c0.081-0.378,0.372-0.676,0.749-0.765c0.448-0.106,0.818-0.406,1.016-0.824c0.081-0.169,0.129-0.354,0.135-0.516
					c0.012-0.364,0.221-0.694,0.546-0.859c0.835-0.423,1.769-0.643,2.682-0.542c0.549,0.06,0.945,0.553,0.886,1.102
					c-0.06,0.549-0.552,0.941-1.103,0.886c-0.054-0.006-0.107-0.004-0.161-0.004c-0.322,0-0.639,0.051-0.946,0.153
					c-0.056,0.219-0.134,0.435-0.232,0.641c-0.339,0.717-0.901,1.287-1.597,1.633c0.077,0.27,0.268,0.502,0.536,0.63l7.233,3.397
					c0.487,0.234,1.102,0.011,1.329-0.477c0.343-0.73,0.383-1.545,0.112-2.298c-0.27-0.753-0.817-1.354-1.542-1.695l-0.635-0.303
					c-0.498-0.238-0.71-0.834-0.472-1.333c0.236-0.498,0.829-0.71,1.333-0.473l0.63,0.3c1.204,0.566,2.118,1.571,2.568,2.828
					c0.45,1.255,0.385,2.611-0.184,3.82C106.798,63.452,105.731,64.13,104.57,64.13z"/>
			</g>
		</g>
		<g>
			<g>
				<path d="M99.24,61.831c-0.115,0-0.231-0.02-0.346-0.062c-0.519-0.191-0.783-0.766-0.593-1.284
					c0.411-1.115,0.937-2.145,1.563-3.059c0.312-0.456,0.935-0.572,1.391-0.26c0.455,0.312,0.571,0.935,0.26,1.39
					c-0.533,0.779-0.983,1.661-1.337,2.621C100.029,61.58,99.647,61.831,99.24,61.831z"/>
			</g>
		</g>
		<g>
			<g>
				<path d="M100.543,58.996c-0.625,0-1.187-0.181-1.636-0.562c-1.521-1.291-1.002-4.231,1.209-6.841
					c0.961-1.135,2.102-2.022,3.213-2.497c1.337-0.573,2.521-0.508,3.335,0.182c0.813,0.689,1.072,1.847,0.728,3.26
					c-0.286,1.174-0.974,2.445-1.936,3.581C103.897,57.958,102.038,58.996,100.543,58.996z M105.019,50.711
					c-0.224,0-0.53,0.064-0.902,0.224c-0.819,0.35-1.721,1.062-2.475,1.951c-1.604,1.894-1.845,3.68-1.441,4.022
					c0.408,0.342,2.127-0.191,3.73-2.083c0.754-0.89,1.307-1.896,1.518-2.761c0.167-0.684,0.082-1.126-0.077-1.26
					C105.304,50.747,105.184,50.711,105.019,50.711z"/>
			</g>
		</g>
		<g>
			<g>
				<path d="M96.109,63.653c-0.024,0-0.049-0.001-0.074-0.003c-0.541-0.042-0.952-0.486-0.924-1.028
					c0.048-0.889,0.887-2.393,1.898-2.998c0.572-0.342,1.18-0.393,1.709-0.143c0.5,0.235,0.714,0.831,0.479,1.331
					c-0.212,0.449-0.715,0.672-1.181,0.536c-0.338,0.195-0.874,1.04-0.909,1.384C97.057,63.248,96.619,63.653,96.109,63.653z"/>
			</g>
		</g>
		<g>
			<g>
				<path d="M98.925,64.978c-0.024,0-0.049-0.001-0.074-0.003c-0.541-0.042-0.952-0.486-0.924-1.028
					c0.048-0.889,0.887-2.392,1.898-2.998c0.571-0.341,1.178-0.393,1.708-0.144c0.5,0.235,0.715,0.831,0.48,1.331
					c-0.213,0.45-0.714,0.671-1.181,0.536c-0.338,0.195-0.874,1.04-0.909,1.384C99.872,64.572,99.436,64.978,98.925,64.978z"/>
			</g>
		</g>
		<g>
			<g>
				<path d="M94.805,58.379c-0.511,0-1.022-0.113-1.491-0.334c-1.737-0.82-2.491-2.909-1.681-4.655
					c0.305-0.638,0.777-1.154,1.371-1.502c0.975-0.608,2.215-0.677,3.29-0.173c1.284,0.595,2.091,1.952,2.004,3.376
					c-0.033,0.551-0.479,0.981-1.06,0.937c-0.551-0.034-0.971-0.508-0.937-1.059c0.037-0.609-0.305-1.188-0.852-1.441
					c-0.466-0.218-0.991-0.19-1.411,0.071c-0.271,0.159-0.47,0.376-0.597,0.643c-0.345,0.743-0.021,1.642,0.725,1.995
					c0.308,0.146,0.656,0.182,0.975,0.103c0.536-0.133,1.078,0.197,1.21,0.733c0.131,0.536-0.197,1.078-0.733,1.209
					C95.351,58.347,95.077,58.379,94.805,58.379z"/>
			</g>
		</g>
	</g>
	<g>
		<g>
			<g>
				<path d="M24.651,37.85c-0.068,0-0.137-0.007-0.206-0.021c-0.75-0.157-1.518-0.445-2.22-0.833
					c-2.594-1.434-3.892-3.904-2.953-5.624c0.954-1.725,3.738-1.945,6.342-0.506c0.342,0.192,0.682,0.415,1.016,0.665
					c0.442,0.331,0.532,0.958,0.201,1.4c-0.331,0.441-0.957,0.533-1.4,0.201c-0.264-0.198-0.529-0.372-0.79-0.518
					c-1.76-0.973-3.318-0.815-3.615-0.278c-0.291,0.533,0.406,1.937,2.168,2.911c0.53,0.293,1.104,0.509,1.662,0.626
					c0.54,0.113,0.887,0.644,0.773,1.184C25.53,37.526,25.114,37.85,24.651,37.85z"/>
			</g>
		</g>
		<g>
			<g>
				<path d="M37.771,31.34c-0.071,0-0.144-0.007-0.216-0.023c-0.54-0.119-0.881-0.652-0.762-1.191
					c0.364-1.654,1.213-2.798,2.39-3.22c1.013-0.365,2.163-0.128,3.154,0.648c0.435,0.341,0.511,0.969,0.17,1.404
					c-0.341,0.435-0.969,0.512-1.404,0.17c-0.257-0.202-0.763-0.516-1.244-0.34c-0.499,0.179-0.904,0.823-1.112,1.768
					C38.644,31.022,38.229,31.34,37.771,31.34z"/>
			</g>
		</g>
		<g>
			<g>
				<path d="M33.979,33.62c-0.154,0-0.312-0.036-0.459-0.112c-0.448-0.231-0.905-0.338-1.452-0.339
					c-0.031,0-0.064,0.001-0.095,0.004c-0.554,0.062-1.045-0.333-1.106-0.88c-0.063-0.549,0.331-1.044,0.88-1.107
					c0.923-0.102,1.869,0.119,2.693,0.545c0.49,0.254,0.682,0.857,0.428,1.348C34.69,33.423,34.342,33.62,33.979,33.62z"/>
			</g>
		</g>
		<g>
			<g>
				<path d="M26.71,41.72c-1.161,0-2.228-0.678-2.716-1.729c-0.499-1.043-0.61-2.252-0.312-3.395
					c0.382-1.447,1.367-2.632,2.705-3.253l0.623-0.296c0.499-0.238,1.096-0.024,1.333,0.474c0.237,0.499,0.024,1.095-0.474,1.333
					l-0.631,0.3c-0.805,0.374-1.394,1.084-1.622,1.952c-0.179,0.685-0.113,1.407,0.186,2.034c0.233,0.5,0.874,0.709,1.321,0.49
					l7.25-3.414c0.421-0.196,0.65-0.655,0.551-1.095C34.908,35.048,34.9,34.974,34.9,34.9c0-0.552,0.447-1.005,1-1.005
					c0.504,0,0.92,0.368,0.99,0.852c0.268,1.331-0.426,2.702-1.669,3.28l-7.236,3.408C27.597,41.623,27.164,41.72,26.71,41.72z"/>
			</g>
		</g>
		<g>
			<g>
				<path d="M32.04,39.42c-0.408,0-0.791-0.252-0.939-0.657c-0.347-0.949-0.796-1.83-1.336-2.618
					c-0.312-0.456-0.195-1.078,0.26-1.39c0.457-0.312,1.078-0.195,1.391,0.26c0.634,0.926,1.16,1.956,1.564,3.062
					c0.189,0.519-0.078,1.093-0.597,1.283C32.27,39.4,32.154,39.42,32.04,39.42z"/>
			</g>
		</g>
		<g>
			<g>
				<path d="M30.736,36.585c-1.495,0-3.354-1.038-4.913-2.877c-0.962-1.135-1.649-2.407-1.936-3.581
					c-0.345-1.413-0.086-2.571,0.728-3.26c1.523-1.289,4.339-0.293,6.549,2.316c0.962,1.135,1.649,2.407,1.936,3.581
					c0.345,1.413,0.086,2.571-0.728,3.26C31.923,36.404,31.361,36.585,30.736,36.585z M26.261,28.296
					c-0.157,0-0.277,0.033-0.353,0.097c-0.159,0.134-0.244,0.576-0.077,1.26c0.211,0.865,0.764,1.872,1.518,2.761
					c1.604,1.893,3.328,2.428,3.73,2.083c0.159-0.134,0.244-0.576,0.077-1.26c-0.211-0.865-0.764-1.872-1.518-2.761
					C28.333,28.935,26.948,28.296,26.261,28.296z"/>
			</g>
		</g>
		<g>
			<g>
				<path d="M35.168,41.265c-0.527,0-0.968-0.412-0.997-0.944c-0.036-0.345-0.571-1.188-0.908-1.383
					c-0.466,0.137-0.968-0.085-1.18-0.536c-0.235-0.5-0.021-1.095,0.479-1.331c0.529-0.25,1.137-0.2,1.707,0.143
					c1.013,0.605,1.852,2.108,1.899,2.998c0.028,0.551-0.395,1.022-0.946,1.051C35.204,41.264,35.186,41.265,35.168,41.265z"/>
			</g>
		</g>
		<g>
			<g>
				<path d="M32.353,42.589c-0.527,0-0.969-0.413-0.997-0.946c-0.036-0.345-0.571-1.187-0.908-1.382
					c-0.469,0.136-0.969-0.086-1.181-0.536c-0.234-0.5-0.021-1.096,0.479-1.331c0.53-0.25,1.138-0.199,1.709,0.144
					c1.013,0.607,1.852,2.11,1.897,2.999c0.028,0.552-0.396,1.022-0.947,1.05C32.388,42.589,32.37,42.589,32.353,42.589z"/>
			</g>
		</g>
		<g>
			<g>
				<path d="M36.477,35.969c-0.4,0-0.801-0.069-1.188-0.208c-0.88-0.317-1.583-0.958-1.98-1.803h-0.001
					c-0.397-0.846-0.442-1.796-0.126-2.676s0.957-1.583,1.803-1.981c1.747-0.82,3.837-0.07,4.658,1.677
					c0.82,1.747,0.067,3.836-1.678,4.657C37.49,35.857,36.984,35.969,36.477,35.969z M36.472,30.968
					c-0.214,0-0.431,0.046-0.637,0.143c-0.362,0.17-0.637,0.472-0.772,0.849c-0.136,0.377-0.116,0.785,0.055,1.147v0
					c0.17,0.362,0.472,0.637,0.849,0.772c0.375,0.134,0.783,0.117,1.146-0.054c0.748-0.352,1.07-1.248,0.719-1.997
					C37.576,31.286,37.035,30.968,36.472,30.968z"/>
			</g>
		</g>
	</g>
	<g>
		<g>
			<path d="M73.06,59H57.77c-0.553,0-1-0.448-1-1s0.447-1,1-1h15.29c0.519,0,0.94-0.422,0.94-0.94v-1.12
				c0-0.518-0.422-0.94-0.94-0.94H60.52c-0.553,0-1-0.448-1-1s0.447-1,1-1h12.54c1.621,0,2.94,1.319,2.94,2.94v1.12
				C76,57.681,74.681,59,73.06,59z"/>
		</g>
	</g>
	<g>
		<g>
			<g>
				<g>
					<path d="M72.235,43.109c-0.163,0-0.329-0.04-0.481-0.125l-15.763-8.691c-0.484-0.267-0.66-0.875-0.394-1.358l4.346-7.881
						c0.387-0.702,1.024-1.211,1.794-1.434c0.769-0.222,1.579-0.133,2.282,0.255l12.259,6.76c0.702,0.386,1.212,1.023,1.435,1.793
						s0.132,1.58-0.255,2.282l-4.346,7.881C72.93,42.922,72.588,43.109,72.235,43.109z M57.832,33.024l14.012,7.726l3.862-7.006
						c0.129-0.234,0.159-0.504,0.085-0.761c-0.074-0.256-0.244-0.469-0.478-0.598l-12.26-6.76c-0.235-0.129-0.507-0.158-0.761-0.085
						c-0.257,0.074-0.469,0.244-0.598,0.478L57.832,33.024z"/>
				</g>
			</g>
			<g>
				<g>
					<path d="M73.169,31.062c-0.167,0-0.334-0.042-0.482-0.125l-7.006-3.863c-0.232-0.128-0.404-0.343-0.479-0.598
						c-0.073-0.255-0.043-0.528,0.085-0.761l4.829-8.757c0.645-1.169,1.706-2.018,2.989-2.389c1.283-0.37,2.633-0.22,3.804,0.425
						c1.169,0.645,2.018,1.706,2.389,2.989s0.22,2.634-0.425,3.803l-4.828,8.757c-0.128,0.232-0.344,0.404-0.599,0.478
						C73.355,31.048,73.262,31.062,73.169,31.062z M67.521,25.806l5.255,2.897l4.345-7.881c0.388-0.702,0.479-1.512,0.256-2.282
						c-0.223-0.77-0.732-1.407-1.434-1.793c0,0,0,0-0.001,0c-0.702-0.388-1.514-0.476-2.281-0.255
						c-0.77,0.223-1.406,0.732-1.793,1.434L67.521,25.806z"/>
				</g>
			</g>
			<g>
				<g>
					<path d="M40.295,84.628c-0.464,0-0.922-0.117-1.339-0.347l-0.386-0.212c-1.342-0.74-1.831-2.434-1.092-3.776l6.323-11.469
						c1.282-2.325,2.276-4.804,2.956-7.369c0.721-2.723,1.777-5.355,3.138-7.824l10.08-18.282c0.268-0.483,0.876-0.66,1.358-0.393
						l7.006,3.863c0.484,0.267,0.66,0.875,0.394,1.358l-10.08,18.282c-1.361,2.468-3.023,4.765-4.942,6.829
						c-1.808,1.944-3.373,4.108-4.654,6.432l-6.324,11.47c-0.358,0.65-0.948,1.122-1.662,1.328
						C40.814,84.592,40.554,84.628,40.295,84.628z M61.244,37.19l-9.597,17.406c-1.282,2.326-2.277,4.805-2.956,7.37
						c-0.722,2.724-1.777,5.355-3.138,7.823L39.23,81.258c-0.208,0.376-0.07,0.852,0.306,1.059l0.386,0.212
						c0.183,0.101,0.391,0.125,0.594,0.066c0.199-0.058,0.364-0.189,0.465-0.372l6.324-11.47c1.36-2.467,3.022-4.764,4.941-6.828
						c1.808-1.944,3.374-4.108,4.655-6.433l9.598-17.406L61.244,37.19z"/>
				</g>
			</g>
			<g>
				<g>
					<path d="M54.22,57.14c-0.264,0-0.527-0.104-0.724-0.31c-0.32-0.335-0.361-0.836-0.129-1.214
						c0.054-0.095,0.256-0.462,0.563-1.023l1.944-3.528c0.269-0.483,0.874-0.659,1.359-0.391c0.482,0.267,0.658,0.875,0.391,1.359
						l-1.941,3.523c-0.657,1.195-0.657,1.195-0.773,1.306C54.717,57.048,54.468,57.14,54.22,57.14z"/>
				</g>
			</g>
		</g>
		<g>
			<g>
				<path d="M59.976,36.349c-0.163,0-0.329-0.04-0.481-0.125c-0.484-0.267-0.66-0.875-0.394-1.358l0.966-1.751
					c0.267-0.483,0.876-0.659,1.358-0.393c0.484,0.267,0.66,0.875,0.394,1.358l-0.966,1.751
					C60.67,36.162,60.328,36.349,59.976,36.349z"/>
			</g>
		</g>
		<g>
			<g>
				<path d="M69.968,32.723c-0.163,0-0.329-0.04-0.482-0.125c-0.483-0.267-0.659-0.875-0.393-1.358l1.449-2.627
					c0.267-0.484,0.875-0.66,1.359-0.393c0.483,0.267,0.659,0.875,0.393,1.358l-1.449,2.627
					C70.662,32.537,70.32,32.723,69.968,32.723z"/>
			</g>
		</g>
		<g>
			<g>
				<path d="M64.23,30.702c-0.163,0-0.329-0.04-0.481-0.125c-0.484-0.267-0.66-0.875-0.394-1.358l1.932-3.503
					c0.268-0.483,0.877-0.66,1.358-0.393c0.484,0.267,0.66,0.875,0.394,1.358l-1.932,3.503
					C64.925,30.515,64.583,30.702,64.23,30.702z"/>
			</g>
		</g>
		<g>
			<g>
				<path d="M63.479,38.28c-0.163,0-0.329-0.04-0.481-0.124c-0.484-0.267-0.66-0.875-0.394-1.359l1.931-3.503
					c0.267-0.483,0.876-0.659,1.358-0.393c0.484,0.267,0.66,0.875,0.394,1.359l-1.931,3.503
					C64.173,38.094,63.831,38.28,63.479,38.28z"/>
			</g>
		</g>
		<g>
			<g>
				<path d="M68.732,41.177c-0.163,0-0.329-0.04-0.481-0.125c-0.484-0.267-0.66-0.875-0.394-1.358l2.414-4.378
					c0.267-0.483,0.877-0.659,1.358-0.393c0.484,0.267,0.66,0.875,0.394,1.358l-2.414,4.378
					C69.427,40.991,69.085,41.177,68.732,41.177z"/>
			</g>
		</g>
	</g>
	<g>
		<g>
			<g>
				<path d="M96.973,26.181c-0.184,0-0.369-0.05-0.536-0.156c-0.466-0.296-0.604-0.915-0.307-1.38l1.4-2.202
					c0.296-0.466,0.913-0.604,1.381-0.307c0.466,0.296,0.604,0.915,0.307,1.38l-1.4,2.202
					C97.627,26.017,97.304,26.181,96.973,26.181z"/>
			</g>
		</g>
		<g>
			<g>
				<path d="M100.384,20.779c-0.184,0-0.369-0.05-0.536-0.156c-0.466-0.296-0.604-0.915-0.307-1.38l1.4-2.202
					c0.296-0.466,0.913-0.604,1.381-0.307c0.466,0.296,0.604,0.915,0.307,1.38l-1.4,2.202
					C101.038,20.615,100.715,20.779,100.384,20.779z"/>
			</g>
		</g>
		<g>
			<g>
				<path d="M97.784,21.37c-0.182,0-0.366-0.049-0.532-0.154l-2.213-1.393c-0.467-0.294-0.607-0.912-0.313-1.379
					c0.295-0.466,0.911-0.608,1.38-0.313l2.213,1.393c0.467,0.294,0.607,0.912,0.313,1.379C98.441,21.205,98.116,21.37,97.784,21.37
					z"/>
			</g>
		</g>
		<g>
			<g>
				<path d="M103.187,24.781c-0.182,0-0.366-0.049-0.531-0.154l-2.214-1.393c-0.468-0.294-0.608-0.911-0.314-1.379
					c0.295-0.466,0.913-0.607,1.379-0.313l2.214,1.393c0.468,0.294,0.608,0.911,0.314,1.379
					C103.844,24.615,103.519,24.781,103.187,24.781z"/>
			</g>
		</g>
	</g>
	<g>
		<g>
			<g>
				<path d="M22.512,118.768c-0.184,0-0.369-0.05-0.536-0.156c-0.466-0.296-0.604-0.915-0.307-1.38l1.4-2.202
					c0.296-0.466,0.913-0.605,1.381-0.307c0.466,0.296,0.604,0.915,0.307,1.38l-1.4,2.202
					C23.166,118.604,22.843,118.768,22.512,118.768z"/>
			</g>
		</g>
		<g>
			<g>
				<path d="M25.923,113.366c-0.184,0-0.369-0.05-0.536-0.156c-0.466-0.296-0.604-0.915-0.307-1.38l1.4-2.202
					c0.296-0.467,0.913-0.604,1.381-0.307c0.466,0.296,0.604,0.915,0.307,1.38l-1.4,2.202
					C26.577,113.202,26.254,113.366,25.923,113.366z"/>
			</g>
		</g>
		<g>
			<g>
				<path d="M23.323,113.957c-0.182,0-0.366-0.049-0.532-0.154l-2.213-1.393c-0.467-0.294-0.607-0.912-0.313-1.379
					c0.295-0.466,0.911-0.608,1.38-0.313l2.213,1.393c0.467,0.294,0.607,0.912,0.313,1.379
					C23.98,113.792,23.655,113.957,23.323,113.957z"/>
			</g>
		</g>
		<g>
			<g>
				<path d="M28.726,117.368c-0.182,0-0.366-0.049-0.531-0.154l-2.214-1.393c-0.468-0.294-0.608-0.911-0.314-1.379
					c0.295-0.467,0.913-0.608,1.379-0.313l2.214,1.393c0.468,0.294,0.608,0.911,0.314,1.379
					C29.383,117.202,29.058,117.368,28.726,117.368z"/>
			</g>
		</g>
	</g>
	<g>
		<g>
			<g>
				<path d="M75.809,97.23c-0.159,0-0.32-0.038-0.471-0.119c-7.679-4.111-7.105-8.825-6.747-10.172
					c0.66-2.481,2.923-4.166,5.482-4.09c1.394,0.04,6.079,0.833,7.836,9.37c0.111,0.541-0.237,1.07-0.778,1.181
					c-0.537,0.112-1.069-0.238-1.181-0.778c-0.985-4.79-3.204-7.696-5.935-7.773c-1.612-0.03-3.071,1.025-3.492,2.605
					c-0.701,2.637,1.451,5.588,5.758,7.895c0.487,0.26,0.671,0.867,0.41,1.354C76.511,97.039,76.166,97.23,75.809,97.23z"/>
			</g>
		</g>
		<g>
			<g>
				<path d="M76.576,116.521c-1.984,0-3.852-1.075-4.834-2.895c-0.662-1.227-2.317-5.679,4.193-11.463
					c0.412-0.368,1.043-0.331,1.412,0.083c0.366,0.413,0.329,1.045-0.084,1.412c-3.652,3.245-5.059,6.616-3.762,9.018
					c0.777,1.439,2.424,2.148,4.002,1.721c2.636-0.712,4.115-4.055,3.957-8.944c-0.019-0.552,0.415-1.014,0.967-1.032
					c0.507-0.027,1.015,0.415,1.031,0.967c0.282,8.713-4.088,10.576-5.434,10.939C77.543,116.458,77.056,116.521,76.576,116.521z"/>
			</g>
		</g>
		<g>
			<g>
				<path d="M93.007,103.353c-1.502,0-3.312-0.281-5.483-1.004c-0.523-0.175-0.807-0.741-0.633-1.265
					c0.175-0.524,0.738-0.808,1.266-0.633c4.639,1.547,8.265,1.082,9.699-1.242c0.86-1.395,0.65-3.177-0.511-4.335
					c-1.937-1.93-5.571-1.544-9.728,1.036c-0.47,0.292-1.086,0.146-1.377-0.322c-0.291-0.469-0.146-1.086,0.322-1.377
					c7.41-4.598,11.206-1.738,12.194-0.752c1.821,1.816,2.15,4.613,0.8,6.801C99.018,101.134,97.227,103.353,93.007,103.353z"/>
			</g>
		</g>
		<g>
			<g>
				<path d="M86.98,95.9c-0.275,0-0.55-0.113-0.748-0.336c-0.366-0.413-0.329-1.045,0.084-1.412
					c3.651-3.244,5.058-6.614,3.762-9.014c-0.775-1.438-2.423-2.145-4.002-1.72c-2.636,0.711-4.115,4.054-3.957,8.94
					c0.019,0.552-0.415,1.014-0.967,1.032c-0.505,0.004-1.014-0.415-1.031-0.967c-0.282-8.709,4.088-10.572,5.434-10.935
					c2.484-0.673,5.064,0.441,6.284,2.701c0.661,1.226,2.315,5.676-4.194,11.459C87.454,95.817,87.217,95.9,86.98,95.9z"/>
			</g>
		</g>
		<g>
			<g>
				<path d="M89.673,114.973c-0.054,0-0.106,0-0.159-0.002c-1.395-0.04-6.081-0.832-7.843-9.369
					c-0.111-0.541,0.236-1.07,0.777-1.182c0.541-0.11,1.07,0.236,1.182,0.777c0.988,4.791,3.209,7.697,5.939,7.774
					c0.034,0.001,0.068,0.001,0.102,0.001c1.592,0,2.976-1.059,3.388-2.605c0.699-2.631-1.442-5.575-5.729-7.879
					c-0.334-0.163-0.564-0.504-0.564-0.898c0-0.552,0.442-1,0.995-1h0.01c0.165,0,0.327,0.041,0.472,0.119
					c7.68,4.111,7.108,8.826,6.75,10.173C94.346,113.311,92.172,114.973,89.673,114.973z"/>
			</g>
		</g>
		<g>
			<g>
				<path d="M69.567,106.139c-2.639,0-4.168-1.208-4.743-1.781c-1.82-1.814-2.15-4.608-0.803-6.794
					c0.73-1.187,3.761-4.842,12.024-2.092c0.524,0.174,0.808,0.74,0.634,1.265c-0.175,0.524-0.739,0.811-1.265,0.633
					c-4.639-1.542-8.26-1.077-9.691,1.244c-0.858,1.393-0.647,3.172,0.513,4.328c1.933,1.928,5.567,1.539,9.717-1.04
					c0.469-0.292,1.086-0.146,1.377,0.322c0.291,0.469,0.147,1.086-0.322,1.377C73.92,105.518,71.459,106.139,69.567,106.139z"/>
			</g>
		</g>
		<g>
			<g>
				<path d="M81.795,106.468c-1.015,0-2.027-0.208-2.987-0.623c-1.848-0.791-3.28-2.257-4.029-4.128
					c-0.751-1.877-0.726-3.934,0.071-5.792c0.256-0.591,0.574-1.132,0.946-1.611c0.339-0.436,0.967-0.515,1.403-0.174
					c0.437,0.339,0.514,0.968,0.175,1.403c-0.269,0.345-0.5,0.739-0.688,1.173c-0.585,1.364-0.604,2.876-0.051,4.257
					c0.55,1.375,1.603,2.453,2.963,3.034c1.363,0.591,2.873,0.612,4.248,0.062c1.381-0.55,2.462-1.605,3.046-2.972
					c1.207-2.812-0.101-6.084-2.912-7.296c-1.307-0.557-2.753-0.597-4.071-0.107c-0.518,0.192-1.094-0.072-1.285-0.589
					c-0.192-0.518,0.071-1.093,0.59-1.286c1.8-0.669,3.775-0.616,5.555,0.145c3.826,1.649,5.603,6.099,3.963,9.921
					c-0.794,1.858-2.266,3.294-4.144,4.042C83.684,106.288,82.738,106.468,81.795,106.468z"/>
			</g>
		</g>
	</g>
</g>
</svg>
