<?xml version="1.0" encoding="utf-8"?>
<!-- Generator: Adobe Illustrator 24.2.3, SVG Export Plug-In . SVG Version: 6.00 Build 0)  -->
<svg version="1.1" id="_x31_9" xmlns="http://www.w3.org/2000/svg" xmlns:xlink="http://www.w3.org/1999/xlink" x="0px" y="0px"
	 viewBox="0 0 128 128" style="enable-background:new 0 0 128 128;" xml:space="preserve">
<g>
	<g>
		<g>
			<g>
				<path d="M24.566,120.766c-1.996,0-3.363-0.295-4.316-1.078c-1.403-1.154-1.582-3.05-1.853-5.919
					c-0.082-0.864-0.174-1.836-0.31-2.925c-0.036-0.284,0.053-0.57,0.242-0.786c0.19-0.215,0.463-0.338,0.75-0.338
					c0.544,0,0.991,0.435,1.005,0.975c0.132,1.072,0.223,2.031,0.304,2.886c0.224,2.371,0.371,3.937,1.132,4.562
					c0.967,0.797,3.582,0.717,7.21,0.353l21.739-1.742c2.237-0.178,4.536-0.619,6.832-1.311c10.13-3.057,18.132-3.941,27.611-3.059
					c5.403,0.717,7.445,0.077,8.212-0.583c0.336-0.29,0.496-0.654,0.505-1.148l-0.02-4.067l1-0.085h1l0.02,4.105
					c-0.019,1.142-0.434,2.051-1.2,2.711c-1.609,1.387-4.705,1.724-9.74,1.055c-9.166-0.854-16.946,0.009-26.811,2.986
					c-2.433,0.732-4.872,1.2-7.25,1.39l-21.719,1.74C27.202,120.658,25.77,120.765,24.566,120.766z"/>
			</g>
		</g>
		<g>
			<g>
				<path d="M24.037,116.389c-4.138,0.001-5.405-1.254-5.939-5.546c-0.068-0.515-0.131-1.087-0.199-1.713
					c-0.069-0.633-0.145-1.322-0.24-2.074l-1.025-13.278c-0.003-0.035-0.004-0.071-0.003-0.106c0.048-1.61,0.268-2.856,0.691-3.921
					c0.203-0.513,0.782-0.765,1.299-0.559c0.513,0.204,0.764,0.785,0.559,1.299c-0.33,0.83-0.505,1.844-0.548,3.187l1.017,13.176
					c0.092,0.715,0.169,1.417,0.239,2.061c0.066,0.609,0.127,1.166,0.194,1.675c0.475,3.809,0.534,4.301,8.649,3.487l21.74-1.732
					c2.291-0.191,4.59-0.636,6.827-1.318c10.137-3.062,18.132-3.948,27.605-3.05c2.926,0.382,5.148,0.408,6.641,0.083
					c1.818-0.396,2.016-1.192,2.067-1.552c0.001-0.041,0.002-0.086,0.004-0.104c0.044-0.446-0.059-1.014-0.305-1.688
					c-0.438-1.208-1.276-2.341-2.424-3.279l-2.98-2.441c-0.427-0.35-0.49-0.979-0.14-1.407c0.349-0.427,0.978-0.49,1.407-0.14
					l2.979,2.44c1.426,1.166,2.476,2.599,3.036,4.142c0.355,0.971,0.491,1.812,0.416,2.57c-0.001,0.011-0.002,0.102-0.004,0.111
					c-0.154,1.179-0.909,2.708-3.631,3.302c-1.742,0.382-4.128,0.365-7.291-0.051c-9.159-0.862-16.933-0.002-26.801,2.977
					c-2.37,0.724-4.809,1.194-7.246,1.398l-21.724,1.731C26.951,116.263,25.35,116.389,24.037,116.389z M94.61,106.58h0.01H94.61z"
					/>
			</g>
		</g>
		<g>
			<g>
				<path d="M23.96,112.4c-0.331,0-0.588-0.012-0.791-0.021c-0.465-0.024-0.852-0.365-0.934-0.822
					c-0.129-0.722-0.255-1.845-0.35-2.741c-0.07-0.653-0.148-1.376-0.248-2.159l-1.005-12.969c-0.003-0.14,0-0.202,0.004-0.263
					c0.033-0.529,0.477-0.991,1.004-0.991c0.009,0,0.019,0,0.028,0.001c0.54,0.017,0.971,0.405,0.971,0.945
					c0,0.054-0.003,0.111-0.007,0.171l0.994,12.902c0.097,0.748,0.177,1.484,0.247,2.151c0.061,0.566,0.133,1.224,0.208,1.795
					c0.883-0.007,2.157-0.098,4.333-0.305l3.474-0.282c0.547-0.037,1.033,0.366,1.078,0.916c0.044,0.551-0.366,1.033-0.916,1.078
					l-3.46,0.28C26.26,112.31,24.914,112.4,23.96,112.4z"/>
			</g>
		</g>
		<g>
			<g>
				<path d="M40.309,111.14c-0.517,0-0.954-0.397-0.996-0.921c-0.044-0.55,0.367-1.032,0.918-1.076l9.921-0.79
					c1.93-0.151,3.948-0.541,6.001-1.159c8.128-2.458,14.919-3.554,22.018-3.554c2.297,0,4.624,0.113,7.113,0.345l0.187,0.024
					c0.921,0.123,1.771,0.205,2.543,0.244l-5.694-4.648c-0.429-0.349-0.492-0.979-0.143-1.406c0.347-0.428,0.978-0.492,1.406-0.143
					l6.04,4.93c0.648,0.53,1.156,1.122,1.512,1.759c0.164,0.295,0.168,0.653,0.011,0.953c-0.158,0.299-0.457,0.498-0.793,0.529
					c-0.344,0.031-0.784,0.054-1.321,0.054c-1.106,0-2.393-0.098-3.823-0.289l-0.146-0.02c-2.391-0.222-4.656-0.332-6.891-0.332
					c-6.895,0-13.507,1.069-21.44,3.468c-2.189,0.66-4.35,1.077-6.421,1.239l-9.92,0.79C40.362,111.139,40.335,111.14,40.309,111.14
					z"/>
			</g>
		</g>
	</g>
	<g>
		<g>
			<g>
				<path d="M38.746,105.805c-1.996,0.001-3.363-0.294-4.315-1.077c-1.403-1.154-1.582-3.049-1.854-5.918
					c-0.081-0.863-0.173-1.836-0.31-2.926c-0.036-0.284,0.053-0.57,0.242-0.786c0.19-0.215,0.463-0.338,0.75-0.338
					c0.544,0,0.991,0.435,1.005,0.975c0.132,1.072,0.223,2.032,0.304,2.888c0.224,2.369,0.372,3.936,1.133,4.561
					c0.965,0.796,3.581,0.717,7.209,0.353l21.74-1.742c2.238-0.178,4.536-0.619,6.831-1.31c10.127-3.059,18.125-3.941,27.611-3.06
					c5.403,0.716,7.445,0.077,8.212-0.583c0.336-0.29,0.496-0.654,0.505-1.148l-0.01-4.061l1-0.092h1l0.01,4.108
					c-0.019,1.139-0.434,2.048-1.2,2.708c-1.609,1.387-4.705,1.724-9.74,1.055c-9.172-0.855-16.949,0.01-26.811,2.986
					c-2.432,0.732-4.87,1.2-7.249,1.39l-21.72,1.74C41.382,105.698,39.949,105.805,38.746,105.805z"/>
			</g>
		</g>
		<g>
			<g>
				<path d="M38.115,101.448c-4.118,0-5.303-1.256-5.838-5.565c-0.059-0.459-0.115-0.965-0.176-1.513
					c-0.053-0.475-0.109-0.981-0.175-1.521c-0.065-0.548,0.325-1.046,0.874-1.112c0.541-0.065,1.046,0.325,1.112,0.874
					c0.065,0.545,0.122,1.058,0.176,1.537c0.06,0.537,0.115,1.032,0.173,1.485c0.474,3.812,0.535,4.301,8.648,3.491l21.74-1.742
					c2.229-0.177,4.531-0.617,6.843-1.311c10.118-3.058,18.116-3.94,27.6-3.059c5.263,0.698,7.328,0.104,8.138-0.519
					c0.325-0.249,0.508-0.55,0.57-0.943c0.001-0.044,0.002-0.093,0.004-0.112c0.045-0.444-0.057-1.012-0.304-1.686
					c-0.441-1.194-1.281-2.327-2.428-3.272l-7.927-6.488c-1.381-1.122-2.266-2.721-2.488-4.498l-0.601-4.842
					c-0.112-0.86-0.375-1.567-0.78-2.094c-1.725-2.271-5.905-2.967-12.786-2.127c-0.554,0.081-1.047-0.323-1.113-0.871
					c-0.067-0.548,0.323-1.047,0.871-1.113c7.755-0.944,12.399-0.025,14.618,2.897c0.618,0.804,1.015,1.834,1.174,3.055l0.602,4.847
					c0.158,1.263,0.787,2.398,1.769,3.196l7.933,6.493c1.421,1.172,2.47,2.599,3.034,4.127c0.351,0.957,0.487,1.785,0.421,2.531
					c-0.001,0.057-0.004,0.134-0.008,0.165c-0.124,0.952-0.576,1.734-1.343,2.322c-1.662,1.274-4.706,1.566-9.58,0.919
					c-9.17-0.854-16.945,0.01-26.799,2.986c-2.449,0.734-4.891,1.201-7.26,1.39l-21.72,1.74
					C41.076,101.318,39.442,101.448,38.115,101.448z"/>
			</g>
		</g>
		<g>
			<g>
				<path d="M38.14,97.44c-0.333,0-0.591-0.012-0.784-0.022c-0.456-0.024-0.838-0.356-0.927-0.805
					c-0.119-0.609-0.22-1.494-0.317-2.35l-0.045-0.399c-0.042-0.431-0.09-0.861-0.148-1.331c-0.068-0.548,0.321-1.047,0.869-1.115
					c0.553-0.076,1.047,0.32,1.115,0.869c0.061,0.489,0.112,0.939,0.152,1.368l0.044,0.383c0.055,0.481,0.11,0.972,0.168,1.401
					c0.964-0.008,2.308-0.103,4.324-0.305l13.02-1.042c0.566-0.042,1.033,0.367,1.077,0.917c0.044,0.551-0.367,1.033-0.917,1.077
					l-13,1.04C40.615,97.343,39.181,97.44,38.14,97.44z"/>
			</g>
		</g>
		<g>
			<g>
				<path d="M63.559,95.46c-0.515,0-0.952-0.396-0.996-0.918c-0.045-0.55,0.364-1.033,0.915-1.079l0.851-0.07
					c1.963-0.153,3.981-0.54,6.003-1.149c8.151-2.465,14.942-3.563,22.019-3.563c2.237,0,4.564,0.116,7.114,0.354l0.121,0.008
					c0.993,0.131,1.862,0.217,2.617,0.258l-7.585-6.205c-0.899-0.738-1.674-1.611-2.301-2.598c-0.297-0.467-0.159-1.085,0.307-1.381
					c0.469-0.295,1.084-0.158,1.381,0.307c0.514,0.808,1.146,1.522,1.88,2.124l7.919,6.479c0.648,0.531,1.156,1.122,1.511,1.757
					c0.165,0.295,0.169,0.653,0.013,0.952c-0.157,0.3-0.455,0.499-0.792,0.53c-1.001,0.098-2.876,0.069-5.146-0.233l-0.083-0.003
					c-2.515-0.235-4.78-0.349-6.955-0.349c-6.872,0-13.484,1.072-21.44,3.478c-2.159,0.651-4.319,1.064-6.421,1.229l-0.847,0.07
					C63.614,95.459,63.586,95.46,63.559,95.46z"/>
			</g>
		</g>
		<g>
			<g>
				<path d="M91.691,77.053c-0.485,0-0.903-0.329-0.972-0.825l-0.028-0.206l-0.604-4.868c-0.013-0.102-0.027-0.173-0.039-0.219
					c-0.237-0.205-1.236-0.845-4.509-0.845c-0.57,0-1.169,0.02-1.787,0.059c-0.55,0.021-1.026-0.384-1.061-0.936
					c-0.034-0.551,0.385-1.026,0.936-1.061c0.661-0.041,1.303-0.062,1.912-0.062c4.022,0,5.562,0.91,6.145,1.674
					c0.239,0.297,0.345,0.789,0.389,1.146l0.617,4.971c0.073,0.547-0.305,1.087-0.851,1.161
					C91.79,77.049,91.74,77.053,91.691,77.053z M90.108,70.994c0.001,0.001,0.001,0.002,0.002,0.003
					C90.109,70.996,90.109,70.995,90.108,70.994z"/>
			</g>
		</g>
	</g>
	<g>
		<g>
			<g>
				<path d="M59.399,90.16c-0.441,0-0.846-0.295-0.965-0.741c-0.143-0.534,0.174-1.082,0.707-1.225
					c1.475-0.395,2.844-0.723,4.184-1.003c0.543-0.117,1.07,0.233,1.184,0.773c0.113,0.541-0.233,1.071-0.773,1.184
					c-1.305,0.273-2.638,0.593-4.076,0.978C59.572,90.149,59.485,90.16,59.399,90.16z"/>
			</g>
		</g>
		<g>
			<g>
				<path d="M23.095,94.455c-1.995,0-3.362-0.294-4.314-1.078c-1.403-1.154-1.582-3.049-1.853-5.917
					c-0.082-0.864-0.174-1.836-0.31-2.926c-0.036-0.284,0.053-0.57,0.242-0.786c0.19-0.215,0.463-0.338,0.75-0.338
					c0.544,0,0.991,0.435,1.005,0.975c0.132,1.072,0.223,2.031,0.304,2.887c0.224,2.37,0.371,3.936,1.132,4.562
					c0.966,0.795,3.579,0.717,7.21,0.352L49,90.443c2.033-0.16,4.111-0.539,6.178-1.125c0.527-0.152,1.083,0.157,1.234,0.689
					c0.15,0.531-0.158,1.084-0.689,1.234c-2.192,0.622-4.401,1.024-6.563,1.195L27.44,94.177
					C25.731,94.348,24.299,94.455,23.095,94.455z"/>
			</g>
		</g>
		<g>
			<g>
				<path d="M87.587,88.393c-1.256,0-2.707-0.111-4.368-0.331c-4.868-0.453-9.19-0.423-13.569,0.102
					c-0.567,0.068-1.047-0.326-1.112-0.874c-0.065-0.549,0.326-1.047,0.874-1.112c4.525-0.541,8.982-0.574,14.031-0.103
					c5.406,0.717,7.446,0.077,8.213-0.583c0.336-0.29,0.496-0.654,0.505-1.148l-0.01-4.071l1-0.081h1l0.01,4.107
					c-0.019,1.14-0.434,2.049-1.2,2.708C91.881,87.936,90.136,88.393,87.587,88.393z"/>
			</g>
		</g>
		<g>
			<g>
				<path d="M16.759,76.13c-0.518,0-0.955-0.398-0.996-0.923l-0.6-7.74c-0.003-0.036-0.004-0.072-0.002-0.108
					c0.222-7.027,4.162-9.488,16.216-10.127l13.498-1.564c0.555-0.064,1.046,0.33,1.108,0.878c0.063,0.549-0.329,1.045-0.878,1.108
					l-13.561,1.57c-13.116,0.697-14.234,3.676-14.384,8.144l0.596,7.686c0.043,0.551-0.369,1.031-0.92,1.074
					C16.811,76.129,16.784,76.13,16.759,76.13z"/>
			</g>
		</g>
		<g>
			<g>
				<path d="M22.466,90.098c-4.119,0-5.303-1.256-5.838-5.564c-0.057-0.453-0.111-0.948-0.171-1.485
					c-0.077-0.694-0.162-1.461-0.27-2.301L16.143,80.2c-0.044-0.551,0.367-1.033,0.917-1.077c0.566-0.044,1.033,0.366,1.077,0.917
					l0.04,0.5c0.104,0.806,0.189,1.583,0.268,2.288c0.059,0.527,0.112,1.013,0.168,1.458c0.473,3.809,0.536,4.298,8.648,3.488
					L49,86.033c1.744-0.143,3.523-0.439,5.286-0.883c0.536-0.134,1.079,0.19,1.214,0.726c0.135,0.536-0.19,1.079-0.726,1.214
					c-1.869,0.471-3.758,0.785-5.613,0.938L27.44,89.767C25.427,89.968,23.793,90.098,22.466,90.098z"/>
			</g>
		</g>
		<g>
			<g>
				<path d="M87.588,83.983c-1.256,0-2.706-0.111-4.37-0.332c-4.865-0.452-9.189-0.424-13.568,0.102
					c-0.567,0.065-1.047-0.327-1.112-0.874c-0.065-0.549,0.326-1.047,0.874-1.112c4.525-0.54,8.982-0.573,14.031-0.103
					c5.262,0.698,7.324,0.103,8.135-0.521c0.327-0.251,0.511-0.555,0.574-0.952c0.001-0.04,0.002-0.082,0.004-0.1
					c0.044-0.446-0.059-1.015-0.305-1.688c-0.442-1.198-1.285-2.329-2.434-3.269l-7.921-6.491c-1.38-1.122-2.264-2.721-2.488-4.499
					l-0.6-4.842c-0.112-0.86-0.375-1.567-0.78-2.093c-2.666-3.51-10.734-2.612-17.466-1.435c-0.543,0.092-1.062-0.27-1.157-0.813
					s0.27-1.062,0.813-1.157c7.742-1.349,16.103-2.147,19.397,2.189c0.619,0.805,1.017,1.834,1.176,3.056l0.601,4.847
					c0.159,1.263,0.788,2.399,1.769,3.198l7.923,6.492c1.424,1.164,2.477,2.591,3.044,4.126c0.357,0.976,0.493,1.817,0.418,2.576
					c-0.001,0.011-0.002,0.1-0.004,0.11c-0.125,0.956-0.578,1.741-1.347,2.331C91.701,83.569,90.008,83.983,87.588,83.983z"/>
			</g>
		</g>
		<g>
			<g>
				<path d="M22.49,86.09c-0.334,0-0.591-0.011-0.784-0.021c-0.457-0.025-0.839-0.357-0.928-0.806
					c-0.121-0.617-0.223-1.516-0.32-2.385l-0.041-0.365c-0.071-0.662-0.15-1.386-0.249-2.169l-0.825-10.719
					c-0.042-0.55,0.37-1.031,0.921-1.073c0.544-0.038,1.031,0.369,1.073,0.921l0.82,10.67c0.096,0.748,0.177,1.485,0.247,2.151
					l0.041,0.359c0.056,0.493,0.112,0.996,0.171,1.435c0.969-0.007,2.312-0.102,4.324-0.304l21.739-1.742
					c1.854-0.147,3.729-0.491,5.573-1.023c0.536-0.151,1.086,0.154,1.238,0.684c0.153,0.531-0.153,1.085-0.684,1.238
					c-1.973,0.568-3.98,0.938-5.969,1.096l-21.719,1.74C24.971,85.993,23.537,86.09,22.49,86.09z"/>
			</g>
		</g>
		<g>
			<g>
				<path d="M87.56,79.98c-1.04,0-2.325-0.101-3.821-0.299l-0.09-0.005c-5.319-0.492-9.535-0.456-14.006,0.048
					c-0.552,0.056-1.045-0.334-1.106-0.882c-0.062-0.549,0.333-1.044,0.882-1.106c4.61-0.52,8.979-0.555,14.395-0.053l0.129,0.01
					c0.991,0.13,1.858,0.215,2.61,0.257l-7.585-6.206c-2.181-1.776-3.576-4.298-3.929-7.1l-0.601-4.842
					c-0.013-0.104-0.028-0.177-0.04-0.223c-0.228-0.201-1.21-0.84-4.508-0.84c-2.442,0-5.622,0.361-9.721,1.104
					c-0.553,0.097-1.064-0.264-1.163-0.806c-0.098-0.544,0.263-1.064,0.806-1.163c4.219-0.764,7.515-1.136,10.078-1.136
					c4.051,0,5.581,0.915,6.152,1.683c0.233,0.295,0.338,0.783,0.381,1.137l0.6,4.837c0.288,2.287,1.428,4.347,3.209,5.798
					l7.921,6.481c0.647,0.529,1.155,1.12,1.511,1.757c0.165,0.295,0.169,0.653,0.013,0.952c-0.157,0.3-0.455,0.499-0.792,0.53
					C88.539,79.948,88.109,79.98,87.56,79.98z M74.453,59.636c0.001,0.001,0.001,0.002,0.002,0.003
					C74.454,59.638,74.454,59.638,74.453,59.636z M74.378,59.518L74.378,59.518C74.378,59.519,74.378,59.519,74.378,59.518z"/>
			</g>
		</g>
		<g>
			<g>
				<path d="M22.211,64.79c-0.372,0-0.729-0.208-0.901-0.564c-0.24-0.497-0.032-1.095,0.465-1.336
					c1.812-0.877,4.935-1.407,9.822-1.669h0.11l13.168-1.523c0.555-0.065,1.046,0.33,1.108,0.878
					c0.063,0.549-0.33,1.045-0.878,1.108l-13.221,1.529c-0.038,0.005-0.077,0.007-0.115,0.007H31.65
					c-4.498,0.242-7.461,0.724-9.005,1.471C22.505,64.758,22.356,64.79,22.211,64.79z"/>
			</g>
		</g>
		<g>
			<g>
				<path d="M24.369,70.766c-0.518,0-0.956-0.398-0.996-0.923c-0.156-2.03,1.29-3.854,3.293-4.151
					c1.387-0.206,3.115-0.365,5.139-0.474l0.25-0.013c0.544-0.055,1.023,0.393,1.053,0.943c0.03,0.552-0.393,1.023-0.943,1.053
					l-0.251,0.014c-1.963,0.105-3.628,0.258-4.952,0.455c-0.97,0.144-1.67,1.031-1.594,2.019c0.042,0.551-0.37,1.032-0.92,1.074
					C24.421,70.765,24.395,70.766,24.369,70.766z"/>
			</g>
		</g>
	</g>
	<g>
		<g>
			<g>
				<path d="M41.69,66.29c-0.426,0-0.819-0.273-0.954-0.7c-0.165-0.527,0.128-1.088,0.654-1.254c0.98-0.308,2.1-0.573,3.423-0.811
					c0.545-0.096,1.064,0.265,1.161,0.808c0.098,0.544-0.264,1.063-0.808,1.161c-1.239,0.223-2.278,0.468-3.177,0.75
					C41.891,66.275,41.789,66.29,41.69,66.29z"/>
			</g>
		</g>
		<g>
			<g>
				<path d="M66.533,92.544c-0.071,0-0.144-0.002-0.215-0.005c-2.126-0.118-3.788-1.949-3.788-4.169v-1.99
					c0-0.297-0.129-0.577-0.354-0.769c-0.226-0.192-0.519-0.271-0.818-0.224c-0.464,0.075-0.828,0.555-0.828,1.093v1.899
					c0,0.407-0.065,0.788-0.193,1.131c-0.499,1.528-2.006,2.507-3.655,2.345c-0.71-0.07-1.366-0.356-1.896-0.828
					c-0.796-0.697-1.256-1.719-1.256-2.797v-7.37c0-1.087-0.884-1.971-1.971-1.971c-3.188,0-6.841-0.133-9.97-1.115
					c-3.652-1.128-7.85-2.875-7.85-6.395c0-0.553,0.447-1,1-1c0.553,0,1,0.447,1,1c0,1.702,2.048,3.128,6.444,4.485
					c2.876,0.902,6.338,1.024,9.346,1.024c2.219,0,4,1.781,4,3.971v7.37c0,0.495,0.217,0.979,0.579,1.298
					c0.218,0.193,0.482,0.309,0.77,0.337c0.704,0.066,1.352-0.348,1.571-1.017c0.057-0.155,0.08-0.304,0.08-0.469V86.48
					c0-1.519,1.079-2.837,2.511-3.067c0.879-0.144,1.764,0.105,2.434,0.677c0.671,0.572,1.056,1.406,1.056,2.29v1.99
					c0,1.14,0.851,2.113,1.896,2.172c0.541,0.014,1.078-0.166,1.479-0.547c0.403-0.383,0.625-0.899,0.625-1.455V73.4
					c0-1.264-0.318-2.521-0.92-3.635s-1.479-2.046-2.533-2.693c-1.147-0.719-2.432-1.308-3.723-1.707
					c-0.474-0.146-0.965-0.252-1.499-0.324c-0.547-0.074-0.931-0.578-0.856-1.126c0.074-0.547,0.575-0.927,1.126-0.856
					c0.644,0.088,1.238,0.217,1.819,0.396c1.455,0.45,2.902,1.113,4.187,1.918c1.347,0.826,2.47,2.019,3.239,3.442
					c0.759,1.405,1.16,2.991,1.16,4.586v15.14c0,1.093-0.455,2.152-1.248,2.905C68.53,92.158,67.562,92.544,66.533,92.544z"/>
			</g>
		</g>
		<g>
			<g>
				<path d="M48.989,65.07c-0.524,0-0.965-0.408-0.997-0.938c-0.034-0.552,0.386-1.026,0.937-1.06
					c1.188-0.072,2.585-0.063,4.014-0.091l0.067,1.999c-1.483,0.028-2.807,0.018-3.958,0.088C49.03,65.069,49.01,65.07,48.989,65.07
					z"/>
			</g>
		</g>
		<g>
			<g>
				<path d="M38.913,72.213c-0.236,0-0.474-0.083-0.664-0.252c-0.413-0.367-0.45-0.999-0.084-1.412
					c0.467-0.525,1.66-1.533,4.416-2.392c0.53-0.163,1.088,0.132,1.252,0.658c0.164,0.527-0.131,1.088-0.658,1.252
					c-2.508,0.78-3.367,1.645-3.514,1.81C39.463,72.1,39.188,72.213,38.913,72.213z"/>
			</g>
		</g>
	</g>
	<g>
		<g>
			<g>
				<g>
					<path d="M56.49,70.84c-1.209,0-2.34-0.472-3.184-1.329c-0.845-0.832-1.316-1.962-1.316-3.171v-3.5c0-0.561-0.439-1-1-1
						c-0.269,0-0.518,0.102-0.703,0.287c-0.191,0.191-0.297,0.444-0.297,0.713v2c0,1.654-1.346,3-3,3
						c-0.812,0-1.566-0.316-2.127-0.893c-0.56-0.56-0.873-1.312-0.873-2.107V54.59c0-0.553,0.447-1,1-1c0.553,0,1,0.447,1,1v10.25
						c0,0.262,0.105,0.512,0.297,0.703c0.189,0.194,0.437,0.297,0.703,0.297c0.552,0,1-0.448,1-1v-2
						c0-0.803,0.313-1.558,0.883-2.127c0.562-0.563,1.314-0.873,2.117-0.873c1.654,0,3,1.346,3,3v3.5c0,0.669,0.26,1.293,0.73,1.757
						c0.477,0.483,1.101,0.743,1.77,0.743c1.379,0,2.5-1.121,2.5-2.5V53.95c0-0.553,0.447-1,1-1c0.553,0,1,0.447,1,1v12.39
						C60.99,68.821,58.972,70.84,56.49,70.84z"/>
				</g>
			</g>
		</g>
		<g>
			<g>
				<g>
					<path d="M56.2,65.67c-0.553,0-1-0.447-1-1v-3.5c0-0.553,0.447-1,1-1s1,0.447,1,1v3.5C57.2,65.223,56.753,65.67,56.2,65.67z"/>
				</g>
			</g>
		</g>
		<g>
			<g>
				<g>
					<path d="M64.68,43.69c-0.073,0-0.146-0.008-0.219-0.024c-0.259-0.058-0.484-0.217-0.626-0.44l-2.14-3.381
						c-0.296-0.467-0.157-1.084,0.31-1.38l8.47-5.369c0.468-0.296,1.085-0.156,1.38,0.31c0.296,0.466,0.157,1.084-0.31,1.38
						l-7.626,4.834l1.07,1.691l34.626-21.955c0.472-0.302,0.609-0.908,0.311-1.379c-0.29-0.458-0.934-0.6-1.379-0.312L76.455,31.675
						c-0.466,0.296-1.084,0.158-1.38-0.31c-0.296-0.466-0.157-1.084,0.31-1.38l22.09-14.01c0.479-0.305,1.034-0.466,1.605-0.466
						c1.034,0,1.981,0.521,2.534,1.396c0.883,1.389,0.469,3.245-0.925,4.137L65.215,43.535C65.054,43.638,64.868,43.69,64.68,43.69z
						"/>
				</g>
			</g>
			<g>
				<g>
					<g>
						<path d="M62.999,46.758c-0.994,0-1.967-0.492-2.538-1.392l-2.143-3.38c-0.885-1.396-0.469-3.254,0.927-4.14
							s3.254-0.47,4.142,0.927l2.142,3.379c0.429,0.676,0.569,1.479,0.394,2.262c-0.175,0.782-0.645,1.449-1.321,1.878
							C64.104,46.607,63.548,46.758,62.999,46.758z M60.85,39.38c-0.187,0-0.371,0.053-0.532,0.156
							c-0.466,0.295-0.604,0.914-0.31,1.38l2.143,3.379c0.143,0.225,0.365,0.381,0.626,0.439c0.262,0.06,0.527,0.012,0.753-0.132
							c0.001,0,0.001,0,0.001,0c0.226-0.143,0.382-0.365,0.44-0.626c0.058-0.261,0.012-0.528-0.132-0.753l-2.142-3.379
							c-0.143-0.226-0.365-0.382-0.626-0.44C60.997,39.389,60.924,39.38,60.85,39.38z"/>
					</g>
				</g>
				<g>
					<g>
						<path d="M47.028,56.845c-0.237,0-0.476-0.026-0.713-0.079c-0.844-0.188-1.563-0.694-2.026-1.425l-1.89-2.979
							c-0.955-1.507-0.507-3.51,0.999-4.466l0.446-0.283c0.73-0.462,1.596-0.612,2.44-0.425c0.844,0.189,1.563,0.695,2.026,1.426
							l1.89,2.979c0.955,1.506,0.506,3.509-1,4.466l-0.446,0.282C48.23,56.674,47.635,56.845,47.028,56.845z M45.575,49.109
							c-0.231,0-0.459,0.065-0.659,0.192l-0.445,0.283c-0.576,0.364-0.747,1.13-0.382,1.706l1.89,2.979
							c0.177,0.278,0.451,0.472,0.773,0.544c0.322,0.07,0.653,0.015,0.933-0.163l0,0l0.445-0.282
							c0.575-0.365,0.747-1.131,0.382-1.706l-1.89-2.979c-0.177-0.278-0.451-0.472-0.773-0.544
							C45.758,49.119,45.666,49.109,45.575,49.109z"/>
					</g>
				</g>
				<g>
					<g>
						<path d="M61.229,51.436c-0.22,0-0.441-0.024-0.661-0.073c-0.781-0.176-1.448-0.645-1.878-1.322l-5.355-8.444
							c-0.886-1.396-0.47-3.254,0.927-4.141c0.678-0.428,1.479-0.567,2.263-0.394c0.782,0.176,1.449,0.645,1.878,1.321l5.355,8.445
							c0.429,0.676,0.569,1.479,0.395,2.262c-0.176,0.781-0.645,1.448-1.321,1.878l0,0C62.343,51.276,61.791,51.436,61.229,51.436z
							 M55.865,38.989c-0.188,0-0.371,0.053-0.533,0.155c-0.465,0.295-0.604,0.915-0.309,1.381l5.355,8.444
							c0.143,0.226,0.365,0.382,0.626,0.44c0.26,0.06,0.528,0.012,0.753-0.132h0.001c0.226-0.143,0.382-0.365,0.44-0.626
							c0.059-0.26,0.012-0.527-0.132-0.753l-5.355-8.446c-0.143-0.226-0.365-0.381-0.625-0.439
							C56.013,38.997,55.939,38.989,55.865,38.989z"/>
					</g>
				</g>
				<g>
					<g>
						<path d="M52.854,56.697c-1.072,0-2.123-0.53-2.739-1.501l-5.1-8.051c-0.462-0.728-0.612-1.594-0.424-2.437
							c0.188-0.842,0.693-1.561,1.422-2.023l0.458-0.284c0.717-0.461,1.583-0.613,2.424-0.429c0.847,0.188,1.568,0.698,2.031,1.436
							l0.987,1.556c0.297,0.467,0.158,1.084-0.308,1.38c-0.465,0.298-1.084,0.158-1.38-0.308l-0.99-1.56
							c-0.18-0.286-0.454-0.479-0.774-0.552c-0.319-0.07-0.646-0.012-0.92,0.166l-0.464,0.288c-0.271,0.172-0.463,0.446-0.535,0.768
							c-0.071,0.321-0.015,0.65,0.162,0.928l5.1,8.051c0.176,0.276,0.451,0.469,0.775,0.541c0.324,0.073,0.656,0.017,0.934-0.161
							l0.441-0.279c0.555-0.353,0.741-1.07,0.424-1.636c-0.019-0.032-0.036-0.067-0.053-0.105l-2.093-3.292
							c-0.294-0.467-0.153-1.084,0.314-1.379c0.467-0.293,1.084-0.153,1.379,0.314l2.107,3.315c0.019,0.029,0.035,0.059,0.051,0.09
							c0.038,0.06,0.066,0.12,0.087,0.182c0.75,1.532,0.252,3.313-1.146,4.2l-0.441,0.279
							C54.048,56.535,53.448,56.697,52.854,56.697z M54.22,52.05c0,0.156,0.039,0.285,0.079,0.376l0.002-0.001
							C54.254,52.303,54.22,52.165,54.22,52.05z"/>
					</g>
				</g>
				<g>
					<g>
						<path d="M58.075,55.8c-0.994,0-1.969-0.493-2.54-1.394l-3.302-5.214c-0.294-0.467-0.153-1.084,0.314-1.379
							c0.467-0.293,1.084-0.153,1.379,0.314l3.296,5.204c0.145,0.228,0.367,0.384,0.629,0.442c0.264,0.059,0.529,0.013,0.752-0.129
							l0.851-0.539c0.465-0.295,0.604-0.916,0.31-1.385l-7.498-11.816c-0.295-0.466-0.915-0.604-1.381-0.311l-0.849,0.539
							c-0.226,0.144-0.382,0.367-0.439,0.629c-0.057,0.259-0.01,0.523,0.134,0.745l2.146,3.396c0.125,0.167,0.199,0.373,0.199,0.597
							c0,0.553-0.442,1-0.995,1h-0.01c-0.342,0-0.661-0.175-0.844-0.464l-2.184-3.453c-0.428-0.664-0.571-1.466-0.399-2.25
							c0.173-0.786,0.642-1.457,1.32-1.888l0.85-0.539c1.395-0.884,3.254-0.47,4.141,0.928l7.5,11.82
							c0.881,1.402,0.463,3.258-0.928,4.141l-0.851,0.539C59.179,55.649,58.624,55.8,58.075,55.8z"/>
					</g>
				</g>
			</g>
		</g>
	</g>
	<g>
		<g>
			<g>
				<path d="M19.594,49.137c-0.184,0-0.369-0.051-0.535-0.156c-0.467-0.296-0.604-0.914-0.308-1.38l1.4-2.202
					c0.296-0.467,0.914-0.603,1.38-0.308c0.467,0.296,0.604,0.914,0.308,1.38l-1.4,2.202C20.248,48.973,19.925,49.137,19.594,49.137
					z"/>
			</g>
		</g>
		<g>
			<g>
				<path d="M23.004,43.735c-0.184,0-0.369-0.051-0.535-0.156c-0.467-0.296-0.604-0.914-0.308-1.38l1.4-2.202
					c0.296-0.467,0.915-0.603,1.38-0.308c0.467,0.296,0.604,0.914,0.308,1.38l-1.4,2.202C23.658,43.571,23.335,43.735,23.004,43.735
					z"/>
			</g>
		</g>
		<g>
			<g>
				<path d="M20.405,44.326c-0.182,0-0.366-0.05-0.531-0.153l-2.214-1.394c-0.468-0.295-0.608-0.912-0.314-1.379
					c0.295-0.468,0.91-0.607,1.38-0.314l2.214,1.394c0.467,0.295,0.607,0.912,0.313,1.379
					C21.062,44.161,20.737,44.326,20.405,44.326z"/>
			</g>
		</g>
		<g>
			<g>
				<path d="M25.807,47.737c-0.182,0-0.366-0.05-0.532-0.153l-2.214-1.394c-0.467-0.295-0.607-0.912-0.313-1.379
					c0.295-0.468,0.912-0.606,1.379-0.314l2.214,1.394c0.468,0.295,0.608,0.912,0.314,1.379
					C26.464,47.572,26.139,47.737,25.807,47.737z"/>
			</g>
		</g>
	</g>
	<g>
		<g>
			<g>
				<path d="M92.621,50.108c-0.371,0-0.727-0.207-0.9-0.562c-0.241-0.496-0.035-1.095,0.462-1.337l2.346-1.143
					c0.497-0.241,1.096-0.034,1.337,0.462s0.035,1.095-0.462,1.337l-2.346,1.143C92.917,50.076,92.768,50.108,92.621,50.108z"/>
			</g>
		</g>
		<g>
			<g>
				<path d="M98.355,47.291c-0.371,0-0.727-0.207-0.9-0.562c-0.241-0.496-0.035-1.095,0.462-1.337l2.346-1.143
					c0.498-0.241,1.095-0.033,1.337,0.462c0.241,0.496,0.035,1.095-0.462,1.337l-2.346,1.143
					C98.651,47.259,98.502,47.291,98.355,47.291z"/>
			</g>
		</g>
		<g>
			<g>
				<path d="M95.831,46.435c-0.369,0-0.724-0.204-0.897-0.558l-1.157-2.346c-0.245-0.495-0.041-1.095,0.454-1.339
					c0.497-0.244,1.096-0.042,1.339,0.454l1.157,2.346c0.245,0.495,0.041,1.095-0.454,1.339
					C96.13,46.401,95.979,46.435,95.831,46.435z"/>
			</g>
		</g>
		<g>
			<g>
				<path d="M98.648,52.168c-0.369,0-0.724-0.204-0.897-0.558l-1.157-2.346c-0.245-0.495-0.041-1.095,0.454-1.339
					c0.497-0.245,1.096-0.042,1.339,0.454l1.157,2.346c0.245,0.495,0.041,1.095-0.454,1.339
					C98.947,52.135,98.797,52.168,98.648,52.168z"/>
			</g>
		</g>
	</g>
	<g>
		<g>
			<g>
				<path d="M51.458,21.312c-0.184,0-0.369-0.051-0.536-0.156c-0.466-0.297-0.604-0.915-0.307-1.381l1.401-2.201
					c0.297-0.466,0.914-0.601,1.381-0.307c0.466,0.297,0.604,0.915,0.307,1.381l-1.401,2.201
					C52.112,21.148,51.788,21.312,51.458,21.312z"/>
			</g>
		</g>
		<g>
			<g>
				<path d="M54.869,15.91c-0.184,0-0.369-0.051-0.535-0.156c-0.467-0.296-0.604-0.914-0.308-1.38l1.4-2.202
					c0.296-0.466,0.914-0.603,1.38-0.308c0.467,0.296,0.604,0.914,0.308,1.38l-1.4,2.202C55.523,15.746,55.2,15.91,54.869,15.91z"/>
			</g>
		</g>
		<g>
			<g>
				<path d="M52.271,16.501c-0.182,0-0.366-0.05-0.531-0.153l-2.214-1.393c-0.468-0.294-0.608-0.912-0.314-1.379
					c0.295-0.469,0.912-0.606,1.379-0.314l2.214,1.393c0.468,0.294,0.608,0.912,0.314,1.379
					C52.928,16.336,52.603,16.501,52.271,16.501z"/>
			</g>
		</g>
		<g>
			<g>
				<path d="M57.672,19.912c-0.182,0-0.366-0.05-0.532-0.153l-2.214-1.394c-0.467-0.295-0.607-0.912-0.313-1.379
					c0.295-0.468,0.913-0.606,1.379-0.314l2.214,1.394c0.468,0.295,0.608,0.912,0.314,1.379
					C58.329,19.747,58.004,19.912,57.672,19.912z"/>
			</g>
		</g>
	</g>
</g>
</svg>
