<?xml version="1.0" encoding="utf-8"?>
<!-- Generator: Adobe Illustrator 24.2.3, SVG Export Plug-In . SVG Version: 6.00 Build 0)  -->
<svg version="1.1" id="_x31_8" xmlns="http://www.w3.org/2000/svg" xmlns:xlink="http://www.w3.org/1999/xlink" x="0px" y="0px"
	 viewBox="0 0 128 128" style="enable-background:new 0 0 128 128;" xml:space="preserve">
<g>
	<g>
		<g>
			<g>
				<path d="M111.099,78.65c-0.464,0-0.88-0.324-0.979-0.797c-0.112-0.541,0.235-1.07,0.776-1.183
					c0.562-0.116,1.119-0.327,1.659-0.626c0.843-0.466,1.55-1.104,1.938-1.752c0.283-0.474,0.37-0.906,0.23-1.158
					c-0.104-0.191-0.335-0.291-0.51-0.343c-0.789-0.228-2.003,0.016-3.101,0.623c-0.276,0.146-0.52,0.315-0.711,0.456
					c-0.019,0.016-0.036,0.031-0.056,0.046c-0.392,0.308-0.962,0.283-1.324-0.08c-0.391-0.391-0.391-1.023,0-1.414
					c0.003-0.003,0.006-0.006,0.009-0.009c0.037-0.039,0.078-0.074,0.121-0.106c0.256-0.189,0.602-0.436,1.008-0.651
					c1.572-0.869,3.302-1.164,4.612-0.784c0.774,0.226,1.364,0.675,1.704,1.3c0.493,0.891,0.396,2.041-0.27,3.15
					c-0.572,0.954-1.525,1.832-2.684,2.473c-0.716,0.396-1.463,0.678-2.222,0.835C111.234,78.644,111.166,78.65,111.099,78.65z"/>
			</g>
		</g>
		<g>
			<g>
				<path d="M97.979,72.14c-0.459,0-0.873-0.318-0.976-0.785c-0.208-0.945-0.611-1.589-1.106-1.766
					c-0.479-0.171-0.981,0.145-1.237,0.347c-0.434,0.343-1.061,0.269-1.405-0.165c-0.342-0.434-0.268-1.062,0.165-1.405
					c0.988-0.78,2.137-1.021,3.149-0.66c1.175,0.419,2.022,1.562,2.388,3.22c0.119,0.539-0.222,1.072-0.762,1.191
					C98.123,72.132,98.051,72.14,97.979,72.14z"/>
			</g>
		</g>
		<g>
			<g>
				<path d="M101.771,74.44c-0.354,0-0.698-0.188-0.879-0.521c-0.265-0.485-0.085-1.093,0.399-1.356
					c0.835-0.455,1.767-0.69,2.727-0.575c0.549,0.065,0.94,0.562,0.876,1.11c-0.065,0.549-0.556,0.945-1.11,0.876
					c-0.053-0.006-0.11-0.003-0.163-0.004c-0.485,0-0.947,0.117-1.372,0.349C102.096,74.401,101.932,74.44,101.771,74.44z"/>
			</g>
		</g>
		<g>
			<g>
				<path d="M109.05,82.52c-0.438,0-0.866-0.095-1.271-0.282l-7.245-3.402c-1.251-0.581-1.946-1.979-1.655-3.328
					c0.09-0.461,0.495-0.812,0.981-0.812c0.553,0,1,0.442,1,0.995c0,0.074-0.008,0.157-0.024,0.229
					c-0.101,0.445,0.129,0.909,0.545,1.103l7.244,3.402c0.487,0.229,1.105,0.002,1.332-0.473c0.304-0.646,0.366-1.351,0.178-2.038
					c-0.228-0.872-0.817-1.583-1.619-1.959l-0.624-0.287c-0.502-0.23-0.722-0.824-0.49-1.326c0.229-0.501,0.821-0.724,1.326-0.49
					l0.631,0.29c1.349,0.632,2.333,1.818,2.709,3.256c0.308,1.127,0.201,2.342-0.303,3.409
					C111.271,81.848,110.206,82.52,109.05,82.52z"/>
			</g>
		</g>
		<g>
			<g>
				<path d="M103.72,80.22c-0.114,0-0.229-0.02-0.343-0.061c-0.52-0.189-0.786-0.764-0.597-1.282
					c0.403-1.104,0.93-2.133,1.564-3.062c0.311-0.455,0.934-0.573,1.39-0.261c0.456,0.312,0.572,0.934,0.261,1.39
					c-0.541,0.791-0.99,1.672-1.336,2.618C104.511,79.969,104.128,80.22,103.72,80.22z"/>
			</g>
		</g>
		<g>
			<g>
				<path d="M105.02,77.389c-0.625,0-1.187-0.182-1.636-0.562c-1.521-1.29-1.002-4.23,1.209-6.84
					c0.961-1.135,2.102-2.022,3.213-2.497c1.339-0.575,2.522-0.509,3.335,0.182c0.813,0.689,1.072,1.847,0.728,3.26
					c-0.286,1.174-0.974,2.445-1.936,3.58C108.374,76.351,106.515,77.389,105.02,77.389z M109.495,69.104
					c-0.224,0-0.53,0.063-0.902,0.223c-0.819,0.351-1.721,1.062-2.474,1.952c-1.604,1.894-1.846,3.68-1.442,4.021
					c0.158,0.134,0.609,0.146,1.256-0.131c0.818-0.351,1.721-1.062,2.475-1.952l0,0c0.754-0.89,1.307-1.896,1.518-2.761
					c0.167-0.685,0.082-1.126-0.077-1.261C109.78,69.14,109.66,69.104,109.495,69.104z"/>
			</g>
		</g>
		<g>
			<g>
				<path d="M100.587,82.046c-0.024,0-0.049-0.001-0.073-0.003c-0.541-0.041-0.952-0.484-0.925-1.026
					c0.046-0.889,0.885-2.393,1.896-2.998c0.573-0.344,1.18-0.394,1.71-0.145c0.5,0.235,0.714,0.831,0.479,1.331
					c-0.212,0.449-0.714,0.672-1.181,0.535c-0.338,0.195-0.873,1.04-0.908,1.384C101.534,81.64,101.098,82.046,100.587,82.046z"/>
			</g>
		</g>
		<g>
			<g>
				<path d="M103.401,83.371c-0.024,0-0.049-0.001-0.074-0.003c-0.541-0.042-0.952-0.486-0.924-1.028
					c0.048-0.889,0.887-2.392,1.898-2.997c0.57-0.341,1.179-0.394,1.709-0.144c0.5,0.235,0.714,0.831,0.479,1.331
					c-0.213,0.45-0.717,0.67-1.181,0.535c-0.338,0.195-0.874,1.04-0.909,1.384C104.349,82.965,103.912,83.371,103.401,83.371z"/>
			</g>
		</g>
		<g>
			<g>
				<path d="M99.28,76.773c-0.508,0-1.014-0.112-1.487-0.335c-0.846-0.398-1.486-1.102-1.804-1.981
					c-0.316-0.88-0.271-1.83,0.127-2.676c0.397-0.846,1.101-1.486,1.98-1.803c0.881-0.318,1.829-0.274,2.676,0.126
					c0.846,0.397,1.486,1.101,1.804,1.98c0.316,0.88,0.271,1.83-0.126,2.676c-0.398,0.846-1.103,1.486-1.981,1.804
					C100.081,76.703,99.681,76.773,99.28,76.773z M99.284,71.771c-0.172,0-0.344,0.029-0.51,0.089
					c-0.377,0.137-0.679,0.411-0.849,0.773c-0.171,0.362-0.19,0.77-0.055,1.146s0.41,0.679,0.773,0.849
					c0.362,0.172,0.769,0.19,1.146,0.055c0.377-0.136,0.679-0.41,0.849-0.773l0,0c0.171-0.362,0.19-0.77,0.055-1.146
					s-0.41-0.679-0.773-0.849C99.719,71.818,99.502,71.771,99.284,71.771z"/>
			</g>
		</g>
	</g>
	<g>
		<g>
			<path d="M26.91,36.65c-0.552,0-1-0.447-1-1v-4.21c0-0.553,0.448-1,1-1s1,0.447,1,1v4.21C27.91,36.203,27.462,36.65,26.91,36.65z"
				/>
		</g>
	</g>
	<g>
		<g>
			<path d="M26.91,56.6c-0.552,0-1-0.447-1-1V39.5c0-0.553,0.448-1,1-1s1,0.447,1,1v16.1C27.91,56.152,27.462,56.6,26.91,56.6z"/>
		</g>
	</g>
	<g>
		<g>
			<path d="M33,116.63h-6.09c-0.552,0-1-0.447-1-1V61.38c0-0.553,0.448-1,1-1s1,0.447,1,1v53.25H32v-95h-4.09v7.08
				c0,0.553-0.448,1-1,1s-1-0.447-1-1v-8.08c0-0.553,0.448-1,1-1H33c0.552,0,1,0.447,1,1v97C34,116.183,33.552,116.63,33,116.63z"/>
		</g>
	</g>
	<g>
		<g>
			<path d="M89,109.63H33c-0.552,0-1-0.447-1-1v-83c0-0.553,0.448-1,1-1h56c1.654,0,3,1.346,3,3V54c0,0.553-0.447,1-1,1
				s-1-0.447-1-1V27.63c0-0.552-0.448-1-1-1H34v81h55c0.552,0,1-0.448,1-1V62c0-0.553,0.447-1,1-1s1,0.447,1,1v44.63
				C92,108.284,90.654,109.63,89,109.63z M86,59h-0.92c-0.553,0-1-0.447-1-1c0-0.525,0.405-0.956,0.92-0.997V55H67
				c-0.553,0-1-0.447-1-1s0.447-1,1-1h18c0.048,0,0.111,0.006,0.177,0.015C86.2,53.104,87,53.973,87,55v3C87,58.553,86.553,59,86,59
				z"/>
		</g>
	</g>
	<g>
		<g>
			<g>
				<g>
					<path d="M33.001,61.69c-0.346,0-0.683-0.18-0.868-0.501c-0.275-0.479-0.111-1.09,0.368-1.365l3.7-2.131
						c0.478-0.275,1.09-0.111,1.366,0.367s0.111,1.09-0.368,1.365l-3.7,2.131C33.342,61.647,33.17,61.69,33.001,61.69z"/>
				</g>
			</g>
			<g>
				<g>
					<path d="M38.27,57.18c-0.552,0-1-0.447-1-1v-6.83c0-0.357,0.191-0.688,0.5-0.866l7.18-4.14c0.31-0.178,0.69-0.178,0.999,0
						l7.19,4.14c0.31,0.178,0.501,0.509,0.501,0.866V54c0,0.553-0.448,1-1,1s-1-0.447-1-1v-4.072l-6.189-3.563l-6.181,3.563v6.252
						C39.27,56.732,38.822,57.18,38.27,57.18z"/>
				</g>
			</g>
			<g>
				<g>
					<path d="M45.45,37.91c-0.173,0-0.346-0.045-0.5-0.134l-7.18-4.15c-0.309-0.179-0.5-0.509-0.5-0.866v-2.13c0-0.553,0.448-1,1-1
						s1,0.447,1,1v1.553l6.181,3.572l6.189-3.572V30.63c0-0.553,0.448-1,1-1s1,0.447,1,1v2.13c0,0.357-0.19,0.688-0.5,0.866
						l-7.19,4.15C45.795,37.865,45.623,37.91,45.45,37.91z"/>
				</g>
			</g>
			<g>
				<g>
					<path d="M38.27,50.35c-0.172,0-0.344-0.044-0.499-0.133l-5.27-3.029c-0.479-0.275-0.644-0.887-0.369-1.365
						c0.275-0.479,0.888-0.643,1.366-0.369l4.771,2.742l6.181-3.563v-7.145l-6.181-3.573l-4.77,2.752
						c-0.479,0.275-1.091,0.11-1.366-0.366c-0.276-0.479-0.112-1.09,0.367-1.366l5.27-3.04c0.309-0.178,0.691-0.178,1,0l7.18,4.15
						c0.309,0.179,0.5,0.509,0.5,0.866v8.3c0,0.357-0.191,0.688-0.5,0.866l-7.18,4.14C38.615,50.305,38.442,50.35,38.27,50.35z"/>
				</g>
			</g>
			<g>
				<g>
					<path d="M67,55c-0.553,0-1-0.447-1-1v-4.072l-6.18-3.563l-6.18,3.563V54c0,0.553-0.448,1-1,1s-1-0.447-1-1v-4.65
						c0-0.357,0.191-0.688,0.5-0.866l7.18-4.14c0.31-0.178,0.689-0.178,0.999,0l7.18,4.14C67.81,48.662,68,48.992,68,49.35V54
						C68,54.553,67.553,55,67,55z"/>
				</g>
			</g>
			<g>
				<g>
					<path d="M59.82,37.91c-0.173,0-0.346-0.045-0.5-0.134l-7.18-4.15c-0.309-0.179-0.5-0.509-0.5-0.866v-2.13c0-0.553,0.448-1,1-1
						s1,0.447,1,1v1.553l6.18,3.572L66,32.183V30.63c0-0.553,0.447-1,1-1s1,0.447,1,1v2.13c0,0.357-0.19,0.688-0.5,0.866l-7.18,4.15
						C60.166,37.865,59.993,37.91,59.82,37.91z"/>
				</g>
			</g>
			<g>
				<g>
					<path d="M52.636,50.354c-0.173,0-0.345-0.045-0.5-0.134l-7.184-4.147c-0.31-0.179-0.5-0.509-0.5-0.866v-8.296
						c0-0.357,0.19-0.688,0.5-0.866l7.184-4.147c0.31-0.178,0.69-0.178,1,0l7.184,4.147c0.31,0.179,0.5,0.509,0.5,0.866v8.296
						c0,0.357-0.19,0.688-0.5,0.866l-7.184,4.147C52.981,50.31,52.809,50.354,52.636,50.354z M46.452,44.63l6.184,3.57l6.184-3.57
						v-7.142l-6.184-3.57l-6.184,3.57V44.63z"/>
				</g>
			</g>
			<g>
				<g>
					<path d="M81.37,55c-0.553,0-1-0.447-1-1v-4.072l-6.18-3.563L68,49.928V54c0,0.553-0.447,1-1,1s-1-0.447-1-1v-4.65
						c0-0.357,0.191-0.688,0.501-0.866l7.19-4.14c0.31-0.179,0.69-0.178,0.998,0l7.18,4.14c0.311,0.179,0.501,0.509,0.501,0.866V54
						C82.37,54.553,81.923,55,81.37,55z"/>
				</g>
			</g>
			<g>
				<g>
					<path d="M74.19,37.91c-0.173,0-0.346-0.045-0.5-0.134l-7.19-4.15c-0.31-0.179-0.5-0.509-0.5-0.866v-2.13c0-0.553,0.447-1,1-1
						s1,0.447,1,1v1.553l6.19,3.572l6.18-3.572V30.63c0-0.553,0.447-1,1-1s1,0.447,1,1v2.13c0,0.357-0.19,0.688-0.5,0.866
						l-7.18,4.15C74.536,37.865,74.363,37.91,74.19,37.91z"/>
				</g>
			</g>
			<g>
				<g>
					<path d="M67.004,50.354c-0.173,0-0.346-0.045-0.5-0.134l-7.184-4.147c-0.31-0.179-0.5-0.509-0.5-0.866v-8.296
						c0-0.357,0.19-0.688,0.5-0.866l7.184-4.147c0.309-0.178,0.691-0.178,1,0l7.185,4.147c0.31,0.179,0.5,0.509,0.5,0.866v8.296
						c0,0.357-0.19,0.688-0.5,0.866l-7.185,4.147C67.35,50.31,67.177,50.354,67.004,50.354z M60.82,44.63l6.184,3.57l6.185-3.57
						v-7.142l-6.185-3.57l-6.184,3.57V44.63z"/>
				</g>
			</g>
			<g>
				<g>
					<path d="M81.37,50.35c-0.173,0-0.345-0.045-0.499-0.134l-7.18-4.14c-0.311-0.179-0.501-0.509-0.501-0.866v-8.3
						c0-0.357,0.19-0.688,0.5-0.866l7.18-4.15c0.309-0.178,0.689-0.178,1,0l3.71,2.141c0.479,0.276,0.643,0.888,0.366,1.366
						c-0.277,0.478-0.89,0.641-1.366,0.366l-3.21-1.852l-6.18,3.572v7.145l6.18,3.563l3.21-1.852
						c0.479-0.276,1.089-0.112,1.366,0.366c0.276,0.479,0.111,1.091-0.366,1.366l-3.71,2.14C81.715,50.305,81.543,50.35,81.37,50.35
						z"/>
				</g>
			</g>
		</g>
		<g>
			<g>
				<g>
					<path d="M43.06,55c-0.552,0-1-0.447-1-1v-1.88c0-0.357,0.19-0.688,0.5-0.866l2.39-1.38c0.479-0.276,1.089-0.113,1.366,0.366
						c0.276,0.479,0.112,1.09-0.366,1.366l-1.89,1.091V54C44.06,54.553,43.612,55,43.06,55z"/>
				</g>
			</g>
			<g>
				<g>
					<path d="M35.873,43.441c-0.552,0-1-0.447-1-1v-2.766c0-0.357,0.19-0.688,0.5-0.866l2.395-1.383
						c0.477-0.277,1.089-0.113,1.366,0.366c0.276,0.479,0.112,1.09-0.366,1.366l-1.895,1.094v2.188
						C36.873,42.994,36.425,43.441,35.873,43.441z"/>
				</g>
			</g>
			<g>
				<g>
					<path d="M57.43,55c-0.552,0-1-0.447-1-1v-1.88c0-0.357,0.19-0.688,0.5-0.866l2.39-1.38c0.478-0.276,1.09-0.113,1.366,0.366
						c0.276,0.479,0.112,1.09-0.366,1.366l-1.89,1.091V54C58.43,54.553,57.982,55,57.43,55z"/>
				</g>
			</g>
			<g>
				<g>
					<path d="M50.241,43.441c-0.552,0-1-0.447-1-1v-2.766c0-0.357,0.19-0.688,0.5-0.866l2.395-1.383
						c0.478-0.277,1.09-0.113,1.366,0.366c0.276,0.479,0.112,1.09-0.366,1.366l-1.895,1.094v2.188
						C51.241,42.994,50.793,43.441,50.241,43.441z"/>
				</g>
			</g>
			<g>
				<g>
					<path d="M71.79,55c-0.553,0-1-0.447-1-1v-1.88c0-0.358,0.191-0.688,0.502-0.867l2.4-1.38c0.478-0.273,1.089-0.11,1.365,0.369
						c0.275,0.479,0.11,1.09-0.369,1.365l-1.898,1.091V54C72.79,54.553,72.343,55,71.79,55z"/>
				</g>
			</g>
			<g>
				<g>
					<path d="M64.609,43.441c-0.552,0-1-0.447-1-1v-2.766c0-0.357,0.19-0.688,0.5-0.866l2.395-1.383
						c0.477-0.276,1.09-0.114,1.366,0.366c0.276,0.479,0.112,1.09-0.366,1.366l-1.895,1.094v2.188
						C65.609,42.994,65.162,43.441,64.609,43.441z"/>
				</g>
			</g>
			<g>
				<g>
					<path d="M78.978,43.441c-0.553,0-1-0.447-1-1v-2.766c0-0.357,0.19-0.688,0.5-0.866l2.395-1.383
						c0.476-0.276,1.089-0.114,1.366,0.366c0.276,0.479,0.112,1.09-0.366,1.366l-1.895,1.094v2.188
						C79.978,42.994,79.53,43.441,78.978,43.441z"/>
				</g>
			</g>
		</g>
	</g>
	<g>
		<g>
			<path d="M85.08,104.63H33c-0.552,0-1-0.447-1-1v-73c0-0.553,0.448-1,1-1h52.08c0.553,0,1,0.447,1,1v23.38
				c0,0.319-0.153,0.62-0.411,0.809c-0.213,0.154-0.473,0.22-0.729,0.182H67c-0.553,0-1-0.447-1-1s0.447-1,1-1h17.08V31.63H34v71
				h50.08V61.99c0-0.553,0.447-1,1-1s1,0.447,1,1v41.64C86.08,104.183,85.633,104.63,85.08,104.63z"/>
		</g>
	</g>
	<g>
		<g>
			<g>
				<path d="M85,63H41c-0.227,0-0.447-0.077-0.625-0.219l-5-4C35.139,58.592,35,58.305,35,58.001s0.138-0.591,0.375-0.781
					l5.001-4.001C40.553,53.077,40.773,53,41,53h20.81c0.552,0,1,0.447,1,1s-0.448,1-1,1H41.35l-3.75,2.999L41.351,61H84.94
					c0.021-0.003,0.041-0.005,0.062-0.007L85,55H65.71c-0.553,0-1-0.447-1-1s0.447-1,1-1H85c0.048,0,0.111,0.006,0.177,0.015
					C86.2,53.104,87,53.973,87,55v6c0,1.027-0.8,1.896-1.823,1.985C85.111,62.994,85.048,63,85,63z"/>
			</g>
		</g>
		<g>
			<g>
				<path d="M92,59h-9c-0.553,0-1-0.447-1-1s0.447-1,1-1h9c0.553,0,1,0.447,1,1S92.553,59,92,59z"/>
			</g>
		</g>
		<g>
			<g>
				<path d="M64.8,59h-4.98c-0.552,0-1-0.447-1-1s0.448-1,1-1h4.98c0.553,0,1,0.447,1,1S65.353,59,64.8,59z"/>
			</g>
		</g>
		<g>
			<g>
				<path d="M78,59h-9.5c-0.553,0-1-0.447-1-1s0.447-1,1-1H78c0.553,0,1,0.447,1,1S78.553,59,78,59z"/>
			</g>
		</g>
		<g>
			<g>
				<path d="M55.62,59H47c-0.552,0-1-0.447-1-1s0.448-1,1-1h8.62c0.552,0,1,0.447,1,1S56.172,59,55.62,59z"/>
			</g>
		</g>
		<g>
			<g>
				<path d="M112,63h-11.161c-0.862,0-1.619-0.517-1.883-1.286C98.787,61.224,98.083,61,97.5,61s-1.287,0.224-1.456,0.714
					C95.78,62.483,95.023,63,94.161,63H91c-1.103,0-2-0.897-2-2v-6c0-1.103,0.897-2,2-2h3.161c0.862,0,1.619,0.517,1.883,1.286
					C96.213,54.776,96.917,55,97.5,55s1.287-0.224,1.456-0.714l0,0C99.22,53.517,99.977,53,100.839,53H112c1.654,0,3,1.346,3,3v4
					C115,61.654,113.654,63,112,63z M97.5,59c1.603,0,2.916,0.81,3.347,2.063L112,61c0.552,0,1-0.448,1-1v-4c0-0.552-0.448-1-1-1
					h-11.161l0,0l0.008-0.063l0,0C100.416,56.19,99.103,57,97.5,57s-2.916-0.81-3.347-2.063L91,55v6h3.161
					C94.584,59.81,95.897,59,97.5,59z M99.901,54.611h0.01H99.901z"/>
			</g>
		</g>
	</g>
	<g>
		<g>
			<path d="M85,105H33c-0.552,0-1-0.447-1-1V65c0-2.206,1.794-4,4-4h46c2.206,0,4,1.794,4,4v39C86,104.553,85.553,105,85,105z
				 M34,103h50V65c0-1.103-0.897-2-2-2H36c-1.103,0-2,0.897-2,2V103z"/>
		</g>
	</g>
	<g>
		<g>
			<path d="M59,83c-3.044,0-5.52-2.243-5.52-5v-0.73c0-0.553,0.448-1,1-1s1,0.447,1,1V78c0,1.654,1.579,3,3.52,3
				c0.961,0,1.863-0.327,2.541-0.922c0.63-0.561,0.979-1.301,0.979-2.078v-8c0-1.654,1.462-3,3.26-3c0.858,0,1.664,0.301,2.27,0.848
				c0.626,0.55,0.99,1.337,0.99,2.152v3.5c0,0.827,0.821,1.5,1.83,1.5c0.505,0,0.992-0.175,1.338-0.48
				c0.317-0.279,0.492-0.642,0.492-1.02V68c0-1.654,1.462-3,3.26-3c0.859,0,1.666,0.301,2.271,0.849
				c0.625,0.549,0.989,1.336,0.989,2.151v3c0,1.103,1.072,2,2.391,2c0.654,0,1.273-0.226,1.743-0.634C83.769,71.999,84,71.512,84,71
				v-6c0-1.103-0.897-2-2-2H36c-1.103,0-2,0.897-2,2v3.5c0,0.827,0.821,1.5,1.83,1.5c0.505,0,0.986-0.173,1.321-0.474
				c0.327-0.283,0.499-0.643,0.499-1.026v-1c0-1.93,1.718-3.5,3.83-3.5c0.986,0,1.929,0.346,2.654,0.975
				c0.746,0.67,1.166,1.586,1.166,2.525v5c0,0.827,0.821,1.5,1.83,1.5c0.505,0,0.993-0.175,1.338-0.48
				c0.318-0.279,0.492-0.642,0.492-1.02V71c0-1.654,1.462-3,3.26-3c0.859,0,1.665,0.301,2.27,0.848
				c0.625,0.55,0.99,1.337,0.99,2.152v2.34c0,0.553-0.448,1-1,1s-1-0.447-1-1V71c0-0.243-0.114-0.478-0.32-0.659
				C52.916,70.121,52.577,70,52.22,70c-0.683,0-1.26,0.458-1.26,1v1.5c0,0.947-0.426,1.866-1.169,2.521
				C49.076,75.651,48.13,76,47.13,76c-2.112,0-3.83-1.57-3.83-3.5v-5c0-0.379-0.173-0.743-0.488-1.025
				C42.463,66.173,41.985,66,41.48,66c-1.009,0-1.83,0.673-1.83,1.5v1c0,0.96-0.429,1.881-1.176,2.526
				C37.782,71.649,36.837,72,35.83,72C33.718,72,32,70.43,32,68.5V65c0-2.206,1.794-4,4-4h46c2.206,0,4,1.794,4,4v6
				c0,1.093-0.472,2.111-1.327,2.869C83.833,74.601,82.747,75,81.61,75c-2.421,0-4.391-1.794-4.391-4v-3
				c0-0.243-0.113-0.478-0.32-0.659C76.656,67.121,76.317,67,75.96,67c-0.683,0-1.26,0.458-1.26,1v5.5
				c0,0.946-0.426,1.865-1.169,2.52C72.815,76.651,71.87,77,70.87,77c-2.112,0-3.83-1.57-3.83-3.5V70
				c0-0.243-0.113-0.478-0.32-0.659C66.476,69.121,66.137,69,65.78,69c-0.684,0-1.26,0.458-1.26,1v8
				c0,1.355-0.587,2.626-1.655,3.577C61.817,82.496,60.447,83,59,83z"/>
		</g>
	</g>
	<g>
		<g>
			<g>
				<path d="M18.671,61.2c-0.068,0-0.137-0.007-0.206-0.021c-0.751-0.157-1.519-0.445-2.22-0.834
					c-2.594-1.434-3.891-3.904-2.953-5.623c0.967-1.744,3.691-1.959,6.338-0.509c0.31,0.17,0.631,0.377,0.957,0.616
					c0.27,0.18,0.448,0.484,0.448,0.831c0,0.553-0.443,1-0.995,1c-0.214,0-0.434-0.069-0.606-0.196
					c-0.266-0.197-0.523-0.364-0.765-0.497c-1.771-0.971-3.33-0.814-3.625-0.282c-0.291,0.533,0.407,1.937,2.169,2.91
					c0.529,0.293,1.104,0.51,1.661,0.627c0.541,0.113,0.887,0.643,0.774,1.184C19.55,60.877,19.134,61.2,18.671,61.2z"/>
			</g>
		</g>
		<g>
			<g>
				<path d="M31.791,54.69c-0.071,0-0.144-0.008-0.216-0.023c-0.54-0.118-0.88-0.652-0.762-1.191c0.364-1.656,1.213-2.8,2.391-3.22
					c1.014-0.362,2.166-0.123,3.156,0.659c0.434,0.343,0.507,0.972,0.165,1.405c-0.343,0.435-0.971,0.506-1.404,0.165
					c-0.257-0.203-0.76-0.522-1.244-0.346c-0.498,0.178-0.902,0.821-1.11,1.766C32.664,54.372,32.25,54.69,31.791,54.69z"/>
			</g>
		</g>
		<g>
			<g>
				<path d="M27.999,56.98c-0.157,0-0.317-0.037-0.466-0.115c-0.454-0.239-0.943-0.342-1.449-0.346c-0.029,0-0.058,0-0.086,0.004
					c-0.542,0.064-1.046-0.327-1.111-0.875c-0.065-0.549,0.327-1.046,0.875-1.111c0.934-0.11,1.875,0.12,2.705,0.559
					c0.488,0.258,0.675,0.863,0.417,1.352C28.705,56.787,28.358,56.98,27.999,56.98z"/>
			</g>
		</g>
		<g>
			<g>
				<path d="M20.73,65.08c-1.162,0-2.228-0.679-2.717-1.729c-0.498-1.054-0.608-2.265-0.311-3.404
					c0.375-1.438,1.361-2.624,2.703-3.253l0.625-0.298c0.499-0.234,1.095-0.026,1.333,0.474c0.237,0.499,0.025,1.096-0.473,1.333
					l-0.63,0.3c-0.808,0.379-1.397,1.089-1.622,1.95c-0.182,0.696-0.118,1.405,0.187,2.05c0.23,0.494,0.865,0.704,1.322,0.485
					l5.435-2.562c0.053-0.028,0.123-0.057,0.196-0.081l1.613-0.769c0.425-0.197,0.654-0.662,0.554-1.107
					c-0.121-0.539,0.217-1.074,0.756-1.195s1.074,0.217,1.195,0.756c0.305,1.357-0.39,2.769-1.654,3.356l-1.672,0.797
					c-0.062,0.029-0.126,0.052-0.193,0.068l-5.371,2.542C21.615,64.982,21.183,65.08,20.73,65.08z"/>
			</g>
		</g>
		<g>
			<g>
				<path d="M26.06,62.78c-0.408,0-0.792-0.251-0.939-0.657c-0.351-0.96-0.788-1.816-1.336-2.618
					c-0.312-0.455-0.195-1.078,0.26-1.39c0.456-0.312,1.079-0.195,1.39,0.261c0.635,0.928,1.162,1.958,1.564,3.062
					c0.189,0.519-0.078,1.093-0.597,1.282C26.29,62.761,26.174,62.78,26.06,62.78z"/>
			</g>
		</g>
		<g>
			<g>
				<path d="M24.754,59.946c-0.521,0-1.093-0.128-1.696-0.387c-1.111-0.475-2.252-1.362-3.214-2.497
					c-2.21-2.609-2.73-5.551-1.208-6.84c1.523-1.29,4.339-0.295,6.549,2.314c0.962,1.136,1.649,2.407,1.936,3.581
					c0.344,1.413,0.086,2.571-0.728,3.26C25.946,59.757,25.388,59.946,24.754,59.946z M20.282,51.651
					c-0.157,0-0.278,0.033-0.353,0.097c-0.403,0.342-0.163,2.128,1.441,4.021l0,0c0.753,0.89,1.655,1.602,2.474,1.952
					c0.646,0.276,1.096,0.264,1.255,0.131c0.159-0.135,0.244-0.576,0.078-1.261c-0.211-0.865-0.765-1.872-1.519-2.762
					C22.354,52.29,20.969,51.651,20.282,51.651z"/>
			</g>
		</g>
		<g>
			<g>
				<path d="M29.188,64.62c-0.527,0-0.968-0.413-0.998-0.945c-0.036-0.345-0.571-1.188-0.908-1.382
					c-0.461,0.129-0.968-0.085-1.18-0.536c-0.235-0.5-0.021-1.096,0.479-1.331c0.531-0.247,1.138-0.197,1.708,0.144
					c1.012,0.605,1.851,2.109,1.897,2.999c0.029,0.551-0.395,1.021-0.946,1.051C29.224,64.62,29.206,64.62,29.188,64.62z"/>
			</g>
		</g>
		<g>
			<g>
				<path d="M26.373,65.944c-0.527,0-0.968-0.413-0.998-0.945c-0.036-0.345-0.571-1.188-0.908-1.382
					c-0.461,0.129-0.968-0.085-1.18-0.536c-0.235-0.5-0.021-1.096,0.479-1.331c0.531-0.247,1.138-0.198,1.708,0.144
					c1.012,0.605,1.851,2.109,1.897,2.999c0.029,0.551-0.395,1.021-0.946,1.051C26.408,65.944,26.391,65.944,26.373,65.944z"/>
			</g>
		</g>
		<g>
			<g>
				<path d="M30.497,59.324c-0.4,0-0.801-0.069-1.189-0.209c-0.879-0.316-1.583-0.957-1.98-1.803l0,0
					c-0.398-0.846-0.443-1.796-0.126-2.676c0.317-0.879,0.958-1.583,1.803-1.981c0.846-0.397,1.795-0.443,2.676-0.126
					c0.88,0.316,1.583,0.957,1.981,1.803c0.822,1.747,0.069,3.836-1.677,4.658C31.511,59.213,31.005,59.324,30.497,59.324z
					 M30.494,54.322c-0.218,0-0.435,0.048-0.638,0.144c-0.363,0.17-0.637,0.472-0.773,0.849s-0.116,0.784,0.054,1.146l0,0
					c0.17,0.362,0.472,0.637,0.849,0.773c0.377,0.136,0.784,0.116,1.146-0.055c0.749-0.352,1.071-1.247,0.719-1.996
					c-0.17-0.362-0.472-0.637-0.849-0.772C30.837,54.352,30.665,54.322,30.494,54.322z"/>
			</g>
		</g>
	</g>
	<g>
		<g>
			<g>
				<path d="M103.038,26.823c-0.184,0-0.369-0.051-0.535-0.156c-0.467-0.296-0.604-0.914-0.308-1.38l1.4-2.202
					c0.296-0.467,0.914-0.603,1.38-0.308c0.467,0.296,0.604,0.914,0.308,1.38l-1.4,2.202
					C103.692,26.659,103.369,26.823,103.038,26.823z"/>
			</g>
		</g>
		<g>
			<g>
				<path d="M106.449,21.421c-0.184,0-0.369-0.051-0.536-0.156c-0.466-0.297-0.604-0.915-0.307-1.381l1.4-2.201
					c0.296-0.464,0.913-0.603,1.381-0.307c0.466,0.297,0.604,0.915,0.307,1.381l-1.4,2.201
					C107.104,21.257,106.78,21.421,106.449,21.421z"/>
			</g>
		</g>
		<g>
			<g>
				<path d="M103.85,22.013c-0.182,0-0.366-0.05-0.532-0.153l-2.214-1.394c-0.467-0.295-0.607-0.912-0.313-1.379
					c0.296-0.468,0.913-0.606,1.379-0.314l2.214,1.394c0.468,0.295,0.608,0.912,0.314,1.379
					C104.507,21.848,104.182,22.013,103.85,22.013z"/>
			</g>
		</g>
		<g>
			<g>
				<path d="M109.251,25.423c-0.182,0-0.366-0.05-0.531-0.153l-2.213-1.393c-0.468-0.295-0.608-0.912-0.314-1.379
					c0.295-0.468,0.913-0.607,1.379-0.314l2.213,1.393c0.468,0.295,0.608,0.912,0.314,1.379
					C109.908,25.258,109.583,25.423,109.251,25.423z"/>
			</g>
		</g>
	</g>
	<g>
		<g>
			<g>
				<path d="M12.521,94.505c-0.184,0-0.37-0.051-0.536-0.156c-0.466-0.297-0.604-0.915-0.307-1.381l1.4-2.201
					c0.296-0.465,0.916-0.602,1.38-0.307c0.466,0.297,0.604,0.915,0.307,1.381l-1.4,2.201
					C13.175,94.341,12.851,94.505,12.521,94.505z"/>
			</g>
		</g>
		<g>
			<g>
				<path d="M15.931,89.104c-0.184,0-0.369-0.051-0.536-0.156c-0.466-0.297-0.604-0.914-0.307-1.381l1.401-2.202
					c0.296-0.465,0.914-0.602,1.38-0.307c0.466,0.297,0.604,0.914,0.307,1.381l-1.401,2.202
					C16.585,88.939,16.262,89.104,15.931,89.104z"/>
			</g>
		</g>
		<g>
			<g>
				<path d="M13.332,89.694c-0.182,0-0.366-0.05-0.532-0.153l-2.213-1.393c-0.467-0.294-0.608-0.912-0.313-1.379
					c0.294-0.468,0.911-0.606,1.379-0.314l2.213,1.393c0.467,0.294,0.608,0.912,0.313,1.379
					C13.989,89.529,13.665,89.694,13.332,89.694z"/>
			</g>
		</g>
		<g>
			<g>
				<path d="M18.734,93.105c-0.182,0-0.366-0.05-0.532-0.153l-2.214-1.394c-0.467-0.295-0.608-0.912-0.313-1.379
					c0.294-0.469,0.911-0.607,1.379-0.314l2.214,1.394c0.467,0.295,0.608,0.912,0.313,1.379
					C19.391,92.94,19.066,93.105,18.734,93.105z"/>
			</g>
		</g>
	</g>
	<g>
		<g>
			<g>
				<path d="M111.594,105.975c-0.184,0-0.369-0.051-0.536-0.156c-0.466-0.297-0.604-0.915-0.307-1.381l1.4-2.201
					c0.296-0.465,0.912-0.603,1.381-0.307c0.466,0.297,0.604,0.915,0.307,1.381l-1.4,2.201
					C112.248,105.811,111.925,105.975,111.594,105.975z"/>
			</g>
		</g>
		<g>
			<g>
				<path d="M115.004,100.573c-0.184,0-0.369-0.051-0.535-0.156c-0.467-0.296-0.604-0.914-0.308-1.38l1.4-2.202
					c0.296-0.466,0.914-0.604,1.38-0.308c0.467,0.296,0.604,0.914,0.308,1.38l-1.4,2.202
					C115.658,100.409,115.335,100.573,115.004,100.573z"/>
			</g>
		</g>
		<g>
			<g>
				<path d="M112.405,101.164c-0.182,0-0.366-0.05-0.531-0.153l-2.214-1.393c-0.468-0.294-0.608-0.912-0.314-1.379
					c0.295-0.468,0.913-0.606,1.379-0.314l2.214,1.393c0.468,0.294,0.608,0.912,0.314,1.379
					C113.062,100.999,112.737,101.164,112.405,101.164z"/>
			</g>
		</g>
		<g>
			<g>
				<path d="M117.807,104.575c-0.182,0-0.366-0.05-0.531-0.153l-2.214-1.393c-0.468-0.294-0.608-0.912-0.314-1.379
					c0.295-0.468,0.912-0.607,1.379-0.314l2.214,1.393c0.468,0.294,0.608,0.912,0.314,1.379
					C118.464,104.41,118.139,104.575,117.807,104.575z"/>
			</g>
		</g>
	</g>
</g>
</svg>
