<?xml version="1.0" encoding="utf-8"?>
<!-- Generator: Adobe Illustrator 24.2.3, SVG Export Plug-In . SVG Version: 6.00 Build 0)  -->
<svg version="1.1" id="_x30_4" xmlns="http://www.w3.org/2000/svg" xmlns:xlink="http://www.w3.org/1999/xlink" x="0px" y="0px"
	 viewBox="0 0 128 128" style="enable-background:new 0 0 128 128;" xml:space="preserve">
<g>
	<g>
		<g>
			<path d="M50.39,27h-3.35c-0.553,0-1-0.448-1-1s0.447-1,1-1h3.35c0.553,0,1,0.448,1,1S50.942,27,50.39,27z"/>
		</g>
	</g>
	<g>
		<g>
			<path d="M39,29c-0.553,0-1-0.448-1-1v-1c0-0.552,0.447-1,1-1s1,0.448,1,1v1C40,28.552,39.553,29,39,29z"/>
		</g>
	</g>
	<g>
		<g>
			<path d="M93,33H35c-0.553,0-1-0.448-1-1v-6c0-0.552,0.447-1,1-1h6.94c0.553,0,1,0.448,1,1s-0.447,1-1,1H36v4h56v-4H53.08
				c-0.553,0-1-0.448-1-1s0.447-1,1-1H93c0.553,0,1,0.448,1,1v6C94,32.552,93.553,33,93,33z"/>
		</g>
	</g>
	<g>
		<g>
			<g>
				<path d="M86,81H42c-0.553,0-1-0.448-1-1V64c0-0.552,0.447-1,1-1h44c0.553,0,1,0.448,1,1v16C87,80.552,86.553,81,86,81z M43,79
					h42V65H43V79z"/>
			</g>
		</g>
		<g>
			<g>
				<path d="M86,81H42c-0.553,0-1-0.448-1-1V64c0-0.552,0.447-1,1-1h44c0.553,0,1,0.448,1,1v16C87,80.552,86.553,81,86,81z M43,79
					h42V65H43V79z"/>
			</g>
		</g>
		<g>
			<g>
				<path d="M92,75h-6c-0.553,0-1-0.448-1-1v-5c0-0.552,0.447-1,1-1h4c0.409,0,0.776,0.249,0.929,0.628l2,5
					c0.123,0.308,0.085,0.657-0.101,0.932C92.642,74.835,92.332,75,92,75z M87,73h3.523l-1.2-3H87V73z"/>
			</g>
		</g>
		<g>
			<g>
				<path d="M42,75h-6c-0.332,0-0.642-0.165-0.828-0.439c-0.186-0.275-0.224-0.624-0.101-0.932l2-5C37.224,68.249,37.591,68,38,68h4
					c0.553,0,1,0.448,1,1v5C43,74.552,42.553,75,42,75z M37.477,73H41v-3h-2.323L37.477,73z"/>
			</g>
		</g>
		<g>
			<g>
				<path d="M69,73H59c-1.654,0-3-1.346-3-3c0-0.811,0.316-1.566,0.893-2.126C57.435,67.317,58.189,67,59,67h2.34
					c0.553,0,1,0.448,1,1s-0.447,1-1,1H59c-0.267,0-0.513,0.102-0.694,0.288C58.103,69.487,58,69.733,58,70c0,0.551,0.448,1,1,1h10
					c0.267,0,0.513-0.102,0.694-0.288C69.897,70.513,70,70.267,70,70c0-0.551-0.448-1-1-1h-3.86c-0.553,0-1-0.448-1-1s0.447-1,1-1
					H69c1.654,0,3,1.346,3,3c0,0.811-0.316,1.566-0.893,2.126C70.565,72.683,69.811,73,69,73z"/>
			</g>
		</g>
		<g>
			<g>
				<path d="M46,71c-0.553,0-1-0.448-1-1v-2c0-0.552,0.447-1,1-1s1,0.448,1,1v2C47,70.552,46.553,71,46,71z"/>
			</g>
		</g>
		<g>
			<g>
				<path d="M46,77c-0.553,0-1-0.448-1-1v-2c0-0.552,0.447-1,1-1s1,0.448,1,1v2C47,76.552,46.553,77,46,77z"/>
			</g>
		</g>
	</g>
	<g>
		<g>
			<path d="M49.39,101.23c-0.404,0-0.773-0.245-0.928-0.619c-0.082-0.196-0.096-0.411-0.049-0.612l0.58-3.237
				c0.075-0.478,0.489-0.847,0.987-0.847c0.553,0,1,0.443,1,0.995v0.01c0,0.059-0.005,0.118-0.016,0.176l-0.582,3.25
				C50.325,100.844,49.902,101.23,49.39,101.23z"/>
		</g>
	</g>
	<g>
		<g>
			<path d="M48,109h-6c-0.553,0-1-0.448-1-1s0.447-1,1-1h6c0.553,0,1,0.448,1,1S48.553,109,48,109z"/>
		</g>
	</g>
	<g>
		<g>
			<path d="M44.101,97.24c-0.059,0-0.117-0.005-0.177-0.016c-0.544-0.097-0.905-0.617-0.809-1.16l2.9-16.24
				C46.101,79.347,46.516,79,47,79h6c0.296,0,0.577,0.131,0.767,0.358c0.19,0.227,0.27,0.526,0.218,0.818l-1.87,10.47
				c-0.098,0.544-0.621,0.906-1.16,0.809c-0.544-0.097-0.905-0.617-0.809-1.16L51.806,81h-3.969l-2.753,15.416
				C44.997,96.9,44.576,97.24,44.101,97.24z"/>
		</g>
	</g>
	<g>
		<g>
			<path d="M87,109h-6c-0.484,0-0.899-0.347-0.984-0.824l-5-28c-0.052-0.292,0.027-0.591,0.218-0.818C75.423,79.131,75.704,79,76,79
				h6c0.484,0,0.899,0.347,0.984,0.824l5,28c0.052,0.292-0.027,0.591-0.218,0.818C87.577,108.869,87.296,109,87,109z M81.837,107
				h3.969l-4.643-26h-3.969L81.837,107z"/>
		</g>
	</g>
	<g>
		<g>
			<g>
				<path d="M14.941,45.55c-0.066,0-0.135-0.006-0.202-0.021c-0.758-0.156-1.506-0.437-2.224-0.835
					c-1.59-0.878-2.764-2.188-3.139-3.504c-0.222-0.774-0.155-1.51,0.19-2.128c0.335-0.615,0.924-1.064,1.698-1.29
					c1.31-0.379,3.04-0.084,4.628,0.793c0.367,0.2,0.711,0.426,1.045,0.689c0.434,0.341,0.51,0.97,0.168,1.404
					c-0.34,0.433-0.968,0.511-1.404,0.168c-0.245-0.193-0.498-0.359-0.771-0.508c-1.104-0.61-2.321-0.854-3.105-0.625
					c-0.176,0.051-0.406,0.151-0.507,0.336c-0.106,0.191-0.068,0.438-0.019,0.613c0.226,0.791,1.083,1.694,2.184,2.303
					c0.543,0.3,1.101,0.511,1.658,0.625c0.541,0.111,0.89,0.64,0.778,1.181C15.822,45.224,15.406,45.55,14.941,45.55z"/>
			</g>
		</g>
		<g>
			<g>
				<path d="M28.061,39.03c-0.071,0-0.144-0.007-0.216-0.023c-0.54-0.119-0.881-0.652-0.762-1.191
					c0.363-1.651,1.209-2.792,2.38-3.213c1.009-0.363,2.162-0.127,3.153,0.651c0.436,0.34,0.512,0.969,0.171,1.404
					s-0.97,0.511-1.403,0.17c-0.259-0.203-0.766-0.514-1.245-0.343c-0.493,0.177-0.896,0.819-1.103,1.76
					C28.934,38.712,28.52,39.03,28.061,39.03z"/>
			</g>
		</g>
		<g>
			<g>
				<path d="M24.269,41.32c-0.152,0-0.308-0.035-0.453-0.109c-0.464-0.237-0.933-0.339-1.464-0.341
					c-0.035,0-0.071,0.001-0.105,0.004c-0.549,0.06-1.042-0.339-1.101-0.887c-0.06-0.549,0.338-1.042,0.888-1.101
					c0.923-0.1,1.86,0.121,2.69,0.543c0.492,0.251,0.688,0.853,0.437,1.345C24.984,41.121,24.633,41.32,24.269,41.32z"/>
			</g>
		</g>
		<g>
			<g>
				<path d="M16.99,49.42c-1.162,0-2.229-0.678-2.717-1.728c-0.503-1.065-0.609-2.277-0.297-3.408
					c0.372-1.425,1.357-2.61,2.698-3.239l0.626-0.298c0.501-0.238,1.095-0.025,1.333,0.473c0.237,0.499,0.025,1.095-0.474,1.333
					l-0.631,0.3c-0.808,0.378-1.396,1.088-1.621,1.95c-0.188,0.683-0.125,1.403,0.176,2.041c0.231,0.494,0.868,0.703,1.321,0.486
					l7.249-3.414c0.422-0.196,0.646-0.65,0.548-1.106c-0.116-0.54,0.229-1.071,0.769-1.187c0.536-0.119,1.07,0.228,1.187,0.769
					c0.294,1.374-0.387,2.746-1.655,3.335l-7.236,3.408C17.876,49.323,17.444,49.42,16.99,49.42z"/>
			</g>
		</g>
		<g>
			<g>
				<path d="M22.32,47.121c-0.408,0-0.791-0.252-0.939-0.657c-0.35-0.959-0.787-1.815-1.336-2.619
					c-0.312-0.456-0.195-1.079,0.261-1.39c0.458-0.31,1.079-0.194,1.39,0.261c0.636,0.93,1.162,1.96,1.564,3.062
					c0.189,0.519-0.078,1.093-0.597,1.283C22.55,47.101,22.435,47.121,22.32,47.121z"/>
			</g>
		</g>
		<g>
			<g>
				<path d="M21.02,44.284c-1.495,0-3.354-1.038-4.913-2.877c-0.962-1.135-1.649-2.407-1.936-3.581
					c-0.345-1.413-0.086-2.571,0.728-3.26c1.524-1.291,4.339-0.293,6.549,2.316c0.962,1.135,1.649,2.407,1.936,3.581
					c0.345,1.413,0.086,2.571-0.728,3.26C22.206,44.103,21.645,44.284,21.02,44.284z M16.544,35.995
					c-0.157,0-0.277,0.033-0.353,0.097c-0.159,0.134-0.244,0.576-0.077,1.26c0.211,0.865,0.764,1.872,1.518,2.761
					c1.604,1.893,3.326,2.422,3.73,2.083c0.159-0.134,0.244-0.576,0.077-1.26c-0.211-0.865-0.764-1.872-1.518-2.761
					C18.616,36.634,17.231,35.995,16.544,35.995z"/>
			</g>
		</g>
		<g>
			<g>
				<path d="M25.451,48.964c-0.527,0-0.968-0.412-0.997-0.945c-0.036-0.345-0.571-1.187-0.908-1.382
					c-0.465,0.137-0.969-0.085-1.18-0.536c-0.235-0.5-0.021-1.095,0.479-1.331c0.529-0.25,1.136-0.199,1.707,0.143
					c1.013,0.605,1.852,2.108,1.899,2.998c0.028,0.551-0.395,1.022-0.946,1.051C25.487,48.963,25.469,48.964,25.451,48.964z"/>
			</g>
		</g>
		<g>
			<g>
				<path d="M22.636,50.289c-0.527,0-0.969-0.413-0.997-0.946c-0.036-0.344-0.571-1.187-0.908-1.382
					c-0.465,0.136-0.968-0.086-1.18-0.536c-0.235-0.5-0.021-1.095,0.479-1.331c0.53-0.251,1.139-0.198,1.709,0.143
					c1.013,0.606,1.852,2.11,1.897,2.999c0.028,0.552-0.396,1.022-0.947,1.05C22.671,50.288,22.653,50.289,22.636,50.289z"/>
			</g>
		</g>
		<g>
			<g>
				<path d="M26.76,43.668c-0.4,0-0.801-0.069-1.188-0.208c-0.879-0.317-1.583-0.958-1.981-1.803
					c-0.821-1.746-0.069-3.835,1.677-4.657c1.75-0.821,3.837-0.068,4.658,1.677c0.82,1.747,0.067,3.836-1.678,4.657
					C27.773,43.556,27.268,43.668,26.76,43.668z M26.754,38.667c-0.213,0-0.431,0.045-0.636,0.143
					c-0.748,0.352-1.07,1.247-0.718,1.996c0.17,0.363,0.472,0.637,0.849,0.773c0.377,0.135,0.783,0.116,1.146-0.054
					c0.748-0.352,1.07-1.248,0.719-1.996C27.859,38.985,27.318,38.667,26.754,38.667z"/>
			</g>
		</g>
	</g>
	<g>
		<g>
			<g>
				<path d="M109.059,24.26c-0.465,0-0.881-0.325-0.979-0.798c-0.111-0.541,0.237-1.07,0.778-1.181
					c0.558-0.115,1.115-0.325,1.657-0.625c1.101-0.609,1.958-1.51,2.184-2.296c0.051-0.177,0.09-0.427-0.015-0.614
					c-0.104-0.191-0.334-0.292-0.51-0.342c-0.786-0.231-2.004,0.015-3.102,0.623c-0.277,0.152-0.53,0.318-0.775,0.511
					c-0.436,0.342-1.063,0.266-1.404-0.168c-0.342-0.434-0.266-1.063,0.168-1.404c0.334-0.263,0.678-0.489,1.049-0.692
					c1.585-0.875,3.313-1.169,4.624-0.79c0.774,0.226,1.363,0.675,1.703,1.299c0.342,0.617,0.406,1.355,0.184,2.13
					c-0.376,1.309-1.549,2.615-3.138,3.493c-0.717,0.398-1.465,0.679-2.223,0.834C109.193,24.253,109.125,24.26,109.059,24.26z"/>
			</g>
		</g>
		<g>
			<g>
				<path d="M95.939,17.75c-0.459,0-0.873-0.318-0.976-0.785c-0.208-0.945-0.612-1.59-1.108-1.768
					c-0.482-0.174-0.982,0.14-1.239,0.34c-0.435,0.341-1.062,0.265-1.403-0.17s-0.265-1.063,0.171-1.404
					c0.988-0.775,2.137-1.014,3.147-0.648c1.174,0.421,2.021,1.565,2.386,3.221c0.119,0.539-0.222,1.073-0.762,1.191
					C96.083,17.743,96.011,17.75,95.939,17.75z"/>
			</g>
		</g>
		<g>
			<g>
				<path d="M99.731,20.03c-0.364,0-0.716-0.2-0.893-0.547c-0.25-0.492-0.054-1.094,0.438-1.344
					c0.831-0.423,1.771-0.643,2.689-0.543c0.55,0.059,0.947,0.552,0.888,1.101c-0.059,0.548-0.547,0.945-1.101,0.887
					c-0.057-0.006-0.117-0.003-0.174-0.004c-0.481,0-0.951,0.115-1.396,0.341C100.039,19.995,99.884,20.03,99.731,20.03z"/>
			</g>
		</g>
		<g>
			<g>
				<path d="M107.01,28.13c-0.454,0-0.886-0.097-1.284-0.289l-7.23-3.396c-1.268-0.604-1.945-1.979-1.652-3.344
					c0.115-0.54,0.646-0.885,1.187-0.769s0.885,0.647,0.769,1.187c-0.098,0.457,0.13,0.917,0.553,1.118l7.235,3.398
					c0.484,0.23,1.1,0.01,1.328-0.477c0.303-0.643,0.366-1.362,0.182-2.032c-0.229-0.875-0.817-1.584-1.62-1.96l-0.636-0.303
					c-0.499-0.237-0.711-0.834-0.474-1.333c0.238-0.498,0.834-0.711,1.333-0.473l0.631,0.3c1.336,0.626,2.321,1.812,2.697,3.25
					c0.309,1.118,0.202,2.33-0.303,3.4C109.238,27.452,108.172,28.13,107.01,28.13z"/>
			</g>
		</g>
		<g>
			<g>
				<path d="M101.68,25.831c-0.115,0-0.231-0.02-0.346-0.062c-0.519-0.191-0.783-0.766-0.593-1.284
					c0.409-1.111,0.936-2.141,1.563-3.059c0.312-0.456,0.933-0.573,1.39-0.261c0.456,0.312,0.572,0.934,0.261,1.39
					c-0.534,0.782-0.984,1.664-1.337,2.621C102.469,25.58,102.087,25.831,101.68,25.831z"/>
			</g>
		</g>
		<g>
			<g>
				<path d="M102.98,22.996c-0.625,0-1.187-0.181-1.636-0.562c-0.813-0.689-1.072-1.847-0.728-3.26
					c0.286-1.174,0.974-2.445,1.936-3.581c2.21-2.609,5.025-3.605,6.549-2.316c0.813,0.689,1.072,1.847,0.728,3.26
					c-0.286,1.174-0.974,2.445-1.936,3.581C106.335,21.958,104.476,22.996,102.98,22.996z M107.456,14.707
					c-0.688,0-2.072,0.639-3.378,2.18c-0.754,0.89-1.307,1.896-1.518,2.761c-0.167,0.684-0.082,1.126,0.077,1.26
					c0.404,0.346,2.126-0.188,3.73-2.083c0.754-0.89,1.307-1.896,1.518-2.761c0.167-0.684,0.082-1.126-0.077-1.26
					C107.733,14.74,107.613,14.707,107.456,14.707z"/>
			</g>
		</g>
		<g>
			<g>
				<path d="M98.547,27.653c-0.024,0-0.049-0.001-0.074-0.003c-0.541-0.042-0.952-0.486-0.924-1.028
					c0.048-0.89,0.887-2.393,1.899-2.998c0.57-0.343,1.177-0.393,1.707-0.143c0.5,0.235,0.714,0.831,0.479,1.331
					c-0.211,0.45-0.712,0.671-1.18,0.536c-0.337,0.195-0.873,1.04-0.908,1.384C99.494,27.248,99.057,27.653,98.547,27.653z"/>
			</g>
		</g>
		<g>
			<g>
				<path d="M101.362,28.978c-0.024,0-0.049-0.001-0.073-0.002c-0.541-0.042-0.952-0.484-0.925-1.027
					c0.046-0.888,0.885-2.392,1.897-2.999c0.571-0.342,1.179-0.393,1.709-0.144c0.5,0.235,0.714,0.831,0.479,1.331
					c-0.212,0.449-0.712,0.671-1.181,0.536c-0.337,0.195-0.873,1.04-0.908,1.383C102.31,28.571,101.873,28.978,101.362,28.978z"/>
			</g>
		</g>
		<g>
			<g>
				<path d="M97.237,22.378c-0.498,0-1.004-0.106-1.484-0.333c-1.745-0.821-2.498-2.91-1.678-4.657
					c0.822-1.747,2.913-2.499,4.658-1.677c0.846,0.397,1.486,1.101,1.803,1.981s0.271,1.83-0.126,2.676
					C99.814,21.634,98.552,22.378,97.237,22.378z M97.245,17.378c-0.563,0-1.104,0.319-1.359,0.861
					c-0.352,0.748-0.029,1.644,0.719,1.996c0.749,0.352,1.644,0.03,1.995-0.719l0,0c0.171-0.362,0.19-0.77,0.055-1.147
					c-0.136-0.377-0.41-0.678-0.772-0.849C97.676,17.424,97.459,17.378,97.245,17.378z"/>
			</g>
		</g>
	</g>
	<g>
		<g>
			<g>
				<path d="M101,109h-7c-0.271,0-0.529-0.11-0.718-0.304c-0.188-0.194-0.29-0.457-0.282-0.727c0.021-0.675,0.047-1.324,0.071-1.95
					c0.245-6.315,0.381-9.794-4.729-14.267c-0.34-0.297-0.438-0.786-0.24-1.191c0.198-0.405,0.643-0.627,1.087-0.543
					c5.431,1.042,8.828,3.548,10.69,7.887c0.218,0.508-0.017,1.096-0.524,1.313c-0.51,0.217-1.095-0.017-1.313-0.524
					c-1.163-2.709-2.986-4.543-5.736-5.695c3.119,3.999,2.97,7.817,2.765,13.099c-0.012,0.295-0.023,0.596-0.034,0.902H101
					c0.553,0,1,0.448,1,1S101.553,109,101,109z"/>
			</g>
		</g>
		<g>
			<g>
				<path d="M104,109h-7c-0.268,0-0.524-0.107-0.712-0.298c-0.188-0.191-0.292-0.449-0.288-0.717
					c0.085-5.801,1.563-10.451,4.395-13.819c0.355-0.422,0.986-0.477,1.409-0.122c0.423,0.355,0.478,0.986,0.122,1.409
					c-2.365,2.813-3.673,6.694-3.896,11.546h4.953c-0.006-3.733,0.61-7.017,1.876-10.01c0.918-2.181,2.168-4.181,3.788-6.049
					c-1.497,0.541-2.837,1.222-4.004,2.039c-0.453,0.316-1.076,0.206-1.393-0.246c-0.316-0.453-0.206-1.076,0.246-1.393
					c2.254-1.577,5.052-2.695,8.314-3.323c0.438-0.087,0.889,0.137,1.087,0.542c0.198,0.406,0.101,0.894-0.239,1.191
					c-2.754,2.414-4.703,5.035-5.957,8.016c-1.267,2.996-1.823,6.332-1.703,10.201c0.009,0.271-0.093,0.533-0.281,0.727
					S104.271,109,104,109z"/>
			</g>
		</g>
		<g>
			<g>
				<path d="M107.2,109H103c-0.553,0-1-0.448-1-1s0.447-1,1-1h3.194c0.063-3.159,0.897-5.887,2.527-8.246
					c-1.463,0.78-2.569,1.864-3.347,3.27c-0.268,0.483-0.876,0.658-1.359,0.391c-0.482-0.267-0.658-0.875-0.391-1.359
					c1.586-2.867,4.34-4.697,8.186-5.438c0.446-0.086,0.89,0.137,1.088,0.543s0.1,0.894-0.24,1.191
					c-3.182,2.785-4.598,6.158-4.458,10.616c0.008,0.271-0.094,0.533-0.282,0.727S107.471,109,107.2,109z"/>
			</g>
		</g>
	</g>
	<g>
		<g>
			<g>
				<path d="M86,65H42c-0.553,0-1-0.448-1-1V48c0-0.552,0.447-1,1-1h44c0.553,0,1,0.448,1,1v16C87,64.552,86.553,65,86,65z M43,63
					h42V49H43V63z"/>
			</g>
		</g>
		<g>
			<g>
				<path d="M86,65H42c-0.553,0-1-0.448-1-1V48c0-0.552,0.447-1,1-1h44c0.553,0,1,0.448,1,1v16C87,64.552,86.553,65,86,65z M43,63
					h42V49H43V63z"/>
			</g>
		</g>
		<g>
			<g>
				<path d="M92,59h-6c-0.553,0-1-0.448-1-1v-5c0-0.552,0.447-1,1-1h4c0.409,0,0.776,0.249,0.929,0.628l2,5
					c0.123,0.308,0.085,0.657-0.101,0.932C92.642,58.835,92.332,59,92,59z M87,57h3.523l-1.2-3H87V57z"/>
			</g>
		</g>
		<g>
			<g>
				<path d="M42,59h-6c-0.332,0-0.642-0.165-0.828-0.439c-0.186-0.275-0.224-0.624-0.101-0.932l2-5C37.224,52.249,37.591,52,38,52h4
					c0.553,0,1,0.448,1,1v5C43,58.552,42.553,59,42,59z M37.477,57H41v-3h-2.323L37.477,57z"/>
			</g>
		</g>
		<g>
			<g>
				<path d="M69,57H59c-1.654,0-3-1.346-3-3c0-0.811,0.316-1.566,0.893-2.126C57.435,51.317,58.189,51,59,51h1.414
					c0.553,0,1,0.448,1,1s-0.447,1-1,1H59c-0.267,0-0.513,0.102-0.694,0.288C58.103,53.487,58,53.733,58,54c0,0.551,0.448,1,1,1h10
					c0.267,0,0.513-0.102,0.694-0.288C69.897,54.513,70,54.267,70,54c0-0.551-0.448-1-1-1h-3.99c-0.553,0-1-0.448-1-1s0.447-1,1-1
					H69c1.654,0,3,1.346,3,3c0,0.811-0.316,1.566-0.893,2.126C70.565,56.683,69.811,57,69,57z"/>
			</g>
		</g>
		<g>
			<g>
				<path d="M46,57c-0.553,0-1-0.448-1-1v-2.671c0-0.552,0.447-1,1-1s1,0.448,1,1V56C47,56.552,46.553,57,46,57z"/>
			</g>
		</g>
	</g>
	<g>
		<g>
			<g>
				<path d="M46,39c-0.553,0-1-0.448-1-1v-2c0-0.552,0.447-1,1-1s1,0.448,1,1v2C47,38.552,46.553,39,46,39z"/>
			</g>
		</g>
		<g>
			<g>
				<path d="M46,45c-0.553,0-1-0.448-1-1v-2c0-0.552,0.447-1,1-1s1,0.448,1,1v2C47,44.552,46.553,45,46,45z"/>
			</g>
		</g>
		<g>
			<g>
				<path d="M86,49H42c-0.553,0-1-0.448-1-1V32c0-0.552,0.447-1,1-1h44c0.553,0,1,0.448,1,1v16C87,48.552,86.553,49,86,49z M43,47
					h42V33H43V47z"/>
			</g>
		</g>
		<g>
			<g>
				<path d="M86,49H42c-0.553,0-1-0.448-1-1V32c0-0.552,0.447-1,1-1h44c0.553,0,1,0.448,1,1v16C87,48.552,86.553,49,86,49z M43,47
					h42V33H43V47z"/>
			</g>
		</g>
		<g>
			<g>
				<path d="M92,43h-6c-0.553,0-1-0.448-1-1v-5c0-0.552,0.447-1,1-1h4c0.409,0,0.776,0.249,0.929,0.628l2,5
					c0.123,0.308,0.085,0.657-0.101,0.932C92.642,42.835,92.332,43,92,43z M87,41h3.523l-1.2-3H87V41z"/>
			</g>
		</g>
		<g>
			<g>
				<path d="M42,43h-6c-0.332,0-0.642-0.165-0.828-0.439c-0.186-0.275-0.224-0.624-0.101-0.932l2-5C37.224,36.249,37.591,36,38,36h4
					c0.553,0,1,0.448,1,1v5C43,42.552,42.553,43,42,43z M37.477,41H41v-3h-2.323L37.477,41z"/>
			</g>
		</g>
		<g>
			<g>
				<path d="M69,41H59c-1.654,0-3-1.346-3-3c0-0.811,0.316-1.566,0.893-2.126C57.435,35.317,58.189,35,59,35h1.92
					c0.553,0,1,0.448,1,1s-0.447,1-1,1H59c-0.267,0-0.513,0.102-0.694,0.288C58.103,37.487,58,37.733,58,38c0,0.551,0.448,1,1,1h10
					c0.267,0,0.513-0.102,0.694-0.288C69.897,38.513,70,38.267,70,38c0-0.551-0.448-1-1-1h-4.74c-0.553,0-1-0.448-1-1s0.447-1,1-1
					H69c1.654,0,3,1.346,3,3c0,0.811-0.316,1.566-0.893,2.126C70.565,40.683,69.811,41,69,41z"/>
			</g>
		</g>
	</g>
	<g>
		<g>
			<g>
				<path d="M45,109h-7c-0.271,0-0.529-0.11-0.718-0.304c-0.188-0.194-0.29-0.457-0.282-0.727c0.021-0.675,0.047-1.324,0.071-1.95
					c0.245-6.315,0.381-9.794-4.729-14.267c-0.34-0.297-0.438-0.786-0.24-1.191c0.198-0.405,0.643-0.627,1.087-0.543
					c5.431,1.042,8.828,3.548,10.69,7.887c0.218,0.508-0.017,1.096-0.524,1.313c-0.51,0.217-1.095-0.017-1.313-0.524
					c-1.163-2.709-2.986-4.543-5.736-5.695c3.119,3.999,2.97,7.817,2.765,13.099c-0.012,0.295-0.023,0.596-0.034,0.902H45
					c0.553,0,1,0.448,1,1S45.553,109,45,109z"/>
			</g>
		</g>
		<g>
			<g>
				<path d="M48,109h-7c-0.268,0-0.524-0.107-0.713-0.298c-0.188-0.191-0.291-0.449-0.287-0.717
					c0.171-11.261,5.491-17.979,15.811-19.967c0.447-0.087,0.89,0.137,1.088,0.543s0.1,0.894-0.24,1.191
					c-5.463,4.78-7.896,10.568-7.658,18.216c0.008,0.271-0.094,0.533-0.282,0.728C48.529,108.89,48.271,109,48,109z M42.03,107
					h4.953c-0.011-6.434,1.812-11.635,5.661-16.061C45.896,93.367,42.409,98.656,42.03,107z"/>
			</g>
		</g>
		<g>
			<g>
				<path d="M51.2,109H47c-0.553,0-1-0.448-1-1s0.447-1,1-1h3.194c0.063-3.153,0.894-5.877,2.519-8.233
					c-0.991,0.532-1.821,1.201-2.481,2.003c-0.024,0.038-0.052,0.074-0.081,0.108c-0.284,0.333-0.536,0.706-0.771,1.139
					c-0.264,0.485-0.873,0.665-1.356,0.401c-0.485-0.264-0.665-0.871-0.401-1.356c0.283-0.521,0.59-0.979,0.936-1.396
					c0.017-0.024,0.034-0.049,0.053-0.072l0,0c1.63-2.033,4.053-3.371,7.201-3.977c0.447-0.086,0.89,0.137,1.088,0.543
					s0.1,0.894-0.24,1.191c-3.182,2.785-4.598,6.158-4.458,10.616c0.008,0.271-0.094,0.533-0.282,0.727S51.471,109,51.2,109z"/>
			</g>
		</g>
	</g>
	<g>
		<g>
			<g>
				<path d="M19.139,86.508c-0.184,0-0.369-0.05-0.536-0.156c-0.466-0.297-0.604-0.915-0.307-1.381l1.401-2.202
					c0.297-0.465,0.915-0.602,1.381-0.307c0.466,0.297,0.604,0.915,0.307,1.381l-1.401,2.202
					C19.793,86.345,19.469,86.508,19.139,86.508z"/>
			</g>
		</g>
		<g>
			<g>
				<path d="M22.55,81.107c-0.184,0-0.369-0.05-0.536-0.156c-0.466-0.296-0.604-0.915-0.307-1.38l1.4-2.202
					c0.297-0.466,0.913-0.604,1.381-0.307c0.466,0.296,0.604,0.915,0.307,1.38l-1.4,2.202C23.204,80.943,22.881,81.107,22.55,81.107
					z"/>
			</g>
		</g>
		<g>
			<g>
				<path d="M19.951,81.698c-0.182,0-0.366-0.049-0.531-0.154l-2.214-1.393c-0.468-0.294-0.608-0.911-0.314-1.379
					c0.295-0.466,0.913-0.608,1.379-0.313l2.214,1.393c0.468,0.294,0.608,0.911,0.314,1.379
					C20.608,81.532,20.283,81.698,19.951,81.698z"/>
			</g>
		</g>
		<g>
			<g>
				<path d="M25.353,85.109c-0.182,0-0.366-0.049-0.531-0.154l-2.214-1.393c-0.468-0.294-0.608-0.911-0.314-1.379
					c0.295-0.467,0.913-0.608,1.379-0.313l2.214,1.393c0.468,0.294,0.608,0.911,0.314,1.379
					C26.01,84.943,25.685,85.109,25.353,85.109z"/>
			</g>
		</g>
	</g>
	<g>
		<g>
			<g>
				<path d="M109.594,56.802c-0.184,0-0.369-0.05-0.536-0.156c-0.466-0.296-0.604-0.915-0.307-1.38l1.4-2.202
					c0.297-0.466,0.912-0.604,1.381-0.307c0.466,0.296,0.604,0.915,0.307,1.38l-1.4,2.202
					C110.248,56.638,109.925,56.802,109.594,56.802z"/>
			</g>
		</g>
		<g>
			<g>
				<path d="M113.004,51.4c-0.184,0-0.369-0.05-0.536-0.156c-0.466-0.296-0.604-0.915-0.307-1.38l1.4-2.202
					c0.296-0.467,0.913-0.604,1.381-0.307c0.466,0.296,0.604,0.915,0.307,1.38l-1.4,2.202C113.658,51.236,113.335,51.4,113.004,51.4
					z"/>
			</g>
		</g>
		<g>
			<g>
				<path d="M110.405,51.991c-0.182,0-0.366-0.049-0.531-0.154l-2.214-1.393c-0.468-0.294-0.608-0.911-0.314-1.379
					c0.295-0.467,0.913-0.609,1.379-0.313l2.214,1.393c0.468,0.294,0.608,0.911,0.314,1.379
					C111.062,51.826,110.737,51.991,110.405,51.991z"/>
			</g>
		</g>
		<g>
			<g>
				<path d="M115.807,55.402c-0.182,0-0.366-0.049-0.531-0.154l-2.214-1.393c-0.468-0.294-0.608-0.911-0.314-1.379
					c0.295-0.467,0.912-0.609,1.379-0.313l2.214,1.393c0.468,0.294,0.608,0.911,0.314,1.379
					C116.464,55.236,116.139,55.402,115.807,55.402z"/>
			</g>
		</g>
	</g>
	<g>
		<g>
			<path d="M114.7,109H71.62c-0.553,0-1-0.448-1-1s0.447-1,1-1h43.08c0.553,0,1,0.448,1,1S115.253,109,114.7,109z"/>
		</g>
	</g>
	<g>
		<g>
			<path d="M62.9,109H27.56c-0.553,0-1-0.448-1-1s0.447-1,1-1H62.9c0.553,0,1,0.448,1,1S63.453,109,62.9,109z"/>
		</g>
	</g>
</g>
</svg>
