<?xml version="1.0" encoding="utf-8"?>
<!-- Generator: Adobe Illustrator 24.2.3, SVG Export Plug-In . SVG Version: 6.00 Build 0)  -->
<svg version="1.1" id="_x32_0" xmlns="http://www.w3.org/2000/svg" xmlns:xlink="http://www.w3.org/1999/xlink" x="0px" y="0px"
	 viewBox="0 0 128 128" style="enable-background:new 0 0 128 128;" xml:space="preserve">
<g>
	<g>
		<g>
			<path d="M64.689,96.18c-0.142,0-0.286-0.03-0.423-0.095c-3.583-1.676-7.468-3.152-11.547-4.388
				c-0.528-0.16-0.827-0.719-0.667-1.247s0.718-0.827,1.247-0.667c4.17,1.263,8.146,2.773,11.814,4.491
				c0.5,0.233,0.716,0.829,0.481,1.329C65.426,95.967,65.065,96.18,64.689,96.18z"/>
		</g>
	</g>
	<g>
		<g>
			<path d="M40.001,88.7c-0.056,0-0.112-0.005-0.169-0.015c-3.186-0.542-6.505-0.962-9.867-1.249
				c-0.551-0.047-0.958-0.531-0.911-1.081c0.046-0.55,0.513-0.975,1.081-0.911c3.417,0.291,6.793,0.719,10.033,1.271
				c0.544,0.092,0.91,0.608,0.817,1.153C40.902,88.355,40.479,88.7,40.001,88.7z"/>
		</g>
	</g>
	<g>
		<g>
			<path d="M5.999,87.73c-0.504,0-0.937-0.379-0.993-0.891c-0.061-0.549,0.336-1.043,0.885-1.104C10.336,85.248,14.914,85,19.5,85
				c2.309,0,4.408,0.056,6.418,0.172c0.551,0.031,0.973,0.504,0.94,1.056c-0.031,0.551-0.517,0.967-1.056,0.94
				C23.832,87.055,21.771,87,19.5,87c-4.513,0-9.019,0.244-13.391,0.725C6.072,87.729,6.035,87.73,5.999,87.73z"/>
		</g>
	</g>
	<g>
		<g>
			<path d="M72.45,92.6c-0.396,0-0.772-0.237-0.929-0.629c-0.205-0.513,0.045-1.095,0.558-1.3c2.416-0.966,4.899-1.837,7.381-2.588
				c0.531-0.16,1.087,0.139,1.247,0.667c0.16,0.529-0.139,1.087-0.667,1.247c-2.427,0.734-4.855,1.586-7.219,2.531
				C72.7,92.577,72.574,92.6,72.45,92.6z"/>
		</g>
	</g>
	<g>
		<g>
			<path d="M37.579,123c-0.137,0-0.276-0.028-0.409-0.088c-0.504-0.227-0.729-0.818-0.502-1.322
				c4.874-10.837,14.661-20.53,27.558-27.296c1.445-0.768,2.954-1.501,4.479-2.178c0.507-0.227,1.096,0.004,1.319,0.509
				s-0.004,1.096-0.509,1.319c-1.482,0.657-2.948,1.37-4.355,2.118c-12.508,6.562-21.977,15.917-26.668,26.348
				C38.325,122.78,37.961,123,37.579,123z"/>
		</g>
	</g>
	<g>
		<g>
			<path d="M122.001,86.45c-0.04,0-0.08-0.002-0.121-0.007c-5.103-0.616-10.455-0.855-15.715-0.675
				c-0.528,0.025-1.016-0.412-1.034-0.964c-0.02-0.553,0.412-1.016,0.964-1.034c5.362-0.189,10.819,0.059,16.025,0.687
				c0.548,0.066,0.938,0.564,0.873,1.113C122.932,86.078,122.5,86.45,122.001,86.45z"/>
		</g>
	</g>
	<g>
		<g>
			<path d="M93.219,86.96c-0.484,0-0.91-0.353-0.987-0.846c-0.085-0.545,0.288-1.057,0.834-1.143
				c2.19-0.343,4.434-0.618,6.666-0.817c0.565-0.049,1.035,0.358,1.085,0.907c0.049,0.55-0.357,1.036-0.907,1.085
				c-2.188,0.195-4.387,0.465-6.535,0.802C93.322,86.956,93.27,86.96,93.219,86.96z"/>
		</g>
	</g>
	<g>
		<g>
			<path d="M84.359,88.76c-0.447,0-0.854-0.302-0.969-0.755c-0.135-0.535,0.189-1.079,0.725-1.215
				c1.564-0.396,3.207-0.763,4.883-1.092c0.541-0.107,1.067,0.247,1.174,0.789s-0.247,1.067-0.789,1.174
				c-1.641,0.322-3.248,0.682-4.777,1.068C84.523,88.75,84.44,88.76,84.359,88.76z"/>
		</g>
	</g>
	<g>
		<g>
			<path d="M78.08,94.77c-0.417,0-0.806-0.262-0.947-0.678c-0.178-0.523,0.103-1.092,0.625-1.27
				c2.529-0.859,5.091-1.607,7.615-2.224c0.535-0.13,1.078,0.196,1.209,0.734c0.131,0.537-0.198,1.078-0.734,1.209
				c-2.468,0.603-4.973,1.334-7.445,2.175C78.295,94.753,78.187,94.77,78.08,94.77z"/>
		</g>
	</g>
	<g>
		<g>
			<path d="M89.259,91.75c-0.461,0-0.876-0.321-0.977-0.79c-0.116-0.54,0.228-1.071,0.768-1.188c1.333-0.286,2.69-0.524,3.724-0.699
				c0.541-0.085,1.061,0.274,1.153,0.819c0.092,0.545-0.274,1.061-0.819,1.153c-1.014,0.171-2.342,0.403-3.638,0.682
				C89.399,91.743,89.328,91.75,89.259,91.75z"/>
		</g>
	</g>
	<g>
		<g>
			<path d="M122,123H6c-0.553,0-1-0.447-1-1V86.73c0-0.553,0.447-1,1-1s1,0.447,1,1V121h114V85.45c0-0.553,0.447-1,1-1s1,0.447,1,1
				V122C123,122.553,122.553,123,122,123z"/>
		</g>
	</g>
	<g>
		<g>
			<g>
				<path d="M65.87,99c-0.396,0-0.771-0.236-0.928-0.626c-0.206-0.513,0.042-1.095,0.554-1.302c2.58-1.039,2.719-2.672,2.949-10.215
					l0.005-0.168c0.017-0.542,0.461-0.97,0.999-0.97c0.011,0,0.021,0,0.031,0c0.553,0.018,0.986,0.479,0.97,1.03l-0.006,0.168
					c-0.232,7.602-0.319,10.445-4.2,12.01C66.121,98.977,65.995,99,65.87,99z"/>
			</g>
		</g>
		<g>
			<g>
				<path d="M75.399,98.27c-0.169,0-0.341-0.043-0.497-0.133c-3.619-2.081-3.817-7.285-3.346-11.284
					c0.064-0.549,0.559-0.943,1.11-0.876c0.548,0.064,0.94,0.562,0.876,1.11c-0.328,2.784-0.459,7.697,2.355,9.315
					c0.479,0.275,0.645,0.887,0.369,1.365C76.082,98.09,75.746,98.27,75.399,98.27z"/>
			</g>
		</g>
		<g>
			<g>
				<path d="M71.733,88c-1.086,0-2.13-0.156-3.107-0.464C67.676,87.84,66.604,88,65.5,88c-3.706,0-6.5-1.691-6.5-3.934
					c0-0.982,0.555-1.889,1.54-2.585C59.546,80.557,59,79.415,59,78.2c0-3.028,3.338-5.4,7.6-5.4c0.962,0,1.898,0.126,2.792,0.375
					c1.474-0.689,3.327-1.065,5.275-1.065c4.673,0,8.333,2.145,8.333,4.883c0,1.146-0.628,2.211-1.768,3.056
					c0.66,0.611,1.034,1.375,1.034,2.186c0,1.834-1.846,3.305-4.359,3.532C76.491,87.172,74.222,88,71.733,88z M68.622,85.48
					c0.113,0,0.228,0.02,0.336,0.059C69.804,85.841,70.764,86,71.733,86c2.066,0,3.967-0.713,4.959-1.861
					c0.183-0.211,0.444-0.336,0.723-0.345c1.681-0.058,2.852-0.868,2.852-1.561c0-0.473-0.531-0.975-1.354-1.279
					c-0.384-0.142-0.643-0.504-0.652-0.913s0.231-0.783,0.607-0.944C80.183,78.536,81,77.729,81,76.992
					c0-1.36-2.708-2.883-6.333-2.883c-1.771,0-3.491,0.372-4.717,1.021c-0.238,0.127-0.519,0.15-0.776,0.067
					C68.361,74.934,67.495,74.8,66.6,74.8c-3.035,0-5.6,1.558-5.6,3.4c0,0.954,0.704,1.881,1.932,2.542
					c0.349,0.188,0.554,0.562,0.523,0.957s-0.29,0.733-0.662,0.866C61.721,82.946,61,83.55,61,84.066C61,84.854,62.753,86,65.5,86
					c1.005,0,1.964-0.158,2.776-0.458C68.388,85.501,68.505,85.48,68.622,85.48z"/>
			</g>
		</g>
		<g>
			<g>
				<path d="M67.421,78.577c-0.429,0-0.824-0.276-0.956-0.707c-0.088-0.286-0.132-0.582-0.132-0.88c0-2.326,2.567-4.233,6.39-4.746
					c0.55-0.07,1.051,0.312,1.124,0.858s-0.311,1.051-0.858,1.124c-2.914,0.391-4.655,1.712-4.655,2.764
					c0,0.1,0.015,0.198,0.044,0.294c0.162,0.528-0.135,1.088-0.663,1.249C67.616,78.563,67.518,78.577,67.421,78.577z"/>
			</g>
		</g>
		<g>
			<g>
				<path d="M77.233,85.8c-1.604,0-3.066-0.511-4.014-1.4c-0.402-0.378-0.423-1.011-0.044-1.413c0.378-0.403,1.01-0.423,1.413-0.044
					c0.563,0.528,1.576,0.857,2.645,0.857c0.279,0,0.532-0.02,0.75-0.058c0.541-0.103,1.063,0.267,1.158,0.811
					c0.097,0.544-0.267,1.062-0.811,1.158C77.999,85.771,77.63,85.8,77.233,85.8z"/>
			</g>
		</g>
		<g>
			<g>
				<path d="M61.042,83.358c-0.305,0-0.605-0.138-0.801-0.4c-0.332-0.441-0.242-1.068,0.2-1.399
					c1.208-0.905,3.052-1.425,5.059-1.425c0.219,0,0.437,0.007,0.648,0.016c0.552,0.021,0.981,0.486,0.959,1.039
					c-0.021,0.552-0.479,0.986-1.039,0.959c-0.184-0.007-0.377-0.014-0.568-0.014c-1.561,0-3.003,0.383-3.859,1.024
					C61.461,83.293,61.25,83.358,61.042,83.358z"/>
			</g>
		</g>
	</g>
	<g>
		<g>
			<g>
				<path d="M86,113.74H74c-0.553,0-1-0.447-1-1v-5c0-0.553,0.447-1,1-1h5.14c0.553,0,1,0.447,1,1s-0.447,1-1,1H75v3h10v-3h-2.63
					c-0.553,0-1-0.447-1-1s0.447-1,1-1H86c0.553,0,1,0.447,1,1v5C87,113.293,86.553,113.74,86,113.74z"/>
			</g>
		</g>
		<g>
			<g>
				<path d="M86,108.74h-3.63c-0.553,0-1-0.447-1-1s0.447-1,1-1H85v-3H75v3h4.14c0.553,0,1,0.447,1,1s-0.447,1-1,1H74
					c-0.553,0-1-0.447-1-1v-5c0-0.553,0.447-1,1-1h12c0.553,0,1,0.447,1,1v5C87,108.293,86.553,108.74,86,108.74z"/>
			</g>
		</g>
		<g>
			<g>
				<path d="M88,103.743H72c-0.45,0-0.846-0.301-0.965-0.735s0.067-0.896,0.455-1.125l8-4.743c0.314-0.186,0.705-0.186,1.02,0
					l8,4.743c0.388,0.229,0.574,0.69,0.455,1.125S88.45,103.743,88,103.743z M75.648,101.743h8.703L80,99.163L75.648,101.743z"/>
			</g>
		</g>
		<g>
			<g>
				<path d="M88,106.743h-2c-0.553,0-1-0.447-1-1s0.447-1,1-1h2c0.553,0,1,0.447,1,1S88.553,106.743,88,106.743z"/>
			</g>
		</g>
		<g>
			<g>
				<path d="M88,110.743h-2c-0.553,0-1-0.447-1-1s0.447-1,1-1h2c0.553,0,1,0.447,1,1S88.553,110.743,88,110.743z"/>
			</g>
		</g>
		<g>
			<g>
				<path d="M74,106.743h-2c-0.553,0-1-0.447-1-1s0.447-1,1-1h2c0.553,0,1,0.447,1,1S74.553,106.743,74,106.743z"/>
			</g>
		</g>
		<g>
			<g>
				<path d="M74,110.743h-2c-0.553,0-1-0.447-1-1s0.447-1,1-1h2c0.553,0,1,0.447,1,1S74.553,110.743,74,110.743z"/>
			</g>
		</g>
		<g>
			<g>
				<path d="M85,117.743c-0.392,0-0.763-0.231-0.923-0.615l-1.411-3.385h-5.332l-1.411,3.385c-0.213,0.511-0.798,0.752-1.308,0.538
					c-0.51-0.212-0.751-0.798-0.538-1.308l1.667-4c0.155-0.372,0.52-0.615,0.923-0.615h6.666c0.403,0,0.768,0.243,0.923,0.615
					l1.667,4c0.213,0.51-0.028,1.096-0.538,1.308C85.259,117.719,85.129,117.743,85,117.743z"/>
			</g>
		</g>
	</g>
	<g>
		<g>
			<g>
				<path d="M52,94.743H40c-0.553,0-1-0.447-1-1v-5c0-0.553,0.447-1,1-1h12c0.553,0,1,0.447,1,1v5
					C53,94.296,52.553,94.743,52,94.743z M41,92.743h10v-3H41V92.743z"/>
			</g>
		</g>
		<g>
			<g>
				<path d="M52,89.743H40c-0.553,0-1-0.447-1-1v-5c0-0.553,0.447-1,1-1h12c0.553,0,1,0.447,1,1v5
					C53,89.296,52.553,89.743,52,89.743z M41,87.743h10v-3H41V87.743z"/>
			</g>
		</g>
		<g>
			<g>
				<path d="M54,84.743H38c-0.45,0-0.846-0.301-0.965-0.735s0.067-0.896,0.455-1.125l8-4.743c0.314-0.186,0.705-0.186,1.02,0
					l8,4.743c0.388,0.229,0.574,0.69,0.455,1.125S54.45,84.743,54,84.743z M41.648,82.743h8.703L46,80.163L41.648,82.743z"/>
			</g>
		</g>
		<g>
			<g>
				<path d="M54,87.743h-2c-0.553,0-1-0.447-1-1s0.447-1,1-1h2c0.553,0,1,0.447,1,1S54.553,87.743,54,87.743z"/>
			</g>
		</g>
		<g>
			<g>
				<path d="M54,91.743h-2c-0.553,0-1-0.447-1-1s0.447-1,1-1h2c0.553,0,1,0.447,1,1S54.553,91.743,54,91.743z"/>
			</g>
		</g>
		<g>
			<g>
				<path d="M40,87.743h-2c-0.553,0-1-0.447-1-1s0.447-1,1-1h2c0.553,0,1,0.447,1,1S40.553,87.743,40,87.743z"/>
			</g>
		</g>
		<g>
			<g>
				<path d="M40,91.743h-2c-0.553,0-1-0.447-1-1s0.447-1,1-1h2c0.553,0,1,0.447,1,1S40.553,91.743,40,91.743z"/>
			</g>
		</g>
		<g>
			<g>
				<path d="M51,98.743c-0.392,0-0.763-0.231-0.923-0.615l-1.411-3.385h-5.332l-1.411,3.385c-0.213,0.51-0.799,0.752-1.308,0.538
					c-0.51-0.212-0.751-0.798-0.538-1.308l1.667-4c0.155-0.372,0.52-0.615,0.923-0.615h6.666c0.403,0,0.768,0.243,0.923,0.615
					l1.667,4c0.213,0.51-0.028,1.096-0.538,1.308C51.259,98.719,51.129,98.743,51,98.743z"/>
			</g>
		</g>
	</g>
	<g>
		<g>
			<g>
				<path d="M25,108H13c-0.553,0-1-0.447-1-1v-5c0-0.553,0.447-1,1-1h4.02c0.553,0,1,0.447,1,1s-0.447,1-1,1H14v3h10v-3h-4.39
					c-0.553,0-1-0.447-1-1s0.447-1,1-1H25c0.553,0,1,0.447,1,1v5C26,107.553,25.553,108,25,108z"/>
			</g>
		</g>
		<g>
			<g>
				<path d="M25,103h-5.39c-0.553,0-1-0.447-1-1s0.447-1,1-1H24v-3H14v3h3.02c0.553,0,1,0.447,1,1s-0.447,1-1,1H13
					c-0.553,0-1-0.447-1-1v-5c0-0.553,0.447-1,1-1h12c0.553,0,1,0.447,1,1v5C26,102.553,25.553,103,25,103z"/>
			</g>
		</g>
		<g>
			<g>
				<path d="M27,98H11c-0.45,0-0.846-0.301-0.965-0.735s0.067-0.896,0.455-1.125l8-4.743c0.314-0.186,0.705-0.186,1.02,0l8,4.743
					c0.388,0.229,0.574,0.69,0.455,1.125S27.45,98,27,98z M14.646,96h8.707L19,93.419L14.646,96z"/>
			</g>
		</g>
		<g>
			<g>
				<path d="M27,101h-2c-0.553,0-1-0.447-1-1s0.447-1,1-1h2c0.553,0,1,0.447,1,1S27.553,101,27,101z"/>
			</g>
		</g>
		<g>
			<g>
				<path d="M27,105h-2c-0.553,0-1-0.447-1-1s0.447-1,1-1h2c0.553,0,1,0.447,1,1S27.553,105,27,105z"/>
			</g>
		</g>
		<g>
			<g>
				<path d="M13,101h-2c-0.553,0-1-0.447-1-1s0.447-1,1-1h2c0.553,0,1,0.447,1,1S13.553,101,13,101z"/>
			</g>
		</g>
		<g>
			<g>
				<path d="M13,105h-2c-0.553,0-1-0.447-1-1s0.447-1,1-1h2c0.553,0,1,0.447,1,1S13.553,105,13,105z"/>
			</g>
		</g>
		<g>
			<g>
				<path d="M24,112c-0.392,0-0.763-0.231-0.923-0.615L21.666,108h-5.332l-1.411,3.385c-0.213,0.51-0.798,0.752-1.308,0.538
					c-0.51-0.212-0.751-0.798-0.538-1.308l1.667-4c0.155-0.372,0.52-0.615,0.923-0.615h6.666c0.403,0,0.768,0.243,0.923,0.615
					l1.667,4c0.213,0.51-0.028,1.096-0.538,1.308C24.259,111.976,24.129,112,24,112z"/>
			</g>
		</g>
	</g>
	<g>
		<g>
			<g>
				<path d="M96,90c-0.396,0-0.772-0.238-0.929-0.629c-0.205-0.514,0.045-1.095,0.558-1.3c3.741-1.493,3.938-3.77,4.255-14.277
					l0.006-0.204c0.017-0.542,0.461-0.97,0.999-0.97c0.011,0,0.021,0,0.031,0c0.552,0.018,0.986,0.479,0.97,1.03l-0.007,0.203
					c-0.308,10.221-0.423,14.044-5.512,16.075C96.249,89.978,96.124,90,96,90z"/>
			</g>
		</g>
		<g>
			<g>
				<path d="M108.999,89c-0.168,0-0.338-0.042-0.495-0.132c-4.761-2.717-5.02-9.675-4.397-15.033
					c0.063-0.548,0.559-0.947,1.108-0.878c0.549,0.063,0.941,0.56,0.878,1.108c-0.452,3.896-0.61,10.775,3.403,13.066
					c0.479,0.273,0.646,0.884,0.372,1.364C109.684,88.819,109.347,89,108.999,89z"/>
			</g>
		</g>
		<g>
			<g>
				<path d="M104,75c-1.46,0-2.916-0.225-4.234-0.651C98.484,74.775,97.019,75,95.5,75c-4.767,0-8.5-2.196-8.5-5
					c0-1.337,0.847-2.57,2.333-3.481C87.832,65.273,87,63.688,87,62c0-3.859,4.486-7,10-7c1.332,0,2.621,0.18,3.838,0.535
					c1.381-0.67,3.044-1.127,4.841-1.329c0.554-0.057,1.044,0.335,1.105,0.883c0.062,0.549-0.334,1.044-0.883,1.105
					c-1.715,0.192-3.271,0.642-4.5,1.298c-0.241,0.128-0.525,0.152-0.783,0.068C99.485,57.188,98.269,57,97,57c-4.337,0-8,2.29-8,5
					c0,1.441,1.029,2.822,2.824,3.79c0.348,0.188,0.553,0.562,0.522,0.956c-0.03,0.394-0.289,0.733-0.661,0.866
					C90.029,68.202,89,69.117,89,70c0,1.419,2.67,3,6.5,3c1.421,0,2.773-0.224,3.911-0.647c0.221-0.083,0.463-0.083,0.686-0.004
					C101.289,72.774,102.639,73,104,73c2.924,0,5.618-1.021,7.032-2.662c0.182-0.212,0.444-0.337,0.724-0.347
					c2.301-0.08,4.244-1.221,4.244-2.491c0-0.801-0.817-1.618-2.084-2.08c-0.385-0.141-0.646-0.503-0.656-0.913
					s0.23-0.785,0.608-0.946c1.92-0.818,3.088-1.992,3.122-3.141c0.017-0.542,0.461-0.97,0.999-0.97c0.011,0,0.021,0,0.031,0
					c0.553,0.018,0.986,0.479,0.97,1.03c-0.047,1.515-0.984,2.92-2.631,4.012C117.4,65.298,118,66.362,118,67.5
					c0,2.338-2.442,4.209-5.747,4.466C110.402,73.873,107.356,75,104,75z"/>
			</g>
		</g>
		<g>
			<g>
				<path d="M116.249,58.37c-0.215,0-0.432-0.069-0.615-0.212c-1.217-0.952-3.066-1.636-5.209-1.927
					c-0.547-0.074-0.931-0.578-0.856-1.126c0.075-0.547,0.576-0.926,1.126-0.856c2.488,0.338,4.68,1.167,6.172,2.333
					c0.435,0.341,0.512,0.969,0.172,1.404C116.841,58.238,116.547,58.37,116.249,58.37z"/>
			</g>
		</g>
		<g>
			<g>
				<path d="M104.569,60.48c-0.439,0-0.843-0.292-0.964-0.737c-0.146-0.533,0.169-1.082,0.702-1.228
					c1.565-0.427,3.527-0.561,5.384-0.371c0.549,0.056,0.949,0.547,0.894,1.096c-0.057,0.55-0.521,0.944-1.097,0.895
					c-1.613-0.163-3.325-0.051-4.655,0.311C104.745,60.47,104.656,60.48,104.569,60.48z"/>
			</g>
		</g>
		<g>
			<g>
				<path d="M98.12,62.15c-0.428,0-0.824-0.276-0.956-0.706C97.056,61.089,97,60.721,97,60.35c0-2.983,3.375-5.438,8.397-6.11
					c0.549-0.07,1.051,0.312,1.124,0.858c0.073,0.548-0.312,1.051-0.858,1.124C101.864,56.729,99,58.504,99,60.35
					c0,0.172,0.025,0.343,0.076,0.507c0.162,0.528-0.135,1.088-0.662,1.25C98.315,62.137,98.217,62.15,98.12,62.15z"/>
			</g>
		</g>
		<g>
			<g>
				<path d="M111.5,72c-2.095,0-3.999-0.66-5.225-1.811c-0.402-0.379-0.423-1.012-0.045-1.414c0.378-0.403,1.01-0.423,1.414-0.045
					c0.847,0.795,2.288,1.27,3.855,1.27c0.398,0,0.765-0.028,1.089-0.085c0.543-0.095,1.062,0.271,1.156,0.814
					s-0.271,1.062-0.814,1.156C112.494,71.962,112.013,72,111.5,72z"/>
			</g>
		</g>
		<g>
			<g>
				<path d="M89.421,68.67c-0.305,0-0.604-0.138-0.801-0.4c-0.332-0.441-0.242-1.068,0.2-1.399C90.405,65.682,92.841,65,95.5,65
					c0.292,0,0.584,0.01,0.866,0.021c0.552,0.02,0.983,0.483,0.963,1.035c-0.021,0.553-0.501,0.99-1.035,0.963
					C96.035,67.01,95.769,67,95.5,67c-2.203,0-4.252,0.55-5.48,1.47C89.84,68.604,89.629,68.67,89.421,68.67z"/>
			</g>
		</g>
	</g>
	<g>
		<g>
			<g>
				<path d="M22.4,92c-0.396,0-0.772-0.238-0.929-0.629c-0.205-0.514,0.045-1.095,0.558-1.3c2.869-1.146,3.022-2.933,3.274-11.189
					l0.006-0.212c0.017-0.542,0.461-0.97,0.999-0.97c0.011,0,0.021,0,0.031,0c0.552,0.018,0.986,0.479,0.97,1.03l-0.007,0.212
					c-0.251,8.234-0.345,11.315-4.531,12.986C22.649,91.978,22.524,92,22.4,92z"/>
			</g>
		</g>
		<g>
			<g>
				<path d="M32.799,91.2c-0.168,0-0.339-0.042-0.495-0.132c-3.087-1.764-4.338-5.987-3.617-12.214
					c0.063-0.547,0.559-0.942,1.108-0.878c0.548,0.063,0.941,0.56,0.878,1.108c-0.354,3.064-0.484,8.471,2.623,10.247
					c0.479,0.274,0.646,0.885,0.372,1.364C33.483,91.02,33.146,91.2,32.799,91.2z"/>
			</g>
		</g>
		<g>
			<g>
				<path d="M28.8,80c-1.178,0-2.314-0.173-3.385-0.514C24.381,79.823,23.209,80,22,80c-3.99,0-7-1.806-7-4.2
					c0-1.068,0.627-2.057,1.737-2.812C15.617,71.982,15,70.73,15,69.4c0-3.253,3.602-5.801,8.2-5.801
					c1.046,0,2.069,0.141,3.048,0.417c1.272-0.605,2.813-0.988,4.487-1.113c0.567-0.044,1.03,0.373,1.071,0.923
					c0.041,0.551-0.372,1.03-0.923,1.071c-1.545,0.115-2.991,0.497-4.073,1.074c-0.24,0.128-0.521,0.152-0.78,0.069
					C25.132,65.748,24.18,65.6,23.2,65.6c-3.361,0-6.2,1.74-6.2,3.801c0,1.071,0.785,2.11,2.154,2.85
					c0.348,0.188,0.552,0.562,0.522,0.954c-0.029,0.394-0.287,0.732-0.658,0.866C17.812,74.506,17,75.201,17,75.8
					c0,0.919,1.902,2.2,5,2.2c1.109,0,2.168-0.176,3.062-0.508c0.22-0.083,0.462-0.085,0.685-0.004C26.698,77.828,27.726,78,28.8,78
					c2.277,0,4.379-0.791,5.485-2.065c0.182-0.21,0.442-0.335,0.721-0.344c1.911-0.066,3.194-0.979,3.194-1.791
					c0-0.551-0.604-1.133-1.541-1.483c-0.383-0.144-0.641-0.506-0.649-0.915c-0.009-0.41,0.233-0.783,0.61-0.942
					c1.49-0.63,2.38-1.52,2.38-2.379c0-1.074-1.43-2.194-3.559-2.787c-0.531-0.147-0.843-0.699-0.694-1.231s0.7-0.845,1.231-0.694
					C39.076,64.229,41,66.035,41,68.08c0,1.255-0.702,2.414-1.975,3.325c0.755,0.659,1.175,1.49,1.175,2.395
					c0,1.959-1.993,3.528-4.701,3.764C33.967,79.096,31.501,80,28.8,80z"/>
			</g>
		</g>
		<g>
			<g>
				<path d="M28.216,69.623c-0.358,0-0.705-0.193-0.885-0.532c-0.259-0.488-0.072-1.094,0.416-1.352
					c1.072-0.567,2.622-0.893,4.253-0.893c0.553,0,1,0.447,1,1s-0.447,1-1,1c-1.276,0-2.548,0.253-3.317,0.66
					C28.533,69.586,28.373,69.623,28.216,69.623z"/>
			</g>
		</g>
		<g>
			<g>
				<path d="M24.096,69.72c-0.429,0-0.825-0.277-0.956-0.708C23.047,68.709,23,68.396,23,68.08c0-2.491,2.77-4.535,6.892-5.087
					c0.55-0.075,1.051,0.312,1.124,0.858c0.073,0.548-0.312,1.051-0.858,1.124C27.217,65.369,25,66.704,25,68.08
					c0,0.117,0.018,0.234,0.052,0.348c0.161,0.528-0.136,1.087-0.664,1.248C24.29,69.706,24.192,69.72,24.096,69.72z"/>
			</g>
		</g>
		<g>
			<g>
				<path d="M34.8,77.6c-1.727,0-3.3-0.548-4.316-1.503c-0.402-0.378-0.423-1.011-0.044-1.413c0.378-0.403,1.013-0.423,1.413-0.044
					c0.631,0.592,1.76,0.96,2.947,0.96c0.311,0,0.591-0.021,0.833-0.064c0.554-0.1,1.063,0.267,1.159,0.81
					c0.097,0.544-0.266,1.062-0.81,1.159C35.625,77.567,35.228,77.6,34.8,77.6z"/>
			</g>
		</g>
		<g>
			<g>
				<path d="M17.137,74.936c-0.305,0-0.604-0.138-0.801-0.4c-0.332-0.441-0.242-1.068,0.2-1.399C17.838,72.159,19.83,71.6,22,71.6
					c0.221,0,0.441,0.008,0.655,0.016c0.552,0.021,1.006,0.484,0.985,1.036c-0.02,0.553-0.477,1.003-1.013,0.964
					C22.393,73.607,22.195,73.6,22,73.6c-1.721,0-3.315,0.425-4.265,1.136C17.556,74.87,17.345,74.936,17.137,74.936z"/>
			</g>
		</g>
	</g>
	<g>
		<g>
			<g>
				<path d="M37,52c-7.894,0-16.203-2.122-17.733-6.188C14.378,45.317,9,43.669,9,40.5c0-3.156,5.425-4.942,11.07-5.382
					c0.321-2.131,1.736-4.056,4.063-5.533c0.466-0.296,1.085-0.157,1.381,0.309c0.296,0.467,0.157,1.085-0.309,1.381
					C23.139,32.586,22,34.265,22,36c0,0.531-0.416,1.03-0.947,1.059C14.58,37.401,11,39.311,11,40.5c0,1.112,3.173,2.907,9.13,3.383
					c0.462,0.037,0.839,0.388,0.908,0.846C21.427,47.274,27.934,50,37,50c6.611,0,12.669-1.526,15.073-3.797
					c0.167-0.158,0.383-0.254,0.612-0.271C57.909,45.545,62,43.378,62,41c0-2.365-4.518-5-11-5c-1.311,0-2.613,0.116-3.871,0.345
					c-0.27,0.05-0.547-0.016-0.769-0.177c-0.221-0.161-0.366-0.406-0.401-0.678C45.481,31.851,40.229,29,34,29
					c-0.57,0-1.155,0.025-1.789,0.077c-0.54,0.038-1.032-0.365-1.078-0.916c-0.045-0.55,0.365-1.033,0.916-1.078
					C32.736,27.027,33.375,27,34,27c6.799,0,12.446,3.041,13.724,7.225C48.799,34.075,49.897,34,51,34c7.29,0,13,3.075,13,7
					c0,3.471-4.531,6.343-10.823,6.899C50.253,50.399,43.975,52,37,52z"/>
			</g>
		</g>
		<g>
			<g>
				<path d="M25.006,36.903c-0.035,0-0.069-0.002-0.105-0.006c-0.548-0.058-0.946-0.544-0.891-1.093C24.241,33.532,28.401,31,34,31
					c0.553,0,1,0.447,1,1s-0.447,1-1,1c-5.295,0-7.934,2.391-8,3.008C25.944,36.521,25.511,36.903,25.006,36.903z"/>
			</g>
		</g>
		<g>
			<g>
				<path d="M42.481,37.78c-0.365,0-0.718-0.201-0.894-0.549c-0.249-0.493-0.051-1.095,0.441-1.344C44.44,34.67,47.626,34,51,34
					c0.553,0,1,0.447,1,1s-0.447,1-1,1c-3.066,0-5.933,0.594-8.068,1.673C42.787,37.746,42.633,37.78,42.481,37.78z"/>
			</g>
		</g>
	</g>
	<g>
		<g>
			<g>
				<path d="M99.61,49c-5.139,0-10.548-1.39-11.808-4.057C84.399,44.57,81,43.405,81,41.15c0-2.366,3.738-3.516,7.265-3.829
					c0.346-1.617,1.623-3.062,3.62-4.057c0.494-0.247,1.095-0.045,1.341,0.45c0.246,0.494,0.044,1.095-0.45,1.341
					c-1.617,0.805-2.561,1.924-2.604,3.081c0.005,0.042,0.008,0.084,0.008,0.123c0,0.532-0.417,0.972-0.948,0.999
					C84.875,39.483,83,40.771,83,41.15c0,0.389,1.731,1.551,5.63,1.862c0.462,0.037,0.838,0.388,0.908,0.846
					C89.739,45.17,93.668,47,99.61,47c4.894,0,8.343-1.197,9.59-2.385c0.168-0.16,0.387-0.256,0.618-0.272
					c3.44-0.246,5.752-1.679,5.752-2.862c0-1.374-2.921-2.91-6.83-2.91c-0.856,0-1.685,0.071-2.462,0.213
					c-0.266,0.053-0.547-0.015-0.768-0.176c-0.222-0.161-0.367-0.406-0.402-0.678c-0.285-2.177-3.517-3.903-7.355-3.93
					c-0.553-0.004-0.997-0.455-0.993-1.007c0.004-0.55,0.451-0.993,1-0.993c0.002,0,0.005,0,0.007,0
					c4.377,0.03,8.045,1.98,9.073,4.679c0.616-0.072,1.252-0.108,1.9-0.108c5.034,0,8.83,2.111,8.83,4.91
					c0,2.475-2.971,4.434-7.268,4.829C108.289,47.976,104.25,49,99.61,49z"/>
			</g>
		</g>
		<g>
			<g>
				<path d="M93.18,39.367c-0.223,0-0.445-0.072-0.627-0.224c-0.417-0.346-0.497-0.942-0.162-1.368
					C92.952,37.062,94.817,36,97.652,36c0.553,0,1,0.447,1,1s-0.447,1-1,1c-2.313,0-3.547,0.85-3.693,1.017
					C93.757,39.246,93.468,39.367,93.18,39.367z"/>
			</g>
		</g>
		<g>
			<g>
				<path d="M103.184,39.727c-0.365,0-0.718-0.201-0.894-0.55c-0.249-0.492-0.051-1.094,0.442-1.343
					c1.62-0.818,3.753-1.269,6.007-1.269c0.553,0,1,0.447,1,1s-0.447,1-1,1c-1.946,0-3.76,0.374-5.106,1.054
					C103.488,39.692,103.335,39.727,103.184,39.727z"/>
			</g>
		</g>
	</g>
	<g>
		<g>
			<g>
				<path d="M70.685,27.435c-3.812,0-8.033-0.979-9.156-3.11c-2.655-0.316-5.268-1.271-5.268-3.109c0-1.924,2.752-2.866,5.587-3.144
					C62.47,15.728,65.473,14,69.192,14c3.389,0,6.243,1.469,7.154,3.548c0.429-0.045,0.863-0.067,1.298-0.067
					c3.971,0,6.966,1.712,6.966,3.982c0,1.996-2.319,3.58-5.682,3.916C77.33,26.653,74.227,27.435,70.685,27.435z M58.292,21.213
					c0.257,0.299,1.468,0.975,4.046,1.182c0.463,0.037,0.84,0.389,0.909,0.848c0.115,0.766,2.771,2.192,7.438,2.192
					c3.643,0,6.259-0.907,7.148-1.75c0.167-0.159,0.384-0.255,0.614-0.271c2.681-0.197,4.163-1.278,4.163-1.95
					c0-0.809-1.935-1.982-4.966-1.982c-0.622,0-1.24,0.055-1.838,0.162c-0.271,0.049-0.546-0.016-0.768-0.178
					c-0.221-0.162-0.366-0.407-0.401-0.679C74.465,17.446,72.334,16,69.192,16c-3.191,0-5.424,1.542-5.462,2.94
					c0.001,0.023,0.002,0.046,0.002,0.066c0,0.531-0.416,0.971-0.947,0.999C60.128,20.147,58.6,20.835,58.292,21.213z"/>
			</g>
		</g>
		<g>
			<g>
				<path d="M73.41,20.365c-0.365,0-0.718-0.201-0.894-0.549c-0.249-0.493-0.051-1.095,0.441-1.344
					c1.268-0.64,2.932-0.992,4.687-0.992c0.553,0,1,0.447,1,1s-0.447,1-1,1c-1.427,0-2.807,0.283-3.784,0.777
					C73.716,20.331,73.562,20.365,73.41,20.365z"/>
			</g>
		</g>
	</g>
	<g>
		<g>
			<g>
				<path d="M112,107h-12c-0.553,0-1-0.447-1-1v-5c0-0.553,0.447-1,1-1h12c0.553,0,1,0.447,1,1v5C113,106.553,112.553,107,112,107z
					 M101,105h10v-3h-10V105z"/>
			</g>
		</g>
		<g>
			<g>
				<path d="M112,102h-12c-0.553,0-1-0.447-1-1v-5c0-0.553,0.447-1,1-1h12c0.553,0,1,0.447,1,1v5C113,101.553,112.553,102,112,102z
					 M101,100h10v-3h-10V100z"/>
			</g>
		</g>
		<g>
			<g>
				<path d="M114,97H98c-0.45,0-0.846-0.301-0.965-0.735s0.067-0.896,0.455-1.125l8-4.743c0.314-0.186,0.705-0.186,1.02,0l8,4.743
					c0.388,0.229,0.574,0.69,0.455,1.125S114.45,97,114,97z M101.646,95h8.707L106,92.419L101.646,95z"/>
			</g>
		</g>
		<g>
			<g>
				<path d="M114,100h-2c-0.553,0-1-0.447-1-1s0.447-1,1-1h2c0.553,0,1,0.447,1,1S114.553,100,114,100z"/>
			</g>
		</g>
		<g>
			<g>
				<path d="M114,104h-2c-0.553,0-1-0.447-1-1s0.447-1,1-1h2c0.553,0,1,0.447,1,1S114.553,104,114,104z"/>
			</g>
		</g>
		<g>
			<g>
				<path d="M100,100h-2c-0.553,0-1-0.447-1-1s0.447-1,1-1h2c0.553,0,1,0.447,1,1S100.553,100,100,100z"/>
			</g>
		</g>
		<g>
			<g>
				<path d="M100,104h-2c-0.553,0-1-0.447-1-1s0.447-1,1-1h2c0.553,0,1,0.447,1,1S100.553,104,100,104z"/>
			</g>
		</g>
		<g>
			<g>
				<path d="M111,111c-0.392,0-0.763-0.231-0.923-0.615L108.666,107h-5.332l-1.411,3.385c-0.213,0.511-0.799,0.753-1.308,0.538
					c-0.51-0.212-0.751-0.798-0.538-1.308l1.667-4c0.155-0.372,0.52-0.615,0.923-0.615h6.666c0.403,0,0.768,0.243,0.923,0.615
					l1.667,4c0.213,0.51-0.028,1.096-0.538,1.308C111.259,110.976,111.129,111,111,111z"/>
			</g>
		</g>
	</g>
	<g>
		<g>
			<g>
				<path d="M99.358,24.167c-0.184,0-0.369-0.051-0.535-0.156c-0.467-0.296-0.604-0.914-0.308-1.38l1.4-2.202
					c0.296-0.466,0.914-0.604,1.38-0.308c0.467,0.296,0.604,0.914,0.308,1.38l-1.4,2.202
					C100.013,24.003,99.689,24.167,99.358,24.167z"/>
			</g>
		</g>
		<g>
			<g>
				<path d="M102.77,18.765c-0.184,0-0.369-0.051-0.536-0.156c-0.466-0.297-0.604-0.915-0.307-1.381l1.4-2.201
					c0.296-0.465,0.913-0.602,1.381-0.307c0.466,0.297,0.604,0.915,0.307,1.381l-1.4,2.201
					C103.424,18.601,103.101,18.765,102.77,18.765z"/>
			</g>
		</g>
		<g>
			<g>
				<path d="M100.17,19.356c-0.182,0-0.366-0.05-0.532-0.153l-2.214-1.394c-0.467-0.295-0.607-0.912-0.313-1.379
					c0.295-0.468,0.912-0.607,1.379-0.314l2.214,1.394c0.468,0.295,0.608,0.912,0.314,1.379
					C100.827,19.191,100.502,19.356,100.17,19.356z"/>
			</g>
		</g>
		<g>
			<g>
				<path d="M105.571,22.767c-0.182,0-0.366-0.05-0.531-0.153l-2.213-1.393c-0.468-0.295-0.608-0.912-0.314-1.379
					c0.296-0.468,0.913-0.606,1.379-0.314l2.213,1.393c0.468,0.295,0.608,0.912,0.314,1.379
					C106.229,22.602,105.903,22.767,105.571,22.767z"/>
			</g>
		</g>
	</g>
	<g>
		<g>
			<g>
				<path d="M19.993,21.765c-0.184,0-0.369-0.051-0.536-0.156c-0.466-0.297-0.604-0.915-0.307-1.381l1.4-2.201
					c0.296-0.465,0.913-0.602,1.381-0.307c0.466,0.297,0.604,0.915,0.307,1.381l-1.4,2.201
					C20.647,21.601,20.324,21.765,19.993,21.765z"/>
			</g>
		</g>
		<g>
			<g>
				<path d="M23.404,16.363c-0.184,0-0.369-0.051-0.535-0.156c-0.467-0.296-0.604-0.914-0.308-1.38l1.4-2.202
					c0.296-0.467,0.914-0.603,1.38-0.308c0.467,0.296,0.604,0.914,0.308,1.38l-1.4,2.202C24.059,16.199,23.735,16.363,23.404,16.363
					z"/>
			</g>
		</g>
		<g>
			<g>
				<path d="M20.805,16.954c-0.182,0-0.366-0.05-0.531-0.153l-2.213-1.393c-0.468-0.295-0.608-0.912-0.314-1.379
					c0.295-0.469,0.913-0.607,1.379-0.314l2.213,1.393c0.468,0.295,0.608,0.912,0.314,1.379
					C21.462,16.789,21.137,16.954,20.805,16.954z"/>
			</g>
		</g>
		<g>
			<g>
				<path d="M26.207,20.365c-0.182,0-0.366-0.05-0.532-0.153l-2.214-1.394c-0.467-0.295-0.607-0.912-0.313-1.379
					c0.296-0.468,0.913-0.606,1.379-0.314l2.214,1.394c0.468,0.295,0.608,0.912,0.314,1.379
					C26.864,20.2,26.539,20.365,26.207,20.365z"/>
			</g>
		</g>
	</g>
</g>
</svg>
