<?xml version="1.0" encoding="utf-8"?>
<!-- Generator: Adobe Illustrator 24.2.3, SVG Export Plug-In . SVG Version: 6.00 Build 0)  -->
<svg version="1.1" id="_x31_6" xmlns="http://www.w3.org/2000/svg" xmlns:xlink="http://www.w3.org/1999/xlink" x="0px" y="0px"
	 viewBox="0 0 128 128" style="enable-background:new 0 0 128 128;" xml:space="preserve">
<g>
	<g>
		<g>
			<g>
				<path d="M14.691,81.55c-0.067,0-0.135-0.007-0.203-0.021c-0.755-0.156-1.503-0.437-2.222-0.834
					c-1.59-0.879-2.764-2.189-3.139-3.504c-0.221-0.774-0.156-1.511,0.19-2.129c0.951-1.716,3.735-1.938,6.337-0.497
					c0.321,0.176,0.656,0.393,0.992,0.641c0.443,0.329,0.537,0.956,0.208,1.399c-0.329,0.444-0.954,0.538-1.399,0.208
					c-0.262-0.195-0.52-0.361-0.765-0.496c-1.769-0.979-3.327-0.82-3.625-0.283C10.961,76.22,11,76.467,11.05,76.642
					c0.226,0.791,1.083,1.694,2.184,2.304c0.542,0.3,1.1,0.51,1.658,0.625c0.541,0.111,0.889,0.641,0.777,1.182
					C15.572,81.225,15.155,81.55,14.691,81.55z"/>
			</g>
		</g>
		<g>
			<g>
				<path d="M27.811,75.03c-0.071,0-0.144-0.008-0.216-0.023c-0.54-0.118-0.88-0.652-0.762-1.191
					c0.364-1.653,1.211-2.795,2.387-3.215c1.014-0.363,2.162-0.125,3.148,0.654c0.434,0.342,0.508,0.971,0.166,1.404
					c-0.342,0.433-0.972,0.507-1.404,0.166c-0.255-0.201-0.754-0.51-1.237-0.342c-0.497,0.178-0.9,0.819-1.107,1.762
					C28.684,74.712,28.27,75.03,27.811,75.03z"/>
			</g>
		</g>
		<g>
			<g>
				<path d="M24.019,77.32c-0.155,0-0.312-0.036-0.459-0.112c-0.451-0.233-0.969-0.341-1.458-0.338c-0.036,0-0.071,0-0.104,0.004
					c-0.544,0.059-1.042-0.338-1.102-0.886c-0.06-0.55,0.337-1.043,0.886-1.103c0.123-0.014,0.261-0.016,0.398-0.016
					c0.794,0,1.589,0.194,2.3,0.562c0.49,0.254,0.682,0.857,0.428,1.348C24.73,77.124,24.381,77.32,24.019,77.32z"/>
			</g>
		</g>
		<g>
			<g>
				<path d="M16.74,85.42c-1.162,0-2.228-0.679-2.717-1.729c-0.503-1.063-0.609-2.275-0.297-3.407
					c0.373-1.426,1.358-2.611,2.7-3.239l0.624-0.298c0.499-0.234,1.095-0.025,1.333,0.474s0.025,1.096-0.473,1.333l-0.63,0.3
					c-0.808,0.378-1.397,1.088-1.623,1.949c-0.188,0.683-0.124,1.402,0.177,2.039c0.231,0.496,0.872,0.705,1.322,0.487l7.248-3.413
					c0.422-0.196,0.646-0.651,0.548-1.107c-0.115-0.541,0.229-1.072,0.77-1.187c0.539-0.122,1.071,0.229,1.187,0.769
					c0.293,1.374-0.388,2.746-1.656,3.336l-7.237,3.409C17.625,85.323,17.194,85.42,16.74,85.42z"/>
			</g>
		</g>
		<g>
			<g>
				<path d="M22.07,83.12c-0.405,0-0.787-0.248-0.937-0.65c-0.365-0.979-0.815-1.861-1.338-2.625
					c-0.312-0.455-0.195-1.078,0.26-1.39c0.457-0.312,1.078-0.195,1.39,0.261c0.614,0.896,1.139,1.924,1.562,3.055
					c0.193,0.517-0.07,1.093-0.587,1.286C22.304,83.1,22.186,83.12,22.07,83.12z"/>
			</g>
		</g>
		<g>
			<g>
				<path d="M20.77,80.29c-0.521,0-1.093-0.128-1.696-0.387c-1.111-0.475-2.252-1.362-3.214-2.497
					c-2.211-2.609-2.73-5.55-1.208-6.84c1.523-1.291,4.338-0.294,6.549,2.315c0.961,1.135,1.648,2.406,1.935,3.58
					c0.344,1.413,0.086,2.571-0.728,3.26C21.962,80.101,21.404,80.29,20.77,80.29z M16.298,72c-0.166,0-0.286,0.035-0.353,0.092
					c-0.159,0.135-0.244,0.576-0.077,1.261c0.211,0.865,0.765,1.871,1.518,2.761c0,0,0,0,0,0c0.753,0.89,1.655,1.602,2.474,1.952
					c0.646,0.276,1.096,0.265,1.255,0.131c0.159-0.135,0.244-0.576,0.077-1.261c-0.211-0.865-0.764-1.871-1.518-2.761
					s-1.656-1.602-2.474-1.952C16.829,72.063,16.521,72,16.298,72z"/>
			</g>
		</g>
		<g>
			<g>
				<path d="M25.205,84.964c-0.527,0-0.968-0.412-0.998-0.945c-0.036-0.345-0.571-1.188-0.908-1.383
					c-0.465,0.134-0.968-0.084-1.181-0.535c-0.235-0.5-0.021-1.096,0.479-1.331c0.531-0.246,1.138-0.199,1.709,0.144
					c1.012,0.606,1.851,2.109,1.897,2.999c0.029,0.551-0.395,1.021-0.946,1.051C25.24,84.964,25.222,84.964,25.205,84.964z"/>
			</g>
		</g>
		<g>
			<g>
				<path d="M22.389,86.288c-0.527,0-0.968-0.413-0.998-0.945c-0.036-0.345-0.571-1.187-0.907-1.382
					c-0.464,0.135-0.968-0.084-1.181-0.535c-0.235-0.5-0.021-1.096,0.479-1.331c0.531-0.246,1.138-0.198,1.709,0.144
					c1.012,0.605,1.851,2.108,1.897,2.998c0.029,0.551-0.395,1.021-0.946,1.051C22.424,86.288,22.407,86.288,22.389,86.288z"/>
			</g>
		</g>
		<g>
			<g>
				<path d="M26.513,79.669c-0.4,0-0.801-0.07-1.188-0.209c-0.88-0.317-1.583-0.958-1.981-1.804
					c-0.397-0.846-0.442-1.796-0.126-2.676c0.317-0.879,0.958-1.583,1.803-1.981c0.846-0.398,1.796-0.441,2.676-0.125
					c0.879,0.316,1.583,0.957,1.98,1.803c0.398,0.846,0.443,1.796,0.126,2.676c-0.317,0.879-0.958,1.583-1.803,1.981
					C27.527,79.557,27.021,79.669,26.513,79.669z M26.509,74.666c-0.218,0-0.435,0.048-0.637,0.144
					c-0.363,0.17-0.637,0.472-0.773,0.849s-0.116,0.784,0.054,1.146c0,0,0,0,0,0c0.17,0.363,0.472,0.638,0.848,0.773
					c0.377,0.136,0.784,0.117,1.147-0.055c0.363-0.17,0.637-0.472,0.773-0.849s0.116-0.784-0.054-1.146s-0.472-0.637-0.849-0.773
					C26.853,74.695,26.681,74.666,26.509,74.666z"/>
			</g>
		</g>
	</g>
	<g>
		<g>
			<g>
				<path d="M110.309,47.55c-0.464,0-0.881-0.325-0.979-0.798c-0.111-0.541,0.237-1.07,0.777-1.182
					c0.558-0.115,1.116-0.325,1.658-0.625c1.101-0.609,1.958-1.513,2.184-2.304c0.05-0.175,0.088-0.422-0.013-0.604
					c-0.299-0.539-1.857-0.698-3.623,0.278c-0.249,0.137-0.506,0.303-0.768,0.498c-0.446,0.327-1.071,0.235-1.399-0.208
					c-0.329-0.443-0.236-1.07,0.208-1.399c0.335-0.248,0.67-0.465,0.995-0.643c2.599-1.437,5.383-1.218,6.335,0.502
					c0.344,0.615,0.409,1.352,0.188,2.126c-0.375,1.314-1.549,2.625-3.139,3.504c-0.719,0.397-1.466,0.678-2.222,0.834
					C110.444,47.543,110.376,47.55,110.309,47.55z"/>
			</g>
		</g>
		<g>
			<g>
				<path d="M97.189,41.03c-0.459,0-0.873-0.318-0.976-0.785c-0.208-0.942-0.611-1.584-1.107-1.762
					c-0.482-0.168-0.981,0.142-1.237,0.342c-0.432,0.342-1.062,0.269-1.404-0.166c-0.342-0.434-0.268-1.062,0.166-1.404
					c0.986-0.779,2.134-1.018,3.148-0.654c1.176,0.42,2.023,1.562,2.387,3.215c0.119,0.539-0.222,1.073-0.762,1.191
					C97.333,41.022,97.26,41.03,97.189,41.03z"/>
			</g>
		</g>
		<g>
			<g>
				<path d="M100.981,43.32c-0.362,0-0.711-0.196-0.889-0.54c-0.254-0.49-0.062-1.094,0.428-1.348c0.71-0.368,1.505-0.562,2.3-0.562
					c0.137,0,0.275,0.002,0.398,0.016c0.549,0.06,0.946,0.553,0.886,1.103c-0.06,0.549-0.557,0.947-1.102,0.886
					c-0.056-0.006-0.12-0.004-0.182-0.004c-0.476,0-0.953,0.117-1.38,0.338C101.293,43.284,101.136,43.32,100.981,43.32z"/>
			</g>
		</g>
		<g>
			<g>
				<path d="M108.26,51.42c-0.454,0-0.885-0.097-1.283-0.288l-7.233-3.407c-1.264-0.588-1.945-1.96-1.652-3.334
					c0.115-0.54,0.646-0.888,1.187-0.769c0.54,0.114,0.885,0.646,0.77,1.187c-0.097,0.456,0.126,0.911,0.544,1.105l7.243,3.411
					c0.48,0.23,1.101,0.01,1.328-0.478c0.304-0.643,0.368-1.362,0.183-2.032c-0.229-0.874-0.818-1.584-1.62-1.96l-0.636-0.302
					c-0.499-0.237-0.71-0.834-0.473-1.333c0.238-0.499,0.834-0.708,1.333-0.474l0.63,0.3c1.336,0.626,2.322,1.812,2.698,3.25
					c0.309,1.119,0.202,2.331-0.303,3.4C110.488,50.741,109.421,51.42,108.26,51.42z"/>
			</g>
		</g>
		<g>
			<g>
				<path d="M102.93,49.12c-0.116,0-0.234-0.021-0.35-0.063c-0.517-0.193-0.78-0.77-0.587-1.286
					c0.422-1.131,0.948-2.158,1.562-3.055c0.312-0.455,0.934-0.573,1.39-0.261c0.456,0.312,0.572,0.935,0.26,1.39
					c-0.522,0.764-0.973,1.646-1.338,2.625C103.717,48.872,103.335,49.12,102.93,49.12z"/>
			</g>
		</g>
		<g>
			<g>
				<path d="M104.23,46.29c-0.634,0-1.192-0.189-1.639-0.568c-0.813-0.688-1.072-1.847-0.728-3.26
					c0.287-1.174,0.974-2.445,1.935-3.58c2.212-2.609,5.026-3.606,6.549-2.315c1.522,1.29,1.003,4.23-1.208,6.84l0,0
					c-0.961,1.135-2.103,2.022-3.214,2.497C105.323,46.162,104.751,46.29,104.23,46.29z M108.702,38
					c-0.224,0-0.53,0.063-0.903,0.223c-0.818,0.351-1.72,1.062-2.474,1.952s-1.307,1.896-1.518,2.761
					c-0.167,0.685-0.082,1.126,0.077,1.261c0.159,0.134,0.608,0.146,1.255-0.131c0.819-0.351,1.721-1.062,2.474-1.952c0,0,0,0,0,0
					c0.753-0.89,1.307-1.896,1.518-2.761c0.167-0.685,0.082-1.126-0.077-1.261C108.988,38.035,108.868,38,108.702,38z"/>
			</g>
		</g>
		<g>
			<g>
				<path d="M99.793,50.941c-0.024,0-0.049,0-0.073-0.002c-0.542-0.042-0.953-0.485-0.924-1.027c0.046-0.89,0.885-2.393,1.897-2.999
					c0.572-0.342,1.179-0.394,1.709-0.144c0.5,0.235,0.714,0.831,0.479,1.331c-0.212,0.451-0.718,0.67-1.181,0.535
					c-0.337,0.195-0.873,1.04-0.908,1.385C100.741,50.535,100.304,50.941,99.793,50.941z"/>
			</g>
		</g>
		<g>
			<g>
				<path d="M102.609,52.266c-0.024,0-0.049-0.001-0.073-0.002c-0.542-0.042-0.953-0.485-0.924-1.027
					c0.046-0.89,0.885-2.393,1.897-2.998c0.573-0.343,1.179-0.391,1.709-0.144c0.5,0.235,0.714,0.831,0.479,1.331
					c-0.212,0.451-0.717,0.668-1.181,0.535c-0.337,0.195-0.873,1.039-0.907,1.384C103.556,51.859,103.119,52.266,102.609,52.266z"/>
			</g>
		</g>
		<g>
			<g>
				<path d="M98.487,45.669c-0.508,0-1.014-0.112-1.488-0.335c-0.846-0.398-1.486-1.103-1.803-1.981
					c-0.316-0.88-0.271-1.83,0.126-2.676c0.397-0.846,1.101-1.486,1.98-1.803c0.88-0.317,1.83-0.272,2.676,0.125
					c0.846,0.398,1.486,1.103,1.803,1.981c0.316,0.88,0.271,1.83-0.126,2.676l0,0c-0.398,0.846-1.102,1.486-1.981,1.804
					C99.288,45.599,98.887,45.669,98.487,45.669z M98.491,40.666c-0.171,0-0.343,0.029-0.509,0.089
					c-0.377,0.137-0.679,0.411-0.849,0.773s-0.19,0.77-0.054,1.146s0.41,0.679,0.773,0.849c0.363,0.171,0.769,0.189,1.147,0.055
					c0.376-0.136,0.678-0.41,0.848-0.773c0,0,0,0,0,0c0.17-0.362,0.19-0.77,0.054-1.146s-0.41-0.679-0.773-0.849
					C98.925,40.714,98.708,40.666,98.491,40.666z"/>
			</g>
		</g>
	</g>
	<g>
		<g>
			<path d="M91,91H37c-0.552,0-1-0.447-1-1v-8c0-0.553,0.448-1,1-1h54c0.552,0,1,0.447,1,1v8C92,90.553,91.552,91,91,91z M38,89h52
				v-6H38V89z"/>
		</g>
	</g>
	<g>
		<g>
			<path d="M87,62.27c-0.552,0-1-0.447-1-1V42H42v5.84c0,0.553-0.448,1-1,1s-1-0.447-1-1V41c0-0.553,0.448-1,1-1h46
				c0.552,0,1,0.447,1,1v20.27C88,61.822,87.552,62.27,87,62.27z"/>
		</g>
	</g>
	<g>
		<g>
			<path d="M41,62.27c-0.552,0-1-0.447-1-1V52.98c0-0.553,0.448-1,1-1s1,0.447,1,1v8.289C42,61.822,41.552,62.27,41,62.27z"/>
		</g>
	</g>
	<g>
		<g>
			<path d="M87,83H41c-0.552,0-1-0.447-1-1v-8.5c0-0.553,0.448-1,1-1s1,0.447,1,1V81h44v-5.77c0-0.553,0.448-1,1-1s1,0.447,1,1V82
				C88,82.553,87.552,83,87,83z"/>
		</g>
	</g>
	<g>
		<g>
			<path d="M66,42h-4c-0.552,0-1-0.447-1-1v-5c0-0.553,0.448-1,1-1h4c0.552,0,1,0.447,1,1v5C67,41.553,66.552,42,66,42z M63,40h2v-3
				h-2V40z"/>
		</g>
	</g>
	<g>
		<g>
			<path d="M87,42h-4c-0.552,0-1-0.447-1-1v-5c0-0.553,0.448-1,1-1h4c0.552,0,1,0.447,1,1v5C88,41.553,87.552,42,87,42z M84,40h2v-3
				h-2V40z"/>
		</g>
	</g>
	<g>
		<g>
			<path d="M45,42h-4c-0.552,0-1-0.447-1-1v-5c0-0.553,0.448-1,1-1h4c0.552,0,1,0.447,1,1v5C46,41.553,45.552,42,45,42z M42,40h2v-3
				h-2V40z"/>
		</g>
	</g>
	<g>
		<g>
			<path d="M87,37H41c-0.552,0-1-0.447-1-1v-4c0-0.553,0.448-1,1-1h46c0.552,0,1,0.447,1,1v4C88,36.553,87.552,37,87,37z M42,35h44
				v-2H42V35z"/>
		</g>
	</g>
	<g>
		<g>
			<path d="M44,109h-6c-0.321,0-0.623-0.154-0.811-0.415s-0.239-0.597-0.138-0.901l6-18C43.188,89.275,43.569,89,44,89h10
				c0.354,0,0.682,0.188,0.862,0.493c0.18,0.305,0.185,0.683,0.012,0.992l-10,18C44.698,108.803,44.363,109,44,109z M39.387,107
				h4.024L52.3,91h-7.58L39.387,107z"/>
		</g>
	</g>
	<g>
		<g>
			<path d="M90,109h-6c-0.363,0-0.698-0.197-0.874-0.515l-10-18c-0.172-0.31-0.167-0.688,0.012-0.992C73.318,89.188,73.646,89,74,89
				h10c0.431,0,0.812,0.275,0.949,0.684l6,18c0.102,0.305,0.05,0.641-0.138,0.901S90.321,109,90,109z M84.588,107h4.024l-5.333-16
				H75.7L84.588,107z"/>
		</g>
	</g>
	<g>
		<g>
			<path d="M67,33h-6c-0.552,0-1-0.447-1-1v-7c0-0.553,0.448-1,1-1h4c0.446,0,0.839,0.296,0.961,0.726l2,7
				c0.086,0.302,0.026,0.626-0.163,0.877C67.609,32.853,67.314,33,67,33z M62,31h3.674l-1.429-5H62V31z"/>
		</g>
	</g>
	<g>
		<g>
			<path d="M33,29c-0.552,0-1-0.447-1-1v-3c0-0.553,0.448-1,1-1s1,0.447,1,1v3C34,28.553,33.552,29,33,29z"/>
		</g>
	</g>
	<g>
		<g>
			<path d="M44.57,29H36c-0.552,0-1-0.447-1-1s0.448-1,1-1h8.57c0.552,0,1,0.447,1,1S45.122,29,44.57,29z"/>
		</g>
	</g>
	<g>
		<g>
			<path d="M61,29H50.43c-0.552,0-1-0.447-1-1s0.448-1,1-1H60v-1H36c-0.552,0-1-0.447-1-1s0.448-1,1-1h25c0.552,0,1,0.447,1,1v3
				C62,28.553,61.552,29,61,29z"/>
		</g>
	</g>
	<g>
		<g>
			<path d="M36,41.57c-0.552,0-1-0.447-1-1V24.43c0-0.237-0.193-0.43-0.43-0.43h-0.14C34.193,24,34,24.192,34,24.43v14.34
				c0,0.553-0.448,1-1,1s-1-0.447-1-1V24.43c0-1.34,1.09-2.43,2.43-2.43h0.14c1.34,0,2.43,1.09,2.43,2.43V40.57
				C37,41.123,36.552,41.57,36,41.57z"/>
		</g>
	</g>
	<g>
		<g>
			<path d="M51,33h-7c-0.29,0-0.565-0.126-0.755-0.345s-0.275-0.51-0.234-0.797l1-7C44.081,24.366,44.502,24,45,24h5
				c0.498,0,0.919,0.366,0.99,0.858l1,7c0.041,0.287-0.044,0.578-0.234,0.797S51.29,33,51,33z M45.153,31h4.694l-0.714-5h-3.266
				L45.153,31z"/>
		</g>
	</g>
	<g>
		<g>
			<path d="M25.001,43.84c-0.751,0-1.484-0.284-2.039-0.798C22.351,42.476,22,41.673,22,40.84v-0.68
				c0-0.833,0.351-1.636,0.962-2.202c0.611-0.566,1.438-0.853,2.268-0.789l10.846,0.834C36.598,38.043,37,38.478,37,39v3
				c0,0.522-0.402,0.957-0.923,0.997L25.23,43.831C25.154,43.837,25.077,43.84,25.001,43.84z M36,42h0.01H36z M24.997,39.16
				c-0.252,0-0.489,0.093-0.676,0.266C24.114,39.617,24,39.878,24,40.16v0.68c0,0.282,0.114,0.543,0.321,0.734
				c0.207,0.19,0.472,0.285,0.755,0.263L35,41.074v-1.148l-9.923-0.763C25.05,39.161,25.023,39.16,24.997,39.16z"/>
		</g>
	</g>
	<g>
		<g>
			<g>
				<path d="M85,77c-1.067,0-2.071-0.416-2.827-1.173C81.417,75.071,81,74.066,81,73v-3c0-1.103-0.897-2-2-2
					c-0.533,0-1.035,0.208-1.413,0.587S77,69.468,77,70v2c0,1.93-1.57,3.5-3.5,3.5c-0.938,0-1.817-0.363-2.477-1.023
					C70.373,73.828,70,72.926,70,72v-4c0-0.827-0.673-1.5-1.5-1.5c-0.397,0-0.785,0.159-1.063,0.438C67.159,67.215,67,67.602,67,68
					v1.92c0,0.553-0.448,1-1,1s-1-0.447-1-1V68c0-0.926,0.373-1.828,1.023-2.478c0.659-0.659,1.539-1.022,2.477-1.022
					c1.93,0,3.5,1.57,3.5,3.5v4c0,0.398,0.159,0.785,0.437,1.062c0.279,0.279,0.666,0.438,1.063,0.438c0.827,0,1.5-0.673,1.5-1.5v-2
					c0-1.066,0.417-2.071,1.173-2.827C76.929,66.416,77.933,66,79,66c2.206,0,4,1.794,4,4v3c0,0.532,0.208,1.034,0.587,1.413
					S84.467,75,85,75c1.103,0,2-0.897,2-2V63c0-0.552-0.449-1-1-1H42c-0.551,0-1,0.448-1,1v1.77c0,0.553-0.448,1-1,1s-1-0.447-1-1
					V63c0-1.654,1.346-3,3-3h44c1.654,0,3,1.346,3,3v10C89,75.206,87.206,77,85,77z"/>
			</g>
		</g>
		<g>
			<g>
				<path d="M62.5,79.5c-1.209,0-2.34-0.472-3.183-1.329C58.472,77.339,58,76.209,58,75v-3c0-0.552-0.449-1-1-1
					c-0.267,0-0.513,0.103-0.694,0.287C56.102,71.487,56,71.733,56,72v2c0,2.206-1.794,4-4,4c-1.067,0-2.071-0.416-2.827-1.173
					C48.417,76.071,48,75.066,48,74v-4c0-0.552-0.449-1-1-1c-0.267,0-0.513,0.103-0.694,0.287C46.102,69.487,46,69.733,46,70v1.5
					c0,1.93-1.57,3.5-3.5,3.5c-0.938,0-1.817-0.363-2.477-1.023C39.373,73.328,39,72.426,39,71.5v-3.11c0-0.553,0.448-1,1-1
					s1,0.447,1,1v3.11c0,0.398,0.159,0.785,0.437,1.062C41.715,72.841,42.103,73,42.5,73c0.827,0,1.5-0.673,1.5-1.5V70
					c0-0.811,0.317-1.565,0.892-2.126C45.434,67.316,46.189,67,47,67c1.654,0,3,1.346,3,3v4c0,0.532,0.208,1.034,0.587,1.413
					S51.467,76,52,76c1.103,0,2-0.897,2-2v-2c0-0.811,0.317-1.565,0.892-2.126C55.434,69.316,56.189,69,57,69c1.654,0,3,1.346,3,3v3
					c0,0.669,0.26,1.293,0.731,1.757c0.476,0.483,1.1,0.743,1.769,0.743c1.378,0,2.5-1.121,2.5-2.5v-0.9c0-0.553,0.448-1,1-1
					s1,0.447,1,1V75C67,77.481,64.981,79.5,62.5,79.5z"/>
			</g>
		</g>
	</g>
	<g>
		<g>
			<path d="M47.882,50h-2.236c-0.357,0-0.688-0.19-0.866-0.5l-1.118-1.937c-0.178-0.31-0.178-0.69,0-1l1.118-1.937
				c0.179-0.31,0.509-0.5,0.866-0.5h2.236c0.357,0,0.688,0.19,0.866,0.5l1.118,1.937c0.178,0.31,0.178,0.69,0,1L48.748,49.5
				C48.569,49.81,48.239,50,47.882,50z M46.223,48h1.082l0.541-0.937l-0.541-0.937h-1.082l-0.541,0.937L46.223,48z"/>
		</g>
	</g>
	<g>
		<g>
			<path d="M52.882,57.773h-2.236c-0.357,0-0.688-0.19-0.866-0.5l-1.118-1.937c-0.178-0.31-0.178-0.69,0-1L49.78,52.4
				c0.179-0.31,0.509-0.5,0.866-0.5h2.236c0.357,0,0.688,0.19,0.866,0.5l1.118,1.937c0.178,0.31,0.178,0.69,0,1l-1.118,1.937
				C53.569,57.583,53.239,57.773,52.882,57.773z M51.223,55.773h1.082l0.541-0.937L52.305,53.9h-1.082l-0.541,0.937L51.223,55.773z"
				/>
		</g>
	</g>
	<g>
		<g>
			<path d="M68.911,50.174h-2.236c-0.357,0-0.688-0.19-0.866-0.5l-1.118-1.937c-0.178-0.31-0.178-0.69,0-1l1.118-1.937
				c0.179-0.31,0.509-0.5,0.866-0.5h2.236c0.357,0,0.688,0.19,0.866,0.5l1.118,1.937c0.178,0.31,0.178,0.69,0,1l-1.118,1.937
				C69.599,49.983,69.269,50.174,68.911,50.174z M67.252,48.174h1.082l0.541-0.937l-0.541-0.937h-1.082l-0.541,0.937L67.252,48.174z
				"/>
		</g>
	</g>
	<g>
		<g>
			<path d="M75.987,56.637h-2.236c-0.357,0-0.688-0.19-0.866-0.5L71.767,54.2c-0.178-0.31-0.178-0.69,0-1l1.118-1.937
				c0.179-0.31,0.509-0.5,0.866-0.5h2.236c0.357,0,0.688,0.19,0.866,0.5l1.118,1.937c0.178,0.31,0.178,0.69,0,1l-1.118,1.937
				C76.675,56.446,76.345,56.637,75.987,56.637z M74.329,54.637h1.082l0.541-0.937l-0.541-0.937h-1.082L73.788,53.7L74.329,54.637z"
				/>
		</g>
	</g>
	<g>
		<g>
			<path d="M61.298,54.05h-2.236c-0.357,0-0.688-0.19-0.866-0.5l-1.118-1.937c-0.178-0.31-0.178-0.69,0-1l1.118-1.937
				c0.179-0.31,0.509-0.5,0.866-0.5h2.236c0.357,0,0.688,0.19,0.866,0.5l1.118,1.937c0.178,0.31,0.178,0.69,0,1l-1.118,1.937
				C61.986,53.859,61.656,54.05,61.298,54.05z M59.64,52.05h1.082l0.541-0.937l-0.541-0.937H59.64l-0.541,0.937L59.64,52.05z"/>
		</g>
	</g>
	<g>
		<g>
			<path d="M82.146,50H79.91c-0.357,0-0.688-0.19-0.866-0.5l-1.118-1.937c-0.178-0.31-0.178-0.69,0-1l1.118-1.937
				c0.179-0.31,0.509-0.5,0.866-0.5h2.236c0.357,0,0.688,0.19,0.866,0.5l1.118,1.937c0.178,0.31,0.178,0.69,0,1L83.012,49.5
				C82.833,49.81,82.503,50,82.146,50z M80.487,48h1.082l0.541-0.937l-0.541-0.937h-1.082l-0.541,0.937L80.487,48z"/>
		</g>
	</g>
	<g>
		<g>
			<g>
				<path d="M92.097,18.48c-0.184,0-0.369-0.051-0.536-0.156c-0.466-0.296-0.604-0.914-0.307-1.38l1.4-2.202
					c0.296-0.467,0.914-0.603,1.38-0.308c0.466,0.296,0.604,0.914,0.307,1.38l-1.4,2.202C92.751,18.316,92.428,18.48,92.097,18.48z"
					/>
			</g>
		</g>
		<g>
			<g>
				<path d="M95.508,13.078c-0.184,0-0.37-0.051-0.536-0.156c-0.466-0.297-0.604-0.915-0.307-1.381l1.4-2.201
					c0.296-0.465,0.915-0.602,1.38-0.307c0.466,0.297,0.604,0.915,0.307,1.381l-1.4,2.201
					C96.162,12.914,95.838,13.078,95.508,13.078z"/>
			</g>
		</g>
		<g>
			<g>
				<path d="M92.909,13.669c-0.182,0-0.366-0.05-0.531-0.153l-2.214-1.393c-0.468-0.294-0.608-0.912-0.314-1.379
					c0.295-0.469,0.913-0.606,1.379-0.314l2.214,1.393c0.468,0.294,0.608,0.912,0.314,1.379
					C93.566,13.504,93.241,13.669,92.909,13.669z"/>
			</g>
		</g>
		<g>
			<g>
				<path d="M98.311,17.08c-0.182,0-0.366-0.05-0.531-0.153l-2.214-1.393c-0.468-0.294-0.608-0.912-0.314-1.379
					c0.294-0.469,0.913-0.607,1.379-0.314l2.214,1.393c0.468,0.294,0.608,0.912,0.314,1.379
					C98.968,16.915,98.643,17.08,98.311,17.08z"/>
			</g>
		</g>
	</g>
	<g>
		<g>
			<g>
				<path d="M17.802,20.08c-0.184,0-0.37-0.051-0.536-0.156c-0.466-0.297-0.604-0.915-0.307-1.381l1.4-2.201
					c0.296-0.464,0.916-0.603,1.38-0.307c0.466,0.297,0.604,0.915,0.307,1.381l-1.4,2.201C18.456,19.916,18.132,20.08,17.802,20.08z
					"/>
			</g>
		</g>
		<g>
			<g>
				<path d="M21.212,14.679c-0.184,0-0.369-0.051-0.536-0.156c-0.466-0.296-0.604-0.914-0.307-1.38l1.4-2.202
					c0.296-0.467,0.914-0.603,1.38-0.308c0.466,0.296,0.604,0.914,0.307,1.38l-1.4,2.202C21.867,14.515,21.543,14.679,21.212,14.679
					z"/>
			</g>
		</g>
		<g>
			<g>
				<path d="M18.613,15.27c-0.182,0-0.366-0.05-0.532-0.153l-2.214-1.394c-0.467-0.295-0.608-0.912-0.313-1.379
					c0.294-0.469,0.911-0.607,1.379-0.314l2.214,1.394c0.467,0.295,0.608,0.912,0.313,1.379
					C19.271,15.104,18.945,15.27,18.613,15.27z"/>
			</g>
		</g>
		<g>
			<g>
				<path d="M24.015,18.681c-0.182,0-0.366-0.05-0.532-0.153l-2.214-1.394c-0.467-0.295-0.608-0.912-0.313-1.379
					c0.294-0.469,0.911-0.607,1.379-0.314l2.214,1.394c0.467,0.295,0.608,0.912,0.313,1.379
					C24.672,18.516,24.347,18.681,24.015,18.681z"/>
			</g>
		</g>
	</g>
	<g>
		<g>
			<path d="M101.98,109H67.64c-0.552,0-1-0.447-1-1s0.448-1,1-1h34.34c0.552,0,1,0.447,1,1S102.532,109,101.98,109z"/>
		</g>
	</g>
	<g>
		<g>
			<path d="M56.18,109H28.92c-0.552,0-1-0.447-1-1s0.448-1,1-1h27.26c0.552,0,1,0.447,1,1S56.732,109,56.18,109z"/>
		</g>
	</g>
</g>
</svg>
