<?xml version="1.0" encoding="utf-8"?>
<!-- Generator: Adobe Illustrator 24.2.3, SVG Export Plug-In . SVG Version: 6.00 Build 0)  -->
<svg version="1.1" id="_x30_7" xmlns="http://www.w3.org/2000/svg" xmlns:xlink="http://www.w3.org/1999/xlink" x="0px" y="0px"
	 viewBox="0 0 128 128" style="enable-background:new 0 0 128 128;" xml:space="preserve">
<g>
	<g>
		<g>
			<g>
				<path d="M48,62.712h-3.875c-0.357,0-0.688-0.19-0.866-0.5l-1.938-3.356c-0.178-0.31-0.178-0.69,0-1l1.938-3.356
					c0.179-0.31,0.509-0.5,0.866-0.5H48c0.357,0,0.688,0.19,0.866,0.5l1.938,3.356c0.178,0.31,0.178,0.69,0,1l-1.938,3.356
					C48.688,62.521,48.357,62.712,48,62.712z M44.702,60.712h2.721l1.36-2.356L47.423,56h-2.721l-1.36,2.356L44.702,60.712z"/>
			</g>
		</g>
		<g>
			<g>
				<path d="M48,56h-3.88c-0.358,0-0.689-0.192-0.868-0.502l-1.72-3c-0.274-0.479-0.109-1.09,0.37-1.365
					c0.479-0.275,1.09-0.108,1.365,0.37L44.699,54h2.723l1.441-2.5c0.275-0.479,0.888-0.643,1.366-0.367
					c0.479,0.276,0.643,0.887,0.367,1.366l-1.73,3C48.688,55.809,48.357,56,48,56z"/>
			</g>
		</g>
		<g>
			<g>
				<path d="M42.19,59.36H39c-0.552,0-1-0.448-1-1s0.448-1,1-1h2.611L42.967,55l-1.435-2.502c-0.274-0.479-0.109-1.09,0.37-1.365
					c0.479-0.275,1.09-0.108,1.365,0.37l1.72,3c0.177,0.309,0.176,0.688,0,0.996l-1.93,3.36C42.879,59.168,42.548,59.36,42.19,59.36
					z"/>
			</g>
		</g>
	</g>
	<g>
		<g>
			<g>
				<path d="M84.25,60.288h-3.875c-0.357,0-0.688-0.19-0.866-0.5l-1.938-3.356c-0.178-0.31-0.178-0.69,0-1l1.938-3.356
					c0.179-0.31,0.509-0.5,0.866-0.5h3.875c0.357,0,0.688,0.19,0.866,0.5l1.938,3.356c0.178,0.31,0.178,0.69,0,1l-1.938,3.356
					C84.937,60.098,84.607,60.288,84.25,60.288z M80.952,58.288h2.72l1.36-2.356l-1.36-2.356h-2.721l-1.36,2.356L80.952,58.288z"/>
			</g>
		</g>
		<g>
			<g>
				<path d="M89,63.64h-2.81c-0.357,0-0.687-0.19-0.865-0.499l-1.94-3.35c-0.179-0.31-0.18-0.691-0.001-1.001l1.94-3.36
					c0.179-0.31,0.509-0.5,0.866-0.5H89c0.552,0,1,0.448,1,1s-0.448,1-1,1h-2.233l-1.362,2.359l1.361,2.351H89c0.552,0,1,0.448,1,1
					S89.552,63.64,89,63.64z"/>
			</g>
		</g>
	</g>
	<g>
		<g>
			<g>
				<path d="M13.379,64.26c-0.152,0-0.307-0.035-0.452-0.108c-0.67-0.341-1.313-0.822-1.911-1.431
					c-2.088-2.114-2.634-4.852-1.24-6.231c1.411-1.381,4.144-0.8,6.227,1.32c0.292,0.292,0.559,0.606,0.79,0.929
					c0.321,0.449,0.218,1.074-0.231,1.396c-0.45,0.32-1.075,0.217-1.396-0.231c-0.167-0.234-0.364-0.465-0.584-0.686
					c-1.417-1.443-2.958-1.733-3.402-1.302c-0.431,0.426-0.157,1.967,1.262,3.402c0.448,0.457,0.915,0.809,1.392,1.051
					c0.492,0.25,0.688,0.852,0.438,1.345C14.095,64.06,13.744,64.26,13.379,64.26z"/>
			</g>
		</g>
		<g>
			<g>
				<path d="M27.809,61.75c-0.163,0-0.328-0.04-0.48-0.124c-0.484-0.266-0.661-0.874-0.395-1.358
					c0.815-1.485,1.952-2.342,3.201-2.414c1.084-0.06,2.113,0.491,2.841,1.517c0.32,0.451,0.214,1.075-0.236,1.395
					s-1.074,0.213-1.395-0.236c-0.188-0.266-0.566-0.709-1.096-0.678c-0.528,0.03-1.098,0.533-1.562,1.38
					C28.504,61.563,28.162,61.75,27.809,61.75z"/>
			</g>
		</g>
		<g>
			<g>
				<path d="M23.53,62.86c-0.25,0-0.5-0.093-0.693-0.279c-0.402-0.387-0.904-0.659-1.454-0.787
					c-0.538-0.125-0.872-0.663-0.746-1.201c0.125-0.537,0.66-0.874,1.201-0.746c0.9,0.21,1.725,0.657,2.386,1.293
					c0.398,0.383,0.41,1.016,0.027,1.414C24.054,62.757,23.792,62.86,23.53,62.86z"/>
			</g>
		</g>
		<g>
			<g>
				<path d="M14.83,68.65c-1.478,0-2.758-1.096-2.979-2.549c-0.179-1.16,0.061-2.354,0.675-3.362
					c0.779-1.259,2.057-2.108,3.508-2.336l0.688-0.11c0.545-0.087,1.058,0.285,1.145,0.83c0.087,0.545-0.284,1.058-0.83,1.145
					l-0.69,0.11c-0.878,0.138-1.649,0.651-2.117,1.409c-0.366,0.599-0.51,1.315-0.402,2.011c0.083,0.544,0.568,0.897,1.19,0.838
					l5.89-0.914c0.023-0.003,0.046-0.006,0.07-0.008c0.024-0.003,0.05-0.006,0.076-0.008l1.823-0.283
					c0.457-0.069,0.811-0.455,0.847-0.919c0.042-0.551,0.518-0.961,1.074-0.92c0.55,0.042,0.962,0.523,0.92,1.074
					c-0.107,1.383-1.174,2.536-2.539,2.742l-1.865,0.29c-0.035,0.005-0.071,0.009-0.106,0.011l-5.935,0.919
					C15.087,68.639,14.952,68.65,14.83,68.65z"/>
			</g>
		</g>
		<g>
			<g>
				<path d="M20.019,67.87c-0.519,0-0.958-0.401-0.996-0.927c-0.079-1.063-0.261-2.036-0.542-2.89
					c-0.173-0.524,0.112-1.09,0.637-1.263c0.526-0.174,1.09,0.112,1.263,0.637c0.333,1.009,0.547,2.143,0.637,3.37
					c0.041,0.551-0.373,1.03-0.924,1.07C20.068,67.869,20.043,67.87,20.019,67.87z"/>
			</g>
		</g>
		<g>
			<g>
				<path d="M20.083,64.862c-1.653,0-3.533-1.654-4.688-4.272c-1.38-3.129-1.045-6.096,0.78-6.902
					c1.827-0.802,4.244,0.947,5.624,4.077c0.601,1.361,0.899,2.775,0.841,3.982c-0.07,1.453-0.646,2.49-1.622,2.92
					C20.72,64.799,20.406,64.862,20.083,64.862z M17.133,55.49c-0.057,0-0.107,0.009-0.15,0.028
					c-0.483,0.213-0.759,1.995,0.243,4.265c0,0,0,0,0,0c1.001,2.27,2.497,3.274,2.987,3.054c0.19-0.084,0.397-0.483,0.431-1.187
					c0.043-0.89-0.203-2.012-0.673-3.079C19.056,56.501,17.727,55.49,17.133,55.49z"/>
			</g>
		</g>
		<g>
			<g>
				<path d="M22.5,70.528c-0.077,0-0.156-0.009-0.234-0.027c-0.537-0.129-0.867-0.667-0.74-1.203
					c0.063-0.341-0.211-1.301-0.479-1.583c-0.482-0.003-0.904-0.356-0.98-0.848c-0.084-0.546,0.291-1.056,0.836-1.14
					c0.576-0.092,1.147,0.131,1.598,0.622c0.799,0.868,1.178,2.548,0.97,3.413C23.361,70.22,22.952,70.528,22.5,70.528z"/>
			</g>
		</g>
		<g>
			<g>
				<path d="M19.425,71c-0.077,0-0.156-0.009-0.234-0.027c-0.537-0.129-0.867-0.667-0.74-1.203c0.063-0.341-0.211-1.301-0.479-1.583
					c-0.482-0.003-0.904-0.356-0.98-0.848c-0.084-0.546,0.291-1.056,0.836-1.14c0.578-0.091,1.147,0.131,1.598,0.622
					c0.799,0.868,1.178,2.548,0.97,3.413C20.286,70.692,19.876,71,19.425,71z"/>
			</g>
		</g>
		<g>
			<g>
				<path d="M25.958,65.92c-1.698,0-3.192-1.241-3.458-2.969c-0.293-1.907,1.021-3.697,2.927-3.991
					c1.914-0.291,3.699,1.021,3.991,2.928c0.142,0.924-0.084,1.848-0.637,2.602s-1.367,1.247-2.291,1.389
					C26.312,65.907,26.134,65.92,25.958,65.92z M25.963,60.919c-0.077,0-0.153,0.006-0.23,0.018c-0.817,0.126-1.38,0.893-1.255,1.71
					c0.125,0.818,0.897,1.379,1.71,1.255c0.396-0.061,0.745-0.272,0.982-0.595c0.237-0.323,0.334-0.719,0.273-1.115
					s-0.272-0.745-0.595-0.982C26.587,61.02,26.28,60.919,25.963,60.919z"/>
			</g>
		</g>
	</g>
	<g>
		<g>
			<g>
				<path d="M93.051,23.13c-0.333,0-0.657-0.166-0.847-0.467c-0.294-0.468-0.154-1.085,0.313-1.379
					c0.458-0.289,0.908-0.693,1.301-1.17c0.616-0.742,1.039-1.593,1.163-2.339c0.091-0.545,0.012-0.981-0.209-1.166
					c-0.222-0.182-0.665-0.179-1.185,0.014c-0.708,0.262-1.464,0.838-2.074,1.581c-0.199,0.242-0.373,0.484-0.534,0.744
					c-0.036,0.058-0.078,0.112-0.125,0.162c-0.381,0.4-1.019,0.421-1.418,0.04c-0.37-0.352-0.415-0.915-0.12-1.313
					c0.198-0.313,0.412-0.609,0.652-0.901c0.84-1.023,1.879-1.801,2.925-2.188c1.211-0.448,2.36-0.331,3.152,0.32
					c0.79,0.656,1.12,1.762,0.909,3.035c-0.183,1.101-0.75,2.268-1.595,3.287c-0.525,0.637-1.14,1.187-1.776,1.587
					C93.417,23.081,93.233,23.13,93.051,23.13z"/>
			</g>
		</g>
		<g>
			<g>
				<path d="M78.471,21.89c-0.321,0-0.636-0.154-0.829-0.439c-0.542-0.801-1.154-1.236-1.683-1.233
					c-0.515,0.017-0.871,0.495-1.037,0.778c-0.279,0.476-0.891,0.635-1.369,0.356c-0.476-0.279-0.636-0.892-0.356-1.369
					c0.638-1.087,1.621-1.73,2.697-1.765c1.243-0.037,2.454,0.709,3.403,2.11c0.31,0.457,0.19,1.079-0.267,1.389
					C78.859,21.834,78.664,21.89,78.471,21.89z"/>
			</g>
		</g>
		<g>
			<g>
				<path d="M82.83,22.62c-0.233,0-0.467-0.081-0.657-0.247c-0.417-0.363-0.459-0.995-0.096-1.411
					c0.599-0.687,1.379-1.2,2.255-1.484c0.527-0.17,1.09,0.118,1.259,0.643c0.17,0.525-0.118,1.089-0.643,1.259
					c-0.532,0.172-1.003,0.482-1.365,0.896C83.386,22.504,83.108,22.62,82.83,22.62z"/>
			</g>
		</g>
		<g>
			<g>
				<path d="M91.85,27.64c-0.034,0-0.144-0.007-0.177-0.01l-8.019-0.512c-1.409-0.089-2.546-1.123-2.763-2.514
					c-0.085-0.545,0.289-1.057,0.834-1.142c0.544-0.081,1.057,0.289,1.142,0.834c0.071,0.457,0.447,0.796,0.915,0.826l7.979,0.51
					c0.013,0.001,0.101,0.007,0.114,0.008c0.489,0,0.92-0.412,0.956-0.937c0.043-0.714-0.163-1.416-0.581-1.971
					c-0.529-0.716-1.339-1.156-2.227-1.214l-0.696-0.05c-0.551-0.04-0.965-0.519-0.926-1.069s0.511-0.962,1.069-0.926l0.69,0.05
					c1.471,0.097,2.819,0.831,3.692,2.013c0.699,0.928,1.047,2.101,0.974,3.295C94.723,26.409,93.415,27.64,91.85,27.64z"/>
			</g>
		</g>
		<g>
			<g>
				<path d="M86.76,26.32h-1c-0.019-1.198,0.097-2.35,0.347-3.417c0.125-0.538,0.664-0.874,1.201-0.747
					c0.538,0.125,0.872,0.663,0.747,1.201c-0.212,0.909-0.311,1.896-0.294,2.937L86.76,26.32z"/>
			</g>
		</g>
		<g>
			<g>
				<path d="M86.322,24.331c-0.255,0-0.506-0.041-0.75-0.124c-1.009-0.343-1.674-1.325-1.872-2.766
					c-0.164-1.197,0.009-2.632,0.487-4.041c1.1-3.24,3.358-5.2,5.243-4.556c1.01,0.343,1.675,1.325,1.873,2.766
					c0.164,1.197-0.009,2.632-0.488,4.041l0,0c-0.478,1.409-1.215,2.653-2.074,3.502C87.958,23.928,87.121,24.331,86.322,24.331z
					 M88.677,14.722c-0.573,0-1.851,1.127-2.597,3.322c-0.375,1.104-0.521,2.244-0.399,3.126c0.096,0.697,0.337,1.077,0.534,1.144
					c0.197,0.065,0.62-0.088,1.12-0.583c0.633-0.626,1.211-1.619,1.586-2.723v0c0.375-1.104,0.521-2.243,0.4-3.125
					c-0.096-0.697-0.337-1.077-0.534-1.144C88.754,14.727,88.718,14.722,88.677,14.722z"/>
			</g>
		</g>
		<g>
			<g>
				<path d="M84.507,30.16c-0.412,0-0.791-0.25-0.929-0.663c-0.283-0.844-0.054-2.55,0.666-3.485
					c0.405-0.528,0.943-0.803,1.537-0.761c0.551,0.036,0.969,0.511,0.934,1.062c-0.032,0.497-0.421,0.886-0.902,0.932
					c-0.242,0.305-0.431,1.287-0.337,1.62c0.147,0.522-0.142,1.088-0.661,1.249C84.712,30.145,84.608,30.16,84.507,30.16z"/>
			</g>
		</g>
		<g>
			<g>
				<path d="M87.612,30.36c-0.412,0-0.791-0.25-0.929-0.663c-0.283-0.844-0.054-2.55,0.665-3.485
					c0.406-0.528,0.949-0.801,1.538-0.761c0.551,0.036,0.969,0.511,0.934,1.062c-0.032,0.497-0.421,0.886-0.902,0.932
					c-0.242,0.305-0.432,1.287-0.337,1.62c0.148,0.522-0.142,1.088-0.661,1.249C87.817,30.345,87.713,30.36,87.612,30.36z"/>
			</g>
		</g>
		<g>
			<g>
				<path d="M80.457,25.904c-0.076,0-0.152-0.002-0.229-0.007c-1.926-0.125-3.392-1.792-3.269-3.717
					c0.06-0.933,0.48-1.787,1.182-2.404s1.598-0.926,2.536-0.864c0.933,0.06,1.787,0.479,2.404,1.182
					c0.618,0.703,0.924,1.603,0.864,2.536c-0.06,0.933-0.479,1.787-1.182,2.404C82.119,25.599,81.307,25.904,80.457,25.904z
					 M80.45,20.904c-0.364,0-0.712,0.131-0.988,0.374c-0.301,0.265-0.481,0.631-0.507,1.031c-0.053,0.825,0.575,1.54,1.401,1.593
					c0.826,0.061,1.54-0.576,1.593-1.4v0c0.026-0.4-0.105-0.786-0.37-1.086s-0.63-0.481-1.03-0.506
					C80.515,20.905,80.482,20.904,80.45,20.904z"/>
			</g>
		</g>
	</g>
	<g>
		<g>
			<g>
				<path d="M58.281,57.797c0.348,0,0.675,0.045,0.981,0.135s0.574,0.225,0.803,0.404s0.408,0.403,0.539,0.671
					s0.196,0.579,0.196,0.935c0,0.184-0.024,0.351-0.073,0.501s-0.111,0.286-0.188,0.407s-0.16,0.227-0.252,0.316
					s-0.181,0.167-0.267,0.231s-0.162,0.115-0.229,0.152s-0.113,0.06-0.141,0.067c0.234,0.066,0.432,0.151,0.592,0.255
					s0.294,0.217,0.401,0.34s0.191,0.25,0.252,0.381s0.105,0.258,0.135,0.381s0.047,0.236,0.053,0.34s0.009,0.187,0.009,0.249
					c0,0.305-0.037,0.573-0.111,0.806s-0.172,0.434-0.293,0.604s-0.26,0.314-0.416,0.434s-0.314,0.216-0.475,0.29
					c-0.383,0.18-0.814,0.281-1.295,0.305h-1.922c-0.223,0-0.395-0.038-0.516-0.114s-0.209-0.178-0.264-0.305
					s-0.087-0.271-0.097-0.431s-0.015-0.326-0.015-0.498v-5.52c0-0.168,0.005-0.332,0.015-0.492s0.042-0.303,0.097-0.428
					s0.143-0.226,0.264-0.302s0.293-0.114,0.516-0.114H58.281z M57.473,59.18v1.992h0.75c0.168-0.008,0.318-0.047,0.451-0.117
					c0.055-0.027,0.109-0.064,0.164-0.111s0.104-0.103,0.146-0.167s0.077-0.142,0.103-0.231s0.038-0.193,0.038-0.311
					c0-0.133-0.014-0.249-0.041-0.349s-0.063-0.186-0.108-0.258s-0.096-0.134-0.152-0.185s-0.114-0.094-0.173-0.129
					c-0.141-0.074-0.299-0.119-0.475-0.135H57.473z M57.473,62.414v2.203h0.855c0.184-0.008,0.348-0.051,0.492-0.129
					c0.062-0.031,0.123-0.072,0.182-0.123s0.111-0.114,0.158-0.19s0.084-0.164,0.111-0.264s0.041-0.216,0.041-0.349
					c0-0.145-0.015-0.271-0.044-0.378s-0.068-0.201-0.117-0.281s-0.104-0.148-0.167-0.205s-0.125-0.103-0.188-0.138
					c-0.152-0.082-0.324-0.131-0.516-0.146H57.473z"/>
			</g>
		</g>
		<g>
			<g>
				<path d="M65.453,57.797c0.156,0,0.314,0.006,0.475,0.018s0.305,0.045,0.434,0.1s0.234,0.138,0.316,0.249
					s0.123,0.267,0.123,0.466s-0.041,0.354-0.123,0.466s-0.188,0.194-0.316,0.249s-0.273,0.088-0.434,0.1s-0.318,0.018-0.475,0.018
					h-1.395v1.594h0.738c0.156,0,0.313,0.005,0.472,0.015s0.299,0.041,0.422,0.094s0.224,0.133,0.302,0.24s0.117,0.257,0.117,0.448
					c0,0.195-0.039,0.346-0.117,0.451s-0.179,0.185-0.302,0.237s-0.264,0.084-0.422,0.094s-0.315,0.015-0.472,0.015h-0.738v1.688
					h1.395c0.156,0,0.314,0.006,0.475,0.018s0.305,0.044,0.434,0.097s0.234,0.135,0.316,0.246s0.123,0.265,0.123,0.46
					c0,0.203-0.042,0.361-0.126,0.475s-0.19,0.197-0.319,0.252s-0.273,0.088-0.434,0.1S65.605,66,65.453,66h-2.297
					c-0.219,0-0.388-0.039-0.507-0.117s-0.206-0.181-0.261-0.308s-0.087-0.271-0.097-0.431s-0.015-0.324-0.015-0.492v-5.508
					c0-0.168,0.005-0.332,0.015-0.492s0.042-0.304,0.097-0.431s0.142-0.229,0.261-0.308s0.288-0.117,0.507-0.117H65.453z"/>
			</g>
		</g>
		<g>
			<g>
				<path d="M71.23,57.797c0.156,0,0.314,0.006,0.475,0.018s0.305,0.045,0.434,0.1s0.234,0.138,0.316,0.249s0.123,0.267,0.123,0.466
					s-0.041,0.354-0.123,0.466s-0.188,0.194-0.316,0.249s-0.273,0.088-0.434,0.1s-0.318,0.018-0.475,0.018h-1.395v1.594h0.738
					c0.156,0,0.313,0.005,0.472,0.015s0.299,0.041,0.422,0.094s0.224,0.133,0.302,0.24s0.117,0.257,0.117,0.448
					c0,0.195-0.039,0.346-0.117,0.451s-0.179,0.185-0.302,0.237s-0.264,0.084-0.422,0.094s-0.315,0.015-0.472,0.015h-0.738v1.688
					h1.395c0.156,0,0.314,0.006,0.475,0.018s0.305,0.044,0.434,0.097s0.234,0.135,0.316,0.246s0.123,0.265,0.123,0.46
					c0,0.203-0.042,0.361-0.126,0.475s-0.19,0.197-0.319,0.252s-0.273,0.088-0.434,0.1S71.383,66,71.23,66h-2.297
					c-0.219,0-0.388-0.039-0.507-0.117s-0.206-0.181-0.261-0.308s-0.087-0.271-0.097-0.431s-0.015-0.324-0.015-0.492v-5.508
					c0-0.168,0.005-0.332,0.015-0.492s0.042-0.304,0.097-0.431s0.142-0.229,0.261-0.308s0.288-0.117,0.507-0.117H71.23z"/>
			</g>
		</g>
		<g>
			<g>
				<path d="M47.594,72.766v1.898c0,0.168-0.005,0.332-0.015,0.492s-0.043,0.303-0.1,0.428s-0.146,0.226-0.267,0.302
					S46.918,76,46.691,76c-0.219,0-0.388-0.038-0.507-0.114s-0.206-0.177-0.261-0.302s-0.087-0.268-0.097-0.428
					s-0.015-0.324-0.015-0.492v-5.531c0-0.168,0.005-0.332,0.015-0.492s0.042-0.303,0.097-0.428s0.142-0.226,0.261-0.302
					s0.288-0.114,0.507-0.114h1.934c0.484,0.023,0.918,0.125,1.301,0.305c0.164,0.078,0.323,0.176,0.478,0.293
					s0.293,0.261,0.416,0.431s0.222,0.371,0.296,0.604s0.111,0.501,0.111,0.806c0,0.418-0.065,0.784-0.196,1.099
					s-0.32,0.578-0.568,0.791s-0.551,0.373-0.908,0.48s-0.761,0.161-1.21,0.161H47.594z M48.391,71.371
					c0.195-0.012,0.371-0.059,0.527-0.141c0.066-0.035,0.131-0.08,0.193-0.135s0.119-0.122,0.17-0.202s0.091-0.175,0.12-0.284
					s0.044-0.234,0.044-0.375c0-0.133-0.015-0.249-0.044-0.349s-0.067-0.186-0.114-0.258s-0.1-0.134-0.158-0.185
					s-0.119-0.094-0.182-0.129c-0.148-0.074-0.314-0.119-0.498-0.135h-0.855v2.191H48.391z"/>
			</g>
		</g>
		<g>
			<g>
				<path d="M51.93,70.117c0-0.375,0.055-0.694,0.164-0.958s0.249-0.483,0.419-0.659s0.357-0.313,0.562-0.413
					s0.404-0.175,0.598-0.226s0.368-0.082,0.524-0.094s0.271-0.018,0.346-0.018h0.199c0.074,0,0.189,0.006,0.346,0.018
					s0.33,0.043,0.521,0.094s0.39,0.126,0.595,0.226s0.391,0.237,0.557,0.413s0.303,0.396,0.41,0.659s0.161,0.583,0.161,0.958v3.504
					c0,0.387-0.054,0.715-0.161,0.984s-0.244,0.494-0.41,0.674s-0.352,0.321-0.557,0.425s-0.403,0.181-0.595,0.231
					s-0.365,0.082-0.521,0.094s-0.271,0.018-0.346,0.018h-0.199c-0.074,0-0.189-0.006-0.346-0.018s-0.331-0.043-0.524-0.094
					s-0.393-0.128-0.598-0.231s-0.393-0.245-0.562-0.425s-0.31-0.404-0.419-0.674s-0.164-0.598-0.164-0.984V70.117z M53.875,73.844
					c0.008,0.145,0.041,0.271,0.1,0.381c0.051,0.098,0.128,0.186,0.231,0.264s0.251,0.117,0.442,0.117
					c0.188,0,0.332-0.039,0.434-0.117s0.178-0.166,0.229-0.264c0.055-0.109,0.088-0.236,0.1-0.381v-3.82
					c-0.012-0.141-0.045-0.268-0.1-0.381c-0.051-0.094-0.127-0.181-0.229-0.261s-0.246-0.12-0.434-0.12
					c-0.191,0-0.339,0.04-0.442,0.12s-0.181,0.167-0.231,0.261c-0.059,0.113-0.092,0.24-0.1,0.381V73.844z"/>
			</g>
		</g>
		<g>
			<g>
				<path d="M58.973,69.145c0-0.168,0.008-0.332,0.023-0.492s0.054-0.304,0.114-0.431s0.149-0.229,0.267-0.308
					s0.279-0.117,0.486-0.117c0.223,0,0.396,0.039,0.521,0.117s0.217,0.181,0.275,0.308s0.095,0.271,0.108,0.431
					s0.021,0.324,0.021,0.492v5.133h1.148c0.16,0,0.318,0.008,0.475,0.023s0.296,0.053,0.419,0.111s0.222,0.145,0.296,0.258
					s0.111,0.268,0.111,0.463c0,0.199-0.037,0.356-0.111,0.472s-0.173,0.202-0.296,0.261s-0.263,0.096-0.419,0.111
					S62.098,76,61.938,76h-1.664c-0.207,0-0.391-0.008-0.551-0.023s-0.296-0.053-0.407-0.111s-0.196-0.146-0.255-0.261
					s-0.088-0.272-0.088-0.472V69.145z"/>
			</g>
		</g>
		<g>
			<g>
				<path d="M64.645,69.145c0-0.168,0.008-0.332,0.023-0.492s0.054-0.304,0.114-0.431s0.149-0.229,0.267-0.308
					s0.279-0.117,0.486-0.117c0.223,0,0.396,0.039,0.521,0.117s0.217,0.181,0.275,0.308s0.095,0.271,0.108,0.431
					s0.021,0.324,0.021,0.492v5.133h1.148c0.16,0,0.318,0.008,0.475,0.023s0.296,0.053,0.419,0.111s0.222,0.145,0.296,0.258
					s0.111,0.268,0.111,0.463c0,0.199-0.037,0.356-0.111,0.472s-0.173,0.202-0.296,0.261s-0.263,0.096-0.419,0.111
					S67.77,76,67.609,76h-1.664c-0.207,0-0.391-0.008-0.551-0.023s-0.296-0.053-0.407-0.111s-0.196-0.146-0.255-0.261
					s-0.088-0.272-0.088-0.472V69.145z"/>
			</g>
		</g>
		<g>
			<g>
				<path d="M73.27,67.797c0.156,0,0.314,0.006,0.475,0.018s0.305,0.045,0.434,0.1s0.234,0.138,0.316,0.249s0.123,0.267,0.123,0.466
					s-0.041,0.354-0.123,0.466s-0.188,0.194-0.316,0.249s-0.273,0.088-0.434,0.1s-0.318,0.018-0.475,0.018h-1.395v1.594h0.738
					c0.156,0,0.313,0.005,0.472,0.015s0.299,0.041,0.422,0.094s0.224,0.133,0.302,0.24s0.117,0.257,0.117,0.448
					c0,0.195-0.039,0.346-0.117,0.451s-0.179,0.185-0.302,0.237s-0.264,0.084-0.422,0.094s-0.315,0.015-0.472,0.015h-0.738v1.688
					h1.395c0.156,0,0.314,0.006,0.475,0.018s0.305,0.044,0.434,0.097s0.234,0.135,0.316,0.246s0.123,0.265,0.123,0.46
					c0,0.203-0.042,0.361-0.126,0.475s-0.19,0.197-0.319,0.252s-0.273,0.088-0.434,0.1S73.422,76,73.27,76h-2.297
					c-0.219,0-0.388-0.039-0.507-0.117s-0.206-0.181-0.261-0.308s-0.087-0.271-0.097-0.431s-0.015-0.324-0.015-0.492v-5.508
					c0-0.168,0.005-0.332,0.015-0.492s0.042-0.304,0.097-0.431s0.142-0.229,0.261-0.308s0.288-0.117,0.507-0.117H73.27z"/>
			</g>
		</g>
		<g>
			<g>
				<path d="M80.418,73.574h0.141v-4.863c0-0.125,0.008-0.243,0.023-0.354s0.05-0.208,0.103-0.29s0.131-0.147,0.234-0.196
					s0.245-0.073,0.425-0.073c0.199,0,0.356,0.024,0.472,0.073s0.202,0.114,0.261,0.196s0.096,0.179,0.111,0.29
					s0.023,0.229,0.023,0.354v5.941c0,0.172-0.005,0.338-0.015,0.498s-0.041,0.304-0.094,0.431s-0.139,0.229-0.258,0.305
					S81.559,76,81.344,76H80.57c-0.184,0-0.337-0.036-0.46-0.108s-0.226-0.16-0.308-0.264s-0.147-0.212-0.196-0.325
					s-0.087-0.209-0.114-0.287l-1.77-4.793h-0.141v4.863c0,0.125-0.008,0.243-0.023,0.354s-0.05,0.208-0.103,0.29
					s-0.131,0.147-0.234,0.196S76.977,76,76.797,76c-0.203,0-0.363-0.024-0.48-0.073s-0.205-0.114-0.264-0.196
					s-0.096-0.179-0.111-0.29s-0.023-0.229-0.023-0.354v-5.941c0-0.168,0.005-0.333,0.015-0.495s0.042-0.307,0.097-0.434
					s0.142-0.229,0.261-0.305s0.288-0.114,0.507-0.114h0.773c0.195,0,0.354,0.038,0.478,0.114s0.224,0.159,0.302,0.249
					c0.086,0.105,0.154,0.227,0.205,0.363L80.418,73.574z"/>
			</g>
		</g>
	</g>
	<g>
		<g>
			<path d="M89,83.55c-0.552,0-1-0.448-1-1V44H40v19.67c0,0.552-0.448,1-1,1s-1-0.448-1-1V43c0-0.552,0.448-1,1-1h50
				c0.552,0,1,0.448,1,1v39.55C90,83.102,89.552,83.55,89,83.55z"/>
		</g>
	</g>
	<g>
		<g>
			<path d="M64,93c-6.11,0-12.02-0.358-16.64-1.01c-0.547-0.077-0.928-0.583-0.851-1.13c0.078-0.547,0.591-0.929,1.13-0.851
				C52.17,90.648,57.98,91,64,91c4.237,0,8.408-0.171,12.062-0.496c0.559-0.04,1.036,0.358,1.084,0.908
				c0.049,0.55-0.357,1.036-0.908,1.084C72.527,92.826,68.295,93,64,93z"/>
		</g>
	</g>
	<g>
		<g>
			<path d="M39,76.81c-0.552,0-1-0.448-1-1v-6.48c0-0.552,0.448-1,1-1s1,0.448,1,1v6.48C40,76.362,39.552,76.81,39,76.81z"/>
		</g>
	</g>
	<g>
		<g>
			<g>
				<path d="M92,44H36c-1.103,0-2-0.897-2-2v-7c0-1.103,0.897-2,2-2h56c1.103,0,2,0.897,2,2v7C94,43.103,93.103,44,92,44z M36,35v7
					h56.001L92,35H36z"/>
			</g>
		</g>
		<g>
			<g>
				<g>
					<path d="M39,44c-0.552,0-1-0.448-1-1v-3c0-0.552,0.448-1,1-1s1,0.448,1,1v3C40,43.552,39.552,44,39,44z"/>
				</g>
			</g>
			<g>
				<g>
					<path d="M44,44c-0.552,0-1-0.448-1-1v-2c0-0.552,0.448-1,1-1s1,0.448,1,1v2C45,43.552,44.552,44,44,44z"/>
				</g>
			</g>
			<g>
				<g>
					<path d="M49,44c-0.552,0-1-0.448-1-1v-3c0-0.552,0.448-1,1-1s1,0.448,1,1v3C50,43.552,49.552,44,49,44z"/>
				</g>
			</g>
			<g>
				<g>
					<path d="M54,44c-0.552,0-1-0.448-1-1v-2c0-0.552,0.448-1,1-1s1,0.448,1,1v2C55,43.552,54.552,44,54,44z"/>
				</g>
			</g>
			<g>
				<g>
					<path d="M59,44c-0.552,0-1-0.448-1-1v-3c0-0.552,0.448-1,1-1s1,0.448,1,1v3C60,43.552,59.552,44,59,44z"/>
				</g>
			</g>
			<g>
				<g>
					<path d="M64,44c-0.552,0-1-0.448-1-1v-2c0-0.552,0.448-1,1-1s1,0.448,1,1v2C65,43.552,64.552,44,64,44z"/>
				</g>
			</g>
			<g>
				<g>
					<path d="M69,44c-0.552,0-1-0.448-1-1v-3c0-0.552,0.448-1,1-1s1,0.448,1,1v3C70,43.552,69.552,44,69,44z"/>
				</g>
			</g>
			<g>
				<g>
					<path d="M74,44c-0.552,0-1-0.448-1-1v-2c0-0.552,0.448-1,1-1s1,0.448,1,1v2C75,43.552,74.552,44,74,44z"/>
				</g>
			</g>
			<g>
				<g>
					<path d="M79,44c-0.552,0-1-0.448-1-1v-3c0-0.552,0.448-1,1-1s1,0.448,1,1v3C80,43.552,79.552,44,79,44z"/>
				</g>
			</g>
			<g>
				<g>
					<path d="M84,44c-0.552,0-1-0.448-1-1v-2c0-0.552,0.448-1,1-1s1,0.448,1,1v2C85,43.552,84.552,44,84,44z"/>
				</g>
			</g>
			<g>
				<g>
					<path d="M89,44c-0.552,0-1-0.448-1-1v-3c0-0.552,0.448-1,1-1s1,0.448,1,1v3C90,43.552,89.552,44,89,44z"/>
				</g>
			</g>
		</g>
		<g>
			<g>
				<g>
					<path d="M41,37c-0.552,0-1-0.448-1-1v-2c0-0.552,0.448-1,1-1s1,0.448,1,1v2C42,36.552,41.552,37,41,37z"/>
				</g>
			</g>
			<g>
				<g>
					<path d="M46,38c-0.552,0-1-0.448-1-1v-3c0-0.552,0.448-1,1-1s1,0.448,1,1v3C47,37.552,46.552,38,46,38z"/>
				</g>
			</g>
			<g>
				<g>
					<path d="M51,37c-0.552,0-1-0.448-1-1v-2c0-0.552,0.448-1,1-1s1,0.448,1,1v2C52,36.552,51.552,37,51,37z"/>
				</g>
			</g>
			<g>
				<g>
					<path d="M56,38c-0.552,0-1-0.448-1-1v-3c0-0.552,0.448-1,1-1s1,0.448,1,1v3C57,37.552,56.552,38,56,38z"/>
				</g>
			</g>
			<g>
				<g>
					<path d="M61,37c-0.552,0-1-0.448-1-1v-2c0-0.552,0.448-1,1-1s1,0.448,1,1v2C62,36.552,61.552,37,61,37z"/>
				</g>
			</g>
			<g>
				<g>
					<path d="M66,38c-0.552,0-1-0.448-1-1v-3c0-0.552,0.448-1,1-1s1,0.448,1,1v3C67,37.552,66.552,38,66,38z"/>
				</g>
			</g>
			<g>
				<g>
					<path d="M71,37c-0.552,0-1-0.448-1-1v-2c0-0.552,0.448-1,1-1s1,0.448,1,1v2C72,36.552,71.552,37,71,37z"/>
				</g>
			</g>
			<g>
				<g>
					<path d="M76,38c-0.552,0-1-0.448-1-1v-3c0-0.552,0.448-1,1-1s1,0.448,1,1v3C77,37.552,76.552,38,76,38z"/>
				</g>
			</g>
			<g>
				<g>
					<path d="M81,37c-0.552,0-1-0.448-1-1v-2c0-0.552,0.448-1,1-1s1,0.448,1,1v2C82,36.552,81.552,37,81,37z"/>
				</g>
			</g>
			<g>
				<g>
					<path d="M86,38c-0.552,0-1-0.448-1-1v-3c0-0.552,0.448-1,1-1s1,0.448,1,1v3C87,37.552,86.552,38,86,38z"/>
				</g>
			</g>
		</g>
	</g>
	<g>
		<g>
			<path d="M89,83h-0.3c-0.552,0-1-0.448-1-1c0-0.28,0.115-0.532,0.3-0.714V53H40v10.67c0,0.552-0.448,1-1,1s-1-0.448-1-1V52
				c0-0.552,0.448-1,1-1h50c0.552,0,1,0.448,1,1v30C90,82.552,89.552,83,89,83z"/>
		</g>
	</g>
	<g>
		<g>
			<path d="M80.29,83H40.98c-0.552,0-1-0.448-1-1s0.448-1,1-1h39.31c0.552,0,1,0.448,1,1S80.842,83,80.29,83z"/>
		</g>
	</g>
	<g>
		<g>
			<path d="M39,76.81c-0.552,0-1-0.448-1-1v-6.48c0-0.552,0.448-1,1-1s1,0.448,1,1v6.48C40,76.362,39.552,76.81,39,76.81z"/>
		</g>
	</g>
	<g>
		<g>
			<path d="M43,72.45c-0.552,0-1-0.448-1-1v-6.32c0-0.552,0.448-1,1-1s1,0.448,1,1v6.32C44,72.002,43.552,72.45,43,72.45z"/>
		</g>
	</g>
	<g>
		<g>
			<g>
				<path d="M85.799,90.65c-0.159,0-0.321-0.038-0.471-0.119c-6.774-3.627-6.261-7.812-5.943-9.009
					c0.59-2.218,2.592-3.711,4.9-3.656c1.238,0.036,5.396,0.736,6.945,8.262c0.111,0.541-0.237,1.07-0.778,1.181
					c-0.542,0.11-1.07-0.237-1.181-0.778c-0.845-4.108-2.73-6.6-5.043-6.666c-1.365-0.005-2.56,0.854-2.91,2.171
					c-0.595,2.235,1.257,4.752,4.955,6.732c0.487,0.26,0.67,0.867,0.409,1.354C86.501,90.458,86.156,90.65,85.799,90.65z"/>
			</g>
		</g>
		<g>
			<g>
				<path d="M86.466,107.423c-1.773,0-3.442-0.959-4.321-2.585c-0.588-1.088-2.061-5.035,3.67-10.135
					c0.413-0.367,1.045-0.33,1.412,0.083c0.367,0.413,0.33,1.044-0.083,1.412c-3.127,2.783-4.338,5.657-3.24,7.69
					c0.647,1.199,2.02,1.788,3.335,1.433c2.232-0.603,3.484-3.461,3.35-7.647c-0.018-0.552,0.416-1.014,0.967-1.032
					c0.576-0.03,1.014,0.416,1.032,0.967c0.246,7.672-3.633,9.32-4.828,9.643C87.33,107.367,86.895,107.423,86.466,107.423z"/>
			</g>
		</g>
		<g>
			<g>
				<path d="M97.86,106.077c-0.047,0-0.095-0.001-0.143-0.002c-1.236-0.035-5.389-0.733-6.938-8.243
					c-0.111-0.541,0.237-1.07,0.777-1.182c0.541-0.114,1.07,0.236,1.182,0.777c0.845,4.097,2.727,6.583,5.035,6.647
					c1.38,0.051,2.557-0.854,2.906-2.169c0.593-2.233-1.258-4.747-4.952-6.724c-0.487-0.261-0.67-0.867-0.41-1.354
					c0.261-0.487,0.867-0.669,1.354-0.41c6.77,3.623,6.259,7.806,5.941,9.001C102.036,104.59,100.094,106.077,97.86,106.077z"/>
			</g>
		</g>
		<g>
			<g>
				<path d="M100.755,95.975c-1.318,0-2.903-0.245-4.801-0.875c-0.524-0.174-0.808-0.74-0.634-1.265
					c0.174-0.524,0.739-0.807,1.265-0.634c3.973,1.319,7.069,0.934,8.282-1.033c0.716-1.162,0.541-2.646-0.426-3.61
					c-1.638-1.631-4.737-1.288-8.293,0.922c-0.159,0.098-0.341,0.15-0.528,0.15c-0.552,0-1.005-0.448-1.005-1
					c0-0.396,0.227-0.737,0.558-0.899c6.465-3.976,9.807-1.46,10.679-0.589c1.627,1.622,1.922,4.12,0.718,6.075
					C106.09,93.995,104.497,95.975,100.755,95.975z"/>
			</g>
		</g>
		<g>
			<g>
				<path d="M95.521,89.49c-0.276,0-0.55-0.113-0.748-0.335c-0.367-0.412-0.33-1.044,0.083-1.412c3.127-2.783,4.338-5.658,3.24-7.69
					c-0.648-1.199-2.019-1.788-3.336-1.433c-2.231,0.603-3.484,3.461-3.35,7.647c0.018,0.552-0.416,1.014-0.967,1.032
					c-0.577,0.015-1.014-0.416-1.032-0.967c-0.246-7.671,3.633-9.32,4.828-9.643c2.215-0.6,4.525,0.394,5.616,2.413
					c0.588,1.088,2.062,5.035-3.67,10.135C95.994,89.407,95.757,89.49,95.521,89.49z"/>
			</g>
		</g>
		<g>
			<g>
				<path d="M80.364,98.388c-2.344,0-3.706-1.078-4.218-1.588c-1.625-1.62-1.92-4.115-0.717-6.068
					c0.648-1.053,3.33-4.3,10.616-1.881c0.524,0.174,0.808,0.74,0.634,1.265c-0.174,0.524-0.737,0.809-1.265,0.634
					c-3.975-1.321-7.071-0.935-8.283,1.032c-0.714,1.16-0.539,2.641,0.426,3.603c1.637,1.632,4.738,1.286,8.294-0.923
					c0.159-0.098,0.341-0.15,0.528-0.15c0.552,0,1.005,0.448,1.005,1c0,0.396-0.227,0.737-0.558,0.899
					C84.155,97.854,82.016,98.388,80.364,98.388z"/>
			</g>
		</g>
		<g>
			<g>
				<path d="M90.975,98.676c-0.885,0-1.778-0.186-2.62-0.548c-1.051-0.452-1.973-1.167-2.667-2.068
					c-0.025-0.032-0.048-0.066-0.068-0.101c-0.002-0.002-0.005-0.006-0.008-0.009c-0.015-0.018-0.029-0.036-0.042-0.055
					c-1.37-1.896-1.655-4.317-0.764-6.477c0.01-0.025,0.052-0.13,0.064-0.154c0.01-0.019,0.022-0.041,0.036-0.064
					c0.207-0.461,0.473-0.909,0.771-1.298c0.335-0.439,0.962-0.524,1.402-0.187c0.439,0.335,0.522,0.963,0.187,1.402
					c-0.212,0.278-0.403,0.602-0.549,0.936c-0.015,0.033-0.031,0.065-0.049,0.096c-0.623,1.528-0.441,3.181,0.466,4.493
					c0.052,0.057,0.098,0.121,0.136,0.19c0.005,0.007,0.01,0.015,0.016,0.023c0.485,0.625,1.128,1.121,1.861,1.436
					c0.752,0.324,1.556,0.447,2.328,0.355c0.039-0.004,0.078-0.007,0.117-0.007c1.672-0.225,3.04-1.25,3.694-2.742
					c0.014-0.03,0.028-0.06,0.044-0.089c0.004-0.01,0.009-0.019,0.013-0.027c0.616-1.496,0.436-3.16-0.475-4.486
					c-0.052-0.057-0.097-0.119-0.134-0.188c-0.005-0.007-0.01-0.015-0.015-0.022c-0.485-0.625-1.129-1.122-1.862-1.438
					c-0.73-0.317-1.54-0.439-2.339-0.354c0,0,0,0,0,0c-0.047,0.013-0.096,0.022-0.145,0.028c-0.322,0.039-0.647,0.119-0.964,0.235
					c-0.517,0.192-1.093-0.073-1.284-0.592c-0.191-0.518,0.074-1.093,0.592-1.284c0.436-0.161,0.882-0.273,1.33-0.334
					c0.081-0.02,0.146-0.028,0.19-0.033c1.216-0.13,2.372,0.045,3.415,0.498c1.047,0.45,1.97,1.166,2.664,2.067
					c0.024,0.031,0.046,0.063,0.066,0.097c0.003,0.004,0.007,0.009,0.013,0.016c0.014,0.017,0.028,0.035,0.042,0.054
					c1.367,1.903,1.651,4.328,0.762,6.484c-0.003,0.008-0.011,0.027-0.021,0.048c-0.018,0.05-0.046,0.122-0.094,0.204
					c-0.95,2.091-2.882,3.523-5.185,3.838c-0.066,0.016-0.166,0.019-0.248,0.02C91.425,98.664,91.2,98.676,90.975,98.676z
					 M90.623,87.258c0,0-0.001,0-0.001,0C90.622,87.258,90.623,87.258,90.623,87.258z"/>
			</g>
		</g>
	</g>
	<g>
		<g>
			<g>
				<path d="M27.789,88.65c-0.16,0-0.321-0.038-0.472-0.119c-6.766-3.628-6.252-7.813-5.933-9.009
					c0.591-2.217,2.634-3.717,4.897-3.654c1.236,0.035,5.39,0.735,6.938,8.25c0.111,0.541-0.237,1.07-0.778,1.181
					c-0.542,0.11-1.069-0.236-1.181-0.778c-0.845-4.1-2.728-6.588-5.036-6.654c-1.342-0.032-2.557,0.854-2.908,2.17
					c-0.596,2.234,1.253,4.751,4.946,6.731c0.487,0.261,0.669,0.867,0.409,1.354C28.491,88.459,28.146,88.65,27.789,88.65z"/>
			</g>
		</g>
		<g>
			<g>
				<path d="M28.466,105.423c-1.773,0-3.442-0.959-4.321-2.585c-0.588-1.088-2.061-5.035,3.67-10.135
					c0.413-0.368,1.045-0.331,1.412,0.083c0.367,0.413,0.33,1.044-0.083,1.412c-3.127,2.783-4.338,5.657-3.24,7.69
					c0.648,1.199,2.02,1.788,3.335,1.433c2.232-0.603,3.484-3.461,3.35-7.647c-0.018-0.552,0.416-1.014,0.967-1.032
					c0.576-0.024,1.014,0.416,1.032,0.967c0.246,7.672-3.633,9.32-4.828,9.643C29.33,105.367,28.895,105.423,28.466,105.423z"/>
			</g>
		</g>
		<g>
			<g>
				<path d="M42.755,93.975c-1.318,0-2.903-0.245-4.801-0.875c-0.524-0.174-0.808-0.74-0.634-1.265
					c0.175-0.524,0.738-0.808,1.265-0.634c3.973,1.319,7.069,0.934,8.282-1.033c0.716-1.162,0.541-2.646-0.426-3.61
					c-1.638-1.631-4.737-1.288-8.293,0.922c-0.159,0.098-0.341,0.15-0.528,0.15c-0.552,0-1.005-0.448-1.005-1
					c0-0.396,0.227-0.737,0.558-0.899c6.465-3.977,9.807-1.459,10.679-0.589c1.627,1.622,1.922,4.12,0.718,6.075
					C48.09,91.995,46.497,93.975,42.755,93.975z"/>
			</g>
		</g>
		<g>
			<g>
				<path d="M37.521,87.49c-0.276,0-0.55-0.113-0.748-0.335c-0.367-0.412-0.33-1.044,0.083-1.412c3.127-2.783,4.338-5.658,3.24-7.69
					c-0.648-1.199-2.017-1.788-3.336-1.433c-2.231,0.603-3.484,3.461-3.35,7.647c0.018,0.552-0.416,1.014-0.967,1.032
					c-0.577,0.021-1.014-0.416-1.032-0.967c-0.246-7.671,3.633-9.32,4.828-9.643c2.215-0.6,4.525,0.394,5.616,2.413
					c0.588,1.088,2.062,5.035-3.67,10.135C37.994,87.407,37.757,87.49,37.521,87.49z"/>
			</g>
		</g>
		<g>
			<g>
				<path d="M39.86,104.077c-0.047,0-0.095-0.001-0.143-0.002c-1.236-0.035-5.389-0.733-6.938-8.243
					c-0.111-0.541,0.237-1.07,0.777-1.182c0.542-0.113,1.07,0.237,1.182,0.777c0.845,4.097,2.727,6.583,5.035,6.647
					c1.396,0.055,2.556-0.854,2.906-2.169c0.593-2.233-1.258-4.747-4.952-6.724c-0.487-0.261-0.67-0.867-0.41-1.354
					c0.261-0.487,0.867-0.67,1.354-0.41c6.77,3.623,6.259,7.806,5.941,9.001C44.036,102.59,42.094,104.077,39.86,104.077z"/>
			</g>
		</g>
		<g>
			<g>
				<path d="M22.364,96.388c-2.344,0-3.706-1.078-4.218-1.588c-1.625-1.62-1.92-4.115-0.717-6.068
					c0.648-1.053,3.329-4.299,10.616-1.881c0.524,0.174,0.808,0.74,0.634,1.265c-0.174,0.524-0.738,0.808-1.265,0.634
					c-3.974-1.321-7.072-0.935-8.283,1.032c-0.714,1.16-0.539,2.641,0.426,3.603c1.637,1.631,4.738,1.285,8.294-0.923
					c0.159-0.098,0.341-0.15,0.528-0.15c0.552,0,1.005,0.448,1.005,1c0,0.396-0.227,0.737-0.558,0.899
					C26.155,95.854,24.016,96.388,22.364,96.388z"/>
			</g>
		</g>
		<g>
			<g>
				<path d="M33.004,96.68c-0.9,0-1.8-0.184-2.651-0.552c-1.639-0.701-2.91-2.002-3.575-3.663c-0.667-1.666-0.644-3.491,0.063-5.139
					c0.243-0.566,0.561-1.091,0.946-1.56c0.351-0.427,0.982-0.489,1.407-0.14c0.427,0.35,0.49,0.98,0.14,1.407
					c-0.266,0.324-0.486,0.688-0.655,1.081c-0.497,1.157-0.512,2.438-0.044,3.607c0.466,1.164,1.357,2.077,2.508,2.569
					c1.155,0.499,2.431,0.517,3.598,0.053c1.168-0.466,2.085-1.359,2.58-2.516c1.021-2.381-0.085-5.152-2.467-6.179
					c-0.986-0.427-2.095-0.497-3.126-0.198c-0.532,0.153-1.085-0.152-1.238-0.683c-0.154-0.53,0.152-1.085,0.683-1.238
					c1.475-0.428,3.065-0.327,4.474,0.282c3.392,1.462,4.968,5.411,3.513,8.802c-0.705,1.649-2.011,2.923-3.678,3.587
					C34.68,96.521,33.841,96.68,33.004,96.68z"/>
			</g>
		</g>
	</g>
	<g>
		<g>
			<g>
				<path d="M106.292,61.982c-0.184,0-0.369-0.05-0.536-0.156c-0.466-0.296-0.604-0.915-0.307-1.38l1.4-2.202
					c0.296-0.467,0.914-0.604,1.38-0.307s0.604,0.915,0.307,1.38l-1.4,2.202C106.947,61.819,106.623,61.982,106.292,61.982z"/>
			</g>
		</g>
		<g>
			<g>
				<path d="M109.704,56.581c-0.184,0-0.369-0.05-0.536-0.156c-0.466-0.296-0.604-0.915-0.307-1.38l1.4-2.202
					c0.296-0.466,0.915-0.604,1.38-0.307c0.466,0.296,0.604,0.915,0.307,1.38l-1.4,2.202
					C110.358,56.417,110.034,56.581,109.704,56.581z"/>
			</g>
		</g>
		<g>
			<g>
				<path d="M107.104,57.172c-0.182,0-0.366-0.049-0.532-0.154l-2.213-1.393c-0.467-0.294-0.608-0.912-0.313-1.379
					c0.293-0.467,0.911-0.609,1.379-0.313l2.213,1.393c0.467,0.294,0.608,0.912,0.313,1.379
					C107.761,57.006,107.436,57.172,107.104,57.172z"/>
			</g>
		</g>
		<g>
			<g>
				<path d="M112.506,60.583c-0.182,0-0.366-0.049-0.532-0.154l-2.213-1.393c-0.467-0.294-0.608-0.911-0.313-1.379
					c0.294-0.468,0.911-0.609,1.379-0.313l2.213,1.393c0.467,0.294,0.608,0.911,0.313,1.379
					C113.163,60.417,112.838,60.583,112.506,60.583z"/>
			</g>
		</g>
	</g>
	<g>
		<g>
			<g>
				<path d="M20.125,28.979c-0.184,0-0.369-0.05-0.536-0.156c-0.466-0.296-0.604-0.915-0.307-1.38l1.4-2.202
					c0.296-0.466,0.914-0.604,1.38-0.307c0.466,0.296,0.604,0.915,0.307,1.38l-1.4,2.202C20.779,28.816,20.455,28.979,20.125,28.979
					z"/>
			</g>
		</g>
		<g>
			<g>
				<path d="M23.535,23.578c-0.184,0-0.369-0.05-0.536-0.156c-0.466-0.296-0.604-0.915-0.307-1.38l1.4-2.202
					c0.296-0.467,0.914-0.604,1.38-0.307c0.466,0.296,0.604,0.915,0.307,1.38l-1.4,2.202C24.189,23.414,23.866,23.578,23.535,23.578
					z"/>
			</g>
		</g>
		<g>
			<g>
				<path d="M20.936,24.169c-0.182,0-0.366-0.049-0.532-0.154l-2.214-1.393c-0.467-0.294-0.608-0.911-0.313-1.379
					c0.294-0.467,0.911-0.609,1.379-0.313l2.214,1.393c0.467,0.294,0.608,0.911,0.313,1.379
					C21.593,24.003,21.269,24.169,20.936,24.169z"/>
			</g>
		</g>
		<g>
			<g>
				<path d="M26.338,27.58c-0.182,0-0.366-0.049-0.532-0.154l-2.214-1.393c-0.467-0.294-0.608-0.911-0.313-1.379
					c0.294-0.467,0.911-0.609,1.379-0.313l2.214,1.393c0.467,0.294,0.608,0.911,0.313,1.379C26.995,27.414,26.67,27.58,26.338,27.58
					z"/>
			</g>
		</g>
	</g>
</g>
</svg>
