<?xml version="1.0" encoding="utf-8"?>
<!-- Generator: Adobe Illustrator 24.2.3, SVG Export Plug-In . SVG Version: 6.00 Build 0)  -->
<svg version="1.1" id="_x30_6" xmlns="http://www.w3.org/2000/svg" xmlns:xlink="http://www.w3.org/1999/xlink" x="0px" y="0px"
	 viewBox="0 0 128 128" style="enable-background:new 0 0 128 128;" xml:space="preserve">
<g>
	<g>
		<g>
			<g>
				<path d="M56.49,73.52c-0.073,0-0.147-0.008-0.221-0.024l-22.794-5.156c-0.349-0.079-0.628-0.338-0.734-0.679l-6.932-22.318
					c-0.106-0.341-0.022-0.713,0.221-0.975l15.863-17.162c0.242-0.262,0.605-0.375,0.955-0.297l22.794,5.156
					c0.349,0.079,0.628,0.338,0.734,0.679l6.932,22.318c0.106,0.341,0.022,0.713-0.221,0.975L57.224,73.198
					C57.033,73.405,56.765,73.52,56.49,73.52z M34.479,66.515l21.668,4.902l15.079-16.314l-6.589-21.215l-21.668-4.902L27.891,45.3
					L34.479,66.515z"/>
			</g>
		</g>
		<g>
			<g>
				<path d="M55.12,69.11c-0.073,0-0.147-0.008-0.221-0.025l-18.29-4.14c-0.349-0.079-0.628-0.337-0.734-0.679l-5.56-17.91
					c-0.106-0.341-0.022-0.713,0.221-0.975l12.73-13.77c0.242-0.262,0.605-0.375,0.955-0.296l4.77,1.08
					c0.539,0.122,0.876,0.657,0.754,1.196c-0.122,0.539-0.659,0.877-1.196,0.754l-4.207-0.952L32.396,46.315l5.218,16.808
					l17.164,3.885l11.946-12.922l-5.218-16.807l-4.377-0.993c-0.539-0.122-0.876-0.658-0.754-1.196
					c0.122-0.538,0.658-0.878,1.196-0.754l4.94,1.12c0.348,0.079,0.628,0.337,0.734,0.679l5.56,17.91
					c0.106,0.341,0.022,0.713-0.221,0.975l-12.73,13.77C55.663,68.996,55.396,69.11,55.12,69.11z"/>
			</g>
		</g>
		<g>
			<g>
				<path d="M41.77,43.07c-0.243,0-0.486-0.088-0.679-0.266c-0.405-0.375-0.43-1.007-0.055-1.413l3.94-4.26
					c0.374-0.407,1.007-0.43,1.413-0.055c0.405,0.375,0.43,1.007,0.055,1.413l-3.94,4.26C42.307,42.962,42.039,43.07,41.77,43.07z"
					/>
			</g>
		</g>
	</g>
	<g>
		<g>
			<path d="M36.899,48.34c-0.242,0-0.485-0.088-0.678-0.265c-0.406-0.375-0.431-1.007-0.057-1.413l2.52-2.73
				c0.375-0.406,1.007-0.431,1.413-0.057c0.406,0.375,0.431,1.007,0.057,1.413l-2.52,2.73C37.438,48.231,37.169,48.34,36.899,48.34z
				"/>
		</g>
	</g>
	<g>
		<g>
			<g>
				<path d="M47.559,113c-0.073,0-0.147-0.008-0.221-0.024l-22.794-5.156c-0.349-0.079-0.628-0.338-0.734-0.679l-6.932-22.318
					c-0.106-0.341-0.022-0.713,0.221-0.975l15.863-17.162c0.242-0.263,0.606-0.374,0.955-0.297l22.794,5.156
					c0.349,0.079,0.628,0.338,0.734,0.679l6.932,22.318c0.106,0.341,0.022,0.713-0.221,0.975l-15.863,17.162
					C48.102,112.886,47.834,113,47.559,113z M25.548,105.996l21.668,4.902l15.079-16.314l-6.589-21.215l-21.668-4.902L18.959,84.78
					L25.548,105.996z"/>
			</g>
		</g>
		<g>
			<g>
				<path d="M46.19,108.59c-0.073,0-0.147-0.008-0.221-0.025l-18.29-4.14c-0.349-0.079-0.628-0.337-0.734-0.679l-5.56-17.91
					c-0.106-0.341-0.022-0.713,0.221-0.975l12.73-13.77c0.242-0.263,0.604-0.375,0.955-0.297l4.91,1.11
					c0.539,0.122,0.876,0.657,0.755,1.196c-0.122,0.538-0.657,0.875-1.196,0.755l-4.347-0.983L23.466,85.795l5.218,16.808
					l17.164,3.885l11.946-12.922l-5.227-16.807l-4.867-1.103c-0.539-0.122-0.876-0.657-0.754-1.196s0.661-0.879,1.196-0.754
					l5.43,1.23c0.349,0.079,0.628,0.337,0.734,0.678l5.57,17.91c0.106,0.341,0.022,0.713-0.221,0.976l-12.73,13.77
					C46.733,108.476,46.465,108.59,46.19,108.59z"/>
			</g>
		</g>
		<g>
			<g>
				<path d="M32.58,82.83c-0.243,0-0.486-0.088-0.679-0.266c-0.405-0.375-0.43-1.007-0.055-1.413l4.2-4.54
					c0.375-0.406,1.008-0.431,1.413-0.055c0.405,0.375,0.43,1.007,0.055,1.413l-4.2,4.54C33.117,82.722,32.849,82.83,32.58,82.83z"
					/>
			</g>
		</g>
		<g>
			<g>
				<path d="M27.97,87.82c-0.243,0-0.487-0.088-0.679-0.266c-0.405-0.375-0.43-1.008-0.055-1.414l1.85-2
					c0.375-0.406,1.007-0.43,1.414-0.055c0.405,0.375,0.43,1.008,0.055,1.414l-1.85,2C28.507,87.712,28.239,87.82,27.97,87.82z"/>
			</g>
		</g>
	</g>
	<g>
		<g>
			<g>
				<path d="M86.215,100.995c-0.073,0-0.147-0.008-0.221-0.024l-22.794-5.157c-0.349-0.079-0.628-0.338-0.734-0.679l-6.932-22.318
					c-0.106-0.341-0.022-0.713,0.221-0.975l15.863-17.162c0.242-0.262,0.606-0.375,0.955-0.297l22.794,5.157
					c0.349,0.079,0.628,0.338,0.734,0.679l6.931,22.318c0.106,0.341,0.022,0.713-0.221,0.975L86.95,100.673
					C86.758,100.88,86.491,100.995,86.215,100.995z M64.205,93.99l21.668,4.902l15.078-16.314l-6.588-21.215L72.695,56.46
					L57.616,72.774L64.205,93.99z"/>
			</g>
		</g>
		<g>
			<g>
				<path d="M84.85,96.58c-0.073,0-0.147-0.008-0.22-0.024l-18.29-4.13c-0.349-0.079-0.628-0.337-0.735-0.679l-5.57-17.91
					c-0.106-0.341-0.022-0.713,0.221-0.976l12.73-13.77c0.243-0.263,0.605-0.375,0.955-0.297l5.23,1.18
					c0.539,0.122,0.877,0.657,0.755,1.196c-0.122,0.538-0.653,0.875-1.196,0.755l-4.667-1.053L62.117,73.795l5.227,16.807
					l17.164,3.875l11.937-12.922l-5.218-16.797l-4.787-1.083c-0.539-0.122-0.876-0.658-0.755-1.196
					c0.122-0.539,0.66-0.877,1.196-0.755l5.35,1.21c0.348,0.079,0.628,0.338,0.734,0.679l5.56,17.9
					c0.106,0.341,0.022,0.713-0.221,0.976l-12.72,13.77C85.393,96.466,85.126,96.58,84.85,96.58z"/>
			</g>
		</g>
		<g>
			<g>
				<path d="M71.49,70.55c-0.243,0-0.487-0.088-0.679-0.266c-0.405-0.375-0.43-1.007-0.055-1.413l3.95-4.27
					c0.374-0.406,1.007-0.43,1.413-0.055c0.405,0.375,0.43,1.007,0.055,1.413l-3.95,4.27C72.027,70.442,71.759,70.55,71.49,70.55z"
					/>
			</g>
		</g>
	</g>
	<g>
		<g>
			<path d="M66.63,75.81c-0.243,0-0.487-0.088-0.679-0.266c-0.405-0.375-0.43-1.008-0.055-1.413l2.22-2.4
				c0.375-0.406,1.007-0.43,1.413-0.055c0.405,0.375,0.43,1.008,0.055,1.413l-2.22,2.4C67.167,75.702,66.898,75.81,66.63,75.81z"/>
		</g>
	</g>
	<g>
		<g>
			<g>
				<path d="M95.137,61.434c-0.073,0-0.147-0.008-0.221-0.024l-22.794-5.157c-0.349-0.079-0.628-0.338-0.734-0.679l-6.931-22.318
					c-0.106-0.341-0.022-0.713,0.221-0.975L80.54,15.118c0.242-0.262,0.605-0.374,0.955-0.297l22.794,5.157
					c0.349,0.079,0.628,0.338,0.734,0.679l6.932,22.318c0.106,0.341,0.022,0.713-0.221,0.975L95.872,61.112
					C95.68,61.319,95.413,61.434,95.137,61.434z M73.127,54.429l21.668,4.902l15.079-16.314l-6.589-21.215l-21.668-4.902
					L66.539,33.213L73.127,54.429z"/>
			</g>
		</g>
		<g>
			<g>
				<path d="M93.77,57.02c-0.073,0-0.147-0.008-0.22-0.024l-18.29-4.13c-0.349-0.079-0.629-0.338-0.735-0.679l-5.56-17.91
					c-0.106-0.341-0.022-0.712,0.221-0.975l12.72-13.77c0.242-0.262,0.607-0.376,0.954-0.297l5.99,1.35
					c0.539,0.122,0.877,0.657,0.756,1.195c-0.122,0.539-0.658,0.877-1.195,0.756l-5.427-1.223L71.046,34.235l5.218,16.807
					l17.164,3.875l11.946-12.922l-5.227-16.807L95.4,24.116c-0.539-0.122-0.877-0.657-0.755-1.196
					c0.122-0.54,0.658-0.875,1.196-0.755l5.31,1.2c0.349,0.079,0.628,0.337,0.735,0.679l5.57,17.91
					c0.106,0.341,0.022,0.713-0.221,0.976l-12.73,13.77C94.313,56.906,94.045,57.02,93.77,57.02z"/>
			</g>
		</g>
		<g>
			<g>
				<path d="M80.27,31.14c-0.243,0-0.487-0.088-0.679-0.266c-0.405-0.375-0.43-1.008-0.055-1.413l4.09-4.42
					c0.375-0.406,1.007-0.43,1.413-0.055c0.405,0.375,0.43,1.008,0.055,1.413l-4.09,4.42C80.807,31.032,80.539,31.14,80.27,31.14z"
					/>
			</g>
		</g>
		<g>
			<g>
				<path d="M75.55,36.25c-0.244,0-0.487-0.088-0.68-0.267c-0.405-0.375-0.429-1.008-0.054-1.413l2.15-2.32
					c0.376-0.406,1.008-0.428,1.413-0.054c0.405,0.375,0.429,1.008,0.054,1.413l-2.15,2.32C76.086,36.143,75.818,36.25,75.55,36.25z
					"/>
			</g>
		</g>
	</g>
	<g>
		<g>
			<g>
				<path d="M109.401,76.572c-0.184,0-0.37-0.05-0.536-0.156c-0.466-0.296-0.604-0.915-0.307-1.38l1.401-2.202
					c0.296-0.467,0.916-0.604,1.38-0.307c0.466,0.296,0.604,0.915,0.307,1.38l-1.401,2.202
					C110.055,76.408,109.731,76.572,109.401,76.572z"/>
			</g>
		</g>
		<g>
			<g>
				<path d="M112.812,71.17c-0.184,0-0.369-0.05-0.536-0.156c-0.466-0.296-0.604-0.915-0.307-1.38l1.4-2.202
					c0.296-0.466,0.915-0.604,1.38-0.307c0.466,0.296,0.604,0.915,0.307,1.38l-1.4,2.202
					C113.466,71.006,113.143,71.17,112.812,71.17z"/>
			</g>
		</g>
		<g>
			<g>
				<path d="M110.213,71.761c-0.182,0-0.366-0.049-0.532-0.154l-2.214-1.393c-0.467-0.294-0.608-0.911-0.313-1.379
					c0.294-0.467,0.911-0.608,1.379-0.313l2.214,1.393c0.467,0.294,0.608,0.911,0.313,1.379
					C110.87,71.596,110.545,71.761,110.213,71.761z"/>
			</g>
		</g>
		<g>
			<g>
				<path d="M115.614,75.172c-0.182,0-0.366-0.049-0.532-0.154l-2.213-1.393c-0.467-0.294-0.608-0.912-0.313-1.379
					c0.293-0.468,0.911-0.609,1.379-0.313l2.213,1.393c0.467,0.294,0.608,0.912,0.313,1.379
					C116.271,75.006,115.946,75.172,115.614,75.172z"/>
			</g>
		</g>
	</g>
	<g>
		<g>
			<g>
				<path d="M22.592,27.274c-0.184,0-0.37-0.05-0.536-0.156c-0.466-0.296-0.604-0.915-0.307-1.38l1.401-2.202
					c0.296-0.466,0.916-0.604,1.38-0.307c0.466,0.296,0.604,0.915,0.307,1.38l-1.401,2.202
					C23.246,27.11,22.922,27.274,22.592,27.274z"/>
			</g>
		</g>
		<g>
			<g>
				<path d="M26.003,21.872c-0.184,0-0.369-0.05-0.536-0.156c-0.466-0.296-0.604-0.915-0.307-1.38l1.4-2.202
					c0.297-0.466,0.914-0.604,1.38-0.307s0.604,0.915,0.307,1.38l-1.4,2.202C26.657,21.708,26.333,21.872,26.003,21.872z"/>
			</g>
		</g>
		<g>
			<g>
				<path d="M23.404,22.463c-0.182,0-0.366-0.049-0.532-0.154l-2.214-1.393c-0.467-0.294-0.608-0.911-0.313-1.379
					c0.294-0.467,0.911-0.609,1.379-0.313l2.214,1.393c0.467,0.294,0.608,0.911,0.313,1.379
					C24.061,22.298,23.736,22.463,23.404,22.463z"/>
			</g>
		</g>
		<g>
			<g>
				<path d="M28.805,25.874c-0.182,0-0.366-0.049-0.532-0.154l-2.213-1.393c-0.467-0.294-0.608-0.911-0.313-1.379
					c0.294-0.466,0.911-0.608,1.379-0.313l2.213,1.393c0.467,0.294,0.608,0.911,0.313,1.379
					C29.462,25.708,29.138,25.874,28.805,25.874z"/>
			</g>
		</g>
	</g>
</g>
</svg>
